<svg xmlns="http://www.w3.org/2000/svg" viewBox="0 0 136.02 136.05"><defs><style>.cls-1{fill:#fff;}</style></defs><title>arryn</title><g id="Layer_2" data-name="Layer 2"><g id="Layer_2-2" data-name="Layer 2"><path class="cls-1" d="M41.69,28.8c0-.34.22-.76.25-1,.11-.64.23-1.7-.68-1.71-.07,0-.1-.08-.09-.13-.58.49-1.16,1-1.73,1.5a2.29,2.29,0,0,1,1.47,2.46C41.16,29.55,41.43,29.18,41.69,28.8Z"/><path class="cls-1" d="M12.23,73.43A51.69,51.69,0,0,0,13.16,80a11.56,11.56,0,0,0-.3-4.61C12.65,74.73,12.43,74.08,12.23,73.43Z"/><path class="cls-1" d="M27.51,29.31c-.91,1-1.79,2-2.63,3.07C26.13,31.83,26.82,30.56,27.51,29.31Z"/><path class="cls-1" d="M35.66,39.53c.34-.77.71-1.54,1.09-2.31a8.25,8.25,0,0,0,.41-2.31c0-1.33-1.36-3.67-2.86-2,0,0-.07,0-.08,0a49.2,49.2,0,0,0-5.09,7.06c1.27-1.54,3.26-2.94,4.43-.64.65,1.28.37,3.14.24,4.5l-.09.67c.35-1,.73-2,1.13-3,.59-2.4.41-7.79-2.46-6-.09.06-.16-.07-.08-.13C34.59,33.7,35.68,36.83,35.66,39.53Z"/><path class="cls-1" d="M44.28,25.27c.49-.63,1-1.24,1.52-1.85a1.16,1.16,0,0,0,0-1.09L43.7,23.91A1.5,1.5,0,0,1,44.28,25.27Z"/><path class="cls-1" d="M46.87,21.5l-.92.69a1,1,0,0,1,.33.66c.94-1.09,1.9-2.15,2.9-3.17C48.42,20.31,47.66,20.92,46.87,21.5Z"/><path class="cls-1" d="M21.66,56.77a2.94,2.94,0,0,1,0,.72,5.22,5.22,0,0,0,1.57-1.33.82.82,0,0,0-.23-.87.92.92,0,0,1-.22-.48,4.06,4.06,0,0,1,.24-1.57c0-.08.14-.05.13,0a4.2,4.2,0,0,0-.13,1.17c0,.38.24.51.43.72a43.62,43.62,0,0,1,11.11-24A71.55,71.55,0,0,1,45,21.67c3.47-2.58,6.82-5.89,10.7-7.92A59.33,59.33,0,0,0,48,15.56l-.48.13a48.25,48.25,0,0,0-8.7,4.23,3.13,3.13,0,0,0-.56,1,.09.09,0,0,1-.17-.05,3.5,3.5,0,0,1,.29-.72l-.87.57A2.82,2.82,0,0,0,37,22.43c0,.12-.18.12-.19,0a3.29,3.29,0,0,1,.2-1.36l-.53.36a2.85,2.85,0,0,0-.49.86,3.65,3.65,0,0,0,.17,2.28.09.09,0,0,1-.17.07,3.68,3.68,0,0,1-.42-2.14C34.37,24.36,35,26.29,33.88,28c-1.62,2.45-3.72,4.51-5.42,6.91C23.81,41.49,21,48.66,21.66,56.77Z"/><path class="cls-1" d="M40,31.33c.45-1.39,1-3-.7-3.75a55.77,55.77,0,0,0-4.13,4.15c-.28.3-.54.61-.8.92a1.82,1.82,0,0,1,2.84.8,4.22,4.22,0,0,1,.39,2c.22-.41.45-.82.68-1.23.32-1.48.91-4.87-1.11-4.23-.09,0-.16-.12-.07-.16,1.6-.72,2.11,1.17,2,2.89C39.44,32.26,39.74,31.8,40,31.33Z"/><path class="cls-1" d="M43.47,26.33c.35-.68.62-1.63-.06-2.19-.73.58-1.45,1.17-2.17,1.77.83-.11,1.24.48,1.23,1.27,0,.11,0,.31,0,.53C42.77,27.25,43.12,26.79,43.47,26.33Z"/><path class="cls-1" d="M58.35,106.69l-.82-.44a.12.12,0,0,1-.05.1Z"/><path class="cls-1" d="M68.17,116.26a27.19,27.19,0,0,1,9.75-2.12,31.47,31.47,0,0,0,3.46-.36c-4.8,0-9.78-1.36-14.44.37-1.84.69-3.3,1.31-4.79,1.72a.11.11,0,0,1-.06.1,5.68,5.68,0,0,1-4.87.43h0c-1,0-2.08.24-3.07.15a15.36,15.36,0,0,1-1.78.19,47.88,47.88,0,0,0,8.36,1.34,21.4,21.4,0,0,0,3-.39C65.26,117.39,66.66,116.67,68.17,116.26Z"/><path class="cls-1" d="M70.53,117.59c-.43.25-.81.47-1.2.66a123,123,0,0,0,13.06-3c-1.67.3-3.36.52-5.06.8C75.18,116.4,72.44,116.48,70.53,117.59Z"/><path class="cls-1" d="M14,76.92a14.59,14.59,0,0,1-.38,5.18c.1.41.21.82.32,1.22a9.23,9.23,0,0,0,.6-3.56.12.12,0,0,1,.23,0,10.38,10.38,0,0,1-.61,4.33c.14.45.29.91.44,1.36a5.15,5.15,0,0,0,.6-2.41c0-.1.15-.1.16,0a6.25,6.25,0,0,1-.57,3c.2.55.41,1.09.63,1.63.12-.78.76-1.59,1.6-1.36s.72,1.13.23,1.65a.12.12,0,0,1-.16,0c-.2-.14-.16-.11-.26-.32a.09.09,0,0,1,0-.11l-.47-.46-.32.77a2,2,0,0,0,.6,1.3,2.23,2.23,0,0,0,2.53.21,5.42,5.42,0,0,1,2.8-.84.09.09,0,0,1,0,.17c-1.62,0-2.71,1.54-4.32,1.63a1.8,1.8,0,0,1-1.33-.53c.17.36.34.71.52,1.06,1.49,1.11,3.24.4,4.84-.55a5.73,5.73,0,0,1,4.51-.4c2.95,1,2.83,5.16,1,7-1.59,1.63-4.28,1.71-4.84-.46a1.9,1.9,0,0,1-.3-1.65c.29-.82.89-1.62,1.85-1.53.53,0,1.2.57,1.05,1.17a3.87,3.87,0,0,1-.48.9c1.36,3.53,3.44-1,2.91-2.6a3.24,3.24,0,0,0-4.13-2.12C22,91,20.37,92.38,19,92.29a3.75,3.75,0,0,1-1.69-.54c.24.45.5.9.76,1.34a1,1,0,0,1,.38-.37.12.12,0,0,1,.12.2.57.57,0,0,0-.31.48c.22.38.45.75.69,1.12a2.35,2.35,0,0,1,1.22-1.75.06.06,0,0,1,.06.1A2.27,2.27,0,0,0,19.35,95c.32.47.65.94,1,1.4a4.85,4.85,0,0,1,1.76-4.13.11.11,0,1,1,.15.15,4,4,0,0,0-1.51,3.29,10.07,10.07,0,0,0,.43,1.72c.66.81,1.35,1.6,2.09,2.36.42.42.85.82,1.28,1.23-.32-.47-.71-.88-1-1.37-.08-.12.11-.22.19-.11.39.53.95.91,1.31,1.47.13.21.25.42.37.63a4.8,4.8,0,0,1,.81-2.62.07.07,0,0,1,.12.07,4,4,0,0,0-.2,3.39,65.86,65.86,0,0,0,16.82,11,.15.15,0,0,1,.15-.13.16.16,0,0,1,.13.26l.83.36a.2.2,0,0,1,.21.08,55.66,55.66,0,0,0,6.31,2.23,14.73,14.73,0,0,0,2.1,0A8.84,8.84,0,0,0,50,115.7c-.09,0-.08-.12,0-.13,1.34-.15,2.44.53,3.75.54A9.14,9.14,0,0,0,54.9,116l.78-.1a12.37,12.37,0,0,1-3.07-1,7.21,7.21,0,0,0-4.39-.59,2.05,2.05,0,0,1-1.07-.11c-.09,0,0-.17.05-.15,1,.22,2.19-.27,3.25-.22a5.78,5.78,0,0,1,1.78.42,28.55,28.55,0,0,0,3.17,1c-.42-.32-.84-.68-1.28-1.09C51,111.37,47,114.15,44,111.75c-.09-.07,0-.22.12-.16,2.56,1.78,5.73-.45,8.39.83a9.22,9.22,0,0,1,2.61,2A5.87,5.87,0,0,0,58,116.05c4.3-.14,7.55-2.68,11.8-3.19a26.11,26.11,0,0,1,4.33-.11A54.55,54.55,0,0,1,65,110.07c-3.67-.88-6.94-.73-10.89-.73-3.32,0-6.09-.37-8.93-2.16-.11-.07,0-.24.1-.17,4.77,2.84,9.09,1.26,14.17,1.34.64,0,1.21.05,1.74.1l-1.37-.67a20.7,20.7,0,0,0-5.05-1.58,16.71,16.71,0,0,1-5.19-1.44,13.65,13.65,0,0,1-6.66-7.18.18.18,0,0,1-.1-.06c-.62-.9.14-1.91-.33-2.81,0,0,0,0,0,0a.16.16,0,0,1-.17-.06c-1.84-2.56-4.78-5.81-8.12-5.94-1.94-.09-2.71-.56-2.8-2.55a.12.12,0,0,1-.06-.1,3.09,3.09,0,0,0-.43-1.66,4.72,4.72,0,0,0-1.09.89.1.1,0,0,1,0,.1.56.56,0,0,0-.09.17l-.11.3a1.34,1.34,0,0,1-.19.44l-.07,0a2.11,2.11,0,0,1-.36.43,1.21,1.21,0,0,1-1.7-.1,1.7,1.7,0,0,1-.44-1.54.8.8,0,0,1,1.07-.52.12.12,0,0,1,0,.23c-.42,0-.66.22-.6.65a1.18,1.18,0,0,0,.54.87.47.47,0,0,0,.53-.06.11.11,0,0,1,0-.08,4,4,0,0,0,.33-.42c.1-.22.2-.43.31-.64s.16-.48.21-.61a.42.42,0,0,1,.09-.14,1.5,1.5,0,0,0,.09-.32c.09-.71.34-1.44-.11-2.06,0-.06.05-.12.09-.07a2.6,2.6,0,0,1,.5,1.88c0,.2,0,.4-.05.59a.28.28,0,0,1,.06.21.07.07,0,0,1,0,0,1.44,1.44,0,0,1,.8-.65.46.46,0,0,1,.07-.07.12.12,0,0,1,.18,0L31,84a.17.17,0,0,1,.1.13,2.25,2.25,0,0,1,.5,1.92s0,0,0,.06c.18,2.5,1.78,2,3.56,2.35a6.09,6.09,0,0,1,2.55,1.08,21.47,21.47,0,0,1,5,4.89.13.13,0,0,1,0,.19.81.81,0,0,1,.36.62s0,0,0,0a.05.05,0,0,1,0,.1,0,0,0,0,1,0,0,1.77,1.77,0,0,1,0,.23,3,3,0,0,0,.15,1.81s0,0,0,0a13.81,13.81,0,0,0,10.73,8,18,18,0,0,1,3.42.85c-1.9-1.29-3.75-2.64-5.52-4.06s-3.26-2.67-4.79-4.12a.08.08,0,0,1,0-.07c-10.15-9.6-17-21.78-16.43-36.77.05-1.24.15-2.48.28-3.72a.21.21,0,0,1-.06-.15,8.35,8.35,0,0,1,.17-1.66s-.05,0-.06,0c-.38-1.38,1.84-12.68-1.58-11.09a.08.08,0,0,1-.07-.14c2.07-1.09,2.75,3,2.67,6.63.13-.56.28-1.11.42-1.67,0,0,0,0,0,0a53.86,53.86,0,0,0,1.05-7.48c0-1,.09-4.27-2.12-3.39a5.8,5.8,0,0,0-2.78,2.81.07.07,0,0,1-.05,0,42.69,42.69,0,0,0-4.64,14.12.87.87,0,0,1-.33,1.1.13.13,0,0,1-.12,0c-.64.77-1.75,1.29-1.93,2.24s1,.94,1.39,1.58a5,5,0,0,1,.53,1.69c1.11,1.5,3.48,2.7,3.29,4.63a11.59,11.59,0,0,1-3.2,6.5c-1.69,2-3.89,4-4.5,6.64-1,4.1,1.32,3.1,4.06,2.12,2.09-.74,4.4-1.74,6.37-.31.12.08,0,.28-.12.2-3.35-1.86-7.48,1.82-10.94,1.69a.3.3,0,0,1-.29-.29c-.06-4.53,2.27-7.13,5.08-10.4,2.47-2.87,4.52-6.08,1.2-9.14a4.92,4.92,0,0,1-1.57-2.44.05.05,0,0,1,0-.08,1.27,1.27,0,0,0-.52-.65c-.33-.18-.68-.32-1-.51a1.21,1.21,0,0,1-.47-1.2,1.88,1.88,0,0,1,.41-.78,14.3,14.3,0,0,0,.27-1.68C20.68,49,23,42.09,27.14,36c2-3,6.93-7.58,6.19-11.26a1.44,1.44,0,0,1,.12-.81,12.64,12.64,0,0,0-2.31,3.31,19,19,0,0,1-2.06,3.62s-.1,0-.07-.05c1-1.45,1.55-3.57,2.47-5.33l-.54.48a16.15,16.15,0,0,0-2.12,3.51c-.73,1.59-1.47,2.91-3.12,3.66-.06,0-.11-.06-.05-.09,2.25-1.32,3-3.87,4.25-6.1a10.77,10.77,0,0,0-2,2.5c-.87,1.57-1.34,2.7-3.18,3.13h0l-.54.69a8.18,8.18,0,0,1,1-.17.07.07,0,1,1,0,.13,6,6,0,0,0-1.56.73l0,0-.56.79a2.44,2.44,0,0,1,.7-.2c.17,0,.25.22.07.27a3.46,3.46,0,0,0-1.95,1.64h0l0,0a2.94,2.94,0,0,1,1.62-.34c.1,0,.15.17,0,.2A4.31,4.31,0,0,0,21,37.89,2.25,2.25,0,0,1,23,37.67c.09,0,.09.2,0,.18a3.13,3.13,0,0,0-2.56,1.08l-.51.87a2.67,2.67,0,0,1,2.38-.15c.14.06,0,.27-.1.23-1.6-.39-2.66.68-3.37,1.92l-.12.23a5,5,0,0,1,1.05-.72c1.07-.52,2-.24,2.14,1,0,.1-.13.1-.16,0-.75-1.8-2.37,0-3.47,1.18a1.52,1.52,0,0,1,1.79.31c.9.93.81,2.51.53,3.69,0,.13-.23.07-.21-.06A3.8,3.8,0,0,0,20,44.56c-.69-1-1.94-.5-2.69.22a57.71,57.71,0,0,0-2.4,6.16,3.36,3.36,0,0,1,.6-.59c.49-.39,1-.65,1.23-1.28a.09.09,0,0,1,.18,0c-.22.76-.87,1.09-1.35,1.67a7.48,7.48,0,0,0-1.42,2.65l-.06.22s0,0,0,0a12.87,12.87,0,0,1,1.78-2A14.22,14.22,0,0,0,17.63,50c1-.75,1.1-1.48.28-2.2-.16.7-.82.9-1.39.32-.94-1,.84-2.32,1.68-2.32,1.72,0,1.42,2.3.85,3.3-1.45,2.53-4,4.11-5.41,6.36a57.27,57.27,0,0,0-1.48,9.65c0,.17,0,.35,0,.52a12.12,12.12,0,0,0,1.12,4.47,7.25,7.25,0,0,1,1.08,3.24c0,.11-.15.1-.16,0-.11-1.79-1.4-3.26-2.12-4.84a.06.06,0,0,0,0,0c0,1.09,0,2.17.06,3.26A27.61,27.61,0,0,1,14,76.92Zm29.33,29,.22.1c.09,0,0,.17,0,.14a.62.62,0,0,1-.28-.14C43.18,106,43.28,105.9,43.35,106Zm-9.92.44a.27.27,0,0,1,0-.53,11.24,11.24,0,0,0,2.65-.26,7,7,0,0,0,2.11-1.29.22.22,0,0,1,.32.25C37.92,106.85,35.19,106.48,33.43,106.4Zm5-3.92a.16.16,0,0,1,0,.31A.16.16,0,0,1,38.43,102.48ZM35.92,108a.26.26,0,0,1,.13-.48,2.75,2.75,0,0,0,1.66-.36,7.69,7.69,0,0,1,1.16-.83.21.21,0,0,1,.26.2c-.05.68-.78,1.18-1.34,1.46A2,2,0,0,1,35.92,108Zm3,1.25a.64.64,0,0,1-.29-.13.23.23,0,0,1-.05-.07.13.13,0,0,1,0,0c-.08,0-.16-.06-.1-.13s.06-.07.09-.2a.36.36,0,0,1,.6-.16l.09.11C39.44,108.92,39.24,109.34,38.92,109.23Zm.59,1.29,0-.08a.28.28,0,0,1,.28-.36h.08C40.64,110.15,39.8,111.27,39.51,110.52Zm1.33,1.36a.29.29,0,0,1,0-.58A.29.29,0,0,1,40.84,111.88ZM42.12,113a.58.58,0,0,1-.21-.1c-.19-.12-.07-.45.15-.37a.65.65,0,0,1,.22.11C42.46,112.71,42.35,113,42.12,113Zm-7.94-20.1c1.75.4,5.33,1,5.39,3.51,0,.86-.39,2.84-.12,3.48A8.43,8.43,0,0,0,41.22,102c.84,1,.58,2.4,1.39,3.46,0,.06-.06.13-.1.07-.75-.8-.63-1.3-1-2.28-.46-1.29-1.72-1.69-2.17-2.83a4.57,4.57,0,0,1-.11-2.69c.58-3.66-2.74-4.23-5.07-4.83C34.13,92.91,34.14,92.84,34.18,92.85ZM33,100.41c.86.81,2.13.27,2.82-.51.88-1,1-2.84-.33-3.53-1.08-.55-3.47-.69-3.62-2.24,0-.1.15-.1.17,0,.13,1.09,1.45,1.12,2.3,1.23a4.55,4.55,0,0,1,2.14.72c1.48,1.08,1.11,3.64-.18,4.71a3.39,3.39,0,0,1-3.08.91,2.18,2.18,0,0,1-1.5-2.18c0-1.73,2.77-2.88,3.09-.74,0,.33-.35.68-.62.37s-.69-.83-1.12-.34A1.14,1.14,0,0,0,33,100.41Zm1.28,3.08c1.47.05,2.26-.67,3.19-1.72.08-.09.29,0,.27.11a2.9,2.9,0,0,1-2.84,2.61c-1.67.05-3-.74-4.46-1.46,0,0,0,0,0,0A38.06,38.06,0,0,0,34.25,103.49ZM29.67,92.23c-.05-.12.12-.23.18-.11a5.1,5.1,0,0,1,.33,4.08c-.32.92-3.21,6.19-.13,5.66.14,0,.28.15.15.26-1.15,1-2.5,0-2.64-1.32A5.75,5.75,0,0,1,28.64,98C29.81,96.1,30.69,94.54,29.67,92.23Zm.27,8a.7.7,0,0,1-.33-.83c.05-.2.33-.11.3.08a.64.64,0,0,0,.2.52A.15.15,0,0,1,29.94,100.22Zm-.18,1c-.68,0-.73-.62-.61-1.15,0-.12.23-.09.22,0,0,.44.11.58.49.75C30,100.92,29.94,101.21,29.76,101.21Zm.09-2.45c0-.11,0-.22,0-.33a.14.14,0,0,1,.28,0c0,.11,0,.22,0,.33S29.82,99,29.85,98.76ZM34.47,85.6c.73.47,1.54.83,2.26,1.32.11.07,0,.26-.11.18-.74-.46-1.51-.87-2.24-1.35C34.29,85.69,34.37,85.54,34.47,85.6Zm-.56-1.11a5.69,5.69,0,0,0,.26.56c0,.1-.11.19-.15.09a4.6,4.6,0,0,1-.25-.61C33.74,84.44,33.88,84.4,33.91,84.49ZM33,82.72a.38.38,0,0,1,.22.67c.08.17.15.34.23.52s-.05.08-.07,0l-.21-.53a.33.33,0,0,1-.17,0A.37.37,0,0,1,33,82.72Zm-1-1.39c0,.17.11.34.13.52s.18.33.48.37.16.26,0,.25a1.5,1.5,0,0,1-.64-.2.11.11,0,0,1-.05-.12,2.2,2.2,0,0,0,0-.81A.06.06,0,0,1,32,81.33Zm-.72-1.82a6.49,6.49,0,0,0-.21,1.7,2.21,2.21,0,0,0,.63.05.08.08,0,0,1,0,.16,1.52,1.52,0,0,1-.7-.12,0,0,0,0,1,0-.06c-.28-.55.1-1.21.3-1.73ZM28.51,62.63a6.77,6.77,0,0,0,.38,1.73.09.09,0,0,1-.17.07,3.28,3.28,0,0,1-.38-1.8C28.34,62.53,28.51,62.53,28.51,62.63Zm-.65-.36a.13.13,0,0,1,.13.23,1.28,1.28,0,0,1-.69.26.13.13,0,0,1-.12-.16c.16-.87,1.18-1.73.45-2.55a.06.06,0,1,1,.09-.08c.77.81,0,1.6-.25,2.47Zm-1.37-2c-1.76-.93-.8-2,.06-3.31,1.4-2.12-.48-3.28-.41-5.26A18.12,18.12,0,0,1,27.7,46c0-.13.25-.07.2.06-.73,2.13-2.09,4.75-1.16,7a6.9,6.9,0,0,1,.71,2.58c.05,1.68-2.8,2.82-.82,4.42C26.74,60.14,26.6,60.29,26.49,60.24Zm-3,18.92a.25.25,0,0,1-.3-.3,12,12,0,0,1,3.24-4.37c2.35-2.35,3.8-5.95,2.18-9.11,0-.08.08-.16.13-.07,1.7,3.18.36,7-2,9.46a21.57,21.57,0,0,0-1.6,1.71,2,2,0,0,0-.92,2,9.15,9.15,0,0,1,3.4-.84c1.33,0,2.56-.16,3.51.89.1.11,0,.3-.16.21C28.81,77.12,25.7,78.53,23.49,79.16Zm1.85,9.46a.49.49,0,0,1,.17,0,.14.14,0,0,1,0,.27.33.33,0,0,1-.17,0A.14.14,0,0,1,25.34,88.62Zm-1-.12.11-.06a.18.18,0,1,1,.14.33l-.13.07a.12.12,0,0,1-.21-.08v-.12A.18.18,0,0,1,24.31,88.5Zm-.8-3.33a.26.26,0,0,1,0,.51A.26.26,0,0,1,23.51,85.17Zm-.35,3.26a.43.43,0,0,1,.27-.06.14.14,0,0,1,.12.21.35.35,0,0,1-.2.18C23.14,88.86,23,88.54,23.16,88.43ZM21.8,84.78c.31.17.54.26.62.66a.85.85,0,0,1-.11.79.19.19,0,0,1-.3,0c-.17-.39.06-1-.31-1.29C21.63,84.84,21.72,84.73,21.8,84.78Zm-1.86,0c1.14.07,1.3,1.8.95,2.61-.11.24-.45.1-.46-.12,0-.6.24-1.91-.53-2.18C19.74,85,19.75,84.76,19.94,84.77Zm-.86,3.56c-.15.2-.47,0-.34-.26.72-1.21.54-3-1.15-3.09-.05,0-.07-.09,0-.1C19.59,84.53,20.11,87,19.08,88.33Zm-.47-25c-.41,1.12,1.57,1.11,2.11,1.69s.52,2.5.43,3.2c-.18,1.31-1.21,1.88-1.94,3-2.07,3.26-3.22,6.62-2.57,10.51,0,.18-.23.25-.26.08v0a.18.18,0,0,1-.19.19.21.21,0,0,1,0-.42.18.18,0,0,1,.18.16,12.46,12.46,0,0,1,.92-7.77c.83-1.75,7.11-10.09.93-9.22a.14.14,0,0,1-.16-.16,3.42,3.42,0,0,1,.36-1.33C18.46,63.12,18.65,63.16,18.61,63.29ZM17.43,52.57c0-.1.19-.06.16,0-.87,2.85-3.42,7,.78,8.39.11,0,.06.22-.05.18C13.93,60,16.52,55.47,17.43,52.57Zm-3.2,13.86c-.08-1.34,1-3.33-.11-4.45a.08.08,0,0,1,.11-.11c1.33,1.24.07,2.36.18,3.93,0,.52.91.79,1.15,1.33.92,2.16-.55,5.08-.5,7.3,0,.06-.09.06-.1,0-.07-1.49,1.59-7.9-.62-7.89A.11.11,0,0,1,14.23,66.43Z"/><path class="cls-1" d="M69,116.25a.13.13,0,0,1-.07.06c-1.27.47-2.27,1.39-3.6,1.77-.76.22-1.54.4-2.32.56l2.71,0c.86,0,1.7-.08,2.54-.16a21.7,21.7,0,0,1,3.35-1.65,47.19,47.19,0,0,1,5.65-1.17,64.22,64.22,0,0,0,9.5-1.93c-2.44.25-4.83.83-7.29.9A34.54,34.54,0,0,0,69,116.25Z"/><path class="cls-1" d="M133,48.06A67.76,67.76,0,0,0,111.66,15.8c-.6-.52-1.21-1-1.84-1.49s-1.24-1-1.88-1.43c-1.29-.87-2.55-1.8-3.88-2.58A67.24,67.24,0,0,0,96,6c-1.4-.59-2.76-1.21-4.2-1.7-.7-.26-1.42-.54-2.11-.77l-2.06-.64c-1.44-.47-2.85-.76-4.26-1.14S80.51,1.11,79.09.9A68.25,68.25,0,0,0,47.42,3.2,69,69,0,0,0,24.09,16.09,66.34,66.34,0,0,0,16.22,24a62.16,62.16,0,0,0-5.6,7.59,64.21,64.21,0,0,0-6,11.77c-.59,1.41-.91,2.54-1.17,3.28s-.38,1.13-.38,1.13l.38-1.13c.27-.74.6-1.86,1.19-3.27A64,64,0,0,1,24.45,16.53,64.42,64.42,0,0,1,47.85,4.64,66,66,0,0,1,62.66,2.42a64.83,64.83,0,0,1,15.85,1.5c1.34.28,2.66.67,4,1s2.67.79,3.94,1.29l2,.75c.67.26,1.28.55,1.93.82,1.28.52,2.54,1.18,3.82,1.8a62.42,62.42,0,0,1,7.36,4.46c1.21.79,2.33,1.72,3.49,2.6s2.27,1.84,3.32,2.87a63.79,63.79,0,0,1,11.26,13.74,70.8,70.8,0,0,1,4.19,8,67.72,67.72,0,0,1,3,8.58A66.09,66.09,0,0,1,129.18,68a70.67,70.67,0,0,1-.82,9.18,67.84,67.84,0,0,1-2.12,9c-.48,1.34-1,3.12-1.56,4.4s-1.17,2.79-1.81,4.2a68,68,0,0,1-4.57,8,63.9,63.9,0,0,1-19.6,18.94,69.3,69.3,0,0,1-8,4.2,63.81,63.81,0,0,1-17.07,4.89,64.69,64.69,0,0,1-17.3.1c-1.41-.22-2.82-.39-4.19-.7-.69-.14-1.39-.26-2.07-.43l-2-.52-1-.25-1-.31-2-.63c-1.29-.48-2.57-.9-3.82-1.44a64.9,64.9,0,0,1-13.9-7.77A66.87,66.87,0,0,1,15.38,108.6,64.78,64.78,0,0,1,2.9,85.51,63.37,63.37,0,0,1,.19,65.3,61.65,61.65,0,0,1,1.9,52.24c.31-1.5.68-2.61.88-3.37s.33-1.15.33-1.15-.12.39-.34,1.15-.58,1.87-.89,3.36A67.72,67.72,0,0,0,.35,74.73a67.28,67.28,0,0,0,2,10.94A69.17,69.17,0,0,0,14.2,109.56a68.24,68.24,0,0,0,24.73,19.92c1.29.63,2.66,1.17,4,1.75l2,.74,1,.37,1.09.35,2.12.66c.71.22,1.43.38,2.15.58,1.44.4,2.92.67,4.4,1A68.61,68.61,0,0,0,64.81,136c1.55.11,3.11.07,4.67.08l2.36-.11c.79,0,1.57-.09,2.36-.18a67.52,67.52,0,0,0,35.93-14.37A68,68,0,0,0,133,48.06Z"/><path class="cls-1" d="M47.58,81.42a0,0,0,0,1,0,0h0Z"/><path class="cls-1" d="M47.21,71.34l-.05,0c-.14.25-.27.49-.39.75a4.1,4.1,0,0,0-.42,1.51A1.87,1.87,0,0,0,47.21,71.34Z"/><path class="cls-1" d="M47.87,72a3.23,3.23,0,0,0-.07-1.42l-.31.39a2.06,2.06,0,0,1-1.14,2.69s0,.08,0,.12A2.46,2.46,0,0,0,47.87,72Z"/><path class="cls-1" d="M67.61,98.2l-1-.44-.73-.23C66.41,97.76,67,98,67.61,98.2Z"/><path class="cls-1" d="M100.69,100.35l.45-.06s0,0,0-.06Z"/><path class="cls-1" d="M109.17,56.45a18.12,18.12,0,0,0,2.9-.83c-.29.06-.58.11-.86.14Q110.21,56.12,109.17,56.45Z"/><path class="cls-1" d="M104.13,99.77a12.72,12.72,0,0,0-2.31.43A22.37,22.37,0,0,0,104.13,99.77Z"/><path class="cls-1" d="M48.21,70.49a6.23,6.23,0,0,0,.15-.62c-.07.11-.15.21-.22.31A2.82,2.82,0,0,0,48.21,70.49Z"/><path class="cls-1" d="M44.81,69.74h0l-.08.14S44.78,69.79,44.81,69.74Z"/><path class="cls-1" d="M62.92,76.13l.06,0,0,0Z"/><path class="cls-1" d="M48.88,38.29c-2,3.28-6,10,0,11.78,1.52.43,3.49.63,4.82,1.54,2.52,1.72,3.72,3.88,3.56,6.59a10.32,10.32,0,0,0,.62-3.91h0A9.65,9.65,0,0,1,58,56.81a.09.09,0,0,1,0,.07,6.12,6.12,0,0,1-.77,2.59,6,6,0,0,0,.86-.95A4.88,4.88,0,0,0,59,55.63s.07,0,.07,0A6.48,6.48,0,0,1,58,59.24a6.64,6.64,0,0,0,2.48-3.5c0-.1.16-.06.14,0C60,59,57.14,60.9,54.2,62.4h0a8.31,8.31,0,0,1-.85.51l-.41.23a.17.17,0,0,1-.07.13c-1,.77-2.49,1.38-3,2.64a24.42,24.42,0,0,0-.7,2.5,4.29,4.29,0,0,1-.4.88,2.94,2.94,0,0,1-.39,1.76,2.19,2.19,0,0,1-.2,1.54A2.41,2.41,0,0,1,46.36,74a2.22,2.22,0,0,0,.35.93,1.49,1.49,0,0,1,0,1.5c0,.33-.1.66-.16,1a5.32,5.32,0,0,0,.66,3.41l.06,0a3.41,3.41,0,0,1,0-.55,1.81,1.81,0,0,1,.14-.8A3,3,0,0,1,48,78.43c.06-.12.11-.23.18-.35a3.57,3.57,0,0,0,.33-1.9,3.81,3.81,0,0,1,.94-2.26s0,0,0,0A3.91,3.91,0,0,0,49,76.41v0c.24-1.58.56-3,2.8-2.47,3.83.93,2.17-2.57,4.23-3.17.78-.22.51-.24,1.18-.06,2.07.56,3.52.63,4.8-1.27a.09.09,0,0,1,.16.1,3.6,3.6,0,0,1-2.66,2,2.2,2.2,0,0,1-1.27-.07c-1.67-.74-2.57.11-3.35,1.33A2.72,2.72,0,0,1,52.2,74.4c-2.64-.19-2.82,1-3.11,2.5a1.35,1.35,0,0,1,0,.56s0,.08,0,.12a18.62,18.62,0,0,1,5.33-1.41c2.12-.39,7-2.51,8.9-.54a2.38,2.38,0,0,0-.77-.82,6.75,6.75,0,0,0-2.65-.68c-.08,0,0-.13,0-.12,1.08.15,2.13-.05,3.07.6,0,0,0,0,0,0a3.17,3.17,0,0,0-1.6-1.31c-.08,0-.05-.15,0-.13a4.27,4.27,0,0,1,3,3.37c.1.2.2.4.28.61a6.84,6.84,0,0,1,.54,3.19,13,13,0,0,1-1,4.24A9.74,9.74,0,0,1,63,87.66c-.61.9-3,3.42-2.91,5a6.22,6.22,0,0,0,3,2.9c7,3.49,14.29,4.91,22.37,5.25,7.37.31,14.06-1.48,21.24-2.36-2.51-1.46-7.59.37-9.82.87a23.94,23.94,0,0,1-5.17.84c-.74,0-2.36.13-2.9-.49-.75-.84-1.41-1.9-2.64-2a.07.07,0,0,1,0-.15c1.14,0,1.78-.14,2.33.84,1.4,2.48,5.39,1.21,7.49.74,2.48-.56,7.73-2.54,10.63-1.19-2.57-1.61-10.08-1-12.12-.89-3.6.11-6.9.89-10.15-1,0,0,0,0,0,0a2.36,2.36,0,0,0-1.41-.22,1.22,1.22,0,0,1-.68-.07c-.08,0-.06-.15,0-.14.94.08,1.3-.5,2.25-.09h0a47.65,47.65,0,0,0,8.91-.75c1.51-.21,3.56,0,5-.72a7.69,7.69,0,0,0-3.34-.25c-1.55.07-3.07.12-4.62.07h0a.06.06,0,0,1-.08,0c-1.13-.07-2.7.87-3.82.45-1.72-.65-2.76.54-4.33.54-2.41,0-2.26-3.17-4.14-3.41-.07,0-.08-.12,0-.12,2.37.14,2,4.07,5.29,2.84,1.65-.61,3.6.15,5.1-.52a3.61,3.61,0,0,1,1.93,0,.09.09,0,0,1,.06,0,18.84,18.84,0,0,1,2.82-.12c.83-.07,1.65-.12,2.47-.16l1.12-.05c-4.14-1.27-8.54-.14-12.71-.77A7.65,7.65,0,0,1,81.62,92c-.3-.13-.61-.31-.93-.49l-.3-.14,0-.06c-1-.56-2-1.1-3-.61-.09,0-.16-.08-.08-.14l.24-.16a.26.26,0,0,1,0-.08,3.08,3.08,0,0,1,.93-.66.11.11,0,0,1,.1.19l-.31.22a2.9,2.9,0,0,1,1.8.4c.34.16.69.3,1,.44,2.51.5,5.21-.73,7.8-1.46a7.06,7.06,0,0,1-2.94.21c-.9-.2-2.32.61-3.4.51-.41,0-.5-.19-.56-.34l-.27-.11a1.72,1.72,0,0,0-.63-.18c-.22,0-.49.1-.85.2-.09,0-.13-.12,0-.13a2.79,2.79,0,0,1,.89-.07c.81-.14.82.07.9.29,2.18.93,1.9-.87,3.48-.6,2,.33,4.9-1,6.93-.21h.08A5.82,5.82,0,0,0,90,88.28c-1.22,0-2.41.17-3.62.2a32.58,32.58,0,0,1-4.75-.28,2.35,2.35,0,0,1-1.33.39,2.51,2.51,0,0,1-1.51-.52c-.47-.35-1.66-1.6-2.25-.64-.06.1-.22,0-.16-.09.49-.92,1.41-.48,2.15-.06l.47.25c1.6.47,3.12-.55,4.5-1.36a7,7,0,0,1,1.31-.67,2.83,2.83,0,0,0-.41,0,8.33,8.33,0,0,1-1.63.24c-.82-.07-1-1.75-2.13-.6C79.35,86.59,78.33,84,77.77,83c0,0,0-.08.06,0,.47.59,1.67,3.15,2.66,2,.18-.21.55-.68.91-.61.64.13,1.4,1.23,2,1.09.85-.21,1.79-.21,2.62-.47h0c-1.16-.88-2.46-1.1-3.69-1.82a8.46,8.46,0,0,1-2.77-2.52s0-.07,0,0a7.69,7.69,0,0,0,3.86,2.5,11.4,11.4,0,0,1-5-7c-1.34-4.43,1.55-9.59,5.4-11.8a.09.09,0,0,1,.09.16,10.88,10.88,0,0,0-4.1,4.93,8.78,8.78,0,0,1,2.86-2.89c.06,0,.12.06.06.1a7.67,7.67,0,0,0-2.5,2.9c.41-.48.95-.88,1.35-1.34,0-.05.11,0,.07.06a5.29,5.29,0,0,0-.51.66c.12-.11.23-.21.36-.31,4.66-3.66,10.72-5.58,16-8.14A87.18,87.18,0,0,1,106,56.62c2.53-.9,5.23-1.41,7.64-2.61l.27-.24a.08.08,0,0,1,0-.09.57.57,0,0,0,.13-.08l0-.06.18-.22c-1.58.58-3.21,1-4.8,1.53-2.59.89-5.13,1.87-7.77,2.57,0,0-.07-.06,0-.07a78.79,78.79,0,0,0,11.47-4.24,1.87,1.87,0,0,1,.71-.41c.24-.38.56-.71,1-.65,1-.42,2.19-1,2.16-2.09l-.14,0a12.41,12.41,0,0,1-2.71.75,62,62,0,0,0-12.52,4.77c-.08,0-.15-.08-.07-.12,3-1.43,6-2.74,9.06-4,1.92-.77,6.1-1.26,7.09-3.24A.24.24,0,0,1,118,48c.16-.31.17-.57-.11-.73a2.22,2.22,0,0,0-1.16-.25c-2.12.45-3.82,2-5.94,2.44h0l-.46.24a54.24,54.24,0,0,1-6.67,2.67c-4.95,1.67-9.82,3.53-14.77,5.2-.12,0-.17-.14-.06-.18,6-2.08,12.17-4.22,18-6.68,3-1.25,5.43-3,8.28-4.38l.24-.09.15-.1c-.31-.51-.6-1-1.29-1a7.71,7.71,0,0,0-1.72.27l-.68.16c-1.2.55-2.62.67-3.82,1.29a.11.11,0,0,1-.14,0c-1,.53-2,1.07-2.87,1.45-2.51,1-5,2-7.59,3-.07,0-.1-.08,0-.11A109.36,109.36,0,0,0,108,46.23c.93-.51,1.78-1.07,2.69-1.47-3.33-.22-7.18,2.05-10.08,3.16-3.88,1.48-7.74,2.86-11.7,4.09-4.37,1.37-9.16,3.08-13.67,2l.1,0a6.73,6.73,0,0,0,3.12.58c.09,0,.13.12,0,.14a7.23,7.23,0,0,1-2.94-.08,9.73,9.73,0,0,0,3.2.76.12.12,0,0,1,0,.24,13,13,0,0,1-4.79-1,6.47,6.47,0,0,1-2.36-1.9A5.14,5.14,0,0,1,70,51c-.82-1.55-1-3.86-2.21-5.12l-.42-.41c-1-.77-2-1.46-2.34-2.9-.43-2,1.29-2,2.07-3.56.06-.1.19,0,.15.08a4.08,4.08,0,0,1-1.2,1.38,1.69,1.69,0,0,0-.53,1.61,4.61,4.61,0,0,1,1.49-1.81,5.63,5.63,0,0,0,2.12-2.36c-.54.15-1.2,0-1.56.56a.11.11,0,0,1-.18-.11,1.16,1.16,0,0,1,.75-.6,3.07,3.07,0,0,0,1-.25,5.1,5.1,0,0,0-2.39.05,5.58,5.58,0,0,0-2.38,1.28,3.82,3.82,0,0,0-.18.51c-.21.65-.41,1.52-1.09,1.82,0,0-.08-.05,0-.07,1-.52.41-2,1-2.84l.26-.34a5.27,5.27,0,0,1,1.47-1.69c1.05-.77,2.55-1.27,3.44-2.24a25.15,25.15,0,0,0,2.17-3.37,14.58,14.58,0,0,0-1.74,1.88c-.3.36-.71.79-1.25.62-1.17-.37-1,1-1.82,1.29-.65.2-1.87.1-2.19.83A8.69,8.69,0,0,0,63.92,37c0,.07-.13,0-.12,0,.14-.7.31-2.27,1.2-2.53s1.46,0,2-1.11c.09-.21.23-.57.44-.68.36-.18.48-.28.87-.16.64.19,1.46-1,1.93-1.38A13.64,13.64,0,0,1,72,29.72h0a37,37,0,0,0-4.55,1.74,20.94,20.94,0,0,0-4.66,3.38l-.06,0a1.38,1.38,0,0,0-.45.73,2.56,2.56,0,0,1-.34,1,0,0,0,1,1-.07,0c.24-.47,0-1.1.29-1.51s.57-.67.86-1,.45-.48.68-.71c3.06-3.17,7.57-5.2,9.32-9.16a14.23,14.23,0,0,1-5.53,4.61,7.15,7.15,0,0,0-2.74,2.16c-.28.33-.47.63-.93.74-1.18.26-1.66-.21-1.78,2.09,0,.94.06.56-.38,1.37,0,.1-.19,0-.14-.08.3-.67-.07-2.77.7-3.3a20.24,20.24,0,0,0,3.25-2.41c.48-.48,1.26-.55,1.81-.92.7-.46,1.37-1,2-1.48a12.68,12.68,0,0,0,3.79-3.79,11.46,11.46,0,0,1-3.32,1.93,32.57,32.57,0,0,0-5,3.32,24.07,24.07,0,0,0-3,2.65c-.45.52-.77,1.62-1.58,1.66,0,0,0,0,0,0,.79-.28.88-1.16,1.21-1.84a.12.12,0,0,1,0-.13,24.63,24.63,0,0,1,7.22-7.37c2.13-1.46,4.37-3.12,5.67-5.41a17.62,17.62,0,0,0,1.18-2.67c-1.45,2.13-3.36,4.47-5.51,5.39-1.76.76-2.52,2.22-4.14,3C62.84,25,62.1,27.25,61.18,30A.07.07,0,0,1,61,30c.39-1.46.34-3.58,1.51-4.73s3.31-1.64,4.45-3c1.45-1.75,3.3-1.93,4.81-3.59a57.31,57.31,0,0,0,3.69-4.45s0,0,0,0a1.52,1.52,0,0,0,.18-.33c-3.08,4-8.41,6.53-12.4,9.36A51,51,0,0,0,48.88,38.29Zm36.3,59.13a.09.09,0,0,1,0,.18c-.5,0-1,0-1.5,0a.09.09,0,1,1,0-.18C84.18,97.42,84.68,97.41,85.18,97.42Zm-1.62-1.57c.11,0,.11.06.14.15s0,0,0,0a.94.94,0,0,1-.1-.1S83.51,95.84,83.56,95.85ZM79,79.36a1,1,0,0,1,.12.26,0,0,0,1,1-.08,0,.92.92,0,0,0-.13-.24C78.91,79.35,79,79.3,79,79.36ZM98.35,58.55a16.63,16.63,0,0,1,1.93-.73.07.07,0,0,1,0,.13c-.65.21-1.31.41-1.95.65C98.34,58.61,98.32,58.56,98.35,58.55Zm-31-19.95a.07.07,0,1,1,0,.13A.07.07,0,0,1,67.39,38.6Zm-.09.13a0,0,0,0,1,0,.06A0,0,0,0,1,67.3,38.73ZM63.18,68.66s0,0,0,0A0,0,0,0,1,63.18,68.66Zm3.53,6.93s0-.07.05,0a3.7,3.7,0,0,1,.57,1.32,2.57,2.57,0,0,0,.3.77c.24.33.51.22.82,0,.07,0,.16.06.09.12C67.27,79,67.05,76.14,66.71,75.59Zm1.81,2.58c0-.11.22-.06.18,0-.15.54-.19,1,.43,1.24a.06.06,0,0,1,0,.11C68.32,79.49,68.32,78.78,68.52,78.17ZM80.7,96.93a.08.08,0,0,1,0,.16c-1.42-.45-10.48-1.83-8.1-5.26,2-2.87-2.78-3-3.52-4.74-1.18-2.72,2.47-5,.11-7.8,0,0,0-.1.07-.06,1.16,1.27,1.42,2.19.65,3.79s-1.58,4.64,1,5.12a3.34,3.34,0,0,1,.88.22,2.32,2.32,0,0,1,.91.7,2.15,2.15,0,0,1,.4,2.49C70.59,95.23,78.8,96.31,80.7,96.93Zm7.7-39.08c-.82.57-1.73,1-2.51,1.62-.07.06-.16,0-.1-.09a17.81,17.81,0,0,1,2.5-1.71C88.4,57.59,88.51,57.77,88.4,57.85Zm5.49-5.47c.63-.2,1.24-.5,1.88-.67a.12.12,0,0,1,.09.21,9.25,9.25,0,0,1-1.9.71C93.8,52.68,93.73,52.44,93.89,52.38Zm-11.8,3.06c2.35-.2,4.53-1.17,6.81-1.68a.09.09,0,0,1,0,.17,56.12,56.12,0,0,1-6.86,1.65C82,55.59,82,55.45,82.09,55.44Zm-9.52,2.31a2.55,2.55,0,0,1,2.54.57C77.73,61,77,62.78,80.35,61.75a2.85,2.85,0,0,0,.43-.6c-.61-.34-1.39-1-1.16-1.79,0-.18.24-1.07.73-.74a1.87,1.87,0,0,1,.43,2.53l.18.1a1.41,1.41,0,0,0,.43.13c.43-.16.91-.36,1.45-.59a2.61,2.61,0,0,0,.43-.74c-.76-.35-1.25-1.08-.53-1.8a.17.17,0,0,1,.25,0,1.65,1.65,0,0,1,.28,1.8,2.42,2.42,0,0,0,.79.2l.9-.41a.1.1,0,0,1,.1.17,1.62,1.62,0,0,1-1,.24l-1.22.54a1.61,1.61,0,0,1-1.45.59c-.39.15-.73.27-1,.37a2.14,2.14,0,0,1-1.51.69c-3,0-2.71-5.19-6.22-4.5C72.49,58,72.44,57.78,72.57,57.75Zm-5.84-.63c.07,0,.13.07.06.11-1.93,1.26-3.55,3.47-2.3,5.77a2.4,2.4,0,0,1,.34,1.1c0,.22-.46.8.1.85.17,0,.18.28,0,.28-.34,0-.8,0-.8-.41a3.85,3.85,0,0,0-.18-2,2.47,2.47,0,0,1-.29-.84A5.15,5.15,0,0,1,66.73,57.12Zm1,10.67c1.36.81,3,1.93,4.6.88a4.23,4.23,0,0,0,1.81-4c-.23-2.43-2.61-6.72-5.6-4.67-1.58,1.09-2.12,3.71-.45,5.06,1,.76,3.27.66,3.13-1-.09-1-1-2.11-1.88-.89a.17.17,0,0,1-.29-.16c.59-1.32,2-1.1,2.45.2.66,1.81-.71,3.15-2.52,3.08-4.45-.18-3.2-8.18,1.3-7.62,3.7.46,5.85,5.85,4,9a3.85,3.85,0,0,1-4.75,1.92c-2.06-.74-4.46-4.12-6.28-1.28a.11.11,0,1,1-.19-.11C64.29,65.91,65.94,66.73,67.71,67.79ZM62.38,63a1.18,1.18,0,0,1,.58.87c0,.54,0,.9.46,1.28.21.18-.05.48-.28.36a1,1,0,0,1-.59-.94c.05-.61.31-1-.26-1.46C62.23,63.09,62.31,63,62.38,63Zm-.82,1.8c0,.41.22.89.74.76.14,0,.23.09.21.22s.25.36.16.58a.18.18,0,0,1-.25.1.55.55,0,0,1-.3-.61.88.88,0,0,1-.66-1S61.55,64.77,61.56,64.83Zm0,2.24a.28.28,0,0,1,0,.55A.28.28,0,0,1,61.59,67.07Zm-.42,1.16.06-.08a.12.12,0,0,1,.23.07c0,.09,0,.21-.08.23h0C61.23,68.48,61.08,68.35,61.17,68.23Zm-.61-22.84c0-.15.26-.09.23.07a9.8,9.8,0,0,1-1.1,2.85c-.26.49-.54,1-.76,1.49a7,7,0,0,0-.35.86,1.3,1.3,0,0,0,1.06,0c.17-.05.23.2.07.26a2.29,2.29,0,0,1-1.41.18.14.14,0,0,1-.1-.18C58.79,49,60.15,47.38,60.56,45.39ZM58.3,28.71c.06-.05.15,0,.09.09a25,25,0,0,0-6.26,9.66c-1,2.41-.25,4.13,2.44,4.1,1.32,0,2.63-.09,3.94-.09a.13.13,0,0,1,0,.25c-1.42,0-7.32,1.12-7.26-1.72,0-2.14,1.37-4.52,2.4-6.35A21.66,21.66,0,0,1,58.3,28.71Z"/><path class="cls-1" d="M61.54,75.7l.22,0v0Z"/><path class="cls-1" d="M112.47,48.5l-.32.09-.37.25Z"/><path class="cls-1" d="M45.77,68.17h0a.41.41,0,0,0,.05-.09Z"/><path class="cls-1" d="M46.2,79.51a1.86,1.86,0,0,1-.1-.25v0a7,7,0,0,1,.07-3.36A5.08,5.08,0,0,0,46,74.69,2.54,2.54,0,0,1,46,73a6,6,0,0,1,.39-.85.06.06,0,0,1,0-.06l.13-.2c.19-.32.39-.64.6-.95a.14.14,0,0,1,.11-.16c.35-.53.71-1.07,1-1.62.57-1,.53-2,1-3a5.76,5.76,0,0,1,.38-.69c-4.61,3.92-8.16,10.38-2.82,15A5.33,5.33,0,0,1,46.2,79.51Z"/><path class="cls-1" d="M45.83,80.3l.19.13L46,80.34a7.7,7.7,0,0,1-.6-.54A4.56,4.56,0,0,0,45.83,80.3Z"/></g></g></svg>