<svg xmlns="http://www.w3.org/2000/svg" viewBox="0 0 157.1 223.07"><defs><style>.cls-1{fill:#fff;}</style></defs><title>baratheon</title><g id="Layer_2" data-name="Layer 2"><g id="Layer_2-2" data-name="Layer 2"><path class="cls-1" d="M113.94,15.86a2.65,2.65,0,0,1,.89.66h0l.72.33q-.84-.6-1.71-1.14Z"/><path class="cls-1" d="M113.43,15.14l.77.37-.72-.56a1.81,1.81,0,0,0-.53-.3A2.49,2.49,0,0,1,113.43,15.14Z"/><path class="cls-1" d="M116.25,27.9l.17,0,0-.07Z"/><path class="cls-1" d="M112.07,15.68a1.49,1.49,0,0,0,.36.55,10.45,10.45,0,0,0,.83.8c.78.67,1.59,1.28,2.43,1.88l.71.5c-.35-.37-.71-.74-1.11-1.09C114.29,17.41,113,16.69,112.07,15.68Z"/><path class="cls-1" d="M113.6,16.32c-.44-.28-.87-.56-1.29-.88a.08.08,0,0,1,0-.12l-.35-.24v.09a6.55,6.55,0,0,0,1.7,1.28S113.62,16.37,113.6,16.32Z"/><path class="cls-1" d="M108,39.05a33.35,33.35,0,0,0,.1-4.15,6.82,6.82,0,0,1,.93-2.82,4.26,4.26,0,0,1,.11-.42c-.11.16-.21.31-.31.48-.3.51-.58,1-.83,1.55C107.86,35.48,108.08,37.27,108,39.05Z"/><path class="cls-1" d="M109,39.36c.65-1.29.11-3.45-.06-5.37-.18,1.21-.12,2.43-.21,3.81a4.2,4.2,0,0,0,.17-1.42.1.1,0,0,1,.2,0,6.1,6.1,0,0,1,0,1.81C109.1,38.53,109.12,39,109,39.36Z"/><path class="cls-1" d="M113.65,27.81a16.85,16.85,0,0,1-2.39-.82c-.52-.26-1.05-.51-1.59-.74l-.46.13a24.56,24.56,0,0,0,4.69,1.55Z"/><path class="cls-1" d="M118.7,20.72a5.52,5.52,0,0,0-.6-.92,8.81,8.81,0,0,0-1.37-1.36,17.2,17.2,0,0,1,1.52,1.68A6.7,6.7,0,0,1,118.7,20.72Z"/><path class="cls-1" d="M112.42,14.6a.59.59,0,0,0-.44.45,11.63,11.63,0,0,0,1.25.5A1.78,1.78,0,0,0,112.42,14.6Z"/><path class="cls-1" d="M126,14.67c.08.17.16.34.23.51,0-.49,0-1-.06-1.49a11.51,11.51,0,0,0-.66-3.06,18.39,18.39,0,0,0,.51,3.76A.37.37,0,0,1,126,14.67Z"/><path class="cls-1" d="M127.49,16.06a10.72,10.72,0,0,1,.17-1.25,24.64,24.64,0,0,0-1.61-4.09A13.73,13.73,0,0,1,127.24,17,6.14,6.14,0,0,0,127.49,16.06Z"/><path class="cls-1" d="M117,3.13h0l0,0Z"/><path class="cls-1" d="M128.44,21.34a1.94,1.94,0,0,0-.86-.51,2.43,2.43,0,0,0-.89-.07,2.75,2.75,0,0,1,2,.94A.86.86,0,0,0,128.44,21.34Z"/><path class="cls-1" d="M107.52,35.79c0-.42,0-.84.08-1.25,0,.11-.08.23-.11.34a.11.11,0,0,1,0,.06A8,8,0,0,1,107.52,35.79Z"/><path class="cls-1" d="M127.58,18.89a2.72,2.72,0,0,0-.55.18,1.55,1.55,0,0,1-.06.23,1.88,1.88,0,0,1,.86-.18,1.66,1.66,0,0,1,.55.12.55.55,0,0,0-.12-.21A.79.79,0,0,0,127.58,18.89Z"/><path class="cls-1" d="M128,17.73a.3.3,0,0,1,.28-.23c0-.22-.1-.43-.14-.64,0,.08,0,.16,0,.24a3.13,3.13,0,0,1-.61,1C127.78,18,128,17.89,128,17.73Z"/><path class="cls-1" d="M121.2,4.64c-.11-.11-.21-.22-.33-.32a10.54,10.54,0,0,0-4-1.87v0a11.79,11.79,0,0,0,2.52,1.08A11.82,11.82,0,0,1,121.2,4.64Z"/><path class="cls-1" d="M118.16,2.23a2.72,2.72,0,0,0-1,0,10,10,0,0,1,3,.74A4.93,4.93,0,0,0,118.16,2.23Z"/><path class="cls-1" d="M118.1,3.51l-.32-.12a.19.19,0,0,1-.12.07c2,1.27,4.11,2.18,5.61,4a4.61,4.61,0,0,1,1,2.14,14.27,14.27,0,0,0,.54,2.62c-.18-1.85-.15-3.69-1.66-5.2a19.73,19.73,0,0,0-4.21-3.19A6.52,6.52,0,0,0,118.1,3.51Z"/><path class="cls-1" d="M123.48,17.63c-.16.11-.34.19-.5.28,1-.24,1.4-.83,1.94-1.83a.31.31,0,0,1,.15-.13,3.47,3.47,0,0,0-.16-.55A3.85,3.85,0,0,1,123.48,17.63Z"/><path class="cls-1" d="M82.3,26.68a.17.17,0,0,1,0-.16c-.17-.11-.33-.2-.48-.28A8.46,8.46,0,0,0,82.74,28,12.59,12.59,0,0,1,82.3,26.68Z"/><path class="cls-1" d="M38.74,121.88a27.76,27.76,0,0,1,.26,4.21c.27-1.39.59-2.79-.17-4.08Z"/><path class="cls-1" d="M39.27,126.79h0Z"/><path class="cls-1" d="M40.12,126a0,0,0,0,1,0,0v0Z"/><path class="cls-1" d="M107,39.46l0,.09h0A.29.29,0,0,1,107,39.46Z"/><path class="cls-1" d="M53.8,35.94s0,0,0,0a.75.75,0,0,0,.07.12Z"/><path class="cls-1" d="M40.66,122.19a5.13,5.13,0,0,1,1.1,1.84c.27.7.47,1.4.68,2.09s.64,1.16,1,1.72a9.34,9.34,0,0,0-2.62-5.56Z"/><path class="cls-1" d="M58.74,42.46a11.59,11.59,0,0,0,1.94,1.46l.27.13a22.31,22.31,0,0,1-3.73-3.73c-.49-.61-1-1.24-1.58-1.89a12.13,12.13,0,0,0,1,1.64C57.25,40.94,58,41.67,58.74,42.46Z"/><path class="cls-1" d="M40.89,123.37a4.1,4.1,0,0,1,0,.6s0,0,0,.07a4.84,4.84,0,0,0,.69,2.31c0,.06.09.11.13.16,0-.15-.08-.29-.1-.44A13.19,13.19,0,0,0,40.89,123.37Z"/><path class="cls-1" d="M40.5,125.29c0,.42.1.87.46,1.09h0a5,5,0,0,1-.38-1.4Z"/><path class="cls-1" d="M39.81,122.37a3.16,3.16,0,0,1,.21.7,5.89,5.89,0,0,1-.38,2.69,3.18,3.18,0,0,0,.52-2.7A2.8,2.8,0,0,0,39.81,122.37Z"/><path class="cls-1" d="M54.68,37.48c.13.21.27.41.41.62-.12-.28-.23-.57-.35-.86-.07-.1-.12-.21-.19-.32.05.17.1.33.14.5A.07.07,0,0,1,54.68,37.48Z"/><path class="cls-1" d="M86.92,31.4c-.36-.47-.74-.93-1.14-1.41l-.53-.61a30.25,30.25,0,0,1,2.68,5.22A9,9,0,0,0,86.92,31.4Z"/><path class="cls-1" d="M84.28,28.46a.13.13,0,0,1,0-.15,16.46,16.46,0,0,0-1.49-1.42,18.49,18.49,0,0,0,2.4,3.62C84.91,29.82,84.6,29.13,84.28,28.46Z"/><path class="cls-1" d="M68.6,46l-.08-.15a1.57,1.57,0,0,0-.71-.85.1.1,0,0,1,0-.05l-.21-.08h-.1a5.38,5.38,0,0,1,.78,1.08Z"/><path class="cls-1" d="M128.68,23.29a2,2,0,0,0-.58-1.13,2.62,2.62,0,0,0-2.21-.82A3.38,3.38,0,0,1,128.68,23.29Z"/><path class="cls-1" d="M89.36,37.53c0-.12-.1-.23-.12-.3-.38-1.14-.5-2.35-.79-3.52a.09.09,0,0,1,0-.07c-.23-.39-.48-.76-.74-1.13a12.94,12.94,0,0,1,.73,2.12C88.66,35.36,88.67,37,89.36,37.53Z"/><path class="cls-1" d="M89.73,36.92l.12.31c-.12-.48-.25-.94-.41-1.39,0-.08.07-.13.14-.11-.19-.41-.38-.81-.59-1.2.16.49.29,1,.45,1.5C89.54,36.33,89.63,36.63,89.73,36.92Z"/><path class="cls-1" d="M66.63,45.35a3.25,3.25,0,0,0-.43-.18l.8.47A1.09,1.09,0,0,0,66.63,45.35Z"/><path class="cls-1" d="M81.93,27.85a4.79,4.79,0,0,1-.4-1.72h0a.87.87,0,0,0-.32,0,2.93,2.93,0,0,0,.25,1.22C81.61,27.51,81.76,27.68,81.93,27.85Z"/><path class="cls-1" d="M59.15,47.36h0a1.89,1.89,0,0,1,.1.41c.41,1.28.43,2.78,1.36,3.77s2.5.73,3.7,1.08a4.78,4.78,0,0,0-.74-.56A6.57,6.57,0,0,1,62,50.94c-.08-.08.05-.21.13-.13.8.83,2.18,1.12,3,1.93a2.25,2.25,0,0,0-.38-.6,11.1,11.1,0,0,0-1-1c-.06-.05,0-.13.08-.08A4.73,4.73,0,0,1,65.57,53l.12,0a.91.91,0,0,1-.28-.51c0-.11.13-.15.17,0a.82.82,0,0,0,.22.31,6.7,6.7,0,0,0-.58-1.17c0-.07.07-.15.12-.09a5.5,5.5,0,0,1,.86,1.38c.53-.12,1.07-.22,1.63-.3a4,4,0,0,1-.85-.67,6.46,6.46,0,0,0-3.39-2.16C61.73,49.36,60.14,48.88,59.15,47.36Z"/><path class="cls-1" d="M64.49,45.29h.08a29.6,29.6,0,0,1-4.08-3.12c-1-.83-1.9-1.65-2.82-2.5A25.32,25.32,0,0,0,64.49,45.29Z"/><path class="cls-1" d="M42.61,123.55l-.12-.09a6.51,6.51,0,0,1,1.22,2.2c.33,1,.43,2.13.78,3.16a10.46,10.46,0,0,0,.93,1.9c-.19-1-.17-2-.42-3A9.74,9.74,0,0,0,42.61,123.55Z"/><path class="cls-1" d="M110.52,41.14h0Z"/><path class="cls-1" d="M118.89,42.28l0,0-.08,0Z"/><path class="cls-1" d="M110.47,30.76a2.34,2.34,0,0,1,.07.75c.07-.17.15-.33.21-.49A1.3,1.3,0,0,0,110.47,30.76Z"/><path class="cls-1" d="M122.5,32.75a6.19,6.19,0,0,0-.51-1.21,10,10,0,0,1,.38,1.21Z"/><path class="cls-1" d="M120.06,32.87a7.53,7.53,0,0,1,0,1.05,21.1,21.1,0,0,1-.94,4.53,9.34,9.34,0,0,1-.74,1.64A8,8,0,0,0,120.06,32.87Z"/><path class="cls-1" d="M124.46,34.87a9,9,0,0,1-1.13,4.29A5,5,0,0,0,124.46,34.87Z"/><path class="cls-1" d="M117.74,34.57a.29.29,0,0,0,0-.09l0,.19S117.74,34.6,117.74,34.57Z"/><path class="cls-1" d="M110,31.19l-.17.3a5.82,5.82,0,0,0-.32,1.64c0-.13.1-.25.14-.37A5.83,5.83,0,0,0,110,31.19Z"/><path class="cls-1" d="M109.58,39.05a.29.29,0,0,0,0-.09l0,.12Z"/><path class="cls-1" d="M117.72,34.48c-.29-2.73-1.57-5.16-4.64-6.1a18.19,18.19,0,0,1-3.5-1.3h0c1.7,1,3.82,1.61,5.3,2.82A7.13,7.13,0,0,1,117.72,34.48Z"/><polygon class="cls-1" points="109.52 34.67 109.51 34.68 109.51 34.69 109.52 34.67"/><path class="cls-1" d="M127.49,24.82a4.39,4.39,0,0,0-6.74-1.65,4.44,4.44,0,0,1,4.4-.08,8.88,8.88,0,0,1,2.58,2.29C127.65,25.17,127.57,25,127.49,24.82Z"/><path class="cls-1" d="M127.3,28.63c0-.22-.09-.44-.15-.65,0,0-.07,0-.1-.07A7.61,7.61,0,0,1,127.3,28.63Z"/><path class="cls-1" d="M133.64,27.25l.43-.07A1,1,0,0,0,133.64,27.25Z"/><path class="cls-1" d="M127.57,19.73a2.35,2.35,0,0,0-.86.28,1.55,1.55,0,0,1-.12.22,2.71,2.71,0,0,1,1.16,0,3.09,3.09,0,0,1,1,.53,2.11,2.11,0,0,0,0-.25C128.42,20.08,128.24,19.67,127.57,19.73Z"/><path class="cls-1" d="M123.49,27.8a.41.41,0,0,1-.33.15h0a5,5,0,0,1,2.12,2A6.72,6.72,0,0,0,123.49,27.8Z"/><path class="cls-1" d="M125.87,31.28c.07.23.15.5.23.83A7.84,7.84,0,0,0,125.87,31.28Z"/><path class="cls-1" d="M125.79,31.06c0,.07,0,.15.08.22a1.42,1.42,0,0,1-.05-.16Z"/><path class="cls-1" d="M125.72,36.25a4.09,4.09,0,0,0,0-.62l0,0v0A3.77,3.77,0,0,1,125.72,36.25Z"/><path class="cls-1" d="M124.88,31.33a6,6,0,0,0-.56-1.16,5.45,5.45,0,0,0-3.48-2.25,7.31,7.31,0,0,1,3.43,2.5c.16.24.31.5.46.76Z"/><path class="cls-1" d="M122.43,10.8a6.25,6.25,0,0,0-1.5-3c-1.2-1.4-2.52-2.69-3.75-4.07.58.87,1.59,1.87,2,2.34A34.28,34.28,0,0,1,122.43,10.8Z"/><path class="cls-1" d="M120.82,18H121a8.14,8.14,0,0,0,.87-.31A9.65,9.65,0,0,1,120.82,18Z"/><path class="cls-1" d="M126,18.7a2.83,2.83,0,0,0,0-1.36,2.88,2.88,0,0,1-.4.93c-1.5,2.29-3.91,1.65-6,.73a6,6,0,0,0,3.29,1.11C123.91,20.16,125.74,20,126,18.7Z"/><path class="cls-1" d="M120.62,21.39v0h.05S120.65,21.4,120.62,21.39Z"/><path class="cls-1" d="M123.61,14.84a4,4,0,0,1-.32.57,3.2,3.2,0,0,1-2.07,1.69,5.53,5.53,0,0,0,.64-.17h0a5.22,5.22,0,0,0,1-.58A1.58,1.58,0,0,0,123.61,14.84Z"/><path class="cls-1" d="M120.33,25.8l-.14.14h.17l.13-.08A.3.3,0,0,1,120.33,25.8Z"/><path class="cls-1" d="M123.86,21.17a2.87,2.87,0,0,0,1.16-.46,5.89,5.89,0,0,1-4.91-.74l.21.44A4.13,4.13,0,0,0,123.86,21.17Z"/><path class="cls-1" d="M118.23,27.11l-.32.19.66-.07a.11.11,0,0,1,.05-.09l.27-.21a4.46,4.46,0,0,0-.54.06A1.36,1.36,0,0,1,118.23,27.11Z"/><path class="cls-1" d="M118.87,34.48a.31.31,0,0,1-.25,0,9.92,9.92,0,0,1,0,2.61A11.1,11.1,0,0,0,118.87,34.48Z"/><path class="cls-1" d="M119.13,18.5a.53.53,0,0,1,.08-.24l-.46,0,.24.25Z"/><path class="cls-1" d="M117.48,3.6l0,0a51.64,51.64,0,0,1,4.37,4.12,5.11,5.11,0,0,1,1.26,2.12,22.58,22.58,0,0,0,.48,2.26h0c-.13-1.2,0-2.58-.63-3.59C121.64,6.41,119.48,5,117.48,3.6Z"/><path class="cls-1" d="M122.07,27.43a7.15,7.15,0,0,0-2.4-.51l-.53.28a9.87,9.87,0,0,1,2.94.33A.34.34,0,0,1,122.07,27.43Z"/><path class="cls-1" d="M125.68,28.49a5.28,5.28,0,0,0-1.45-1.37A7.22,7.22,0,0,1,125.68,28.49Z"/><path class="cls-1" d="M119.32,25.86l-.06,0c-.05.1-.12.2-.18.3l.22-.05a.2.2,0,0,1,0-.17Z"/><path class="cls-1" d="M121.57,33.51A10.67,10.67,0,0,0,120,29.75l-.21-.12a7.07,7.07,0,0,1,.87,1.57c1.67,3.18.93,6.85-1.71,9.68C121.5,39.63,122.18,36.1,121.57,33.51Z"/><path class="cls-1" d="M117,29.09c-.11-.11,0-.27.17-.17A6.52,6.52,0,0,1,119,31.59a4.41,4.41,0,0,0-3.37-3.47,8.27,8.27,0,0,1,3,4.24A6.69,6.69,0,0,0,117,29.09Z"/><path class="cls-1" d="M118.55,17.79a5.66,5.66,0,0,1-.59-.15l.27.2Z"/><path class="cls-1" d="M119.34,27.7a6.6,6.6,0,0,1,1.11.59l.15.05-.72-.42a.15.15,0,0,1-.09-.17Z"/><path class="cls-1" d="M115.32,27.89l.09.06V27.9Z"/><path class="cls-1" d="M122.48,23.33a2.63,2.63,0,0,0-2.12,1.25,5.33,5.33,0,0,1,5-.25A4.12,4.12,0,0,0,122.48,23.33Z"/><path class="cls-1" d="M123.86,26.21a.9.9,0,0,0-.16,0,9.41,9.41,0,0,1,1.35.67A2.74,2.74,0,0,0,123.86,26.21Z"/><path class="cls-1" d="M122.55,18.94a2.88,2.88,0,0,0,1.46-.37,5.91,5.91,0,0,1-1.61.35Z"/><path class="cls-1" d="M60.86,59.64s0,0,0,0,0-.05,0-.08Z"/><path class="cls-1" d="M60.13,60.23l.27,0s0,0,0,0,0,0-.06,0A.85.85,0,0,1,60.13,60.23Z"/><path class="cls-1" d="M108.07,49.7c1.28-.21,2.53-.47,3.76-.78a11.58,11.58,0,0,0,2.06-1l-.58.1c-.44.09-.89.16-1.34.21a16,16,0,0,1-3.91,1.45Z"/><path class="cls-1" d="M115.52,47.69l-.06.05.3-.11-.21,0Z"/><path class="cls-1" d="M109.32,46.82a.21.21,0,0,1,0-.11l-.33,0a.43.43,0,0,1,.24.15l0,0Z"/><path class="cls-1" d="M61.4,59l0-.08-.06.07Z"/><path class="cls-1" d="M63.28,60.1c.11,0,.19-.13.22-.23a.43.43,0,0,0,0-.16.39.39,0,0,0-.27.1C63.1,59.91,63.12,60,63.28,60.1Z"/><polygon class="cls-1" points="63.06 60.49 63.07 60.49 63.06 60.49 63.06 60.49"/><path class="cls-1" d="M62.11,58.75h0l-.23.08a.47.47,0,0,0,0,.48.33.33,0,0,0,.57-.06.57.57,0,0,0,0-.46C62.32,58.66,62.21,58.73,62.11,58.75Z"/><path class="cls-1" d="M62.74,60a.06.06,0,0,1,0,0,.21.21,0,0,0,0,.06Z"/><path class="cls-1" d="M44.08,124.58l.06.06s0,0,0,0Z"/><path class="cls-1" d="M93.87,47.05a4.61,4.61,0,0,1-.46-.36c-.08.35-.36.66-1,.9l-.41.15c.74-.19,1.48-.38,2.22-.51A2.53,2.53,0,0,1,93.87,47.05Z"/><path class="cls-1" d="M100.79,44.2a43.45,43.45,0,0,0-8.92-1,8.29,8.29,0,0,1,.78,1.43l.34.57c1.23,1.78,3.57,1.63,5.43,1.61,2.22,0,5.72.5,7.07-1.71C103.92,44.83,102.35,44.52,100.79,44.2Z"/><path class="cls-1" d="M91,47.14a9,9,0,0,1-1.43.67c.79-.22,1.55-.53,2.15-.75,1.33-.49.82-1.16.27-2.06h0A2,2,0,0,1,91,47.14Z"/><path class="cls-1" d="M103.56,47.43a.2.2,0,0,1,0,.11l.19-.08.55-.29A5.59,5.59,0,0,1,103.56,47.43Z"/><polygon class="cls-1" points="63.87 59.65 63.87 59.65 63.87 59.65 63.87 59.65"/><path class="cls-1" d="M90.23,48.47h0Z"/><path class="cls-1" d="M91.49,48.62a.08.08,0,0,1,0-.07c-.39,0-.78,0-1.16-.08h0C90.69,48.54,91.09,48.58,91.49,48.62Z"/><path class="cls-1" d="M89.19,48.62l0,0a2.14,2.14,0,0,0-.35.06l1.6.23C90,48.84,89.59,48.73,89.19,48.62Z"/><path class="cls-1" d="M108.1,48.41a15.74,15.74,0,0,0,2.23-.74l.52-.21-.71-.05a8.84,8.84,0,0,1-2,1Z"/><path class="cls-1" d="M109,46.67l-.47,0,0,0,.25,0,.09,0A.85.85,0,0,1,109,46.67Z"/><path class="cls-1" d="M105.07,50a.36.36,0,0,1-.15-.12,9.65,9.65,0,0,1-1,.19c.43,0,.86,0,1.28-.05Z"/><path class="cls-1" d="M70.44,45.2a10.55,10.55,0,0,1,1.22,1.52,3.64,3.64,0,0,1,.47.28,3,3,0,0,0-1.33-1.54.09.09,0,0,1,0-.13Z"/><path class="cls-1" d="M69.39,45.19c.37.35.71.76,1,1.14l.16,0a4.67,4.67,0,0,0-.59-.74A2.31,2.31,0,0,0,69.39,45.19Z"/><path class="cls-1" d="M79.54,47.48c-.05.1-.1.2-.14.3s.12.18.17.27A2.73,2.73,0,0,0,79.54,47.48Z"/><path class="cls-1" d="M59.85,74c.74-.41,1.49-.83,2.24-1.22a18.15,18.15,0,0,0-1.88.78Z"/><path class="cls-1" d="M79.1,48.54a7.57,7.57,0,0,1,.22.76c.05-.18.1-.36.14-.55a2.92,2.92,0,0,0-.18-.72A3.45,3.45,0,0,0,79.1,48.54Z"/><path class="cls-1" d="M68.76,45.59c.09.14.19.29.27.44l.18,0C69.07,45.9,68.91,45.74,68.76,45.59Z"/><path class="cls-1" d="M131.13,42.65l.15-.09h-.13S131.14,42.62,131.13,42.65Z"/><path class="cls-1" d="M64.36,58.52l-.74-.2A.69.69,0,0,0,64.36,58.52Z"/><path class="cls-1" d="M73.3,48.26a6.2,6.2,0,0,0-.35-.84l-.21-.31c.15.31.28.61.38.88Z"/><path class="cls-1" d="M101.32,39.41s0-.07,0-.1l0,.1Z"/><path class="cls-1" d="M100.61,39.11h0l0,.06Z"/><path class="cls-1" d="M88,43.44c-.4.05-.8.1-1.2.17-2.1.76-4.33,1.33-6.13,2.63h0C83.5,46.2,87.53,46.64,88,43.44Z"/><path class="cls-1" d="M85.32,46.67l-.25,0a.13.13,0,0,1,0,.06Z"/><path class="cls-1" d="M84,46.85a2.6,2.6,0,0,1,.36,0s0,0,0-.05l-.5,0a.53.53,0,0,1,0,.12Z"/><path class="cls-1" d="M80.68,48.35a2,2,0,0,0,.4-.74.6.6,0,0,0-.36-.77l-.41-.19a1.65,1.65,0,0,1,.41,1.41C80.71,48.15,80.69,48.25,80.68,48.35Z"/><path class="cls-1" d="M83.3,47.08a1.32,1.32,0,0,1-.44-.13.9.9,0,0,1,0,.35c-.13.41-.54.68-.85,1A3.21,3.21,0,0,0,83,47.49a2.5,2.5,0,0,0,.29-.41Z"/><path class="cls-1" d="M79.79,47.08a2.85,2.85,0,0,1,.29,1.47,2.44,2.44,0,0,0,.14-.46A1.78,1.78,0,0,0,80,46.82l-.11.12Z"/><path class="cls-1" d="M82.25,47.18c.1-.22.11-.15-.07-.14h-.36l-.09,0s0,0,0,.07a1.33,1.33,0,0,1,0,.71A2,2,0,0,0,82.25,47.18Z"/><path class="cls-1" d="M83.13,48.33h0Z"/><path class="cls-1" d="M95,47.75l1-.08a3,3,0,0,1-.31,0Z"/><path class="cls-1" d="M81.68,153.14l.09,0,0-.18A.77.77,0,0,1,81.68,153.14Z"/><path class="cls-1" d="M77.87,155.6a2.57,2.57,0,0,0-.47-.15,11.33,11.33,0,0,1,2.67,3.48c.12.18.26.4.4.64-.18-.46-.36-.91-.56-1.33C79.44,157.29,78.91,156.06,77.87,155.6Z"/><path class="cls-1" d="M73.26,154a6.37,6.37,0,0,1,1.95-2.12,6,6,0,0,1,2.53-1.1l1.11-.15-.62,0a5,5,0,0,0-3.07.58,5.69,5.69,0,0,0-1.71,1.93C73.38,153.37,73.32,153.67,73.26,154Z"/><path class="cls-1" d="M78.85,155.26l-.51-.17a4.33,4.33,0,0,1,1.49,1.25,15.41,15.41,0,0,1,1.73,3.35,20,20,0,0,0,1.17,2.2,13.59,13.59,0,0,0-.86-2.9A8.5,8.5,0,0,0,78.85,155.26Z"/><path class="cls-1" d="M73.14,155.45a4.71,4.71,0,0,1,2.35-2.33,17.64,17.64,0,0,1,2.84-.89,3.07,3.07,0,0,0,2.08-1.41,6.3,6.3,0,0,1-2.58.6,5.65,5.65,0,0,0-4.73,4.08Z"/><path class="cls-1" d="M81.25,153.74l.08.07h0l0-.12Z"/><path class="cls-1" d="M92.32,48.72a24.51,24.51,0,0,0,9.2-1c-.62,0-1.24,0-1.81,0a.28.28,0,0,1-.21.2,23.61,23.61,0,0,1-7.62.69Z"/><path class="cls-1" d="M74,157.06a2.83,2.83,0,0,1,2.54.54,5,5,0,0,1,.72.66C76.33,157.17,75.23,156.45,74,157.06Z"/><path class="cls-1" d="M81.27,154.44l.13.09a1.14,1.14,0,0,1-.11-.11Z"/><polygon class="cls-1" points="46.45 130.9 46.45 130.9 46.45 130.9 46.45 130.9"/><path class="cls-1" d="M78.52,152.91a9.5,9.5,0,0,0-3.75,1.38,7.77,7.77,0,0,1,2.27-.52c1.1-.1,3.29.12,3.81-1.08a5.25,5.25,0,0,0,.36-1.57A3.45,3.45,0,0,1,78.52,152.91Z"/><path class="cls-1" d="M73.77,151.68a5.1,5.1,0,0,1,2-1.47,7.31,7.31,0,0,1,2.5-.39,12.58,12.58,0,0,0,1.77-.06,7.41,7.41,0,0,0-3.14-.06,6.1,6.1,0,0,0-2.87,1C73.92,151,73.84,151.36,73.77,151.68Z"/><path class="cls-1" d="M83.16,171.43a12.87,12.87,0,0,1,.62-4.67,2.67,2.67,0,0,1-2.66.42,8.56,8.56,0,0,1-5.17-4.4c0-.06.06-.12.09-.06a7.87,7.87,0,0,0,4.69,4,2.84,2.84,0,0,0,3.39-1.15,4.45,4.45,0,0,1-4.69-.5,5.78,5.78,0,0,1-2.16-2.56c-.28-.64-.52-1.31-.85-1.93a5,5,0,0,0-.72-1.1c-.94-.08-1.5.11-1.68.56.21-.94.87-1.73,1.85-.73s1.38,2.56,2.21,3.78a5,5,0,0,0,5,2,5.33,5.33,0,0,1-3.46-1.82,27.54,27.54,0,0,1-1.82-2.93,10.46,10.46,0,0,0-1.23-1.83c-.82-.85-3.15-2.76-3.67.57a10.25,10.25,0,0,0,.48,2.34c1.18,3.54,3.79,5.4,5.32,8.55a5.18,5.18,0,0,1,.63,1.92,5.82,5.82,0,0,0-.5-3.78c0-.06.06-.11.08,0,1.13,2.33,1.57,6.08-1.59,6.85-2.14,1.1-4.8,1.15-7.23,1.13-2.69,0-5.44-.45-8.1-.42-3,0-5.25,1.52-7.23,3.4-.42.51-.86,1-1.29,1.54A7.45,7.45,0,0,0,52,182.91a.87.87,0,0,0,0,.26c.07.24.28.43.73.51a3,3,0,0,0,1.59-.08c.93-.34,1.79-.85,2.69-1.24a2.82,2.82,0,0,1,3.11.16c.36-1.21,1-2.51,2.4-2.51,1.18,0,1.47-1.43,2.56-1.73,1.44-.4,3.36.09,4.81.05,2-.06,4-.26,6-.17,2.39.12,7.24,1,9.16-.91a4.32,4.32,0,0,0-.26-1.39A11.92,11.92,0,0,1,83.16,171.43Z"/><path class="cls-1" d="M47,128.65l0,.3a.25.25,0,0,1,.08.18c0,.18,0,.37,0,.55a.88.88,0,0,0,.45.69l.35.15a4.82,4.82,0,0,1-.43-.73C47.26,129.41,47.12,129,47,128.65Z"/><path class="cls-1" d="M72.8,158s0,.1,0,.16a1.71,1.71,0,0,1,.22-.4Z"/><path class="cls-1" d="M44.66,125.34a7.86,7.86,0,0,1,.65,1.14,13.22,13.22,0,0,1,.82,3.9c.39-1.15.67-2.5-.12-3.54C45.6,126.3,45.1,125.85,44.66,125.34Z"/><path class="cls-1" d="M46,126a4.08,4.08,0,0,1,.85,1.51,24.21,24.21,0,0,0,1.29,2.41c.39.58.93,1.08,1.33,1.65a12.78,12.78,0,0,0-1.56-3.59A17,17,0,0,0,46,126Z"/><path class="cls-1" d="M75.27,148.57l-.23.13,0,0a2.53,2.53,0,0,1,.37-.18A.41.41,0,0,0,75.27,148.57Z"/><path class="cls-1" d="M74.71,148.89a.3.3,0,0,0,0,.08l.09-.06s0,0-.05,0Z"/><path class="cls-1" d="M74.14,150.09a7.08,7.08,0,0,1,2.63-1l1-.17a4.47,4.47,0,0,0-3.63,1C74.17,150,74.16,150,74.14,150.09Z"/><path class="cls-1" d="M74.32,149.25l.16-.13a.29.29,0,0,1-.13,0Z"/><path class="cls-1" d="M79.71,154.39l-.68.05a6.45,6.45,0,0,1,2.32,1.14A3.94,3.94,0,0,0,79.71,154.39Z"/><path class="cls-1" d="M58.52,85v.15a1.32,1.32,0,0,0,.16-.25Z"/><path class="cls-1" d="M90.38,46.81a1.56,1.56,0,0,0,.89-1.41,6.85,6.85,0,0,1-2.07,1.73c-.35.22-.73.43-1.13.63A9.54,9.54,0,0,0,90.38,46.81Z"/><path class="cls-1" d="M58.86,84.76h0a.09.09,0,0,1,0-.05Z"/><path class="cls-1" d="M75.45,154.8l.21,0H75l-.16.05A3.85,3.85,0,0,1,75.45,154.8Z"/><path class="cls-1" d="M67.34,91.05h.09a.56.56,0,0,1,0-.08Z"/><path class="cls-1" d="M72.24,89.77h.07l.12-.2Z"/><path class="cls-1" d="M104.34,47.84a31.36,31.36,0,0,1-3.64,1,.13.13,0,0,1-.16-.17,20,20,0,0,1-4.62.71,17.43,17.43,0,0,0,8.5-1.51Z"/><path class="cls-1" d="M101.52,49.71l.13,0-.68,0h.55Z"/><path class="cls-1" d="M89.57,43.79a2.45,2.45,0,0,1,0,.27l.09-.27Z"/><path class="cls-1" d="M89.5,46c0,.07-.09.12-.13.18a6,6,0,0,0,.82-.75,4,4,0,0,1-.63.54Z"/><path class="cls-1" d="M88.19,45.31a1.55,1.55,0,0,0,.36-.45.14.14,0,0,1-.09,0A1.92,1.92,0,0,1,88.19,45.31Z"/><path class="cls-1" d="M33.92,110.38l.17.15,0-.07Z"/><path class="cls-1" d="M75.79,156.2a1.82,1.82,0,0,1,.46.11c-1-.67-2.21-.87-3.09.2l-.06.24A2.21,2.21,0,0,1,75.79,156.2Z"/><path class="cls-1" d="M39.75,113.18l-.08.1.13,0a.49.49,0,0,1,0-.12Z"/><path class="cls-1" d="M42.33,113.17l.13,0c0-.09-.09-.18-.12-.27C42.34,113,42.33,113.08,42.33,113.17Z"/><path class="cls-1" d="M50.48,84.74a.55.55,0,0,0,.12.39Z"/><path class="cls-1" d="M41.08,110.36l-.2.08,0,0,.07,0Z"/><path class="cls-1" d="M40.08,110.72h0v0Z"/><path class="cls-1" d="M155.6,9.43c-1.3-3.39-3.3-5.32-5.45-8C149.78.92,149.41.46,149,0l-1.68.64C149.12,3.18,151.1,5,151.9,7.5c-.05-.32-.11-.64-.16-1a.84.84,0,0,1-.21-.75c0-.09.15-.07.14,0a.8.8,0,0,0,.09.41.09.09,0,0,1,.12.06c.4,1.65,1.09,4,.09,5.58a2.79,2.79,0,0,1-.79,1.16,2.41,2.41,0,0,0,1.74-2.76.06.06,0,0,1,.12,0,2.81,2.81,0,0,1-1.26,3.06,4.51,4.51,0,0,1-1.4.71c1.34,0,2.48-.55,3.25-2.39a.19.19,0,0,1,0-.15c.83-1.94-.16-4-1.27-5.62-.05-.07.06-.13.11-.07.92,1.23,2.65,4.05,1.64,5.65-.46,2.17-2.42,3.28-4.68,3.16a9.94,9.94,0,0,1-3.6-.86c-1.31-.59-3.37-2-5.13-2.14h-.64a2.11,2.11,0,0,0-.7.17c1.36,1.27,3.1,1.93,4.6,3,1.43.6,2.65,1.84,3.93,2.65a.08.08,0,0,1-.08.14c-.75-.41-1.44-.88-2.15-1.31A17.86,17.86,0,0,1,149,20.56a6.14,6.14,0,0,1-.26,6.23h0a7,7,0,0,0,1.9-4.41.08.08,0,0,1,.15,0,6.88,6.88,0,0,1-1,3.47,7.68,7.68,0,0,0,1-1.35v0c.13-.47.38-.9.53-1.37a5.22,5.22,0,0,0,.25-1.66,0,0,0,1,1,0,0,5.74,5.74,0,0,1-.17,2.49.25.25,0,0,1,0,.17,7.72,7.72,0,0,1-2.62,3.25,6.25,6.25,0,0,0,3.56-4.12.08.08,0,1,1,.15.05,7.37,7.37,0,0,1-4.16,5,5.33,5.33,0,0,1-4.75-.2,19.1,19.1,0,0,1-5.46-3.15,4.57,4.57,0,0,0,1.36,1.34.09.09,0,0,1-.09.15A4,4,0,0,1,138,25.33,11.67,11.67,0,0,0,139,27a12.58,12.58,0,0,1,1.12,1.3c3.37,5.11-.46,11.47-5.6,13.57l.6-.22a18.24,18.24,0,0,0,4.46-2.54c.1-.09.25,0,.15.14a20.36,20.36,0,0,1-4.29,3,32.81,32.81,0,0,1-4.95,1.69h-.1l-.1.06c-.2.17-.42.34-.65.5a.16.16,0,0,1-.13,0,2,2,0,0,1-2.39.09.06.06,0,0,1,.06-.11c1.52.67,2.58-.77,2.9-2.09,0,0,0,0,.06-.08.07-.6.09-1.21.13-1.81a14.93,14.93,0,0,1-.09-2.59,17.78,17.78,0,0,1,1-4.55,12.71,12.71,0,0,1,1.63-3.2,6.92,6.92,0,0,0,1.57-2.55l0,0c-6.23,2.16-5.25,12.23-11.17,14.82-6.47,2.84-14.71-1.18-21.29-2.63a3.93,3.93,0,0,0,.28,1.26c.07.15-.11.33-.24.19a2.72,2.72,0,0,1-.59-1.57l-.16,0a9.41,9.41,0,0,1-1.39,2c-.08.09-.19,0-.13-.11a6.49,6.49,0,0,0,.93-1.35,3.84,3.84,0,0,0,.23-.85A8,8,0,0,1,99,40.73c-.13.08-.24-.12-.12-.21s.44-.33.65-.49a15.17,15.17,0,0,0,1.76-2.9A22.88,22.88,0,0,0,97.58,20.9c-.47-.66-6-5.33-3.21-1,.74,1.15,1.55,2.25,2.31,3.39A15.52,15.52,0,0,1,99.17,30,7.79,7.79,0,0,1,97,36.75a3.7,3.7,0,0,0,1.4-1.47,11,11,0,0,0,1.37-6.84c0-.11.18-.14.2,0A11.72,11.72,0,0,1,99,35.59c-1.09,2.11-2.69,2.39-4.82,2.86l-.27.08c-3,.75-6.12.08-9.09,1.22a21.94,21.94,0,0,0-2.26,1c-.65.38-1.35.8-2.08,1.18s-1.53,1-2.29,1.48a5.47,5.47,0,0,1-1.65,1.1l-.14.1a.12.12,0,0,1-.14,0,3.44,3.44,0,0,1-3.2-1.1c-.09-.08,0-.19.12-.12a3.09,3.09,0,0,0,4.32-.14l.09-.07a.13.13,0,0,1-.11,0,5.94,5.94,0,0,1-3.37-.07,0,0,0,1,1,0,0,3.16,3.16,0,0,0,2.43-.09A16.65,16.65,0,0,1,66.21,36.6a5.19,5.19,0,0,1-.36-.46,12.9,12.9,0,0,1-3.3-7s.05-.06.06,0a14.17,14.17,0,0,0,1,2.87l-.09-.29c-.26-1-.52-3.95-1.47-4.49a14.55,14.55,0,0,0,4.34,12.1c2.34,2.26,5.26,3.79,7.5,6.13,1.86,1.94.67,6.37-1,8l-.11.07-.41.38a4.2,4.2,0,0,1-1.4.86c-.06,0-.09-.07,0-.11a6.65,6.65,0,0,0,1.43-1.22v0a.3.3,0,0,1,0-.35,7.87,7.87,0,0,1-1.8.69s-.09-.06,0-.09c.26-.13.47-.32.73-.45a5.3,5.3,0,0,0,.79-.47l.09-.07a10.79,10.79,0,0,1-2.48.3.15.15,0,0,1-.13,0h-.32c-5.61,1-9.54,3.36-14.62,6.54a21.28,21.28,0,0,1-5.8,2.94c-1.92.46-4.17.32-5.61,1.58a3,3,0,0,0-.7,2.3,6.59,6.59,0,0,0,.35,1.39,2.71,2.71,0,0,0,.73.7,2.07,2.07,0,0,0,2.33.08,2.68,2.68,0,0,1,.28-.18,2.06,2.06,0,0,1,2.65-.29,9.92,9.92,0,0,0,1.75.77,3.08,3.08,0,0,0,.43,0A4.81,4.81,0,0,0,52.77,68a2.17,2.17,0,0,1,1.17-.36c.4,0,.92.23,1.29,0,.05,0,.11,0,.08.08a.88.88,0,0,1-.81.42c-1,0-1.46.65-2.3,1a3.35,3.35,0,0,1-1.39.28c-.89.3-1.86.33-2.73.72a.08.08,0,0,1-.1,0,7.28,7.28,0,0,1-1.13.42c0,.38.25.49.62.72a.35.35,0,0,1,.1.11h0v0a3.17,3.17,0,0,1,.37.15,2.74,2.74,0,0,0,.64,0c3.82-1.16,7.32-2.76,11.46-2.17,5.84.84,9.94,1.2,12.28-5.43a3.55,3.55,0,0,1,1.35-1.8.14.14,0,0,1,.2.2c-1.69,1.89-2,4.43-3.22,6.22a1.73,1.73,0,0,1-.39.68.32.32,0,0,1,0,.09C67.16,73.19,61.71,75,57.37,77c0,0-.08,0,0-.06a70.11,70.11,0,0,0,8.55-5l-.25.07c-2.2,1.16-4.42,2.31-6.69,3.34-.07,0-.13-.07-.06-.11a46.64,46.64,0,0,0,4.71-2.57c-1.5.58-3,1.3-4.4,2a13.63,13.63,0,0,1-1.15,1,24.48,24.48,0,0,1-4,2.58,19,19,0,0,0-2,2.31,4.6,4.6,0,0,0-.73,1.8,7,7,0,0,1,0,2.37l.12-.06h0c1.73-1.13,3.64-2,5.4-3.08a1.79,1.79,0,0,0,.2-.26l.15-.29c0-.31-.2-.68-.2-.89a1.77,1.77,0,0,1,.39-1.06,1.72,1.72,0,0,1,2.1-.63A1.79,1.79,0,0,1,60.09,81a1.18,1.18,0,0,1-.79.51,1.29,1.29,0,0,0-.7.41.79.79,0,0,0-.15.36c0,.84,0,1.68.07,2.52a4,4,0,0,0,1.27-1.27.5.5,0,0,1-.09-.34.91.91,0,0,1,.44-1,1.27,1.27,0,0,1,1.46-.11,1,1,0,0,1,.27,1.29,1.57,1.57,0,0,1-.69.66c-.63.21-.81.62-1.12,1.1-.18.28-.34.56-.49.84s-.15.58-.21.87c-.2,1-.27,2-.37,3a9.41,9.41,0,0,0,.25.91c2.4-.11,4.82-1.68,6.73-3.1.29-.72.21-1.62.66-2.24A1.44,1.44,0,0,1,68.56,85a2.26,2.26,0,0,1,1.16,2.19,1,1,0,0,1-.78.69c-.41.09-1.17-.15-1.42.27a.28.28,0,0,1-.21.15,13,13,0,0,1-.15,2.41c.57-.35,1.15-.71,1.71-1.08l.22-.28A2,2,0,0,1,69.7,88c.39-.28,1.27-.07,1.24.51s-.58,1-1,1.32a5.89,5.89,0,0,1-.67.52c-.27.76-.56,1.52-.9,2.24,0,.1-.1.21-.14.31.94-.78,1.86-1.61,2.74-2.47,1.25-2,2.78-3.7,3-6.22,0-.08.12-.08.11,0A9.93,9.93,0,0,1,72.43,89l.9-.87a59.5,59.5,0,0,0,4.57-7.38c2-4.28,4-10.72,3.49-16a5.85,5.85,0,0,0-.7-1.84,14.2,14.2,0,0,0-1.13-1.43,4,4,0,0,1-1.31-.67,3.9,3.9,0,0,1-1.2-3.12.07.07,0,0,1,.14,0,2.85,2.85,0,0,0,1,2.16,7.68,7.68,0,0,0,7.92.06,20.67,20.67,0,0,1,4.18-2.09c-1.39-.44-3.06-.33-4.4-.88-1.12-.46-2-1.32-3.11-1.88a14.1,14.1,0,0,0-5-1.17c-.14,0-.1-.23,0-.24.61,0,1.23-.09,1.84-.11l-.17-.13a8.89,8.89,0,0,1-2.3-1.51s0,0,0,0a4,4,0,0,0,1.54.79l-.34-.36a6.14,6.14,0,0,1-1.46-2.77.09.09,0,0,1,.17-.05,3.72,3.72,0,0,0,.58,1.12,4.56,4.56,0,0,1-.27-1.72,0,0,0,0,1,0,0,6.2,6.2,0,0,0,.35,1.47c-.17-2.69,2.13-5.29,4.18-6.9,3.88-3.06,9.81-2.57,14.36-2,.11,0,.12.18,0,.18-3.5-.1-7.41-.33-10.74,1A13.91,13.91,0,0,0,82.84,44a23.84,23.84,0,0,1,12.62-1.71c5,.57,9.85,1.91,14.81,2.61,9.26,1.29,22.32,3.14,31.06-2,7-4.81,13.53-9.94,15.19-18.91A27.07,27.07,0,0,0,155.6,9.43ZM67,58s.12,0,.07.09a2.2,2.2,0,0,1-1,.55,1.64,1.64,0,0,0,.43,0c.09,0,.1.14,0,.16-.49.14-.94,0-1.37.37a.15.15,0,0,1-.16,0,4.69,4.69,0,0,1-.5.86,3.31,3.31,0,0,1-1.22,1,1.9,1.9,0,0,1-1.35,0,17.39,17.39,0,0,0-2.24-.54s-.06-.05-.07-.08c-.19,0-.6-.16-.73,0a2.18,2.18,0,0,1-1.08.67s-.07,0,0-.07a2,2,0,0,0,.74-.5,2.59,2.59,0,0,1,.31-.35.62.62,0,0,1,.46-.08,1,1,0,0,0,.17,0c1.32-.31,1.23-2,2.5-2.4s2.62.61,4,0a.31.31,0,0,1,.13,0c.43-.22.89-.38,1.06-.93a0,0,0,0,1,0,0,1.49,1.49,0,0,1-.73,1.33A1.66,1.66,0,0,0,67,58Zm6.42,24.5c.07,0,0,.17-.1.12-1.11-.71-.86-2.07-.46-3.18a34,34,0,0,1,1.44-3.34c.22-.45,2.27-4.35,1-4.16-3.93.57-.75-5.38,0-6.59a.07.07,0,1,1,.12.07c-.87,1.39-4.06,6.88.58,6.19a.12.12,0,0,1,.14.11C76,74.35,70.79,80.4,73.39,82.45Z"/><path class="cls-1" d="M44.58,85.64a3.38,3.38,0,0,0-.41.24,1,1,0,0,0-.4.6.63.63,0,0,1,.44-.14.14.14,0,0,1,.2,0l.32.17a3.41,3.41,0,0,1,.89.46s0,0,0,0a117.17,117.17,0,0,1,11.57,6.34c2.25,1.51,4.47,3.08,6.67,4.67.57.41,3.12,2.85,4.06,2.89a.64.64,0,0,0,0-.07h0c-4.29-6.56-13.1-9.22-19.29-13.42,0,0,0,0,0,0,4.15,2.18,8.13,4.19,12.11,6.73,2.4,1.54,5.65,3.3,7.36,5.75C69,99,70,98.16,70.8,97.25a10.79,10.79,0,0,1,2.39-1.91H73a.1.1,0,1,1,0-.19,1.22,1.22,0,0,1,.33,0s0,0,0,0c.26-.16.52-.32.79-.47l.11-.07a2.47,2.47,0,0,1,2-.58c.13,0,.08.24,0,.2a1.55,1.55,0,0,0-1.06.2,5.42,5.42,0,0,0,1.66-.08c1.27-.45,1.86-2.52.44-3.2a1,1,0,0,0-1.49.92,4.85,4.85,0,0,1-.13.93s0,0,0,.08a.75.75,0,0,0,.62-.74,0,0,0,0,1,.07,0c.2.83-.68,1.19-1.37,1.31s-1.63.2-2.44.28c-1.61.33-3.21.86-4.77,1.29a2,2,0,0,1-2.37-.49c-.07-.09.07-.17.15-.11a1.43,1.43,0,0,0,.86.22,2.28,2.28,0,0,1-.51-.62,2,2,0,0,1-.2-1.39c0-.08.16-.06.15,0-.07.49-.07,1.12.44,1.38l.18.08a4.84,4.84,0,0,1-.08-2.48A25.69,25.69,0,0,0,66.89,88a.17.17,0,0,1,0-.1q0-.3,0-.6c0-.17.23-.19.27,0a2,2,0,0,1,.06.23,2.25,2.25,0,0,1,1.39-.26c1.17,0,.08-1.69-.59-1.82-1.37-.27-1,2-2,2.5h0a15.78,15.78,0,0,1-3.51,2.49,10.29,10.29,0,0,1-2.23,1.09,2.26,2.26,0,0,0,1.21-.11c.1,0,.15.11.07.16a3.05,3.05,0,0,1-1.15.43A1.67,1.67,0,0,0,61,92c.07,0,.15.08.08.13a1.61,1.61,0,0,1-2.36-.62v0c-1.65-.87-.8-7-.58-8.91a1.26,1.26,0,0,1,.27-1.37,1.66,1.66,0,0,1,.68-.36c.82-.2.71-1.56-.09-1.72a1.22,1.22,0,0,0-1.24.77c-.17.38,0,.63-.08,1a.79.79,0,0,1-.25.59,1.31,1.31,0,0,1-.81.62,58.18,58.18,0,0,1-5.17,3.46.23.23,0,0,1-.08.09,1,1,0,0,1-.27.13c-.44.4-1,.65-1.46,0s-.3-1.49-.39-2.19c0-.06.09-.07.1,0A4.4,4.4,0,0,0,50,85.35a.66.66,0,0,0,.24.15,1.63,1.63,0,0,1-.31-.65s.06-.07.07,0a1.37,1.37,0,0,0,.39.66.4.4,0,0,0,.16-.08.68.68,0,0,1-.15-.76c0-.06.09-.05.11,0-.69-2.83-.26-6.08-2.8-8.14a.12.12,0,0,1,0-.11c-.26-.31-.06-.82,0-1.17s-.19-.63-.6-.7a.77.77,0,0,0-.66.17,1.07,1.07,0,0,0-.17,1.16c.2.4.48.25.84.2.1,0,.15.12.11.19s0,0-.07.07a.13.13,0,0,1,.23.06c.72,2.76.39,6.92-1.66,9.16a1,1,0,0,0,1-.58c0-.08.16,0,.14.06C46.56,86,45.14,86.68,44.58,85.64Zm26.6,10.91a32.92,32.92,0,0,0-4.33,1.36.08.08,0,1,1,0-.15c1.43-.47,2.87-1,4.34-1.3C71.21,96.44,71.23,96.54,71.18,96.55Zm-5.76-.24C67.82,97,69.68,95,72,95c.12,0,.11.17,0,.18-2.29.19-4.27,2.06-6.59,1.18A0,0,0,1,1,65.42,96.31Zm.4-6.83a1.16,1.16,0,0,1,.11.52c0,.1-.15.1-.16,0a4.1,4.1,0,0,0,0-.49S65.8,89.44,65.82,89.48Zm-2.25,5.65a.1.1,0,0,1-.19,0,12.36,12.36,0,0,1,.16-1.71c0-.06.12,0,.12,0C63.61,94,63.6,94.56,63.57,95.13Zm.14-2.73h-.17a0,0,0,1,1,0,0c.13-.07.08-.07.21,0S63.74,92.41,63.71,92.4Zm1.64.12a.06.06,0,1,1-.12,0,2.67,2.67,0,0,0,.11-1c0-.1.16-.1.14,0A6.27,6.27,0,0,1,65.35,92.52Zm-2.64-1.17A22.48,22.48,0,0,0,65.5,89.5c.08,0,.15.07.08.13a11.68,11.68,0,0,1-2.84,1.78S62.67,91.36,62.71,91.35ZM62.84,93s0,0,0,0a4.07,4.07,0,0,1-.44.18s0,0,0,0Zm-1.24.34a1,1,0,0,0,.37,0s.06,0,0,.07a1,1,0,0,1-.38.07C61.54,93.43,61.54,93.33,61.6,93.33ZM59.81,93l.06.06a0,0,0,0,1,0,0L59.77,93A0,0,0,1,1,59.81,93Zm-5.32-3a5.48,5.48,0,0,1-.25-2.13.05.05,0,1,1,.1,0,5.79,5.79,0,0,0,.24,2.11C54.6,90,54.52,90,54.49,90Zm2-6.25a1.24,1.24,0,0,1,.3-.35c.15-.12.31.12.15.2l-.29.25A.09.09,0,1,1,56.46,83.7Zm.09.49c.08,2-1,3.77-.37,5.85,0,.09-.11.15-.15.07-1-1.76.38-4.06.37-5.92A.08.08,0,0,1,56.55,84.19ZM56,84a.06.06,0,0,1,0,.1c-.41.28-.85.52-1.26.8a11.09,11.09,0,0,1-1.27.78h0A22.42,22.42,0,0,1,56,84Zm-3,3.62a.06.06,0,1,1,.12,0l0,1c0,.1-.16.1-.16,0C53,88.23,53,87.9,53,87.57Zm-2.33-.2a3.48,3.48,0,0,0,1.36-.61c.06,0,.13,0,.08.1a2.67,2.67,0,0,1-1.4.65C50.65,87.53,50.61,87.38,50.71,87.37Zm-2.29-8.64a14.32,14.32,0,0,1,.94,4.4.07.07,0,0,1-.14,0c-.23-.7-.29-1.46-.45-2.18s-.33-1.46-.48-2.2A.07.07,0,0,1,48.42,78.73ZM48,82.13a12.53,12.53,0,0,0,.73,4.39c0,.1-.1.2-.16.09-.72-1.37-.55-3-.65-4.48A0,0,0,1,1,48,82.13Z"/><path class="cls-1" d="M115.78,161.4a12.39,12.39,0,0,1-3.32-6.37c-.2-.85-.3-2.45-.49-4a5.73,5.73,0,0,0-2.16-4,13.68,13.68,0,0,1-4.18-5.21s0-.09.07,0a12,12,0,0,0,4.45,4.67l.06,0c-4.49-13-16.29-17-26.73-24.29-4.58-3.21-9.26-7-12.5-11.7a16.18,16.18,0,0,1-2.74-3.23c-.82-1.5-1.67-2.91-2.63-4.32a44.35,44.35,0,0,0-4.08-5.54c-2-1.42-4-2.84-6-4.17S51.15,90.6,49,89.37a5.2,5.2,0,0,1-.72-.26s0-.06,0,0l.28.06c-1.16-.65-2.31-1.33-3.43-2a1.33,1.33,0,0,0-1.24,0l-.26.24,0,0a.14.14,0,0,1-.12.06c-1.64,1.2-4,.86-5.52,2.33a1,1,0,0,1,.88.21,1.3,1.3,0,0,1,.33,1.55,1.6,1.6,0,0,0,.31-1.68.05.05,0,0,1,.1,0,1.8,1.8,0,0,1-.28,2.17,3.82,3.82,0,0,1-.85.54,9.5,9.5,0,0,1-1.31,1A3,3,0,0,0,36,94.66a5.07,5.07,0,0,0-.24.72,1.18,1.18,0,0,1,1.32,0,1.21,1.21,0,0,1,.28,1.38,1.69,1.69,0,0,0,0-1.76s0,0,0,0c.7.46.51,1.56.12,2.19a5.15,5.15,0,0,1-2.23,1.71l-.19.1c-1.12.57-1.21,1.31-1.26,2.39a1.59,1.59,0,0,1,1.33-.49,1.87,1.87,0,0,1,1.65,1.54,3.26,3.26,0,0,1-1.51,2.93,3.11,3.11,0,0,0,1.09-.79,2.73,2.73,0,0,0,.37-3.57.09.09,0,0,1,0-.11h0a.51.51,0,0,1-.09-.16c-.06-.12.11-.22.17-.1a1.63,1.63,0,0,1,.09.19s0,0,0,0h0a3.23,3.23,0,0,1-.19,4.31,3.58,3.58,0,0,1-2.57,1.12c-.85.23-1.71-.69-2.32-1.54a12.85,12.85,0,0,1-1.67-2.48c-1.21-2.14-2.36-5.47-5-5.79a.2.2,0,0,1-.13.08c-3.74.17-6.05,4.14-8.42,6.46a57.06,57.06,0,0,1-5.3,4.77c-2.93,2.24-6.61,4.1-8.46,7.46A17.49,17.49,0,0,1,.4,119l-.4.71c.68-.07,3.23-1,3.51-1A15.53,15.53,0,0,1,6,118.58c1.61,0,1.88-.58,2.05-2a3.49,3.49,0,0,1,.4-1.35.69.69,0,0,1-.11-.13c-.1-.13-.19-.33-.35-.41-.31-.15-.47.31-.56.5s-.19,0-.15-.06c.12-.3.32-.78.73-.68a3.81,3.81,0,0,1,.87.36l0,0,.14.08a3.31,3.31,0,0,0,1.73.19,4.54,4.54,0,0,1,0-.74l-.14,0c-.41-.23-.76-1.22-1.36-.8,0,0-.1,0-.06-.07.34-.29.64-.08,1,.1a4.11,4.11,0,0,0,.6.28l0,0h0l0,0c.27,0,.47-.29.64-.66,0-1.73,1.36-3.15,2.11-4.69.06-.11.22,0,.17.1-.2.45-.47.89-.72,1.33a22.77,22.77,0,0,1,3.46-3.41,37.55,37.55,0,0,1,4-3.09c1.84-1.09,4-.85,5.77-2,.14-.09.3.12.18.24a5.66,5.66,0,0,1-1.5,1,3.18,3.18,0,0,1,1.5,1.66l.21.43a14.87,14.87,0,0,0,4.49,4h0a.1.1,0,0,1,.12,0,15.12,15.12,0,0,0,7.5,1.59,6.78,6.78,0,0,0,3.09-1.84c1.11-1.18,1.87-2.65,3.17-3.63.07,0,.27,0,.41,0l0,0a.18.18,0,0,1,.12,0c.17-.29.15-.47.32-.8.42-.85,1.52,0,1.58-1.73a.09.09,0,0,1,.17,0c0,.5-.08,1.58-.71,1.75s-.65.68-1.07,1.3a.28.28,0,0,1-.29.12c-.12,0-.32.07-.56.28a10.29,10.29,0,0,0-2.28,3.55,8.64,8.64,0,0,0-.44,2.41,3.85,3.85,0,0,0,.08.58.92.92,0,0,0,.76.59l.25,0a4.8,4.8,0,0,0,.8-.56,2.78,2.78,0,0,0,.05-2.87c-.05-.09.08-.16.14-.08a3.06,3.06,0,0,1-.34,4.2c-1.79,1.79-5.17.73-8.08-.63a.21.21,0,0,1-.18,0l-.11-.09c-1.54-.74-2.92-1.53-3.81-2A37.13,37.13,0,0,0,27,108.23c-6-2-5.9,3.1-5.56,6.68a132.85,132.85,0,0,1,.91,16.43,3.5,3.5,0,0,0,.32-1.09,0,0,0,0,1,.05,0,13.16,13.16,0,0,1-.49,2.79,1.86,1.86,0,0,1,.34,0h.05l.12,0a1.34,1.34,0,0,0,1-1c0-.08.14,0,.11,0a3.57,3.57,0,0,1-.9,1.25c.23,2.76.17,6,1.45,8.61a14,14,0,0,1,2.11-4.64,6.54,6.54,0,0,0-.91.56c-.07.06-.17,0-.1-.1.45-.46,1.09-.69,1.53-1.14a3.32,3.32,0,0,0,.25-.27s0,0,0,0a1.14,1.14,0,0,0,.15-.16l0-.05c.63-.88-.61-1.63-1.2-2.31a2.88,2.88,0,0,1-.86-2,1.37,1.37,0,0,1-1-1.06c0-.09.12-.16.16-.07a1.16,1.16,0,0,0,1.38.66,2.89,2.89,0,0,0,.47-.08l-.21-.2a.34.34,0,0,1-.07-.15.2.2,0,0,1-.16-.15c-.72.12-1.4-.13-1.4-1a0,0,0,0,1,.08,0c.26.92,1.09.91,1.77.53.69-.87-1-2.19-1.25-3a11.18,11.18,0,0,1-.51-4.3c.14-1.72.48-3.46.76-5.2.1-1.58,0-3.16.12-4.73a2.84,2.84,0,0,1,1.53-2.47c.1-.06.18.08.09.15a2.11,2.11,0,0,0-.87,1.36A2.76,2.76,0,0,0,28,113.65c.42.22.81.47,1.2.72a48,48,0,0,1,9.39,5c2.53,1.71,4.93,3.61,7.5,5.25,1.81,1.16,2.53.92,3.67-.31a3,3,0,0,0,.59-1.61c0-.57,0-1.14.12-1.71a1.66,1.66,0,0,1,0-.22v0h0a4.11,4.11,0,0,1,.54-1.15s.08,0,.06,0a4.85,4.85,0,0,0-.47,1.53c0,1.27.45,2.75-.45,3.69l-.06.1c.8-.14,1.73-.23,1.87-.9a6.36,6.36,0,0,0-.22-2.41,2.27,2.27,0,0,1,2-2.84s0,0,.07,0a1.9,1.9,0,0,0,.35-.52,5.65,5.65,0,0,0-.67-1.56c-.51-1,.93-1.61,1.62-1.81,0,0,0,0,0,0a3.35,3.35,0,0,0-1.06.67c-.68.74-.05,1.25.3,1.69a2,2,0,0,1,.36,1.21c0,1.15-1.09,1.22-1.83,1.65a1.94,1.94,0,0,0-.25,1.72,6.06,6.06,0,0,1,.21,2c-.23,1.9-1.73,1.48-3.09,1.56-.81,1.14-1.49,1.48-2.68,1a7.42,7.42,0,0,1,2.34,3.05c.54,1.27.94,2.84,1.56,4.21l0,0a7.35,7.35,0,0,1,.51,1,4.57,4.57,0,0,0,.41.57l.22.14a.3.3,0,0,1,.21.1l.08,0a1.45,1.45,0,0,1,.2-1.39,1.41,1.41,0,0,1,.85-.46,1.46,1.46,0,0,1,.81-.11,2,2,0,0,1,1,.49,7.47,7.47,0,0,1-1.36-2.19c0-.09.12-.16.17-.07a7.92,7.92,0,0,0,2.66,2.93,9.68,9.68,0,0,1-1.69-3.47c.06.23-1.87-1.94-1.79-2.31.2-.88,1.25-1.09,1.87-1.64a.05.05,0,0,1,.07.08c-.62.64-1.86,1-.69,2.16a4,4,0,0,1,1.08,2.24c.52,2.08,2.09,3.76,3.77,5.24l.26.17c4,2.42,8,4.92,12.44,6.37,4.16,1.34,7.84,2.68,10,6.19a.36.36,0,0,1,.23.38c.08.14.15.29.22.43a16,16,0,0,0-1.14-4.56c-.07-.18.17-.33.27-.16,2.67,4.79,1.31,10.35,2.71,15.5.28,1,.6,2,1,3a.24.24,0,0,1,.11.32,51.18,51.18,0,0,0,7.62,14c3.06,4,7.42,7.6,7.29,13-.1,4.35,0,8.73-.12,13.09.1,2.14.25,4.71-.51,6.78-.56,2.13-2,3.93-3.29,5.79-.26.38-3.48,5.58-1.54,5.26a8.73,8.73,0,0,1,3.9.34l0,0a4.61,4.61,0,0,0,1-.2,1.09,1.09,0,0,0,.27-.19,6.23,6.23,0,0,0,.92-2.34,6.25,6.25,0,0,1,.31-1.24c.33-1.2.79-2.15,1.89-2.06a2.3,2.3,0,0,0-.44-.73.36.36,0,0,1,.21-.52c.34-.08.63-.15.93-.2a1.43,1.43,0,0,0-.12-.21,11.19,11.19,0,0,1-1.89-4.68c0-.06.09-.09.1,0a10.51,10.51,0,0,0,.79,2.31,48,48,0,0,1,.55-15.5c.49-2.39,2.45-6.19,2.18-8.58a9.1,9.1,0,0,0-1.14-3.24,30.06,30.06,0,0,1-2.52-4,27.27,27.27,0,0,1-1.75-5.68.1.1,0,1,1,.19-.05,23.38,23.38,0,0,0,1.63,4.73c-1.1-4.55-1.6-8.77,0-13.41,2.09-5.92,6.32-9.86,6.14-16.23a8.59,8.59,0,0,0-3.3-6.37,0,0,0,1,1,0-.07,8.7,8.7,0,0,1,3.48,4.36.26.26,0,0,1,.12.15,13.84,13.84,0,0,1,.33,5.67,5.52,5.52,0,0,0,.78,1.81c-.14-2-.47-4.2.07-6.16a.07.07,0,0,1,.14,0,9.64,9.64,0,0,0,.26,4.24.28.28,0,0,0,0,.09c.92,2,.45,4.52,1.54,6.38l0-.08a27,27,0,0,1-.38-6.52c0-.12.19-.12.18,0a11.31,11.31,0,0,0,.51,4.08c.27.51.55,1.08.86,1.62a.27.27,0,0,1,.06.1,5,5,0,0,0,2.1,2.17,3.39,3.39,0,0,0,4.1-.7A2.71,2.71,0,0,1,115.78,161.4Zm-68-72.27c-1,.46-1.09,2-2.44,1.41a5.5,5.5,0,0,1-.56-.38c-1.45-.77-1,1.28-1,1.57A4.71,4.71,0,0,1,44,93.31a1.18,1.18,0,0,1-1.27,1c-1.34-.1-1.52-2.09-3.23-1.24-.05,0-.09-.05-.05-.08a1.64,1.64,0,0,1,2.11.29,5,5,0,0,0,.81.64c1.77.91,1.37-1.29,1.26-1.76a4.85,4.85,0,0,1-.22-1.55c0-.55.76-1.21,1.33-1a1.58,1.58,0,0,0,1.94-.36,1,1,0,0,1,1-.35C47.87,88.87,48,89.06,47.82,89.13Zm7.86,31.45c-2.45.93-1.08,3.46-1.73,5.24-.21.59-.88,1.68-1.68,1.65-.6,0-2.69.12-1.45,1.09a8.19,8.19,0,0,1,1.14,1c.46.55-.31,2.8,1.25,2.43.13,0,.23.16.1.22-1,.44-1.49,0-1.51-1.07,0-1.46-.65-1.65-1.57-2.58-.21-.21-.7-.64-.56-1s.29-.64.66-.68c2.08-.2,3.83-.5,3.56-3.07-.18-1.79-.13-2.82,1.75-3.34A.08.08,0,1,1,55.68,120.58ZM71.29,134a5.76,5.76,0,0,1-1.93-2.71c-1-2.2-1.59-4.53-2.32-6.8-.52-1.6-1.07-4.81-2.66-5.73-.06,0,0-.14.06-.1,2.11,1.19,2.8,6,3.47,8a31.09,31.09,0,0,0,2.26,5.84A4.7,4.7,0,0,0,71.29,134a1.34,1.34,0,0,0,.56.17A1,1,0,0,1,71.29,134Zm2.7-2c-.67,1.54-1.38,2.17-2.07,2.16h0c1-.12,1.54-1.46,1.91-2.26C73.88,131.85,74,131.94,74,132.05Zm7.86,13.49c-2.94-3.94-5.38-7.67-6.47-12.53,0,0,.05-.06.06,0,1.23,4.79,3.74,8.49,6.53,12.48C82,145.54,81.91,145.61,81.85,145.54Z"/></g></g></svg>