<svg xmlns="http://www.w3.org/2000/svg" viewBox="0 0 169.25 147.79"><defs><style>.cls-1{fill:#fff;}</style></defs><title>frey</title><g id="Layer_2" data-name="Layer 2"><g id="Layer_2-2" data-name="Layer 2"><g id="image_tracing_frey"><path class="cls-1" d="M169.25,12.13c-.69,0-1.32.12-1.95.12-3,0-6,0-9,0-.72,0-1.22-.21-1.22-1,0-3.72,0-7.43,0-11.19h12.18Z"/><path class="cls-1" d="M48.73,113.21H44.49c-1.69,0-3.39,0-5.08-.07a1.92,1.92,0,0,1-1.23-.53q-4.74-5.13-9.39-10.34a4.15,4.15,0,0,1-.48-1.29c.45,0,.71-.09,1-.09,2.51,0,5,0,7.53,0a1.77,1.77,0,0,1,1.18.46c3.41,3.69,6.77,7.41,10.15,11.12C48.29,112.65,48.43,112.84,48.73,113.21Z"/><path class="cls-1" d="M162.2,139.76c-3.09,0-6.08,0-9.07,0a2.14,2.14,0,0,1-1.39-.61c-3.31-3.57-6.57-7.19-9.84-10.79-.16-.18-.29-.38-.55-.71.44,0,.75-.08,1.06-.08,2.72,0,5.45,0,8.17,0a1.76,1.76,0,0,1,1.15.5c3.47,3.76,6.9,7.55,10.34,11.33C162.11,139.42,162.11,139.49,162.2,139.76Z"/><path class="cls-1" d="M8,127.53a54,54,0,0,0,6,0,6.47,6.47,0,0,1,6.33,2.79c2.13,2.7,4.61,5.13,6.9,7.71a8.09,8.09,0,0,1,.86,1.65,8.83,8.83,0,0,1-1,.12c-2.55,0-5.09,0-7.63,0a1.72,1.72,0,0,1-1.18-.48c-3.39-3.67-6.74-7.37-10.09-11.07-.1-.11-.18-.23-.27-.35Z"/><path class="cls-1" d="M130.37,114.28h3.12c1.7,0,3.4,0,5.09,0a1.41,1.41,0,0,1,.94.37c3.44,3.74,6.86,7.51,10.28,11.27a4,4,0,0,1,.31.49h-1.72c-2.46,0-4.91,0-7.36,0a2.19,2.19,0,0,1-1.41-.58c-3-3.2-5.86-6.45-8.82-9.65A1.75,1.75,0,0,1,130.37,114.28Z"/><path class="cls-1" d="M138,113c-1.89,0-3.73,0-5.57,0-1.2,0-2.41.16-3.61.17a1.66,1.66,0,0,1-1.09-.44c-2.83-3.07-5.65-6.14-8.39-9.28a2.36,2.36,0,0,1-.31-1.82c.06-.29.86-.56,1.34-.58,2-.08,3.93-.11,5.89-.07a2,2,0,0,1,1.32.55c3.43,3.7,6.81,7.45,10.21,11.18A2.51,2.51,0,0,1,138,113Z"/><path class="cls-1" d="M24.07,86.46H17.93a5.57,5.57,0,0,0-1,0c-1.9.33-3.2-.45-4.39-1.92C10.82,82.39,8.9,80.41,7,78.4a2.61,2.61,0,0,1-.88-2.23,16.26,16.26,0,0,0,0-1.86h1.1c1.82,0,3.63,0,5.45,0a1.77,1.77,0,0,1,1.17.48c3.28,3.55,6.52,7.14,9.77,10.72.2.22.38.45.56.67Z"/><path class="cls-1" d="M141.18,100.94c2.81,0,5.26,0,7.71,0a1,1,0,0,1,.63.28c3.57,3.9,7.12,7.82,10.77,11.83a7.66,7.66,0,0,1-.77.09c-2.63,0-5.27,0-7.9,0a2,2,0,0,1-1.31-.58c-2.83-3.06-5.66-6.12-8.4-9.27C141.45,102.77,141.45,101.85,141.18,100.94Z"/><path class="cls-1" d="M136.08,86.57c-2.44,0-4.66-.14-6.84.05a4.57,4.57,0,0,1-4.34-1.9c-1.7-2.08-3.6-4-5.37-6a2.14,2.14,0,0,1-.49-1.18c-.07-1,0-2.1,0-3.38,1.88,0,3.69,0,5.49,0a1.21,1.21,0,0,1,.77.42c3.49,3.82,6.95,7.65,10.42,11.48C135.78,86.14,135.84,86.24,136.08,86.57Z"/><path class="cls-1" d="M106.42,76.32l-5.65-6.18c-1.69-1.85-3.35-3.73-5.07-5.55-.89-.93-.11-1.74,0-2.59a1.27,1.27,0,0,1,1.35-1.09c1.36,0,2.73,0,4.08,0a1.32,1.32,0,0,1,.83.46q4,4.37,8,8.79a.93.93,0,0,1,.15.82C108.94,72.75,107.72,74.47,106.42,76.32Z"/><path class="cls-1" d="M145.25,21h1.63c2.28,0,4.55,0,6.82,0a1.71,1.71,0,0,1,1.07.46c2.61,2.82,5.15,5.7,7.78,8.5.89.94.54,2,.65,3.19a45.61,45.61,0,0,0-4.69,0,4.12,4.12,0,0,1-3.86-1.7c-3-3.43-6.08-6.74-9.13-10.1A4.78,4.78,0,0,1,145.25,21Z"/><path class="cls-1" d="M6.12,47.7c1.84,0,3.53,0,5.22,0a1.22,1.22,0,0,1,.77.37q5.15,5.63,10.25,11.28a1.21,1.21,0,0,1,.14.26,6.21,6.21,0,0,1-.68.08c-2.78,0-5.57,0-8.35,0a1.85,1.85,0,0,1-1.21-.56c-1.86-2-3.7-4-5.5-6a2.74,2.74,0,0,1-.61-1.5C6.06,50.34,6.12,49.07,6.12,47.7Z"/><path class="cls-1" d="M119.91,127.57h3.44c1.49,0,3,0,4.45,0a2,2,0,0,1,1.26.51c3.45,3.74,6.86,7.51,10.28,11.27a4.57,4.57,0,0,1,.32.49h-2.44c-1.84,0-3.68,0-5.52,0a1.73,1.73,0,0,1-1.12-.41c-3.47-3.76-6.9-7.55-10.34-11.34A4.82,4.82,0,0,1,119.91,127.57Z"/><path class="cls-1" d="M50.31,140c-3.05-.15-5.88-.28-8.7-.44a1.16,1.16,0,0,1-.67-.37q-5.17-5.66-10.33-11.32a1.94,1.94,0,0,1-.17-.31,3.55,3.55,0,0,1,.51-.08c2.48,0,5,0,7.44,0a1.59,1.59,0,0,1,1,.38c3.55,3.85,7.06,7.72,10.58,11.59A4.67,4.67,0,0,1,50.31,140Z"/><path class="cls-1" d="M89.39,59.68c-.25,0-.44,0-.64,0-2.85,0-5.69,0-8.54,0A2,2,0,0,1,79,59.13q-2.49-2.62-4.89-5.36a2.36,2.36,0,0,1-.5-1.28c-.06-1.21,0-2.42,0-3.63,0-.78.33-1.22,1.09-1.26q1.72-.08,3.45,0a1.19,1.19,0,0,1,.76.4c3.48,3.79,6.93,7.6,10.39,11.4C89.33,59.43,89.33,59.53,89.39,59.68Z"/><path class="cls-1" d="M38,126.43c-2.88,0-5.6,0-8.32,0a1.16,1.16,0,0,1-.78-.36q-5.17-5.67-10.32-11.36c-.07-.08-.12-.19-.28-.43h2.72c1.61,0,3.21,0,4.82,0a2.26,2.26,0,0,1,1.94.85c3.27,3.66,6.59,7.27,9.89,10.9C37.78,126.08,37.84,126.18,38,126.43Z"/><path class="cls-1" d="M6.31,101c1.21-.06,2.23-.15,3.25-.14q2.4,0,4.8.18a1.48,1.48,0,0,1,.93.39q5.13,5.58,10.21,11.2c.08.09.14.19.34.48H23.93c-2,0-4.06,0-6.09,0a1.54,1.54,0,0,1-1-.39C13.38,109,10,105.23,6.59,101.49A2.88,2.88,0,0,1,6.31,101Z"/><path class="cls-1" d="M119,47.72c1.51,0,2.92,0,4.34,0a.86.86,0,0,1,.53.29l10.37,11.41a1.84,1.84,0,0,1,.21.39c-.34,0-.6.06-.85.06-2.76,0-5.51,0-8.26,0a2,2,0,0,1-1.3-.57c-1.53-1.6-3-3.23-4.45-4.91A2.51,2.51,0,0,1,119,53C118.94,51.24,119,49.52,119,47.72Z"/><path class="cls-1" d="M33.59,21.11c.36,0,.62-.06.87-.06,2.43,0,4.85,0,7.27,0a2.23,2.23,0,0,1,1.4.6c2.18,2.32,4.28,4.7,6.44,7a2.14,2.14,0,0,1,.64,1.7c-.05.87,0,1.74,0,2.66-1.87,0-3.62,0-5.37,0a1.36,1.36,0,0,1-.86-.4q-5.05-5.5-10.08-11.07A2.78,2.78,0,0,1,33.59,21.11Z"/><path class="cls-1" d="M147,47.55c2.78,0,5.55,0,8.32,0a1.47,1.47,0,0,1,.92.47c2.15,2.33,4.3,4.67,6.4,7.05a2.46,2.46,0,0,1,.5,1.38c.08,1,0,2.1,0,3.25-1.78,0-3.5,0-5.21,0a.83.83,0,0,1-.53-.27q-5.26-5.74-10.5-11.53Z"/><path class="cls-1" d="M46.88,86.46c-3.25,0-6.33,0-9.41,0a1.08,1.08,0,0,1-.69-.34c-1.62-1.76-3.22-3.53-4.82-5.3a1.22,1.22,0,0,1-.36-.7c0-1.86,0-3.73,0-5.7,1.45,0,2.84,0,4.22,0a1,1,0,0,1,.58.36L46.63,86.07A4.05,4.05,0,0,1,46.88,86.46Z"/><path class="cls-1" d="M59.39,60.94c.39,0,.75,0,1.11,0,2.18,0,4.36,0,6.54,0a2.28,2.28,0,0,1,1.4.6c2.08,2.19,4.21,4.36,6.1,6.71a17.31,17.31,0,0,1,1.77,3.88c-1.81.65-3.36,1.22-4.92,1.74a.83.83,0,0,1-.7-.22c-3.78-4.13-7.53-8.28-11.29-12.43A1.85,1.85,0,0,1,59.39,60.94Z"/><path class="cls-1" d="M96.32,48a1.68,1.68,0,0,1,.32-.07c1.38-.06,2.93-.52,4.11,0s1.92,1.86,2.84,2.86c2.51,2.75,5,5.5,7.5,8.26.2.21.38.43.66.77a7.49,7.49,0,0,1-.75.11c-2.63,0-5.27,0-7.9,0a2,2,0,0,1-1.3-.59q-2.52-2.65-4.94-5.43a2.35,2.35,0,0,1-.52-1.36C96.28,51,96.32,49.49,96.32,48Z"/><path class="cls-1" d="M6,21c1.46,0,2.64,0,3.81,0a1.05,1.05,0,0,1,.7.33Q15.66,27,20.8,32.69c.05.05.06.15.14.35H19.82c-2.63,0-5.26,0-7.9,0a2.09,2.09,0,0,1-1.34-.52C9.15,31,7.78,29.49,6.42,28A1.69,1.69,0,0,1,6,27C6,25,6,23.07,6,21Z"/><path class="cls-1" d="M24.89,93.51c1.79,0,3.51,0,5.23,0a1.94,1.94,0,0,1,1.23.53c1.61,1.69,3.16,3.43,4.73,5.16.14.15.24.32.44.59-.31,0-.5.06-.7.05-2.91,0-5.81-.06-8.72-.15A1.81,1.81,0,0,1,26,99.17c-2.78-3-5.56-6-8.24-9.08-.48-.55-.47-1.51-.74-2.46h5.16a11.7,11.7,0,0,0,1.45,0c.89-.1,1.11.35,1.09,1.12,0,1.18,0,2.36,0,3.54A7,7,0,0,0,24.89,93.51Z"/><path class="cls-1" d="M102.79,47.58h3.41c1.51,0,3,0,4.54,0a2.39,2.39,0,0,1,1.47.65c1.87,2,3.69,4,5.49,6a2.27,2.27,0,0,1,.49,1.28c.07,1.08,0,2.17,0,3.26,0,.67-.27,1-1,1-1.06,0-2.12,0-3.17,0a1.23,1.23,0,0,1-.8-.35c-3.53-3.85-7-7.72-10.55-11.59Z"/><path class="cls-1" d="M118.11,46.4c-1.9,0-3.71,0-5.52,0a1.32,1.32,0,0,1-.74-.46c-1.86-2-3.72-4.05-5.56-6.1a1.49,1.49,0,0,1-.32-.89c0-1.24,0-2.48,0-3.73,0-.53.17-.75.72-.77,1.27,0,2.53-.21,3.8-.22a1.89,1.89,0,0,1,1.25.5c2,2.17,4,4.37,6,6.57a1.27,1.27,0,0,1,.37.7C118.13,43.42,118.11,44.87,118.11,46.4Z"/><path class="cls-1" d="M51.22,47.61c1.47,0,2.83,0,4.19,0a1.31,1.31,0,0,1,.84.44q5.2,5.68,10.37,11.4a1.76,1.76,0,0,1,.12.36h-1c-2.24,0-4.47,0-6.71,0a1.8,1.8,0,0,1-1.5-.66C55.63,57,53.67,55,51.8,52.84a2.53,2.53,0,0,1-.55-1.43C51.17,50.21,51.22,49,51.22,47.61Z"/><path class="cls-1" d="M57.68,47.68c.47,0,.79-.08,1.1-.08,2.34,0,4.67,0,7,0a2,2,0,0,1,1.66.73c1.54,1.75,3.11,3.47,4.7,5.18a2.22,2.22,0,0,1,.68,1.79c-.08,1.08-.1,2.17-.14,3.26,0,.9-.49,1.21-1.38,1.3A4.62,4.62,0,0,1,66.94,58c-2.73-3.24-5.67-6.3-8.52-9.44C58.2,48.32,58,48.06,57.68,47.68Z"/><path class="cls-1" d="M158.68,86.49c-.34,0-.6.07-.86.07-2.78,0-5.57,0-8.35-.1a2,2,0,0,1-1.23-.56c-1.14-1.16-2.21-2.39-3.29-3.62a1.42,1.42,0,0,1-.43-.84c0-2.33,0-4.65,0-7.09,1.06,0,2.07,0,3.08,0a.9.9,0,0,1,.52.33q5.21,5.7,10.37,11.42A1.71,1.71,0,0,1,158.68,86.49Z"/><path class="cls-1" d="M137.61,93.57c1.42,0,2.69,0,4,0a1.88,1.88,0,0,1,1.65.72c1.56,1.76,3.16,3.5,4.84,5.34a3.79,3.79,0,0,1-.67.11c-2.7,0-5.39,0-8.09,0a1.79,1.79,0,0,1-1.15-.51c-2.37-2.55-4.63-5.2-7.08-7.68-1.13-1.14-.9-2.38-.92-3.81h3.54c1,0,1.94,0,2.91,0,.74,0,1,.29,1,1C137.6,90.29,137.61,91.86,137.61,93.57Z"/><path class="cls-1" d="M122.54,21c3,0,5.82,0,8.66,0a1.22,1.22,0,0,1,.76.39c1.79,1.93,3.57,3.87,5.31,5.84a1.75,1.75,0,0,1,.37,1.06c0,1.34,0,2.67,0,4a.72.72,0,0,1-.79.85c-1,0-2.06,0-3.09,0a1,1,0,0,1-.58-.35Q128,27.07,122.73,21.32A2.08,2.08,0,0,1,122.54,21Z"/><path class="cls-1" d="M95.41,59.77c-1.33,0-2.54,0-3.74,0a1,1,0,0,1-.61-.32q-5.3-5.79-10.56-11.62a2.38,2.38,0,0,1-.11-.26c1.26,0,2.49,0,3.71,0,1.54,0,3.08,0,4.62.11a2,2,0,0,1,1.25.49c1.69,1.78,3.32,3.6,5,5.43a1.63,1.63,0,0,1,.47.93C95.44,56.25,95.41,58,95.41,59.77Z"/><path class="cls-1" d="M29.94,53.82c1.41-.2,1.47-.26,1.49-1.59,0-1.49,0-3,0-4.54,1.06,0,1.84,0,2.62,0a1.42,1.42,0,0,1,.84.43q5,5.51,10,11a7.55,7.55,0,0,1,.48.64c-.32,0-.51.06-.71.06-2.67,0-5.33,0-8,0a2.28,2.28,0,0,1-2-.88C33.16,57.28,31.58,55.62,29.94,53.82Z"/><path class="cls-1" d="M52.75,61c1.49,0,3,0,4.49,0,.2,0,.42.23.58.4q5.81,6.36,11.6,12.75a2.65,2.65,0,0,1,.19.32c-2,.7-3.94,1.4-5.91,2-.19.06-.6-.27-.78-.52q-4.35-6.2-8.68-12.41l-1.55-2.22Z"/><path class="cls-1" d="M125.42,47.71h2.76c1.85,0,3.69,0,5.54,0a3.83,3.83,0,0,1,1.3.58,1.25,1.25,0,0,1,.24.27c1.23,1.4,3,2.56,2.17,4.89l2.06.22a1,1,0,0,1,1,1.05c0,1.57,0,3.14,0,4.87-1.36,0-2.68.12-4,.14a1,1,0,0,1-.59-.37Q130.75,53.72,125.6,48A1.87,1.87,0,0,1,125.42,47.71Z"/><path class="cls-1" d="M36.26,47.68h2.38c2,0,4,0,6,0a2,2,0,0,1,1.23.54c1.29,1.33,2.49,2.73,3.76,4.08a2.44,2.44,0,0,1,.7,1.86c0,1.81,0,3.63,0,5.54-1.53.07-2.92.45-4.19-1-3.08-3.62-6.35-7.06-9.55-10.58C36.49,48,36.43,47.93,36.26,47.68Z"/><path class="cls-1" d="M137.35,61c3.11,0,6,0,8.79,0a1.3,1.3,0,0,1,.83.43c1.39,1.51,2.78,3,4.12,4.59a2.18,2.18,0,0,1,.5,1.26c.06,1.87,0,3.74,0,5.71-1.09,0-2.11,0-3.13,0a1.07,1.07,0,0,1-.57-.38c-1-1.13-2.13-2.23-3.09-3.43a5.51,5.51,0,0,1-.53-1.79c-1.36.14-2-1-2.88-1.93Z"/><path class="cls-1" d="M51.24,34.24c1.08,0,2,0,2.95,0a1.43,1.43,0,0,1,.83.45c2.63,2.88,5.23,5.79,7.89,8.64.83.89.39,1.87.55,3a34,34,0,0,0-4.05,0,4.65,4.65,0,0,1-5-2.19,3.61,3.61,0,0,0-.91-1,6,6,0,0,1-2.28-6A22.6,22.6,0,0,0,51.24,34.24Z"/><path class="cls-1" d="M149.67,74.37c.35,0,.57-.06.8-.06,2.39,0,4.79,0,7.18,0a2,2,0,0,1,1.72.75c1.06,1.25,2.22,2.41,3.27,3.66a2.32,2.32,0,0,1,.53,1.36c.06,2.08,0,4.17,0,6.4-.81,0-1.56,0-2.3,0a1.24,1.24,0,0,1-.75-.42Q155.1,80.51,150.07,75A6,6,0,0,1,149.67,74.37Z"/><path class="cls-1" d="M40,60.82c2,0,4,0,5.9,0a1.64,1.64,0,0,1,1,.51c1,1.07,2,2.18,3,3.29a1.33,1.33,0,0,1,.41.67c0,2.53,0,5.07,0,7.69-.92,0-1.76,0-2.6,0a1.14,1.14,0,0,1-.66-.39q-3.34-3.65-6.67-7.31A1.54,1.54,0,0,1,40,64.4C40,63.31,40,62.22,40,60.82Z"/><path class="cls-1" d="M166.06,19.7c-3.61,0-7.18,0-10.74,0a1,1,0,0,1-.7-.32c-1.7-1.84-3.39-3.71-5.07-5.57,0,0,0-.1,0-.22h16.54Z"/><path class="cls-1" d="M81.62,46.33c-1.36.16-2.45.2-3.47-1-2.52-3-5.21-5.81-7.84-8.68-.51-.55-1-1.11-.68-1.9s1.09-.49,1.69-.5c1.78,0,3.57,0,5.35,0a1.65,1.65,0,0,1,1.07.48c1.2,1.24,2.35,2.52,3.5,3.81a1.22,1.22,0,0,1,.36.7C81.63,41.6,81.62,44,81.62,46.33Z"/><path class="cls-1" d="M163.15,99.7c-.74,0-1.38,0-2,0a1.22,1.22,0,0,1-.74-.39q-3.53-3.84-7-7.7A5.26,5.26,0,0,1,153.1,88a1.1,1.1,0,0,1,.75-.4c1.84,0,3.69,0,5.53,0a1.38,1.38,0,0,1,.71.32c.21.16.33.43.55.59,2.24,1.71,2.86,4,2.54,6.69A40.57,40.57,0,0,0,163.15,99.7Z"/><path class="cls-1" d="M88.69,71.88c-.66,0-1.19-.12-1.71-.11-2.09,0-4.18,0-6.27.11a1.75,1.75,0,0,1-1.72-.7,5.59,5.59,0,0,0-1-1.13c-2.55-2-2.82-5-3.62-7.79-.11-.38-.18-.76-.29-1.26,1.59,0,3.12,0,4.64,0a1,1,0,0,1,.59.37q4.61,5,9.17,10.08A4.5,4.5,0,0,1,88.69,71.88Z"/><path class="cls-1" d="M13.65,47.71c3,0,5.83,0,8.7,0a.76.76,0,0,1,.48.19c1,1,2.07,1.91,1.89,3.66-.2,2,0,2,2,2,.27,0,.53,0,.85,0v6.07c-1,0-1.91,0-2.84,0a.84.84,0,0,1-.53-.26Q18.95,53.74,13.78,48S13.73,47.92,13.65,47.71Z"/><path class="cls-1" d="M6,34.19c1.5,0,2.71,0,3.91,0a1.46,1.46,0,0,1,.91.46q2.58,2.74,5.07,5.56a1.72,1.72,0,0,1,.42,1c0,1.33,0,2.66,0,4,0,.84-.37,1.2-1.21,1.17s-1.45,0-2.17,0a1.65,1.65,0,0,1-1-.45c-1.88-2-3.73-4-5.58-6.07A1.13,1.13,0,0,1,6,39.27C6,37.62,6,36,6,34.19Z"/><path class="cls-1" d="M152.83,34.42c1.79-.36,3-.07,4,1.24,1.68,2.09,3.58,4,5.41,6a2.47,2.47,0,0,1,.82,2.08c-.08.81,0,1.63,0,2.6a35.59,35.59,0,0,0-3.73,0c-2,.21-3.67-.2-4.79-2.05a15.32,15.32,0,0,0-1.33-1.48,1.41,1.41,0,0,1-.35-.79C152.82,39.49,152.83,37,152.83,34.42Z"/><path class="cls-1" d="M129.21,46.39c-1.67,0-3.23,0-4.8,0a1.23,1.23,0,0,1-.73-.44c-1.44-1.55-2.89-3.1-4.27-4.7a2.38,2.38,0,0,1-.52-1.35c-.07-1.51,0-3,0-4.54,0-.85.33-1,1.12-1.12a3.9,3.9,0,0,1,3.74,1.58c1.56,2,3.36,3.72,5,5.61a2,2,0,0,1,.46,1.19C129.25,43.81,129.21,45,129.21,46.39Z"/><path class="cls-1" d="M55.71,82.14q-2.13-2.34-4.25-4.69a1.06,1.06,0,0,1-.22-.65c0-3.42,0-6.84,0-10.25,0,0,0-.1.15-.25L61.82,77.76Z"/><path class="cls-1" d="M25.62,61h2.84c1.88,0,3.76,0,5.63,0a1.72,1.72,0,0,1,1.09.47c1.09,1.12,2.14,2.3,3.18,3.48a1.23,1.23,0,0,1,.31.7c0,2.42,0,4.84,0,7.31a2.94,2.94,0,0,1-3.1-.87c-3.11-3.57-6.35-7-9.54-10.55C25.94,61.41,25.84,61.27,25.62,61Z"/><path class="cls-1" d="M119,60.88c1.51,0,2.87,0,4.23,0a1.48,1.48,0,0,1,.92.46q2.39,2.55,4.7,5.17a1.78,1.78,0,0,1,.43,1c0,1.55,0,3.09,0,4.63,0,.67-.29.8-.93.88a4.56,4.56,0,0,1-4.63-2,52.71,52.71,0,0,0-4.08-4.51,2.21,2.21,0,0,1-.65-1.7C119,63.56,119,62.3,119,60.88Z"/><path class="cls-1" d="M44.32.18a2.61,2.61,0,0,1,2.88.9c2.86,3.29,5.85,6.46,8.76,9.69a7.38,7.38,0,0,1,.74,1.45c-3,0-5.62,0-8.28,0a1.12,1.12,0,0,1-.69-.38q-1.6-1.73-3.16-3.5a1.15,1.15,0,0,1-.29-.72c0-2.33-.05-4.66-.05-7A2.05,2.05,0,0,1,44.32.18Z"/><path class="cls-1" d="M42.5,33.05c-2.88,0-5.6,0-8.32,0a1.69,1.69,0,0,1-.71-.33c-.1-.05-.15-.18-.25-.26A4.41,4.41,0,0,1,31.42,28a1.37,1.37,0,0,0,0-.45,1.93,1.93,0,0,0-.08-.3l-2.76-.18v-6c.94,0,1.9,0,2.85,0a1.34,1.34,0,0,1,.75.46q5,5.52,10.06,11.07A4.15,4.15,0,0,1,42.5,33.05Z"/><path class="cls-1" d="M12,21c3,0,5.87,0,8.74,0a.84.84,0,0,1,.55.24C23,23.13,24.76,25,26.64,27.09l-1.93.13V33a2.58,2.58,0,0,1-2.78-.91c-3.18-3.6-6.45-7.12-9.69-10.68A3,3,0,0,1,12,21Z"/><path class="cls-1" d="M40,34.33c1.19,0,2.25,0,3.3,0a1.69,1.69,0,0,1,1,.54c1.85,2,3.68,4,5.49,6a1.9,1.9,0,0,1,.49,1.11c.06,1.24,0,2.49,0,3.73,0,.46-.16.65-.64.64-1.05,0-2.12,0-3.17,0a1.54,1.54,0,0,1-.94-.45c-1.71-1.83-3.39-3.7-5.06-5.57a1.58,1.58,0,0,1-.45-.85C40,37.84,40,36.15,40,34.33Z"/><path class="cls-1" d="M8.17,12.24a10.45,10.45,0,0,0-1.61,0c-1.89.33-3.14-.48-4.43-1.87C.63,8.77-.26,7.18.08,4.93A34.74,34.74,0,0,0,.15,1.39C.17,1,.33.19.5.16c.68-.09,1.42-.29,2,.4C4,2.29,5.61,4,7.16,5.67l4.46,4.9a3.36,3.36,0,0,1,.46.55c.32.56.13.91-.53.94C10.34,12.14,9.13,12.19,8.17,12.24Z"/><path class="cls-1" d="M163.13,73.06c-1.25,0-2.42,0-3.59,0a1.13,1.13,0,0,1-.67-.4c-1.82-2-3.62-4-5.42-6a1.48,1.48,0,0,1-.42-.77c0-1.59,0-3.19,0-4.89,1.32,0,2.58,0,3.84,0,.24,0,.52.28.71.49q2.58,2.79,5.13,5.63a1.42,1.42,0,0,1,.41.77C163.15,69.61,163.13,71.29,163.13,73.06Z"/><path class="cls-1" d="M131.78,33.15c-3,0-5.72,0-8.47,0a1.22,1.22,0,0,1-.74-.42c-1.14-1.21-2.27-2.44-3.37-3.68a1.34,1.34,0,0,1-.32-.79q0-3.14,0-6.27a4,4,0,0,1,.19-.93,2.29,2.29,0,0,1,2.5.84C124.88,25.61,128.26,29.28,131.78,33.15Z"/><path class="cls-1" d="M80.7,61c3.35,0,6.49,0,9.64,0a1.21,1.21,0,0,1,.76.38c.83.87,1.61,1.8,2.45,2.66a1.32,1.32,0,0,1,.35,1.47c-.53,1.86-1,3.73-1.54,5.58-.1.35-.35,1-.47.94a2.86,2.86,0,0,1-1.62-.51C89,70.31,87.88,69,86.7,67.67l-5.49-6.05C81.08,61.47,81,61.31,80.7,61Z"/><path class="cls-1" d="M16.28,73c-1.31.19-2.35.17-3.29-1-2-2.43-4.26-4.7-6.36-7.08a2.31,2.31,0,0,1-.51-1.27C6,62.82,6.1,62,6.1,61c2,0,4,0,5.87,0a1.34,1.34,0,0,1,.73.48c1.07,1.15,2.13,2.3,3.16,3.49a1.66,1.66,0,0,1,.41,1C16.3,68.28,16.28,70.58,16.28,73Z"/><path class="cls-1" d="M50.31,86.11a2.1,2.1,0,0,1-2.64-.77c-2.94-3.32-6-6.59-9-9.87l-.86-1c.42,0,.68-.07.93-.07,2.42,0,4.84,0,7.26,0a1.75,1.75,0,0,1,1.56.71A8.56,8.56,0,0,0,49,76.65a3.82,3.82,0,0,1,1.34,3.52C50.24,82.15,50.31,84.15,50.31,86.11Z"/><path class="cls-1" d="M34.31,12a6.52,6.52,0,0,1-1.19.25c-2.36,0-4.72,0-7.08,0A1.85,1.85,0,0,1,25,11.74c-.53-.48-.93-1.13-1.49-1.58a4,4,0,0,1-1.38-3.7c.1-2.08,0-4.17,0-6.26a1.75,1.75,0,0,1,2,.52C27.23,4.17,30.36,7.58,33.48,11,33.7,11.25,33.9,11.51,34.31,12Z"/><path class="cls-1" d="M50.45,94.86c0,1.31,0,2.61,0,3.91,0,.33-.26.93-.42.94a1.61,1.61,0,0,1-1.19-.39c-2.82-3-5.64-6.08-8.34-9.21-.42-.48-.28-1.47-.3-2.22,0-.1.55-.32.85-.32,2.18,0,4.36,0,6.54,0a1.18,1.18,0,0,1,.27,0,7.81,7.81,0,0,1,2.58,3.32c0,.67,0,1.33,0,2s0,1.33,0,2Z"/><path class="cls-1" d="M129.21,99.74A2,2,0,0,1,127,99c-2.44-2.76-4.92-5.51-7.45-8.19a2.88,2.88,0,0,1-.68-2.41.83.83,0,0,1,.93-.88c1.82,0,3.64,0,5.45,0a1.6,1.6,0,0,1,1,.5c.91.94,1.78,1.9,2.63,2.89a1.51,1.51,0,0,1,.35.88c0,2.51,0,5,0,7.54A2.7,2.7,0,0,1,129.21,99.74Z"/><path class="cls-1" d="M151.1,101a4.83,4.83,0,0,1,.62-.07c2.57,0,5.15,0,7.72,0a2.44,2.44,0,0,1,1.29.58c.43.33.69.87,1.11,1.2a3.9,3.9,0,0,1,1.4,3.67c-.11,2.2,0,4.41,0,6.61a1.38,1.38,0,0,1-1.65-.46c-3.32-3.69-6.67-7.35-10-11C151.42,101.42,151.3,101.26,151.1,101Z"/><path class="cls-1" d="M99.51,46.38H97.15c-2.06,0-4.12,0-6.17,0a2.83,2.83,0,0,1-1.48-.63,4.52,4.52,0,0,1-1.79-4.33c.18-2,0-4.11.08-6.17,0-.31.27-.61.41-.92a3,3,0,0,1,.83.43q5.06,5.52,10.08,11.07A5.75,5.75,0,0,1,99.51,46.38Z"/><path class="cls-1" d="M154.38,33.06a1.05,1.05,0,0,1-.31.11h-9.6V27.11h-3.09v-6a2.93,2.93,0,0,1,3.08,1c3,3.5,6.2,6.87,9.32,10.3C154,32.57,154.16,32.8,154.38,33.06Z"/><path class="cls-1" d="M128.8,100.83c.77,0,1.33,0,1.89,0,2.2,0,4.41,0,6.62.13a2.58,2.58,0,0,1,1.21.59c1.9,1.39,2.37,3.3,2.14,5.57-.15,1.46,0,3,0,4.44a2.72,2.72,0,0,1,0,.81,1.37,1.37,0,0,1-.47.7c-.08.05-.45-.21-.62-.39q-2.49-2.7-5-5.42t-5.18-5.71C129.21,101.39,129.08,101.19,128.8,100.83Z"/><path class="cls-1" d="M141.74,53.71h2.55V47.78c.51.19,1,.22,1.18.46,3.41,3.7,6.78,7.42,10.15,11.14.06.06.07.15.15.34h-2.66c-1.42,0-2.85-.08-4.27,0A3.09,3.09,0,0,1,146,58.51c-1.18-1.46-2.5-2.8-3.75-4.19C142.07,54.17,142,54,141.74,53.71Z"/><path class="cls-1" d="M111,71.3c2,2.18,3.83,4.31,5.8,6.31a4.14,4.14,0,0,1,1.34,3.53c-.13,1.52,0,3.06,0,4.8-.35-.26-.54-.38-.7-.53a59.66,59.66,0,0,0-8.88-7c-1.64-1-1.65-1.16-.56-2.74C109,74.22,110,72.82,111,71.3Z"/><path class="cls-1" d="M141.05,67.13h-3.43v5.79a1.33,1.33,0,0,1-1.61-.41c-1.84-2.05-3.71-4.07-5.55-6.12a1.31,1.31,0,0,1-.31-.8c0-1.21,0-2.42,0-3.63,0-.69.25-1,.95-1,1.36,0,2.72,0,4.09,0a1.2,1.2,0,0,1,.78.33c1.63,1.75,3.23,3.53,4.83,5.3A3.35,3.35,0,0,1,141.05,67.13Z"/><path class="cls-1" d="M6.18,87.53h7a1.23,1.23,0,0,1,.27,0c.75.19,3,2.92,3,3.7,0,2.48,0,5,0,7.44a3.12,3.12,0,0,1-.41,1,3.89,3.89,0,0,1-.86-.53c-2.73-3-5.41-6-8.17-8.9A3.09,3.09,0,0,1,6.18,87.53Z"/><path class="cls-1" d="M17.22,61c2.17,0,4.22,0,6.27,0a.85.85,0,0,1,.56.22l5.46,6H24.7v5.56c-.9-1-1.65-1.76-2.38-2.56-1.55-1.7-3.11-3.39-4.63-5.11a1.82,1.82,0,0,1-.45-1C17.18,63.1,17.22,62.11,17.22,61Z"/><path class="cls-1" d="M152.85,114.3c2.9,0,5.55,0,8.2,0,.61,0,2.22,1.8,2.23,2.42,0,3.14,0,6.28,0,9.68a4.82,4.82,0,0,1-.92-.58c-3-3.27-6-6.55-9-9.87A4.9,4.9,0,0,1,152.85,114.3Z"/><path class="cls-1" d="M24.7,41.63c0,1.21,0,2.42,0,3.63a2.35,2.35,0,0,1-.29,1.07A2.66,2.66,0,0,1,22.84,46c-1.26-1.23-2.29-2.69-3.61-3.83A6.35,6.35,0,0,1,17,36.28c.18-2,0-2,2-2a3.3,3.3,0,0,0,.63,0A4,4,0,0,1,24,36.13a2.82,2.82,0,0,1,.7,1.87c-.06,1.2,0,2.42,0,3.63Z"/><path class="cls-1" d="M39.8,139.88c-3.11,0-5.92,0-8.73,0a1.44,1.44,0,0,1-.84-.4,14.62,14.62,0,0,1-1.41-1.54,1.37,1.37,0,0,1-.32-.81q0-4.44,0-8.89a2.39,2.39,0,0,1,.18-.53C32.4,131.76,36,135.73,39.8,139.88Z"/><path class="cls-1" d="M135.25,0l11.12,12.22c-1.23,0-2.18,0-3.12,0-1.82,0-3.64,0-5.45-.13a2.49,2.49,0,0,1-1.23-.55A4.07,4.07,0,0,1,135,7.71c.13-2,0-3.93,0-5.9C135.06,1.29,135.17.76,135.25,0Z"/><path class="cls-1" d="M129.24,126.39c-1.56-1.71-3-3.21-4.33-4.73-1.81-2-3.62-4-5.41-6a3.58,3.58,0,0,1-.44-1,3.22,3.22,0,0,1,1-.41c2.24,0,4.48,0,6.72,0a1.81,1.81,0,0,1,.93.41,4.32,4.32,0,0,1,1.68,4.11c-.16,1.95-.05,3.93-.07,5.9C129.36,125.17,129.29,125.64,129.24,126.39Z"/><path class="cls-1" d="M137.57,46.44a17.79,17.79,0,0,1-2,0,1.82,1.82,0,0,1-1-.46c-1.39-1.48-2.76-3-4.09-4.51a2,2,0,0,1-.48-1.19c0-1.61,0-3.21,0-4.82,0-.83.38-1.15,1.21-1.21a2.6,2.6,0,0,1,2.43,1c1,1.25,2.19,2.35,3.21,3.59a2.82,2.82,0,0,1,.61,1.6C137.61,42.4,137.57,44.36,137.57,46.44Z"/><path class="cls-1" d="M114.68.1c3.09,0,6.18,0,9.27,0,.85,0,1.34.62,1.34,1.71,0,2.87,0,5.75,0,8.63V11.7l-.24.13Q119.78,6.07,114.53.33Z"/><path class="cls-1" d="M50.12,112.77c-3.55-3.9-7.1-7.79-10.8-11.87,1.53,0,2.82,0,4.1,0s2.66,0,4,.08a3,3,0,0,1,2.94,3.48,10,10,0,0,0,.07,4.07,32.21,32.21,0,0,1,0,4.17Z"/><path class="cls-1" d="M27.38,112.76,16.74,101.07c.39,0,.61-.08.84-.09H25c.95,0,2.59,1.4,2.61,2.35,0,3.11,0,6.22,0,9.33Z"/><path class="cls-1" d="M144.47,87.64c1.21,0,2.32,0,3.42,0,.2,0,.42.23.57.4,1,1.07,2,2.14,2.93,3.23a1.4,1.4,0,0,1,.38.78q0,3.45,0,6.9c0,.83-.24.72-1,.59-2.5-.42-3.13-2.9-4.82-4.19a3.59,3.59,0,0,1-1.48-3.64A27.71,27.71,0,0,0,144.47,87.64Z"/><path class="cls-1" d="M38.75,46.43c-1.23,0-2.28,0-3.33,0a1.24,1.24,0,0,1-.76-.4c-1-1.06-2-2.14-2.93-3.22a1.16,1.16,0,0,1-.3-.62c0-2.33,0-4.66.11-7,0-.3.26-.8.46-.84a1.75,1.75,0,0,1,1.34.18c1.78,1.85,3.49,3.77,5.21,5.68a1,1,0,0,1,.19.58C38.75,42.62,38.75,44.46,38.75,46.43Z"/><path class="cls-1" d="M40.37,114.48c1.21-.07,2.11-.14,3-.16,2.06,0,4.12-.09,6.17,0,.66,0,.79.65.8,1.23l.09,7.81c0,.8,0,1.61,0,2.58a4.06,4.06,0,0,1-.51-.37c-3-3.31-6-6.61-9-9.94A4.09,4.09,0,0,1,40.37,114.48Z"/><path class="cls-1" d="M37.43,13.5c3.34,0,6.51,0,9.68,0a1,1,0,0,1,.7.31c1.62,1.75,3.22,3.52,4.83,5.29a4.62,4.62,0,0,1,.27.43c-.71.06-1.31.15-1.92.15q-3.63,0-7.26,0a1.15,1.15,0,0,1-.76-.17C41.12,17.56,39.3,15.55,37.43,13.5Z"/><path class="cls-1" d="M137.38,86,126.73,74.28c.34,0,.56-.09.77-.1H135c.87,0,2.31,1.19,2.32,2.06C137.4,79.43,137.38,82.64,137.38,86Z"/><path class="cls-1" d="M142.15,19.7h-1.3c-2.54,0-5.09,0-7.63,0a2,2,0,0,1-1.73-.72c-1.41-1.62-2.88-3.18-4.32-4.77-.15-.17-.27-.37-.51-.7h1.85c2.45,0,4.9,0,7.35,0a2.08,2.08,0,0,1,1.3.59c1.52,1.59,3,3.24,4.47,4.87C141.78,19.17,141.9,19.36,142.15,19.7Z"/><path class="cls-1" d="M6.35,128.1l10.5,11.54a2.75,2.75,0,0,1-.53.13H8.51c-.8,0-2.34-1.3-2.35-2.07,0-3.17,0-6.34,0-9.51Z"/><path class="cls-1" d="M35.88,147.58H26.14a.69.69,0,0,1-.49-.18c-1.76-1.9-3.5-3.81-5.42-5.91H22c2.58,0,5.15,0,7.72.05a1.34,1.34,0,0,1,.91.25C32.36,143.67,34.09,145.6,35.88,147.58Z"/><path class="cls-1" d="M141.19,114.24c2.86,0,5.73,0,8.59,0,.7,0,1.81,1.53,1.81,2.32,0,2.36,0,4.72,0,7.08a18.56,18.56,0,0,1,0,2.36L141.1,114.47Z"/><path class="cls-1" d="M123.63,12.21c-3.09,0-5.93,0-8.77,0a2.73,2.73,0,0,1-1.8-1.82c0-3.12,0-6.24,0-9.35,0,0,.07-.08.19-.22Z"/><path class="cls-1" d="M38.43,99.81a9.87,9.87,0,0,1-.75-.7c-1.93-2.11-3.87-4.23-5.78-6.37a1.41,1.41,0,0,1-.44-.84c0-1.38.1-2.76.17-4.35,1.5,0,2.95,0,4.39,0a1,1,0,0,1,.62.28c.66.7,1.31,1.42,1.94,2.15a1.14,1.14,0,0,1,.27.64c0,3,0,6,0,9Z"/><path class="cls-1" d="M6.53,115.3c3.3,3.63,6.6,7.27,10,11a5.44,5.44,0,0,1-.76.1c-2.84,0-5.68,0-8.53,0-.71,0-1.17-.2-1.16-1q.06-5,.1-10Z"/><path class="cls-1" d="M140.38,138.64l-9.92-10.88a1.89,1.89,0,0,1,.47-.15c2.7,0,5.39-.07,8.09-.09a2,2,0,0,1,1.54,1.56c0,3.15,0,6.29,0,9.43C140.55,138.53,140.5,138.55,140.38,138.64Z"/><path class="cls-1" d="M41.31,19.7c-3,0-5.82,0-8.6,0a1.11,1.11,0,0,1-.74-.25c-1.81-1.94-3.59-3.91-5.49-6,.39,0,.61-.08.83-.09,2.51,0,5,0,7.54,0a2,2,0,0,1,1.22.55c1.54,1.62,3,3.29,4.54,5Z"/><path class="cls-1" d="M9.6,141.43h3c1.75,0,3.51,0,5.26,0a1.36,1.36,0,0,1,.9.27c1.81,1.94,3.59,3.91,5.43,5.93a1.47,1.47,0,0,1-.4.14c-2.66,0-5.32,0-8-.08a1.45,1.45,0,0,1-1-.27c-1.77-1.89-3.5-3.82-5.25-5.74Z"/><path class="cls-1" d="M137.07.11h10.15V11.27Z"/><path class="cls-1" d="M17.26,115.11l10.3,11.32H19.21a1.79,1.79,0,0,1-1.93-1.72C17.23,121.59,17.26,118.48,17.26,115.11Z"/><path class="cls-1" d="M121.51,141.5h6.56c2.74,0,2.73,0,4.52,2,1.17,1.33,2.38,2.65,3.66,4.06a4.38,4.38,0,0,1-.65.11c-2.61,0-5.21,0-7.82,0a1.43,1.43,0,0,1-.94-.36C125.1,145.46,123.4,143.58,121.51,141.5Z"/><path class="cls-1" d="M19.85,19.65c-3.13,0-6,0-8.86,0a1,1,0,0,1-.61-.32c-1.67-1.83-3.33-3.67-5-5.51,0,0,0-.11,0-.26H8.23a33,33,0,0,0,3.72,0,4,4,0,0,1,4,1.71C17.05,16.72,18.42,18.06,19.85,19.65Z"/><path class="cls-1" d="M130.29,19.68c-2.72,0-5.28,0-7.83,0a2.45,2.45,0,0,1-2.1-.95c-1.22-1.42-2.52-2.78-3.77-4.18a10.05,10.05,0,0,1-.67-1.05h3.68c1.54,0,3.08,0,4.63,0a1.42,1.42,0,0,1,.93.38c1.64,1.73,3.24,3.51,4.85,5.27A4,4,0,0,1,130.29,19.68Z"/><path class="cls-1" d="M46.94,147.73c-2.58,0-4.9-.08-7.21,0a3.61,3.61,0,0,1-3.33-1.45c-1.27-1.61-2.73-3.05-4.21-4.67a5.51,5.51,0,0,1,.69-.11c2.57,0,5.14,0,7.71,0a1.61,1.61,0,0,1,1,.38C43.36,143.77,45.05,145.65,46.94,147.73Z"/><path class="cls-1" d="M138.46,13.52c3,0,5.84,0,8.65,0a1.14,1.14,0,0,1,.71.3c1.68,1.82,3.34,3.67,5,5.51.06.06.07.15.15.31-.3,0-.56.05-.81.05-2.48,0-5,0-7.45,0a1.86,1.86,0,0,1-1.16-.5c-1.52-1.6-3-3.25-4.48-4.88C138.89,14.11,138.74,13.89,138.46,13.52Z"/><path class="cls-1" d="M153.12,127.67c3,0,5.92-.06,8.81.06a1.8,1.8,0,0,1,1.24,1.27c.11,3.16.06,6.33.06,9.79Z"/><path class="cls-1" d="M119.25,128.9l9.89,10.87H127.8c-2.24,0-4.48.08-6.72.1-1.45,0-2-.6-2-2,0-2.66,0-5.33,0-8V129Z"/><path class="cls-1" d="M143.29,141.73c2.93,0,5.8,0,8.67,0a1.06,1.06,0,0,1,.7.34c1.67,1.8,3.31,3.61,5.07,5.53-.36,0-.57.09-.79.09-2.55,0-5.09,0-7.64,0a1.54,1.54,0,0,1-1-.39c-1.66-1.76-3.28-3.57-4.91-5.36A.6.6,0,0,1,143.29,141.73Z"/><path class="cls-1" d="M30.26,19.68H22a.85.85,0,0,1-.57-.21c-1.76-1.9-3.5-3.82-5.41-5.91.76,0,1.32-.08,1.87-.09,2.05,0,4.11-.05,6.16,0a1.44,1.44,0,0,1,1,.32c1.72,1.83,3.39,3.69,5.07,5.55C30.16,19.36,30.17,19.46,30.26,19.68Z"/><path class="cls-1" d="M166.14,147.7H159.8a.68.68,0,0,1-.47-.21c-1.71-1.86-3.4-3.73-5.22-5.74,2.81-.07,5.45,0,8-.26,2-.22,2.81,1.14,3.88,2.27a.54.54,0,0,1,.1.33C166.14,145.25,166.14,146.42,166.14,147.7Z"/><path class="cls-1" d="M146.77,147.71h-3.25c-1.46,0-2.91,0-4.36,0a2.08,2.08,0,0,1-1.81-.77c-1.43-1.64-2.92-3.23-4.38-4.85-.12-.13-.21-.27-.39-.51.32,0,.55-.08.77-.08,2.42,0,4.85,0,7.27,0a1.43,1.43,0,0,1,.94.33c1.68,1.79,3.32,3.61,5,5.42A3.28,3.28,0,0,1,146.77,147.71Z"/><path class="cls-1" d="M29,114.25c2.87,0,5.73,0,8.59,0a1.78,1.78,0,0,1,1.31,1.62c-.11,2-.28,3.9-.39,5.85,0,1,0,2,0,3.29L29,114.48Z"/><path class="cls-1" d="M111.15,69.55l-7.88-8.67h1.38c2.42,0,4.83,0,7.25,0a1.85,1.85,0,0,1,1.64.74c.54.69,1.5,1.3,1.57,2s-.8,1.41-1.28,2.1C113,67,112.1,68.21,111.15,69.55Z"/><path class="cls-1" d="M151.73,46.41c-2,0-3.89.11-5.75-.06A2,2,0,0,1,144.56,45c-.12-3.19-.06-6.39-.06-9.85l3.8,4.17c.88,1,1.71,2,2.64,2.88a2.4,2.4,0,0,1,.8,2.1C151.68,45,151.73,45.62,151.73,46.41Z"/><path class="cls-1" d="M50.45,138.12l-9.63-10.59H42.7c2.17,0,4.35,0,6.53,0,.78,0,1.21.31,1.21,1.1C50.45,131.7,50.45,134.78,50.45,138.12Z"/><path class="cls-1" d="M24.68,84.81,15.35,74.54l.1-.23h8.13c.53,0,1.09,0,1.09.75C24.68,78.23,24.68,81.4,24.68,84.81Z"/><path class="cls-1" d="M99.71,44.58,90.36,34.3h2.33c2.12,0,4.23.1,6.35.1.58,0,.86.14.86.73,0,3.06,0,6.11,0,9.17C99.88,44.35,99.83,44.39,99.71,44.58Z"/><path class="cls-1" d="M6.33,103.09l9,9.89a7.77,7.77,0,0,1-.81.11c-2.48,0-5,0-7.45,0-.64,0-.93-.17-.93-.86,0-3,0-6,0-9.06Z"/><path class="cls-1" d="M141.44,139.72v-10l9.12,10Z"/><path class="cls-1" d="M116,64.41c.67.73,1.35,1.45,2,2.19a1.08,1.08,0,0,1,.27.65q0,4.83,0,9.68l-.24.07a6.57,6.57,0,0,1-.57-.48c-1.75-1.92-3.5-3.84-5.22-5.78a1,1,0,0,1-.19-.88c1.19-1.78,2.44-3.52,3.67-5.27C115.79,64.52,115.88,64.49,116,64.41Z"/><path class="cls-1" d="M25.27.12h9V10Z"/><path class="cls-1" d="M43,141.52c2.69,0,5.14.07,7.58,0a2.3,2.3,0,0,1,2.24,1.15,2.33,2.33,0,0,1,.37,1.08c0,1,0,2,0,3,0,.57-.18.83-.77.84-1.12,0-2.23.14-3.35.16a1,1,0,0,1-.71-.28C46.63,145.53,44.91,143.63,43,141.52Z"/><path class="cls-1" d="M3.27,147.66v-6.14c1.35,0,2.67,0,4,0a.85.85,0,0,1,.57.21c1.78,1.92,3.54,3.86,5.42,5.92Z"/><path class="cls-1" d="M7.49,114.48A14.58,14.58,0,0,1,9,114.26c1.88,0,3.76,0,5.63,0,1.3,0,1.73.42,1.7,1.68-.07,2.54-.18,5.07-.28,7.9Z"/><path class="cls-1" d="M48.88,126.29h-8.7V117l.2-.09Z"/><path class="cls-1" d="M94.74,65.38l9.53,10.48-.1.12c-1.27-.5-2.53-1.09-3.84-1.5-2.18-.68-4.4-1.26-6.6-1.86-.41-.11-.8-.14-.65-.72C93.62,69.8,94.15,67.71,94.74,65.38Z"/><path class="cls-1" d="M119.1,117.14l8.48,9.33h-4.51c-1,0-2,0-3,0a.82.82,0,0,1-1-.72,4.78,4.78,0,0,1-.2-1c0-2.51,0-5,0-7.52Z"/><path class="cls-1" d="M116.15,147.65v-6.1c1.18,0,2.37,0,3.55,0a.53.53,0,0,1,.3.18l5.4,5.94Z"/><path class="cls-1" d="M3.82.14H12.2V9.33Z"/><path class="cls-1" d="M56.37.08V9.31L48,.08Z"/><path class="cls-1" d="M36.91,113.12c-2.54,0-4.86,0-7.18,0-.58,0-1.21-.28-1.21-1,0-2.65,0-5.31,0-8.23Z"/><path class="cls-1" d="M19.46,127.64c2.74,0,5.19,0,7.63,0,.18,0,.42.27.51.46a2.17,2.17,0,0,1,.19.88c0,2.48,0,5-.2,7.56Z"/><path class="cls-1" d="M130.34,117.51l8,8.82h-8Z"/><path class="cls-1" d="M153.08,117.53l8,8.82h-8Z"/><path class="cls-1" d="M69.6,37.75l7.89,8.66H75c-1.54,0-3.09,0-4.63,0-.45,0-.73-.05-.74-.62,0-2.54-.09-5.08-.13-7.61A2.09,2.09,0,0,1,69.6,37.75Z"/><path class="cls-1" d="M13.86,99.78H6.2V91.35Z"/><path class="cls-1" d="M149.08,113.13h-7.59v-8.34Z"/><path class="cls-1" d="M24.71,99.72H17.27V91.54Z"/><path class="cls-1" d="M119.11,105.16l7.27,8c-1,0-1.73,0-2.49,0-1.45,0-2.9-.09-4.34-.19-.22,0-.61-.35-.62-.54,0-2.38,0-4.76,0-7.14Z"/><path class="cls-1" d="M40.14,91.7l7.27,8H40.14Z"/><path class="cls-1" d="M56.29,34.22h3.13l2.45,0c1.63,0,1.69.08,1.69,1.68,0,1.95,0,3.91,0,5.86l-.32.08Z"/><path class="cls-1" d="M163.15,21.05v7.72l-7-7.72Z"/><path class="cls-1" d="M126,99.74c-2.22,0-4.2,0-6.19,0a.92.92,0,0,1-.92-1c0-2.14,0-4.28.19-6.54Z"/><path class="cls-1" d="M140.4,26.87a1.66,1.66,0,0,1-2.26-.56c-1.49-1.75-3.07-3.42-4.61-5.11.05-.08.07-.17.1-.17l6.08,0c.45,0,.72.13.71.68C140.38,23.4,140.4,25.12,140.4,26.87Z"/><path class="cls-1" d="M136.89,99.72h-6.72V92.35C132.46,94.86,134.59,97.21,136.89,99.72Z"/><path class="cls-1" d="M12.59,86.39H6.22v-7Z"/><path class="cls-1" d="M151.61,41.07l-6.14-6.74h6.14Z"/><path class="cls-1" d="M159,99.67h-6V93.08Z"/><path class="cls-1" d="M6.14,73V66.33L12.19,73Z"/><path class="cls-1" d="M17.28,66.58l5.79,6.35H17.28Z"/><path class="cls-1" d="M44.36,21.12h5.79v6.34Z"/><path class="cls-1" d="M124.78,86.41c-1.89,0-3.6,0-5.31,0a.72.72,0,0,1-.43-.51,47.9,47.9,0,0,1,.17-5.57Z"/><path class="cls-1" d="M163,40.57l-5.64-6.19H163Z"/><path class="cls-1" d="M3.58,13.74l5.28,5.81c-1.82,0-3.46,0-5.1,0a.72.72,0,0,1-.5-.51c0-1.69,0-3.37.06-5.06C3.32,13.91,3.41,13.88,3.58,13.74Z"/><path class="cls-1" d="M40,66.81l5.56,6.11H40Z"/><path class="cls-1" d="M163.07,53.68l-5.45-6h5.45Z"/><path class="cls-1" d="M60.55,74.46c-1.46-1.6-2.93-3.2-4.39-4.81a53.94,53.94,0,0,0-3.69-4c-1.3-1.16-1.37-2.49-1.15-4.22,3.46,4.19,6.38,8.56,9.42,12.85Z"/><path class="cls-1" d="M124,34.3h5.15v5.64Z"/><path class="cls-1" d="M28.51,54.14l5.18,5.68H28.51Z"/><path class="cls-1" d="M118.08,39.79l-5-5.46.1-.21,4.86.23Z"/><path class="cls-1" d="M51.27,54.17l5,5.56h-5Z"/><path class="cls-1" d="M45.46,34.31c1.62,0,2.93,0,4.25,0a.76.76,0,0,1,.53.51,28.71,28.71,0,0,1-.18,4.5Z"/><path class="cls-1" d="M11,59.66H6.18V54.37Z"/><path class="cls-1" d="M54.81,83l-3.52,3.3V79.2Z"/><path class="cls-1" d="M119.07,73v-5.2l4.75,5.2Z"/><path class="cls-1" d="M118.14,47.81v5l-4.59-5Z"/><path class="cls-1" d="M6.14,41.54l4.4,4.83c-1.45,0-2.72,0-4,0-.22,0-.58-.47-.6-.74-.06-1.32,0-2.65,0-4Z"/><path class="cls-1" d="M106.06,41.47l4.29,4.7-.08.24c-1.26,0-2.51,0-3.76,0a.63.63,0,0,1-.43-.44C106.05,44.51,106.06,43.07,106.06,41.47Z"/><path class="cls-1" d="M22.84,21h4.54v5Z"/><path class="cls-1" d="M153,68.12l4.47,4.9H153Z"/><path class="cls-1" d="M130.29,68.1,134.77,73c-1.59,0-3,0-4.3,0-.15,0-.39-.5-.38-.77C130.11,70.9,130.21,69.58,130.29,68.1Z"/><path class="cls-1" d="M21.17,46.4c-1.2,0-2.39,0-3.58,0-.17,0-.46-.37-.46-.57-.05-1.3,0-2.6,0-4.18l4.16,4.56Z"/><path class="cls-1" d="M158.89,61.07h4.2v4.62Z"/><path class="cls-1" d="M96.36,59.77V55.19l4.19,4.58Z"/><path class="cls-1" d="M68.58,47.72a30.41,30.41,0,0,1,3.49.06c.29,0,.68.68.72,1.07.1,1.07,0,2.15,0,3.53Z"/><path class="cls-1" d="M40.05,41.84l4.09,4.5H40.05Z"/><path class="cls-1" d="M91.4,47.48l4,.2V52.2L91.3,47.72Z"/><path class="cls-1" d="M73.86,55.43l3.69,4-.07.24c-1.09,0-2.19.05-3.28,0-.22,0-.57-.51-.59-.81-.07-1.1,0-2.22,0-3.33Z"/><path class="cls-1" d="M16.09,38.6l-3.92-4.32c1.25,0,2.33-.05,3.39,0a1.07,1.07,0,0,1,.71.77c.08,1.13,0,2.27,0,3.41Z"/><path class="cls-1" d="M141.36,59.64V55.28l4,4.36Z"/><path class="cls-1" d="M49.56,13.48c1,0,2.1,0,3.14,0a.69.69,0,0,1,.48.47c0,1.16,0,2.33,0,3.49l-.23.11-3.51-3.85Z"/><path class="cls-1" d="M129.11,64.91q-1.74-1.92-3.49-3.83l.07-.27a24.71,24.71,0,0,1,3,.19c.27,0,.61.64.65,1,.09.92,0,1.85,0,2.78Z"/><path class="cls-1" d="M70,61.25,71.91,61a1.12,1.12,0,0,1,1.41.8,32.48,32.48,0,0,1,1,4.17Z"/><path class="cls-1" d="M38.62,38.36l-3.74-4.09c1.16,0,2.12,0,3.06,0,.69,0,.87.6.88,1.17,0,.93,0,1.86,0,2.8Z"/><path class="cls-1" d="M122.5,59.89,119,59.7v-4l3.57,3.89Z"/><path class="cls-1" d="M35.38,86.48l-3.74-.2V82.35Z"/><path class="cls-1" d="M122,46.41h-1.53c-1.55,0-1.56,0-1.6-1.6,0-.66,0-1.32,0-2.25l3.29,3.62Z"/><path class="cls-1" d="M31.66,69.59l3.18,3.5c-1.15,0-2,0-2.93,0a.7.7,0,0,1-.44-.5c0-1,0-1.91,0-2.87Z"/><path class="cls-1" d="M119.46,19.61a19.22,19.22,0,0,1-2.57,0,1.18,1.18,0,0,1-.71-.83,8.09,8.09,0,0,1,.14-2.56C117.31,17.26,118.31,18.34,119.46,19.61Z"/><path class="cls-1" d="M51.32,46.24V42.66l3.28,3.58Z"/><path class="cls-1" d="M9.28,33H6.07V29.46Z"/><path class="cls-1" d="M148.29,61h3.26v3.58Z"/><path class="cls-1" d="M130.24,43.06l3.07,3.37c-1.05,0-1.88,0-2.7,0-.16,0-.42-.35-.44-.56-.11-.89-.14-1.78-.2-2.67Z"/><path class="cls-1" d="M50.25,51.13l-3.09-3.37h3.09Z"/><path class="cls-1" d="M134.54,34.29h3v3.26Z"/><path class="cls-1" d="M160.45,74.37h2.7v3Z"/><path class="cls-1" d="M144.55,83.76,147,86.48h-2.45Z"/><path class="cls-1" d="M79.17,34.39c.14-.08.19-.14.23-.13,2.63,0,2.27-.31,2,2.72-.33-.43-.66-.86-1-1.27S79.6,34.87,79.17,34.39Z"/><path class="cls-1" d="M118.15,61.33v3.26C116.58,64,116.49,63.12,118.15,61.33Z"/><path class="cls-1" d="M16.24,63.52,14,61.11h2.23Z"/><path class="cls-1" d="M92.44,61c.8,0,1.33,0,1.87,0,.23,0,.46,0,.78,0L94.5,63.2Z"/><path class="cls-1" d="M119,30.64l2.1,2.34C119.15,33.46,118.71,33,119,30.64Z"/><path class="cls-1" d="M36.48,61h2.15v2.34Z"/><path class="cls-1" d="M.26,10.11l1.8,2L2,12.33c-.57-.12-1.35-.06-1.66-.41S.08,10.78,0,10.18Z"/><path class="cls-1" d="M50.21,63c-.17-.14-.27-.2-.35-.28l-1.5-1.67C50,60.55,50.49,61.08,50.21,63Z"/><path class="cls-1" d="M44.3,10,46.21,12C44.32,12.54,44.29,12.14,44.3,10Z"/><path class="cls-1" d="M144.53,70.76l2,2.15h-2Z"/><path class="cls-1" d="M149.85,87.68c1.76-.17,2.11.24,1.82,2Z"/><path class="cls-1" d="M117.12,61l-1.07,1.5L114.7,61Z"/><path class="cls-1" d="M33.26,46.37c-1.83.13-2,0-1.77-1.91Z"/><path class="cls-1" d="M163.1,89.29l-1.53-1.7h1.53Z"/><path class="cls-1" d="M154.64,46.28h-1.58l-.15-1.52.22-.1Z"/><path class="cls-1" d="M50.26,74.49v1.66l-1.5-1.66Z"/><path class="cls-1" d="M129.23,87.75v1.67l-1.48-1.64.09-.2Z"/><path class="cls-1" d="M22.21,10.63l1.37,1.56C22.28,12.27,22.08,12.05,22.21,10.63Z"/><path class="cls-1" d="M77.05,72.29l-.39-1.47.17-.11,1.3,1.42Z"/><path class="cls-1" d="M137.46,49.1l-1.2-1.34h1.2Z"/><path class="cls-1" d="M163.17,102.36l-1.08-1.23.07-.19c.34.09.78.08,1,.3S163.17,101.86,163.17,102.36Z"/></g></g></g></svg>