<svg xmlns="http://www.w3.org/2000/svg" viewBox="0 0 148.53 125.91"><defs><style>.cls-1{fill:#fff;}</style></defs><title>tully</title><g id="Layer_2" data-name="Layer 2"><g id="Layer_2-2" data-name="Layer 2"><path class="cls-1" d="M63.13,38.64l.12.12s0-.09-.08-.14Z"/><path class="cls-1" d="M66.15,40.8l0,0h0Z"/><path class="cls-1" d="M78.49,42.94a.56.56,0,0,0,0,.12v0Z"/><path class="cls-1" d="M82.38,40.8l0,0h0Z"/><path class="cls-1" d="M13.8,5.82c2.09,5,5.54,5.31,9.86,3.29A26.76,26.76,0,0,1,35,6.63a.21.21,0,0,1,.17.07h0A13.12,13.12,0,0,0,30.34,5a34.9,34.9,0,0,0-8.36,0,10.61,10.61,0,0,1-4.88-.83.07.07,0,1,1,0-.14c3,.78,6,.37,9,.29h0A40.11,40.11,0,0,0,17,3.48a21.05,21.05,0,0,0-5.12.92,1.15,1.15,0,0,1,.76.39A2.7,2.7,0,0,1,13.8,5.82Z"/><path class="cls-1" d="M85.4,38.64l0,0a1,1,0,0,0-.08.14Z"/><path class="cls-1" d="M13.32,6.15A6.21,6.21,0,0,0,12.11,6a4.42,4.42,0,0,1,1.28.27A1,1,0,0,0,13.32,6.15Z"/><path class="cls-1" d="M33.11,7.33l-.21,0,.09,0Z"/><path class="cls-1" d="M9.92,6.53s-.05,0-.05,0l-.35.14Z"/><path class="cls-1" d="M10.07,5.9a3.43,3.43,0,0,1,2.63-.66A3.08,3.08,0,0,0,12.44,5c-1.11-.43-2.19.4-3.17,1.2A7.71,7.71,0,0,1,10.07,5.9Z"/><path class="cls-1" d="M79.87,39.48a0,0,0,0,1,0,0h0Z"/><path class="cls-1" d="M11.9,6.68l-.17,0,.13.06Z"/><path class="cls-1" d="M13.13,5.82a.83.83,0,0,1-.07-.13h0a2.48,2.48,0,0,0-2,0A5.27,5.27,0,0,1,13.13,5.82Z"/><path class="cls-1" d="M12.28,6.75l-.21,0,.19.09S12.27,6.76,12.28,6.75Z"/><path class="cls-1" d="M135.13,6.3A4.49,4.49,0,0,1,136.42,6a6.13,6.13,0,0,0-1.21.12Z"/><path class="cls-1" d="M137.48,5.69a2.48,2.48,0,0,0-2,0h0l-.07.13A5.27,5.27,0,0,1,137.48,5.69Z"/><path class="cls-1" d="M136.46,6.7l-.22,0s0,0,0,0Z"/><path class="cls-1" d="M136.79,6.66l-.17,0,0,0Z"/><path class="cls-1" d="M139,6.62l-.35-.14s0,0,0,0Z"/><path class="cls-1" d="M136.08,5l-.26.24a3.45,3.45,0,0,1,2.64.66,7.71,7.71,0,0,1,.8.3C138.28,5.4,137.2,4.57,136.08,5Z"/><path class="cls-1" d="M70,42.94a.77.77,0,0,1,0,.15l0,0S70.05,43,70,42.94Z"/><path class="cls-1" d="M67.33.13,67.24,0l.05.11Z"/><path class="cls-1" d="M59.28,19.05c.44,2.33-.72,5.35,1.27,7.25a.76.76,0,0,0,.21,0,.79.79,0,0,1,.39-.14.77.77,0,0,1,.91.1,3.67,3.67,0,0,1,.9,1.68c0,.08-.08.1-.11,0-.16-.44-.45-1.21-.9-1.43a2.17,2.17,0,0,1,.3.41,4.81,4.81,0,0,1,.41,2.45c.31,1.81.35,3.52.53,5.22A23.62,23.62,0,0,0,63.05,29s0,0,0,0a14.62,14.62,0,0,1,.49,4.75c0,.81-.14,1.62-.15,2.42l0,.15c.09-.39.22-.78.3-1.15a.08.08,0,0,1,.15,0c-.06.7-.15,1.41-.24,2.11,0,.06,0,.12,0,.18.1-.38.23-.74.3-1.1h0a8,8,0,0,1-.15,1.68l.15.42c0-.23.07-.46.12-.68s.13,0,.12,0c0,.35-.06.7-.1,1l.09.22c0-.16,0-.31.05-.46a.09.09,0,0,1,.17,0c0,.33,0,.67,0,1l.19.38a12.19,12.19,0,0,1,1.74.35,1.37,1.37,0,0,1,.72,1.26,4.44,4.44,0,0,1,.56.58,2.61,2.61,0,0,1,.36,1.08,10.51,10.51,0,0,1,1.38,2,.07.07,0,0,1-.11.07,25.78,25.78,0,0,0-4.69-4.64h0c-1.23-1-2.47-2-3.57-3-1.87-1.71-3.67-1.92-5.86-2.82,0,.18.08.34.11.46.13.52.26,1,.43,1.53h.05a4.49,4.49,0,0,0,1.69.7,4.91,4.91,0,0,0,1.14.12c.58,0,.54.81.85,1.12.1.09,0,.23-.13.18a.73.73,0,0,1-.44-.59c-.11-.66-.52-.34-.88-.44a7.74,7.74,0,0,1-2.15-.76,4.49,4.49,0,0,0,.41.82,6.25,6.25,0,0,0,.44.61,21.33,21.33,0,0,1,6.09,5.07,10.38,10.38,0,0,1,.86.76,7.21,7.21,0,0,1,1.66,1.79l.24.29a5.55,5.55,0,0,0-.84-1.5s0-.1.08-.06a4.83,4.83,0,0,1,1,1.32,5.88,5.88,0,0,1,.24.74.8.8,0,0,1,.65-.55.75.75,0,0,1,.86.64c0,.26-.06.43-.33.42-.11,0-.11-.18,0-.17.38,0-.08-.43-.21-.46a.44.44,0,0,0-.53.33,1.19,1.19,0,0,0,.23,1l.09.06c.83.35.89,1.14,1.14,1.91a.13.13,0,0,1,0,.09c.47.95.88,2,1.45,2.15a3.89,3.89,0,0,1,1,.4,1.21,1.21,0,0,0-.16-.16A.51.51,0,0,1,70,52.4c0-.42.83-1.53.12-1.67C68.59,50.44,70,49,69.7,48.1c0-.06.07-.1.1,0,.28.53-.4,2.21.25,2.35a1.09,1.09,0,0,1,.83.48c.28.42-.16.82-.32,1.18s.38.69.55.92a2.8,2.8,0,0,1,.28,1.12.12.12,0,0,1,0,.13c.07.22.12.45.18.68a7.55,7.55,0,0,0-.09-2.22c-.17-.75.67-.48.58-1.24,0-.06.09-.07.1,0a4.79,4.79,0,0,1,.1.76.1.1,0,0,1-.08.09c-.61.07-.14,2-.16,2.47,0,.87,0,1.73,0,2.58a17.45,17.45,0,0,0,.48-2.64c0-.07.12-.08.12,0A24.47,24.47,0,0,1,72,59.88c0,2.89-.39,5.87-.49,8.33a.11.11,0,0,1-.21,0c-.08-2.87,0-5.75-.15-8.62a11.68,11.68,0,0,1,0-1.18c0,.09-.08.18-.13.27a3.77,3.77,0,0,0-.41,2.76,2.81,2.81,0,0,1-.11,1.26c0,.13,0,.23-.21.24-.35,0,0,.55,0,.8a.12.12,0,0,1-.23,0c0-.25-.36-.65-.21-.9s.46-.09.45-.28a11.65,11.65,0,0,0-.37-2.33,1.22,1.22,0,0,0-.14.59,4.2,4.2,0,0,1-.06.87.06.06,0,0,1-.11,0,2.71,2.71,0,0,1,.11-1.88l-.07-.08a1.55,1.55,0,0,0-.35,1.17c0,.12-.19.12-.2,0a2.23,2.23,0,0,1,.32-1.43l-.07-.07a1,1,0,0,0-.39.52c0,.1-.17.06-.15,0a1.17,1.17,0,0,1,.38-.66C68.09,58,67,57,65,57.3a9.78,9.78,0,0,0-3.92,1.62,10,10,0,0,1,2.5-.67c.19,0,2.91,0,2.77.49.41-1.35,1.91,1.19,2,1.52,0,.05-.06.09-.09,0-.12-.24-1.36-2.12-1.63-1.16a.22.22,0,0,1-.31.13A4.45,4.45,0,0,0,62.58,59c3.74,0,6.89,2.69,6.1,7.3-.55,3.17-2,6.08-2,9.37,0,2.51.23,5,.38,7.48.18,2.94.81,5.82.77,8.74a5.7,5.7,0,0,0,.27-1.78,0,0,0,0,1,0,0,4.12,4.12,0,0,1,0,2.12c0,.17,0,.35-.09.55a4.65,4.65,0,0,0,.16-4.32c0-.05.07-.09.09,0a5.88,5.88,0,0,1,.65,3.7c-.27,1.54-1.5,2.31-1.86,3.76A2,2,0,0,1,65.4,97.6a1.43,1.43,0,0,1-.74-.15c.38.65,1.15,1.23,1.8,1a13.84,13.84,0,0,0,1.48-.77,1.5,1.5,0,0,1,.66-.15,2.5,2.5,0,0,0,.74-.71,3.13,3.13,0,0,0,.54-1.94c0-.06.1-.08.11,0a3.52,3.52,0,0,1-.36,2.32,5.34,5.34,0,0,1-.41.59c0,.06.08.13.13.2a1.9,1.9,0,0,0,.39-.11h0a.23.23,0,0,1,.12,0,1.61,1.61,0,0,0,.56-1,.06.06,0,1,1,.12,0,2.52,2.52,0,0,1-.45,1.31c-1.31,5.88,2,12.91,3.64,18.9a.13.13,0,0,1,0,.06c.19.68.36,1.35.5,2,.14-.65.31-1.32.5-2,0,0,0,0,0-.06,1.68-6,5-13,3.64-18.9A2.63,2.63,0,0,1,78,96.84a.07.07,0,1,1,.13,0,1.61,1.61,0,0,0,.56,1,.25.25,0,0,1,.12,0h0a1.9,1.9,0,0,0,.39.11,1.37,1.37,0,0,1,.13-.2,4.25,4.25,0,0,1-.41-.59,3.46,3.46,0,0,1-.36-2.32c0-.06.11,0,.1,0a3.26,3.26,0,0,0,.54,1.94,2.66,2.66,0,0,0,.75.71,1.56,1.56,0,0,1,.66.15,14.71,14.71,0,0,0,1.47.77c.65.21,1.43-.37,1.81-1a1.46,1.46,0,0,1-.74.15,2,2,0,0,1-1.72-1.75c-.36-1.45-1.6-2.22-1.86-3.76a5.87,5.87,0,0,1,.64-3.7s.11,0,.09,0a4.65,4.65,0,0,0,.17,4.32c0-.2-.07-.38-.1-.55a4.34,4.34,0,0,1,0-2.12s0,0,0,0a5.17,5.17,0,0,0,.27,1.78c0-2.92.58-5.8.76-8.74.15-2.5.38-5,.39-7.48,0-3.29-1.43-6.2-2-9.37C79.06,61.67,82.21,59,86,59a4.44,4.44,0,0,0-3.75.29.21.21,0,0,1-.31-.13c-.27-1-1.52.92-1.63,1.16,0,.05-.11,0-.09,0,.12-.33,1.61-2.87,2-1.52-.14-.46,2.58-.51,2.76-.49a10,10,0,0,1,2.51.67,9.78,9.78,0,0,0-3.92-1.62c-2-.26-3.12.7-4.23,1.92a1.23,1.23,0,0,1,.38.66c0,.1-.13.14-.15,0a1,1,0,0,0-.39-.52l-.07.07a2.23,2.23,0,0,1,.31,1.43.1.1,0,0,1-.19,0,1.6,1.6,0,0,0-.35-1.17l-.07.08a2.71,2.71,0,0,1,.1,1.88.05.05,0,0,1-.1,0,3.16,3.16,0,0,1-.06-.87,1.51,1.51,0,0,0-.14-.59,11,11,0,0,0-.37,2.33c0,.19.34.1.45.28s-.21.65-.22.9a.12.12,0,0,1-.23,0c0-.25.39-.78,0-.8s-.23-.11-.21-.24a2.81,2.81,0,0,1-.11-1.26,3.77,3.77,0,0,0-.42-2.76l-.12-.27c0,.41,0,.8,0,1.18-.12,2.87-.08,5.75-.15,8.62a.11.11,0,0,1-.22,0c-.09-2.46-.45-5.44-.48-8.33a24.47,24.47,0,0,1-.65-5.17.06.06,0,1,1,.11,0,20.81,20.81,0,0,0,.48,2.65c0-.86.08-1.72,0-2.59,0-.46.46-2.4-.15-2.47,0,0-.09,0-.08-.09a3.85,3.85,0,0,1,.09-.76.06.06,0,0,1,.11,0c-.09.76.75.49.58,1.24A7.55,7.55,0,0,0,77,54.92c0-.23.11-.46.17-.68a.14.14,0,0,1-.05-.13A2.81,2.81,0,0,1,77.42,53c.16-.23.68-.61.54-.92s-.59-.76-.31-1.18a1.07,1.07,0,0,1,.83-.48c.65-.14,0-1.82.25-2.35a.05.05,0,0,1,.1,0c-.32.85,1.11,2.34-.44,2.63-.7.14.08,1.25.12,1.67,0,.11-.1.26-.18.33l-.17.16a4.11,4.11,0,0,1,1-.4c.57-.15,1-1.2,1.45-2.15a.13.13,0,0,1,0-.09c.25-.77.3-1.56,1.13-1.91l.1-.06a1.19,1.19,0,0,0,.23-1,.44.44,0,0,0-.54-.33c-.12,0-.58.49-.2.46.11,0,.11.16,0,.17-.27,0-.37-.16-.33-.42a.75.75,0,0,1,.86-.64.8.8,0,0,1,.65.55,4.66,4.66,0,0,1,.23-.74,4.87,4.87,0,0,1,1-1.32s.12,0,.08.06a5.55,5.55,0,0,0-.84,1.5l.24-.29a7,7,0,0,1,1.65-1.78c.28-.27.57-.53.87-.77a21.33,21.33,0,0,1,6.09-5.07c.15-.2.31-.4.44-.61a4.93,4.93,0,0,0,.41-.83,7.45,7.45,0,0,1-2.15.77c-.36.1-.77-.22-.89.44a.74.74,0,0,1-.43.59c-.11,0-.23-.09-.14-.18.31-.31.28-1.09.85-1.12a4.94,4.94,0,0,0,1.15-.12,4.49,4.49,0,0,0,1.69-.7h0a15.78,15.78,0,0,0,.44-1.53c0-.12.06-.28.11-.46-2.19.9-4,1.11-5.87,2.82-1.09,1-2.33,2-3.56,3h0a25.78,25.78,0,0,0-4.69,4.64.07.07,0,0,1-.11-.07,10.37,10.37,0,0,1,1.38-2,2.6,2.6,0,0,1,.35-1.08,4.49,4.49,0,0,1,.57-.58,1.35,1.35,0,0,1,.72-1.26A12.06,12.06,0,0,1,83.85,40c.07-.13.14-.25.2-.38,0-.33,0-.67,0-1a.09.09,0,0,1,.17,0c0,.15,0,.3,0,.46l.1-.22c0-.35-.06-.7-.1-1,0-.07.1-.09.12,0s.09.45.12.68c0-.14.1-.28.14-.42a8.73,8.73,0,0,1-.14-1.68h0c.06.36.2.72.29,1.1,0-.06,0-.12,0-.18-.1-.7-.19-1.41-.24-2.11,0-.08.13-.1.15,0,.08.37.2.76.3,1.15l0-.15c0-.8-.12-1.61-.16-2.42a14.91,14.91,0,0,1,.5-4.75s0,0,0,0a24.09,24.09,0,0,0-.13,5.56c.17-1.7.22-3.4.53-5.21a4.81,4.81,0,0,1,.41-2.45,2.14,2.14,0,0,1,.29-.41c-.44.22-.73,1-.89,1.43,0,.06-.14,0-.12,0a3.68,3.68,0,0,1,.91-1.68.77.77,0,0,1,.91-.1.83.83,0,0,1,.39.14.64.64,0,0,0,.2,0c2-1.9.84-4.92,1.27-7.25.54-2.85,2-6.73,4.55-8.78a12.54,12.54,0,0,0-6.16,11.78c.08,1.07-.22,2.23-1.47,2.41-3.16.46-2.79,9.28-3.43,11.88-.77,3.1-3.66,4-4.15,7.39a2.92,2.92,0,0,1-.06,1.5c-.26.61-1.16.63-1,1.26a2.79,2.79,0,0,1-1.8,3.17.09.09,0,0,1-.08-.15,2.68,2.68,0,0,0,1.59-2.09c.07-.74-.44-.8-.44-1.37a.84.84,0,0,1,.41-.72,1.79,1.79,0,0,0,.9-1.09,5.87,5.87,0,0,1,0-1.87.32.32,0,0,0,0-.09v0A5.4,5.4,0,0,1,79,40.12a13.2,13.2,0,0,0,1.26-2.73,32.51,32.51,0,0,0-.86-10.92c-.84-4.1,2-7.11,0-11.46a14.14,14.14,0,0,1-1.11-7.1,6.46,6.46,0,0,1,1.1-3.37,0,0,0,0,1,0,0c.06-.08.13-.15.19-.22a1.83,1.83,0,0,1,.13-.16,5,5,0,0,0,1.11-2.52c0-.05,0-.11,0-.16-.23.38-.5.74-.77,1.1a26,26,0,0,0-2.3,4c-1.57,4-.35,7.62.42,11.6A3.26,3.26,0,0,0,78,16.51a0,0,0,1,1,0,0,4.45,4.45,0,0,1,.11,3.24,7.26,7.26,0,0,1-.47,1.32c-.85,1.92-.27,4.13.1,6.09a.06.06,0,1,1-.11,0A22.16,22.16,0,0,1,77,23.13c-.29,2.72.69,5.28.88,8.1,0,0,0,0,0,0,.08.57.13,1.13.17,1.68v0a9.52,9.52,0,0,1,0,1.51,21.44,21.44,0,0,0,.06-5.23c0-.12.18-.12.19,0,.22,2.05.66,5.71-.8,7.66a1.59,1.59,0,0,1-.07.2c-.15.2-.31.39-.47.59a4.26,4.26,0,0,0-1.11,2.22.61.61,0,0,1,.07-.14,2.47,2.47,0,0,1,.81-.73,3.87,3.87,0,0,0,1.8-2,.05.05,0,0,1,.1,0,4.67,4.67,0,0,1-2,2.41c-.69.55-.46,1.51-.57,2.26a2.58,2.58,0,0,1-.75,1.29,6.36,6.36,0,0,0-.19.66,4.6,4.6,0,0,1,.4,1.62c0,.13-.22.16-.24,0a2.85,2.85,0,0,0-.31-1,.28.28,0,0,1-.16.12l-.2.06a.2.2,0,0,1-.17.09l-.24,0-.23,0a.19.19,0,0,1-.17-.09l-.2-.06a.3.3,0,0,1-.17-.12,3.38,3.38,0,0,0-.31,1c0,.13-.25.1-.23,0a4.81,4.81,0,0,1,.39-1.62,4.57,4.57,0,0,0-.18-.66,2.51,2.51,0,0,1-.75-1.29c-.11-.75.12-1.71-.57-2.26a4.67,4.67,0,0,1-2-2.41c0-.07.07-.09.1,0a3.85,3.85,0,0,0,1.79,2,2.4,2.4,0,0,1,.82.73s0,.09.07.14a4.3,4.3,0,0,0-1.11-2.22l-.48-.59a1.59,1.59,0,0,0-.07-.2c-1.46-2-1-5.61-.8-7.66,0-.12.21-.12.2,0a20.48,20.48,0,0,0,.06,5.23,9.52,9.52,0,0,1,0-1.51v0c0-.55.09-1.11.17-1.68,0,0,0,0,0,0,.19-2.82,1.17-5.38.87-8.1a22.14,22.14,0,0,1-.7,4.05.06.06,0,0,1-.12,0c.37-2,1-4.17.11-6.09a7.26,7.26,0,0,1-.47-1.32,4.44,4.44,0,0,1,.1-3.24s.07,0,0,0a3.36,3.36,0,0,0-.15,1.67c.77-4,2-7.56.42-11.6a25.36,25.36,0,0,0-2.31-4c-.27-.35-.53-.71-.77-1.09,0,.05,0,.11,0,.16A5,5,0,0,0,68.8,4.13s.08.1.12.15a2.2,2.2,0,0,1,.2.23s0,0,0,0a6.64,6.64,0,0,1,1.1,3.36A14.07,14.07,0,0,1,69.11,15c-2,4.35.85,7.36,0,11.46-.77,3.76-1.35,7.25-.87,10.92a13.24,13.24,0,0,0,1.27,2.73,5.55,5.55,0,0,1,.91,2.12s0,0,0,0l0,.09a6.1,6.1,0,0,1,0,1.86,1.75,1.75,0,0,0,.9,1.1.84.84,0,0,1,.41.72c0,.57-.51.63-.44,1.37a2.66,2.66,0,0,0,1.59,2.09.09.09,0,0,1-.09.15A2.78,2.78,0,0,1,71,46.49c.13-.63-.77-.65-1-1.26a2.92,2.92,0,0,1-.06-1.5c-.5-3.38-3.39-4.29-4.15-7.39-.64-2.6-.27-11.42-3.43-11.88-1.25-.18-1.56-1.34-1.47-2.41a12.52,12.52,0,0,0-6.17-11.78C57.28,12.32,58.75,16.2,59.28,19.05Z"/><path class="cls-1" d="M113.49,6.63a26.76,26.76,0,0,1,11.38,2.48c4.31,2,7.77,1.71,9.85-3.29a2.82,2.82,0,0,1,1.13-1,1.2,1.2,0,0,1,.77-.39,21.05,21.05,0,0,0-5.12-.92,40,40,0,0,0-9.07.89h0c3,.08,6,.49,9-.29a.07.07,0,1,1,0,.14,10.54,10.54,0,0,1-4.87.83,34.9,34.9,0,0,0-8.36,0,13,13,0,0,0-4.88,1.67h0A.19.19,0,0,1,113.49,6.63Z"/><path class="cls-1" d="M68.65,39.48v0h0A0,0,0,0,0,68.65,39.48Z"/><path class="cls-1" d="M81.28,0,81.2.13l0,0S81.27,0,81.28,0Z"/><path class="cls-1" d="M115.63,7.36l-.22,0,.13,0Z"/><path class="cls-1" d="M74.43,43.79h0l-.16-.08-.16.08h0a1.16,1.16,0,0,0,.16.21A1.2,1.2,0,0,0,74.43,43.79Z"/><path class="cls-1" d="M100.84,52.35c0-.1-.09-.21-.13-.31a7,7,0,0,0-2.53-1.32c0,.07,0,.13,0,.2A9.53,9.53,0,0,1,100.84,52.35Z"/><path class="cls-1" d="M98.14,36.16A.86.86,0,0,1,98,36v.16Z"/><path class="cls-1" d="M105.85,61.93s0,0,0,0c-.06-.22-.13-.43-.2-.64s-.21-.55-.32-.83A34.67,34.67,0,0,0,102.67,56,26.54,26.54,0,0,1,101,52.64a.07.07,0,0,1-.06,0,11.24,11.24,0,0,0-2.57-1.34,1.08,1.08,0,0,0,.45.58c.64.37,1.39.44,2,.87.08.05,0,.19-.08.13a4.59,4.59,0,0,0-1.31-.56c-.24-.06-.56-.13-.84-.22a45.87,45.87,0,0,0,1.93,5c0,.12.11.23.17.35.45.84.91,1.68,1.36,2.53a29.93,29.93,0,0,1,3.83,7.9c1.08,3.48.59,6.46.14,10,0,.09-.16.09-.15,0a25.37,25.37,0,0,0-1.14-11.28,18.52,18.52,0,0,1,.45,2.49c.39,3.88.51,9.54-1.3,13.7a15.16,15.16,0,0,0,2-3.93c0-.09.16,0,.14,0-.66,2.78-2.85,8-6.2,8.47q-.33,0-.66.06a7.84,7.84,0,0,1-3-.18,9,9,0,0,1-3.9-1.78l-.12-.09a6.45,6.45,0,0,1-1.74-1.94l-.09-.16a6.77,6.77,0,0,1-.64-1.69c0-.09-.08-.17-.11-.26A12.06,12.06,0,0,1,89,75.59c0-.1.16-.1.15,0a14.4,14.4,0,0,0,.26,3.35c0-.32.06-.65.11-1a14.56,14.56,0,0,1,1.09-4.19.11.11,0,0,1,0-.1,91.16,91.16,0,0,0,3.88-11.85,21.4,21.4,0,0,0,.41-6.3,10.58,10.58,0,0,0-1.28-3.39,6.15,6.15,0,0,0-1.27-1.46,1.59,1.59,0,0,0-.13-.13l-.33-.27a16.77,16.77,0,0,0-2.08-1.4,9.72,9.72,0,0,0-2.61-.75,3.48,3.48,0,0,1,1.9,1.22,4.2,4.2,0,0,0,1.73,1.26.92.92,0,0,1,.36.68c0,.62,1.09,1.39,1.63,1.85s.49,1.26.56,1.72c.23,1.67-.52,3.49-1,5.07,0,.09-.17,0-.14,0a30.78,30.78,0,0,0,.84-4.36c.14-1.79-1.58-2.33-2.21-3.6s-.94-.77-1.66-1.54S89.42,50,88.1,49A9.06,9.06,0,0,0,86,48.22a9.91,9.91,0,0,0-2.6,1.18,2.75,2.75,0,0,1,.47-.13s0,0,0,0a5.51,5.51,0,0,0-1.5.92l-.14.13a19.09,19.09,0,0,1,3.49-1.17.06.06,0,0,1,0,.11,13.79,13.79,0,0,0-4,2,5.07,5.07,0,0,1,2.69-1c.07,0,.07.09,0,.1a4,4,0,0,0-1.94.88c3-1.09,6.07-1.06,8.17,2.23,1.76,2.76,1.45,6.66.4,9.8a8.49,8.49,0,0,0,1-2.18.09.09,0,0,1,.18,0c-.6,2.36-2,4.18-2.72,6.47,0,.08-.06.17-.08.26a0,0,0,0,1,0,0l-.15.33-.18.56c.11-.19.23-.38.35-.56s.13-.26.2-.38.14,0,.12,0a7.05,7.05,0,0,1-.5,1.08s0,0,0,0A25.75,25.75,0,0,0,87,80.27c0,5.07,2.65,8.31,6.67,10.39,3.83,1.28,8.17-.31,11.41-3.26a12.49,12.49,0,0,0,2.73-5.51c.74-3.37.4-7.06,0-10.46A43.84,43.84,0,0,0,105.85,61.93Z"/><path class="cls-1" d="M115.69,45a8.47,8.47,0,0,1-2.83,1,10.67,10.67,0,0,1-1,.29l-.19.06h-.06a28,28,0,0,1-7.76.18,16.23,16.23,0,0,1-4.35-.92.34.34,0,0,1-.17,0,2.38,2.38,0,0,1-2.35.25,3.28,3.28,0,0,1-1.32-1.8.52.52,0,0,1-.12-.19c-.74-.39-1.49-.79-2.27-1.11-2.9-1.19-5.77.08-8,2a15.11,15.11,0,0,0-1,1.47,4.41,4.41,0,0,0-.41.81c1.09-1.33,2.35-2.57,4.08-2.5,1.54.05,2.08-1.08,3.36-1.5.73-.24,2.3,1.16,2.79,1.27.07,0,0,.11,0,.1-1.17-.23-2.29-1.82-3.59-.6-.61.57-.83,1.16-1.69,1.28-1.63.23-2.51.09-3.72,1.31-.67.68-1.13,1.46-1.76,2.12a2.08,2.08,0,0,1-.57.61,15.15,15.15,0,0,1,9.14-2.65c5.85.32,14.6,4.84,20.49,1.88a39.8,39.8,0,0,0,3.81-3.64l.26-.3h0A8.19,8.19,0,0,1,115.69,45Z"/><path class="cls-1" d="M98.06,50.22a1,1,0,0,1,0,.14,6.58,6.58,0,0,1,2.51,1.44c-.06-.13-.12-.27-.17-.4A4.25,4.25,0,0,0,98.06,50.22Z"/><path class="cls-1" d="M89.24,60.1v0l.12.11Z"/><path class="cls-1" d="M98.6,36a2.45,2.45,0,0,1-.64-.75c0,.09,0,.19,0,.28a3.73,3.73,0,0,0,.46.52Z"/><path class="cls-1" d="M45.31,17.94c7.27,5.56,7.28,18.47,4.62,26.56l1.29-.59,0-.07a0,0,0,1,1,.09,0v0l1-.46c1.92-8.09,2.74-20.25-4.27-26.28C39.75,10,30.63,14.38,23.27,20a0,0,0,0,1,0,0c-3.14,3.18-7.92,6.06-12.49,6.43-3.49.28-8.29-.72-8.94-5-.63-4.07,0-8.73,2.94-11.85A18.09,18.09,0,0,1,8,6.87a24.29,24.29,0,0,1,2.13-1.82,18.81,18.81,0,0,0-8.53,7.58,5,5,0,0,0,.91-1c0-.05.14,0,.12.06a5.56,5.56,0,0,1-1.39,1.91c-.7.68-1.72,1.51-1,2.79a2.36,2.36,0,0,1,.19.32c.08-.26.17-.52.24-.78a0,0,0,0,1,0,0A10.37,10.37,0,0,1,.5,17.72c-.11,1.78-.23,4.35.59,5.83,0,0,0,0,0,0a14.18,14.18,0,0,1,3.38,2.85c2.92,3.89,9.28,1.55,13.33-.87a75,75,0,0,1,8.48-5.72C32.22,15.72,38.08,12.41,45.31,17.94Z"/><path class="cls-1" d="M147.27,13.56a5.44,5.44,0,0,1-1.39-1.91c0-.07.08-.11.12-.06a5.22,5.22,0,0,0,.9,1,18.84,18.84,0,0,0-8.52-7.58,22.6,22.6,0,0,1,2.12,1.82,17.42,17.42,0,0,1,3.25,2.77c3,3.12,3.58,7.78,2.95,11.85-.66,4.28-5.46,5.28-8.95,5-4.56-.37-9.34-3.25-12.49-6.43,0,0,0,0,0,0-7.36-5.66-16.47-10-24.76-2.92-7,6-6.2,18.19-4.27,26.28l1,.46v0a0,0,0,1,1,.09,0,.19.19,0,0,1,0,.07l1.3.59c-2.66-8.09-2.65-21,4.61-26.56s13.1-2.22,19,1.91a73.2,73.2,0,0,1,8.48,5.72c4.06,2.42,10.42,4.76,13.34.87a14.33,14.33,0,0,1,3.37-2.85s0,0,0,0c.82-1.47.7-4.05.58-5.83a11.41,11.41,0,0,1-.21-1.82,0,0,0,0,1,.06,0q.1.39.24.78a2.36,2.36,0,0,1,.19-.32C149,15.07,148,14.24,147.27,13.56Z"/><path class="cls-1" d="M105,30.54a6.43,6.43,0,0,1-.69.87c-.75.81-1.78.16-2.12,1.25-.24.77-.51,1.37-1.4,1.11-.4-.11-.67.65-1,.81a3.85,3.85,0,0,1-1.27.38,3.78,3.78,0,0,0,.69.85A12,12,0,0,0,105,30.54Z"/><path class="cls-1" d="M97.94,34.76l.14,0a1.64,1.64,0,0,1-.14-.22Z"/><path class="cls-1" d="M106.23,28.29c.47-1,.88-2,1.27-3a28.54,28.54,0,0,1,.72-2.9c-.34.53-.7,1-1.07,1.55a43.81,43.81,0,0,0-3.1,4.85,9.65,9.65,0,0,1-6.11,4.84v.18c.17.28.29.6.44.89a2.39,2.39,0,0,0,2-1.35c0-.07.13-.08.2-.05,1.28.56,1.39-1.14,1.91-1.81a.15.15,0,0,1,.17,0c1.52,1,2.92-2.19,3.43-3.17C106.11,28.21,106.19,28.23,106.23,28.29Z"/><path class="cls-1" d="M98.26,35H98a4,4,0,0,0,.79,1l.25-.09a4.89,4.89,0,0,1-.74-.77A.76.76,0,0,0,98.26,35Z"/><path class="cls-1" d="M96.3,44.35a3.28,3.28,0,0,0,.64.93c.58.56,1.32.38,2,.24l0-.06c-.46-.16-.92-.34-1.38-.52S96.71,44.56,96.3,44.35Z"/><path class="cls-1" d="M50.48,35h-.22l-.07.11a5.39,5.39,0,0,1-.74.77l.25.09A3.78,3.78,0,0,0,50.48,35Z"/><path class="cls-1" d="M49.28,35.81A3.78,3.78,0,0,0,50,35a3.85,3.85,0,0,1-1.27-.38c-.32-.16-.59-.92-1-.81-.9.26-1.16-.34-1.4-1.11-.34-1.09-1.37-.44-2.13-1.25a8.14,8.14,0,0,1-.68-.87A11.92,11.92,0,0,0,49.28,35.81Z"/><path class="cls-1" d="M86.05,113.64a6.86,6.86,0,0,1-2.19-1.11c-.08-.06,0-.19.08-.14a5.71,5.71,0,0,0,1.26.44l0,0c-.35-.46-.27-1.19-.63-1.58-.7-.74-1.62-1.1-1.65-2.27a2.33,2.33,0,0,1,1.7-2.31l.54-.24a1.6,1.6,0,0,1,.94-.14c-1.54-1.41-3.68.16-5.19-1.18-.68-.6-1-1.7-1.64-2.25,0,0,0,0,0,.08h0c0,.22,0,.43-.07.65a8.29,8.29,0,0,0,.5,1.53,1.29,1.29,0,0,0,1.71.71.07.07,0,0,1,.06.13,1.51,1.51,0,0,1-1.9-.3,1.91,1.91,0,0,1-.52-1l-.09.43a3.45,3.45,0,0,0,.36.81c0,.07-.06.14-.1.08a2.59,2.59,0,0,1-.33-.55c0,.13,0,.26-.08.4s0,0,0,0a.72.72,0,0,1,.12.25c.06.15-.17.23-.25.11h0c-.26,1.09-.58,2.19-.94,3.28a3.6,3.6,0,0,1,1.21.31,4.07,4.07,0,0,0,1.82.65.4.4,0,0,1,.29.14c.54.78.34,1.79,1.82,1.52,0,0,.07.06,0,.07a1.36,1.36,0,0,1-1.81-.87c-.17-.67-.62-.44-1.1-.68-.3-.15-.59-.3-.88-.47a4.27,4.27,0,0,0-1.47-.35c-.37,1.1-.75,2.2-1.14,3.28.2.24.48.41.6.71a2.09,2.09,0,0,1,.08,1.19c0,.11-.21.09-.21,0,0-.43.08-1.05-.38-1.27a.87.87,0,0,1-.25-.15c-.41,1.17-.81,2.33-1.16,3.45l0,0a.83.83,0,0,1,.22.63,3.39,3.39,0,0,0,0,.78,4,4,0,0,0,.62.9c.41.61-.27,1.66-.48,2.22,0,.1-.2.06-.16,0,.27-.79.85-1.67.18-2.39a1.83,1.83,0,0,1-.43-.61,4.55,4.55,0,0,0-.19-.89c-.17.59-.32,1.18-.45,1.75,0,.16-.23.14-.3,0a.16.16,0,0,1-.3,0c-.12-.57-.28-1.16-.45-1.74a5.1,5.1,0,0,0-.19.88,1.8,1.8,0,0,1-.42.61c-.68.72-.09,1.6.18,2.39,0,.1-.12.14-.16,0-.21-.56-.9-1.61-.49-2.22.19-.27.55-.6.62-.9a2.92,2.92,0,0,0,0-.78.76.76,0,0,1,.22-.63l0,0c-.34-1.12-.74-2.27-1.15-3.45a1,1,0,0,1-.25.15c-.46.22-.42.84-.39,1.27,0,.12-.19.14-.2,0a2.09,2.09,0,0,1,.08-1.19c.12-.3.4-.47.59-.71-.38-1.08-.77-2.18-1.13-3.27a4,4,0,0,0-1.47.34c-.29.17-.59.32-.89.47-.47.24-.93,0-1.09.68a1.36,1.36,0,0,1-1.81.87c-.05,0,0-.08,0-.07,1.48.27,1.28-.74,1.83-1.52a.38.38,0,0,1,.29-.14,4.07,4.07,0,0,0,1.82-.65,3.55,3.55,0,0,1,1.2-.31c-.35-1.09-.68-2.19-.94-3.28h0c-.09.12-.31,0-.25-.11a.72.72,0,0,1,.12-.25s0,0,0,0l-.09-.4a2.54,2.54,0,0,1-.32.55c0,.06-.14,0-.1-.08a3.42,3.42,0,0,0,.35-.81c0-.14-.06-.28-.08-.42a1.88,1.88,0,0,1-.52,1,1.51,1.51,0,0,1-1.9.3.07.07,0,0,1,0-.13,1.28,1.28,0,0,0,1.71-.71,8.33,8.33,0,0,0,.51-1.53c0-.22,0-.43-.07-.65h0a.22.22,0,0,0,0-.08c-.67.55-1,1.65-1.64,2.25-1.51,1.34-3.64-.23-5.18,1.18a1.57,1.57,0,0,1,.93.14l.55.24a2.33,2.33,0,0,1,1.7,2.31c0,1.17-.95,1.53-1.65,2.27-.36.39-.28,1.12-.63,1.58,0,0,0,0,0,0a5.46,5.46,0,0,0,1.25-.44.08.08,0,0,1,.09.14,7,7,0,0,1-2.19,1.11c-.68.19-.85,1.11-.94,1.76a1.58,1.58,0,0,1,.31-.09,1.37,1.37,0,0,1,.64,0c1,.11,2.13.75,2.81-.14a.23.23,0,0,1,.32-.09,1.4,1.4,0,0,0,1.61-.22,2.12,2.12,0,0,1,.62-.61l.06-.06h0a1.64,1.64,0,0,0,.25-.21s.1,0,.07.06a6.1,6.1,0,0,1-.92,1.1h0a2,2,0,0,1-1.26.61s-.49-.16-.53-.09a1,1,0,0,1-.33.31l.41.16.59.16a2.41,2.41,0,0,0,1.14-.31,5.55,5.55,0,0,0,1.14-.85c.06-.06.16,0,.11.08a4.16,4.16,0,0,1-1.2,1.21c-.33.4-.63.67-.6,1.25a3.71,3.71,0,0,1,0,1.2,2.48,2.48,0,0,1-1,1.45,1,1,0,0,1,.45,0,1.2,1.2,0,0,0,1-.1c.74-.76,2.28-1,2-2.3,0-.08.11-.12.13,0a2.32,2.32,0,0,1-1.05,2.26c.61.14,1.37.37,1.65-.21a3.18,3.18,0,0,1,.65-1,1.46,1.46,0,0,0,.09-.64c0-.06.09-.07.1,0a2.16,2.16,0,0,1,.07.61h0a3.54,3.54,0,0,0,.65-1.45c0-.07.14,0,.13,0-.09,1-1.17,2.8-.64,3.54.72,1,1.45,1.94,2.23,2.87a4.83,4.83,0,0,1,1,2,5,5,0,0,1,1-2c.78-.93,1.51-1.88,2.22-2.87.54-.74-.55-2.58-.64-3.54,0-.07.13-.09.14,0a3.66,3.66,0,0,0,.64,1.45h0a2.14,2.14,0,0,1,.06-.61c0-.06.12,0,.11,0a1.33,1.33,0,0,0,.08.64,3,3,0,0,1,.66,1c.28.58,1,.35,1.65.21a2.32,2.32,0,0,1-1.05-2.26c0-.08.14,0,.13,0-.26,1.3,1.28,1.54,2,2.3a1.2,1.2,0,0,0,1,.1,1,1,0,0,1,.45,0,2.54,2.54,0,0,1-1-1.45,4.38,4.38,0,0,1,0-1.2c0-.58-.26-.85-.6-1.25a4.42,4.42,0,0,1-1.2-1.21c0-.06.06-.14.12-.08a5.29,5.29,0,0,0,1.14.85,2.41,2.41,0,0,0,1.14.31l.59-.16.41-.16a1.12,1.12,0,0,1-.34-.31c0-.07-.51.09-.52.09a2,2,0,0,1-1.26-.61h0a6.49,6.49,0,0,1-.91-1.1s0-.1.07-.06a1.27,1.27,0,0,0,.25.21h0l0,.06a2,2,0,0,1,.63.61,1.4,1.4,0,0,0,1.61.22.23.23,0,0,1,.32.09c.67.89,1.76.25,2.81.14a1.38,1.38,0,0,1,.64,0,1.71,1.71,0,0,1,.3.09C86.9,114.75,86.72,113.83,86.05,113.64Z"/><path class="cls-1" d="M50.59,34.76v-.24l-.14.22Z"/><path class="cls-1" d="M50.53,36a.86.86,0,0,1-.14.13l.13,0A.86.86,0,0,0,50.53,36Z"/><path class="cls-1" d="M50.57,35.28a2.48,2.48,0,0,1-.65.75l.18,0a3.73,3.73,0,0,0,.46-.52C50.56,35.47,50.57,35.37,50.57,35.28Z"/><path class="cls-1" d="M44.48,28.78a43.81,43.81,0,0,0-3.1-4.85c-.37-.51-.74-1-1.07-1.55a29.21,29.21,0,0,1,.72,2.9c.38,1,.8,2,1.27,3,0-.06.12-.08.16,0,.5,1,1.91,4.22,3.43,3.17a.15.15,0,0,1,.17,0c.51.67.63,2.37,1.91,1.81a.16.16,0,0,1,.2.05,2.38,2.38,0,0,0,2,1.35c.15-.29.27-.61.45-.89v-.18A9.65,9.65,0,0,1,44.48,28.78Z"/><path class="cls-1" d="M59.28,69.07h0a7.05,7.05,0,0,1-.5-1.08c0-.07.08-.11.12,0s.13.25.2.38.24.37.35.56l-.18-.57L59.09,68a0,0,0,0,1,0,0L59,67.67c-.66-2.29-2.12-4.11-2.71-6.47a.09.09,0,1,1,.17,0,8.49,8.49,0,0,0,1,2.18c-1-3.14-1.36-7,.41-9.8,2.1-3.3,5.16-3.32,8.17-2.23a4,4,0,0,0-1.94-.88c-.07,0-.08-.1,0-.1a5,5,0,0,1,2.68,1,13.85,13.85,0,0,0-4-2,.06.06,0,0,1,0-.11,19,19,0,0,1,3.48,1.17l-.13-.13a5.51,5.51,0,0,0-1.5-.92,0,0,0,0,1,0,0,2.52,2.52,0,0,1,.47.13,9.7,9.7,0,0,0-2.59-1.18,9.32,9.32,0,0,0-2.13.81c-1.31.92-.47.65-1.13,1.35s-1.06.31-1.67,1.54-2.35,1.81-2.2,3.6a30.78,30.78,0,0,0,.84,4.36.08.08,0,0,1-.15,0c-.42-1.58-1.17-3.4-.94-5.07.07-.46.14-1.38.56-1.72s1.58-1.23,1.63-1.85a.91.91,0,0,1,.35-.68,4.3,4.3,0,0,0,1.74-1.26,3.41,3.41,0,0,1,1.9-1.22,9.9,9.9,0,0,0-2.62.75,16.47,16.47,0,0,0-2.08,1.41l-.32.26-.14.13a6.32,6.32,0,0,0-1.26,1.46,10.35,10.35,0,0,0-1.28,3.39,21.38,21.38,0,0,0,.4,6.3,92.7,92.7,0,0,0,3.88,11.85.11.11,0,0,1,0,.1A14.56,14.56,0,0,1,59,78c0,.33.08.65.1,1a13.87,13.87,0,0,0,.26-3.35c0-.1.14-.1.16,0a12.19,12.19,0,0,1-.5,5.69c0,.09-.07.17-.1.26a6.77,6.77,0,0,1-.64,1.69l-.09.16a6.59,6.59,0,0,1-1.74,1.94l-.12.09a8.82,8.82,0,0,1-3.51,1.69c-.13,0-.26.07-.39.09a7.84,7.84,0,0,1-3,.18q-.33,0-.66-.06c-3.35-.44-5.54-5.69-6.2-8.47a.07.07,0,0,1,.13,0,15.54,15.54,0,0,0,2,3.93c-1.82-4.16-1.7-9.82-1.3-13.7a17.06,17.06,0,0,1,.44-2.49A25.51,25.51,0,0,0,42.7,77.84c0,.09-.14.09-.15,0-.46-3.53-.94-6.51.14-10A29.93,29.93,0,0,1,46.52,60c.44-.85.9-1.68,1.36-2.52,0-.12.11-.24.17-.36a50.38,50.38,0,0,0,1.93-5c-.28.09-.6.16-.84.22a4.47,4.47,0,0,0-1.31.56c-.08.06-.16-.08-.08-.13.61-.43,1.36-.5,2-.87a1.08,1.08,0,0,0,.45-.58,11,11,0,0,0-2.57,1.34.07.07,0,0,1-.06,0A26.54,26.54,0,0,1,45.86,56a31.92,31.92,0,0,0-2.62,4.46c-.11.27-.22.55-.32.83s-.14.42-.2.64c0,0,0,0,0,0a43.25,43.25,0,0,0-2,9.5c-.35,3.4-.7,7.09,0,10.46a12.64,12.64,0,0,0,2.72,5.51c3.25,2.95,7.59,4.54,11.42,3.26,4-2.08,6.65-5.32,6.67-10.39A25.84,25.84,0,0,0,59.28,69.07Z"/><path class="cls-1" d="M59.29,60.1l-.13.15.12-.11Z"/><path class="cls-1" d="M51.59,45.28a3.25,3.25,0,0,0,.63-.93c-.41.21-.82.41-1.25.59s-.91.36-1.37.52l0,.06C50.26,45.66,51,45.84,51.59,45.28Z"/><path class="cls-1" d="M47.69,52.35a9.62,9.62,0,0,1,2.61-1.43c0-.07,0-.13.05-.2A7,7,0,0,0,47.82,52Z"/><path class="cls-1" d="M50.46,50.22a4.25,4.25,0,0,0-2.37,1.18c-.05.13-.11.27-.17.4a6.51,6.51,0,0,1,2.51-1.44Z"/><path class="cls-1" d="M56.7,46.52a15.15,15.15,0,0,1,9.14,2.65,1.92,1.92,0,0,1-.56-.61c-.64-.66-1.1-1.44-1.77-2.12-1.2-1.22-2.08-1.08-3.71-1.31-.86-.12-1.09-.71-1.69-1.28-1.31-1.22-2.43.37-3.6.6-.06,0-.09-.09,0-.1.48-.11,2.06-1.51,2.79-1.27,1.28.42,1.82,1.55,3.35,1.5,1.74-.07,3,1.17,4.08,2.5a3.8,3.8,0,0,0-.4-.81,17,17,0,0,0-1.05-1.47c-2.21-1.88-5.08-3.15-8-2-.77.32-1.52.72-2.27,1.11a.35.35,0,0,1-.12.19,3.22,3.22,0,0,1-1.31,1.8,2.37,2.37,0,0,1-2.35-.25.37.37,0,0,1-.18,0,16.08,16.08,0,0,1-4.34.92A28,28,0,0,1,37,46.38h-.06l-.19-.06a10.67,10.67,0,0,1-1-.29,8.47,8.47,0,0,1-2.83-1,6.78,6.78,0,0,1-.67-.53h0a3.47,3.47,0,0,0,.25.29,38.81,38.81,0,0,0,3.82,3.65C42.11,51.36,50.86,46.84,56.7,46.52Z"/></g></g></svg>