<svg xmlns="http://www.w3.org/2000/svg" viewBox="0 0 156.8 111.81"><defs><style>.cls-1{fill:#fff;}</style></defs><title>stark</title><g id="Layer_2" data-name="Layer 2"><g id="Layer_2-2" data-name="Layer 2"><path class="cls-1" d="M69.86,24.25a8.81,8.81,0,0,1-4.08.19,8.75,8.75,0,0,1-1.42.18c-1.06,0-2.13,0-3.19,0,2.48.83,5.42,2.2,7.88.58a.18.18,0,0,1,.22,0,3.12,3.12,0,0,1,1.09-.94L70.22,24A1,1,0,0,1,69.86,24.25Z"/><path class="cls-1" d="M69.13,33.41a6.6,6.6,0,0,1-.3,1.43l0,0a20.9,20.9,0,0,0,.54-4.11c.13-1.77.34-4.16,2-5-.26-.34-.52-.7-.78-1.05C68.3,27,69.43,30.24,69.13,33.41Z"/><path class="cls-1" d="M71.75,60.36c1.86-1.9,1.53-4.65,1.32-7.3a10,10,0,0,1,0-1.55c-1.52,1.25-3.38,2-4.3,3.91-.41.83-.82,1.63-1.84,1.37s-1-.11-1.41,1a20.6,20.6,0,0,1-.9,2.22A4.92,4.92,0,0,1,61.31,63a5.61,5.61,0,0,1-2,2,12.51,12.51,0,0,0,3.23-.71c1.57-.62,2.52-1.68,3.86-2.58,1.79-1.2,3.46-.46,5.2-1.27Z"/><path class="cls-1" d="M60.77,59.19a34.63,34.63,0,0,1-.49-3.9,15.88,15.88,0,0,0-1,1.48,2.48,2.48,0,0,1-1.24.95c-1.52.49-1.56,2.39-2.6,3.41A1.26,1.26,0,0,1,53.8,61c-1.11-1-1.45,1-1.92,1.81a11.36,11.36,0,0,1-2,2.47c-.11.11-.27-.06-.17-.16a16.2,16.2,0,0,0,3.14-5.28.23.23,0,0,1,.36,0c2.46,2.33,2.32-1.65,3.9-2.58,1.38-.81,2.14-2.1,3.11-3.16a5.62,5.62,0,0,1-2.71.71,19.15,19.15,0,0,0-5.46.42c-1.45,1-3,2.21-3.44,4,0,.21,0,.41,0,.63,0,2.87.67,6.29-1.54,8.27,2.52-1,6.12-.26,8.54-1.43a.39.39,0,0,1,.1-.26C57.33,64.59,61,61.87,60.77,59.19Z"/><path class="cls-1" d="M63.8,18.1c-1.9.14-3.15,2.08-4.32,3.79a26.16,26.16,0,0,1,5.19-3.35A8.86,8.86,0,0,0,63.8,18.1Z"/><path class="cls-1" d="M43.61,83.72l-.08.07A10.58,10.58,0,0,0,45.15,83C46,82.13,46.9,81.16,48,81a6.2,6.2,0,0,1,3,.38,8.15,8.15,0,0,0,2.92-.22l.28-.1a5,5,0,0,0,.48-.21,14,14,0,0,0,1.14-7.7,26.78,26.78,0,0,1-.61-4.48c-.9,1.68-.61,4.32-2.38,5.35a1.68,1.68,0,0,1-1.22.16c-2.33-.18-2.12,1.18-2.22,2.57a4.11,4.11,0,0,1-1,2.85c-.09.1-.23,0-.15-.14,1.42-1.66.34-3.81,1.59-5.42.28-.36.85-.31,1.24-.31,2,0,2.31-.69,2.56-1.93a16.19,16.19,0,0,1,.86-3.49,12.57,12.57,0,0,1-3.45.17c-5-.2-6.41,3.11-5.7,7.42C45.79,78.67,46.8,82.51,43.61,83.72Z"/><path class="cls-1" d="M51.72,16.72a13.74,13.74,0,0,0,1.82-.25,12.5,12.5,0,0,1-2.79-1.27A18.21,18.21,0,0,1,48.05,14c-1.56-.42-3.07-1-4.69-1.59C45.32,14.55,48.79,16.9,51.72,16.72Z"/><path class="cls-1" d="M58,19.15c.3.11.59.21.89.29a.69.69,0,0,1,.4.31c.17-.26.34-.51.51-.74a8.43,8.43,0,0,1,1.59-1.75,18.84,18.84,0,0,0-3.7-.44,25.73,25.73,0,0,1-2.82.92,2.6,2.6,0,0,1,.49,0A6.09,6.09,0,0,1,58,19.15Z"/><path class="cls-1" d="M59.21,13.32a.68.68,0,0,1,.14,0v-.08l-.55.21Z"/><path class="cls-1" d="M43.59,40a15.47,15.47,0,0,1-1.32,3.75,7.14,7.14,0,0,1,1.87-1.12c2.2-1.61,5-1.77,7.4-3.2a8.9,8.9,0,0,0,4-5.7c.12-.58.22-1.14.34-1.7a13.76,13.76,0,0,1-3.05,2.47,3,3,0,0,0-1.94,2.27,1,1,0,0,1-.27.55,1.61,1.61,0,0,1-1.73.42c-1.81-.5-2.85,1.91-3.93,3-.09.09-.23-.05-.14-.15,1.09-1.15,1.75-2.64,3.23-3.32a.72.72,0,0,1,.52,0c1.53.59,1.61-.69,2-1.59.47-1.12,1.56-1.44,2.54-2.07a24.78,24.78,0,0,0,3.14-2.83l.06-.18a4.77,4.77,0,0,1-1.52.37h-.56s0,0-.07,0c-2.18.3-4.92.51-6.81,1.76C44.76,34.42,44.25,37.16,43.59,40Z"/><path class="cls-1" d="M64.84,45.85c0-.2,0-.41,0-.61,0,.18,0,.36,0,.54A.31.31,0,0,1,64.84,45.85Z"/><path class="cls-1" d="M61.93,61.9c0,.06-.09.11-.13.16s-.16.33-.25.49c2.82-.93,3.35-4.34,4.33-6.81a.23.23,0,0,1,.38-.1c1.89,1.73,2-1.45,2.83-2.18a31.2,31.2,0,0,1,3-2c-3.34.45-8-.33-9.42,2.31,0,1.12.5,2.34.43,3.44,0,.22,0,.44-.06.66A6.89,6.89,0,0,1,61.93,61.9Z"/><path class="cls-1" d="M46.33,19.24s0,0,0,0l0,0Z"/><path class="cls-1" d="M58.67,44.81c1.5,1,2.88-3.26,3.79-4.2a11.38,11.38,0,0,1,2.13-1.78c-1.5.27-3.3.08-4.52.49-1,.35-2,.79-3.06,1.18a13.61,13.61,0,0,0-3.45,4,20,20,0,0,0-.68,2.64c-.13,1.22-.13,2.44-.37,3.66a7.46,7.46,0,0,1-1.84,3.74l.55-.27.32-.17a.61.61,0,0,1,.31-.07,7.58,7.58,0,0,1,2.8-.4,20.6,20.6,0,0,0,3.26-.06c1.73-.89,3.59-1.26,4.32-3.48a27.24,27.24,0,0,0,.83-5.62A12.33,12.33,0,0,1,64.36,40,9.36,9.36,0,0,0,61,44.52c-.16.44-.54,1.56-1.23,1.49-.42,0-.49,0-.78-.37-1.17-1.37-2.35,2.15-2.45,2.42A16.65,16.65,0,0,1,55,51.55c-.05.07-.18,0-.12-.08C55.2,51,57.31,43.93,58.67,44.81Z"/><path class="cls-1" d="M43.71,30.12l.14-.06L44,30l-.2.11Z"/><path class="cls-1" d="M51.19,48.76c.46-2,.65-4.46,1.62-6.36a8.85,8.85,0,0,0-2.55,3.24,13.09,13.09,0,0,1-1.42,2.79c-.59.8-2.54-.65-2.57.74-.06,3-3.18,6.65-6.24,7.53,2.34-.22,5.42-.55,6.95-1.56A10.59,10.59,0,0,0,51.19,48.76Z"/><path class="cls-1" d="M35.29,61.8h0Z"/><path class="cls-1" d="M42.8,31.33a.24.24,0,0,1-.31-.1q-.56.68-1.14,1.29c.09,0,.15.14.06.21-.53.41-1.07,1.43-1.66,1.64-1,.37-1.88.31-2.73,1.17a20,20,0,0,1-3.84,3.59l0,0a2.91,2.91,0,0,1-.3.17s-.05,0-.07,0a3.28,3.28,0,0,1-.57.87c3.34-2.35,8.82-.73,11.67-4.91a11.54,11.54,0,0,1,.76-1.59A5.19,5.19,0,0,1,46.2,32a5.69,5.69,0,0,0-1.11-.68A3.23,3.23,0,0,0,42.8,31.33Z"/><path class="cls-1" d="M41.88,64.41c-2.48-.93-2.69,1.8-4,3S35,68.81,33.81,69.76a5,5,0,0,1,2.58-.1q.38.07.75.18c.33,0,.67.07,1,.13a12.49,12.49,0,0,0,7.65-1.22.11.11,0,0,1,0-.07A4.71,4.71,0,0,0,47.1,67c-.18-.08-.3-.34-.05-.47l.1-.06a.25.25,0,0,1,.17,0,4.19,4.19,0,0,0,.11-.51.51.51,0,0,1-.45-.52c0-2-1.59-5.36-.79-7.57a17.37,17.37,0,0,1-2.5,0,18.44,18.44,0,0,1-2.23,0c-3.09.24-4.7,1.95-5.21,5.13a13.93,13.93,0,0,1-1.66,5.56l.31-.12a7.07,7.07,0,0,0,3.22-2.65c.48-.77,1.26-2.2,2.38-2.14.41,0,1,.35.86.06a3,3,0,0,1-.13-1.78c.27-1.43,2.11-2.48,3.2-3.22.18-.12.35.18.17.3-1.67,1.16-4.09,2.62-2.5,5.17A.2.2,0,0,1,41.88,64.41Z"/><path class="cls-1" d="M26.47,52.61a6.55,6.55,0,0,0,1.59-2.41A8.85,8.85,0,0,1,26.47,52.61Z"/><path class="cls-1" d="M54.12,92s0,0,0,0c.42-2.54,1.24-5.93,0-7.89-1.47,1.63-1.32,6-3.86,6.12-.4,0-.71-.54-1-.68-1.17-.55-2,1.44-2.48,2.14s-1,1.47-2.07,1.51c0,0-.06-.08,0-.08,1.91-.31,2.58-5.67,5-3.78,1.81,1.39,2.4-2.45,2.7-3.49a6.19,6.19,0,0,1,.77-1.73c-1.56.12-4.22-1.4-5.4-.69-1.42.86-2.8,2.29-4.44,2.51-.08,2.9.4,6.1-.59,8.78a6.22,6.22,0,0,1,4.33-.38c1.59.39,3.26,1.3,4.93,1.65.11-.23.22-.46.35-.68.32-.54.67-1.05,1-1.56a.24.24,0,0,1,0-.24A6.93,6.93,0,0,0,54.12,92Z"/><path class="cls-1" d="M31.36,69.91c.38-1,1.31-1.83,1.56-2.88.08-.33.12-.68.17-1a17,17,0,0,1-2.42,1.93,3.66,3.66,0,0,1-1.74.86c-.64,0-.46.33-.93.84-1.08,1.14-1.23-1.13-2.42.69a15.39,15.39,0,0,1-4.74,4.38c-.08,0-.14-.07-.07-.13A15.85,15.85,0,0,0,26,68.66a.19.19,0,0,1,.31,0l1.82-.31a.3.3,0,0,1,.37-.21c1.47.44,3.41-2,4.73-3.42,0-.09,0-.19,0-.28A5.83,5.83,0,0,1,30,63.91c-2.76-1.11-6.39-1.08-8,1.42a10.64,10.64,0,0,0-.21,2A18.43,18.43,0,0,1,21.45,71a13.18,13.18,0,0,1-2,4.35l-.12.22a11,11,0,0,1,2.86-.74c2.7-.38,6.43,0,8.7-1.67A7.81,7.81,0,0,1,31.36,69.91Z"/><path class="cls-1" d="M43.86,78.19c-.42-1.09-1.12-2.11-1.46-3.23a4.76,4.76,0,0,1-.22-1.2C41,75,41.12,76.87,40.72,78.66a.86.86,0,0,1-1.22.63A3.52,3.52,0,0,1,38,77.91a7.65,7.65,0,0,1-.85,1.94,12.26,12.26,0,0,1-3.32,3.88c-.14.12-.34-.08-.2-.19a13.42,13.42,0,0,0,4.18-6.08.18.18,0,0,1,.32,0c.23.34,2.3,2.79,2.26.29,0-.31,0-.63,0-.95a5.76,5.76,0,0,1,1.82-3.9,6.47,6.47,0,0,1-1.79-.23c-2.9-.75-6-2.77-8.12-.09-.41,2.45.59,5.2.13,7.67a14.08,14.08,0,0,1-2.95,6.13c.18-.08.35-.17.53-.24a12.43,12.43,0,0,1,5.35-1.37,44.25,44.25,0,0,0,6.62-.47C43.3,82.55,44.75,80.51,43.86,78.19Z"/><path class="cls-1" d="M32.48,70.57l.1-.08a.18.18,0,0,1,.05-.07s.06,0,.09,0a3.36,3.36,0,0,1,.29-.24l0,0-.32.21A2.33,2.33,0,0,0,32.48,70.57Z"/><path class="cls-1" d="M31,80.82A14.77,14.77,0,0,0,31.3,78C31.24,79,31.15,79.9,31,80.82Z"/><path class="cls-1" d="M70.63,73.88c-.28.24-.62.44-.87.66a6.08,6.08,0,0,1-1.39,1,.38.38,0,0,1-.27,0l-.52.3a4.06,4.06,0,0,1-1.09.43c-.28.17-.56.32-.85.47-.85,1.22-2.34,1.83-3.52,2.79a21.27,21.27,0,0,0-3,6.15,3.84,3.84,0,0,1-.36,1.56,5.28,5.28,0,0,1-.16.66l0,0c0,.25-.09.49-.12.74l0,.08c2.22-2.08,4.82-3.88,7.09-5.87.33-.29,2.91-2.72,3-2.67-.22-.11-.49-.21-.56-.47-.49-1.79,3.55-4,4.72-4.7a.06.06,0,0,1,.06.11c-.46.32-5.75,4.42-3.59,4.72a.24.24,0,0,1,.1.39c-3,2.72-6.21,5.31-9.28,8a9.27,9.27,0,0,1,4.32-.73c2.19.12,2.25-2.11,3.67-2.15a1.87,1.87,0,0,1,.91.06c2.36,1.26,3.83-2.75,4-4.1a.23.23,0,0,1,.21-.22,19.61,19.61,0,0,1,1.42-5.8A13.69,13.69,0,0,0,70.63,73.88Z"/><path class="cls-1" d="M61,92.85c-2,.58-.43,3.2-1.32,4.52a.19.19,0,0,1-.25.07c-2.52-1.32-2.16,1.45-2.15,3.38a31,31,0,0,0,.39,5.45c0,.14-.19.2-.22.06-.3-1.48-1.62-10.07.69-10.2,1.14-.07,1.73,1.61,1.28-1.18-.12-.78-.35-1.84.29-2.49A8.88,8.88,0,0,1,63,90a8.56,8.56,0,0,0-4.1.6A8,8,0,0,0,55,94.17c-.28.52-.55,1-.81,1.58-.83,3.77-1.08,7.91,1,11.32l0,0c2,1.74,2.76,2.69,3,4.71a21.27,21.27,0,0,1,1-6,14,14,0,0,1,3.45-6.17c-.9-2.55-.11-6.29,1.32-8.83C62.82,91.44,62.16,92.53,61,92.85Z"/><path class="cls-1" d="M70.61,88a2.76,2.76,0,0,0-2.09,2.41A8.72,8.72,0,0,1,68.37,92a.27.27,0,0,1-.35.19c-1.73-.72-.79,4.84-.71,5.65,0,.17-.24.17-.26,0-.17-1.37-1.27-5.25.25-6.14.31-.18.57.06.58-.31a5.54,5.54,0,0,1,.18-1.9,3.66,3.66,0,0,1,1.55-1.7c-.42-.15-.74-.24-1,.24a2.48,2.48,0,0,1-1,.83c-.68.35-1.25.24-1.85.88l-.27.31c-1.48,3.62-.52,7.68,1.17,11.22.51.68,1,1.4,1.52,2.16a13,13,0,0,1,.78-5.66,18,18,0,0,1,2.17-5.93c0-1.25.32-2.5.43-3.76A2.86,2.86,0,0,1,70.61,88Z"/><path class="cls-1" d="M64.62,99.08a.8.8,0,0,0-.13.13.58.58,0,0,1,.18,0,.56.56,0,0,0,0-.12A0,0,0,0,1,64.62,99.08Z"/><path class="cls-1" d="M13.61,54.72a5.09,5.09,0,0,1,2.65-.8,9.74,9.74,0,0,1,3.92-.09,10.13,10.13,0,0,0,4.42-.19.15.15,0,0,1,.06-.1,5.89,5.89,0,0,0,2.26-3.45,5.89,5.89,0,0,1-2.14-.63,14.77,14.77,0,0,1-1.59-1A3.78,3.78,0,0,0,20,50.35a2.33,2.33,0,0,1-2,1.16,3.2,3.2,0,0,1-1.35-.43c-1.91-.8-3.18,1.15-4.18,2.2a8,8,0,0,1-2.26,1.77l-.16.21a10.49,10.49,0,0,0,3.25-.53A.39.39,0,0,1,13.61,54.72Z"/><path class="cls-1" d="M10.37,51.41a.6.6,0,0,1,.24-.16c.35-1.46.76-2.89,1.07-4.35a5.87,5.87,0,0,1-2,1.55c-1.09.33-.85-1.63-1.46-1.06-1.88,1.74-5.85,1.07-7.34-.88a7.86,7.86,0,0,1-.83.05c1.13.6,2.28,1.26,3.58,1.88.37.18,1.44.79,2.63,1.43a19.45,19.45,0,0,1,4,1.61A.4.4,0,0,0,10.37,51.41Z"/><path class="cls-1" d="M7.35,37.69c3,1.33,5.55.85,8.64,1.07A8,8,0,0,0,23,36a4,4,0,0,1,.61-1.44l-.26.11c-3.6,2.92-7.9,3.55-12.32,3.08a15.48,15.48,0,0,1-4.4-.55c.24.18.48.36.73.53Z"/><path class="cls-1" d="M8.35,46.52a.24.24,0,0,1,.43,0c.81,2.26,1.81-.41,3.12-1,0-.73-.12-1.47-.21-2.17A19.08,19.08,0,0,1,1.05,46.49H1C2.66,48.23,7,48.94,8.35,46.52Z"/><path class="cls-1" d="M26.78,33.72a15.26,15.26,0,0,1,2.7-.68,4.06,4.06,0,0,1-.78-.2c-.61-.23-2.89-2-3.29-1.64-1.54,1.36-3.94-.85-5-1.77-.06-.05,0-.13.08-.09,1.3,1,3.36,2.89,5.23,1.19a.16.16,0,0,1,.22,0c1.93,1.81,3.86,2,6.39,1.79.34,0,.42.56.08.61a14.13,14.13,0,0,1-1.49.17,6.14,6.14,0,0,0,1.41.08,2.25,2.25,0,0,0,1.21-.63v0a.15.15,0,0,1,0-.28l0,0a3.2,3.2,0,0,0-3.24-3.77,16.89,16.89,0,0,1-7.8.61c-.8,0-1.59-.08-2.36-.13a18.8,18.8,0,0,1-2-.23c2.77,1.72,5.22,3.83,8.46,4.85A.41.41,0,0,1,26.78,33.72Z"/><path class="cls-1" d="M22.84,62.47c-.05.13-.11.27-.17.4l.23-.16a.24.24,0,0,1-.06-.23v0Z"/><path class="cls-1" d="M37.18,25.69a.53.53,0,0,1,.26.23l.07-.09c3-2.92,6.37,1,9.59-.14.25-.79.46-1.59.76-2.43l.26-.69A7.51,7.51,0,0,1,45.65,24a2,2,0,0,1-1.07-.06,7.17,7.17,0,0,0-3.07.41,18.67,18.67,0,0,1-3.58.38.09.09,0,0,1,0-.17,20.86,20.86,0,0,0,5.18-1c.71-.24,2.23-.1,2.77-.43a15.81,15.81,0,0,0,2.7-2.25,6,6,0,0,1-.93-.07,9.82,9.82,0,0,0-3.79,0,10.73,10.73,0,0,1-6.08,2A18.94,18.94,0,0,1,32.21,22a7.14,7.14,0,0,1-2.54-.93,2.56,2.56,0,0,1-.26-.2C31.16,23.42,34.37,24.75,37.18,25.69Z"/><path class="cls-1" d="M15.91,59.41a2.34,2.34,0,0,1,1.52-1.07c.62,0,1.63.39,2.16.06a25.91,25.91,0,0,0,2.31-1.7l.34-.28a7.3,7.3,0,0,1-.92-.08c-2-.32-4.06-1.17-6-1a6.27,6.27,0,0,0-1.7,1.32l-.19.26a10.86,10.86,0,0,1-.83,6.16A13.89,13.89,0,0,0,15.91,59.41Z"/><path class="cls-1" d="M22,58c-1.18.88-2.42,1.58-3.33,1.33-2.25-.63-2.59,1.08-3.72,2.26a13,13,0,0,1-2.61,2,10.25,10.25,0,0,1-.65,1h.12c2.7-.89,5.72-.25,8.5.43C21.41,63.16,21.44,60.39,22,58Z"/><path class="cls-1" d="M39.34,49c.09-.29.18-.59.29-.88s.17-.44.26-.66a7.45,7.45,0,0,1-2,1.68c-1.77,1-4.36.53-6.29.82-.16,0-.23-.21-.07-.23,1.4-.25,2.8-.32,4.17-.64a.23.23,0,0,1,.14-.13c3.08-1,4.2-3.7,4.47-6.72a7.4,7.4,0,0,1,.73-3c-.24.1-.49.2-.74.28a21.65,21.65,0,0,1-4.37.64,5.23,5.23,0,0,0-4.07,2.27,14.81,14.81,0,0,0-1.64,4.85v.11s0,.11,0,.16a2,2,0,0,1-.05.24A9.35,9.35,0,0,1,29.47,51a8.16,8.16,0,0,1,3.46-.4c1.89.2,4.21,1.19,5.92.23.12-.49.25-1,.39-1.45l-.45.25c-.06,0-.11-.06,0-.09A2.91,2.91,0,0,0,39.34,49Z"/><path class="cls-1" d="M79.38,44.37a9,9,0,0,1-.82,1.87,5.84,5.84,0,0,1,1.81-.68A9.93,9.93,0,0,1,82,45.39,16.73,16.73,0,0,1,83.64,45c2.91-.46,5.25-.93,7.23-2.74a15.25,15.25,0,0,0,1.36-3.42c.22-1.11.79-4-.69-4.4a.22.22,0,0,1-.08-.38l-.26.08c-1.18.24-2.33-.77-3.06-1.55a.17.17,0,0,1,.21-.27c.74.34,2.08,1.25,2.93.73a2.7,2.7,0,0,0,.6-.51.51.51,0,0,1-.18.09l0,.06s-.09,0-.11,0c-.85.07-2.52-.88-3-1,0,0,0,0,0,0a4.6,4.6,0,0,0-.84,1.07c-.89,1.66-.55,2.23-.49,3.77a5.6,5.6,0,0,1-.88,3.69,5,5,0,0,1-2.44,1.5A9.69,9.69,0,0,0,79.38,44.37ZM89.76,32.42a0,0,0,0,1,0,.09C89.71,32.51,89.71,32.42,89.76,32.42Z"/><path class="cls-1" d="M72.16,27.79h0a.36.36,0,0,1,0-.09,4.15,4.15,0,0,0-.51.73c.11-.12.23-.23.35-.35s.07-.18.11-.27Z"/><path class="cls-1" d="M85.64,32.78a.78.78,0,0,1,0,.3c.06-.13.12-.26.19-.39Z"/><path class="cls-1" d="M66,39.92a5.78,5.78,0,0,0-.28.63c-.53,2.29,0,5-.23,7.22a6.35,6.35,0,0,1-.79,2.73l1.11-.35A9.44,9.44,0,0,1,68.21,49a30.83,30.83,0,0,1,3.6-.48h.09a4.94,4.94,0,0,0,3.43-2,6.23,6.23,0,0,0,.91-4,11.69,11.69,0,0,1,0-1.45c-1.64,1.33-2.82,3.65-5.09,3.74-1,0-1.82-1.51-2.78.32a16.3,16.3,0,0,0-.92,2.44,2.69,2.69,0,0,1-1.87,1.8c-.11,0-.16-.14,0-.18,2.25-.79,1.78-3.68,3.45-5.06.91-.75,2,.73,3,0s2.54-3,4.07-4.12a7.72,7.72,0,0,1-2.31-.36C71.08,38.79,68.18,38,66,39.92Z"/><path class="cls-1" d="M90.54,30.09c-.17.08-.34.15-.51.24l-.33.16-.12.1a4.86,4.86,0,0,0,2.22-.87A9.71,9.71,0,0,0,90.54,30.09Z"/><path class="cls-1" d="M77.65,45.66a5.59,5.59,0,0,1-.32.65c.14-.2.27-.41.39-.62C77.7,45.68,77.67,45.68,77.65,45.66Z"/><path class="cls-1" d="M76.89,50A17,17,0,0,0,75.79,55a5.24,5.24,0,0,1-1.14,2.8s0,0,0,0a4.28,4.28,0,0,1,1-.28c.94-.82,3.9-6.78,6-5.41,2.22,1.48,2.88-1.87,3.74-3.26a21,21,0,0,1,1.65-2.28,13.35,13.35,0,0,1-2.74.29,18.66,18.66,0,0,0-4.85.26l-.84.41c-.36.48-.72,1-1,1.45l-.33.57A4.23,4.23,0,0,0,76.89,50Z"/><path class="cls-1" d="M59.56,9.14c1,.73,2.12,1.3,3.08,2.08a3.41,3.41,0,0,1,1.77.65,10.36,10.36,0,0,1,1.76,2,4.54,4.54,0,0,0,2.31,1.48l0,0c.91-1.66-.88-4.2-2.06-5.15C65,9.06,62.93,9.09,61.23,8.47a11.11,11.11,0,0,1-4.37-2.72l-.37-.22A16.51,16.51,0,0,0,59.56,9.14Z"/><path class="cls-1" d="M88.56,31.5c.61.15,2.72.83,3.12.33s.65-1.13,1-1.69a1.51,1.51,0,0,1,.84-.6h-.16a5.58,5.58,0,0,1-4.07,1.29C89.05,31.05,88.8,31.27,88.56,31.5Z"/><path class="cls-1" d="M89.87,56.35l-.12,0-.07.09A1.18,1.18,0,0,1,89.87,56.35Z"/><path class="cls-1" d="M148.56,19.71h0l0,0Z"/><polygon class="cls-1" points="148.9 20.12 148.89 20.11 148.9 20.12 148.9 20.12"/><path class="cls-1" d="M150.34,20.45h.08Z"/><path class="cls-1" d="M82.62,9.11l-.07.05.1,0Z"/><path class="cls-1" d="M67.28,8.68h0s0,0,0,0Z"/><path class="cls-1" d="M45.72,50.7c.09-.5-.25-3,.64-3.19.56-.14.49-.15,1,.13,1.65,1,1.91-1.22,2.33-2.24a8.3,8.3,0,0,1,2.7-3.52,5,5,0,0,1-1.45.38,19,19,0,0,0-7.6,2.8c-.09.12-.2.23-.28.36a24.5,24.5,0,0,0-1.75,4.2c-.63,1.86-.86,3.82-1.45,5.69a6.3,6.3,0,0,1-.57,1.35h0C41.42,56,45.27,53.1,45.72,50.7Z"/><path class="cls-1" d="M72.86,2.08c.17.5.33,1,.54,1.5A6.55,6.55,0,0,0,75,6.12a6.73,6.73,0,0,0,2.89,1.11.28.28,0,0,1,.18.39l.51.15c.18,0,.36,0,.54,0A.54.54,0,0,0,79,7.67a.88.88,0,0,1-.16-.28c-.9-1.33-3-2.51-4-3.27A11.32,11.32,0,0,1,72.86,2.08Z"/><path class="cls-1" d="M75,2.8l-.72-.68A16.79,16.79,0,0,1,72.12,0l.21.5A17.06,17.06,0,0,0,75,2.8Z"/><path class="cls-1" d="M75,11.27h0l0,0Z"/><path class="cls-1" d="M72.76,9.27l0,.06.3-.41L72.78,9A1,1,0,0,1,72.76,9.27Z"/><path class="cls-1" d="M16.08,44.33h0s0,0,0,0Z"/><path class="cls-1" d="M78.58,57.62c2.63.43,5,.82,7.32-.85a17.62,17.62,0,0,0,3.2-3A7.84,7.84,0,0,0,89.21,52c0-.46-.08-.92-.13-1.4s-.18-1.08-.29-1.65a10.65,10.65,0,0,1-.22-2.79,15.78,15.78,0,0,0-3.84,5.82c-.33.94-.78,1.49-1.84,1.47-.29,0-.65-.35-.83-.53-1.68-1.64-3.23.56-4,1.82a10.49,10.49,0,0,1-2.22,2.81A9.85,9.85,0,0,1,78.58,57.62Z"/><path class="cls-1" d="M49.07,24.81c-.39,1.58-1.45,2.69-2.24,4,.22,0,.44,0,.66,0a2.56,2.56,0,0,0,1.08-.92,4.3,4.3,0,0,1,1.57-1.57c.09,0,.16.08.08.13-.87.59-1.16,1.61-1.89,2.31l-.14.11c1.1.13,2.24.43,3.32.66,3.3.69,5.06-.23,7.54-2.24l.2-.15a5.87,5.87,0,0,0-3.67-.84,15,15,0,0,1-4.29-.11c-.26-.05-.19-.44.06-.45A10.4,10.4,0,0,0,54,25.25,6.53,6.53,0,0,0,56.17,24a.3.3,0,0,1,.26-.27h0A12.41,12.41,0,0,0,57.88,22c.22-.35.44-.71.64-1.06a3.6,3.6,0,0,1-2.47-.85A7.2,7.2,0,0,0,53.51,19c-.6.28-1.2.53-1.78.87a11.69,11.69,0,0,0-1.65,2A12.87,12.87,0,0,0,49.07,24.81Z"/><path class="cls-1" d="M29.66,44.43c.13-.43.25-.85.4-1.28a6.19,6.19,0,0,1,1.52-2.45,3.62,3.62,0,0,1-1.11.41.15.15,0,0,1-.08-.28c2.27-.84,2.1-3.71,2.7-6-1.47,0-3-.7-4.45-.52a4,4,0,0,0-3,2.36s0,.06,0,.1a7,7,0,0,1-3.15,4.82,5.44,5.44,0,0,1-2.06.85l0,0a7.56,7.56,0,0,0,1.73-.14,12,12,0,0,1,2.65-.9c1.14-.13,2,.47,3.16-.06A4.15,4.15,0,0,1,29.43,41c.18,0,.22.28,0,.31-.93.17-1.67.78-2.61.92s-1.31-.67-2.61-.28a11.36,11.36,0,0,1-2.59.78,10.39,10.39,0,0,1-1.05-.06l.26.21A.31.31,0,0,1,21,43c.73.43,1.43.9,2.13,1.32C25.29,45.35,27.83,45.84,29.66,44.43Z"/><path class="cls-1" d="M32.86,39.14c1.9-1.07,2.87-3.16,4.51-4.54A2.12,2.12,0,0,1,39,34c.74,0,1.21-.66,1.76-1.14l0,0c1.82-1.64,1.67-4.25,2.95-6.15-.8-.27-1.58-.57-2.4-.76-2.79-.63-3.55,1.48-4.35,3.75a17.55,17.55,0,0,1-2.25,4.09,11.84,11.84,0,0,0-1.45,4.13A9,9,0,0,1,32.86,39.14Z"/><polygon class="cls-1" points="74.32 89.28 74.33 89.28 74.33 89.27 74.32 89.28"/><path class="cls-1" d="M39.21,56.76v0h0Z"/><path class="cls-1" d="M52.05,18.14l-.58,0,.07.08.36,0Z"/><path class="cls-1" d="M60.4,35.28a2.47,2.47,0,0,1,1.08-1.84,3.35,3.35,0,0,1,1.76-.5c1.27-.06,1.6-1.46,2.11-2.3a15.22,15.22,0,0,1,1.3-1.83.66.66,0,0,1,0-.14,6.26,6.26,0,0,1-5-.32c-1.43.36-2.37,1.59-3.46,2.52a17.46,17.46,0,0,0-.74,2.59,22.16,22.16,0,0,1-1,4.5,6.54,6.54,0,0,1-1.22,2,.63.63,0,0,1,.42.14,35.64,35.64,0,0,1,4.16-1.78c1.58-.48,3.75-.17,5.41-.56,1.77-1.14,2-4.2,1.64-6.12-.09-.46-.15-.91-.2-1.35-.57.87-1.11,1.78-1.74,2.64-.84,1.12-2.16.21-3.16.94s-.94,2.65-2,3.59A33.27,33.27,0,0,1,56,39.73c-.11.06-.23-.09-.14-.17C57.49,38,59.8,37.83,60.4,35.28Z"/><path class="cls-1" d="M34.45,25.88l-.37.31.3-.21a.51.51,0,0,1,.15-.07Z"/><path class="cls-1" d="M18.25,43.25l-.33-.19a2,2,0,0,0-.61.19A5.9,5.9,0,0,1,18.25,43.25Z"/><path class="cls-1" d="M81.11,34a6.1,6.1,0,0,0-1.32,4.38,16.09,16.09,0,0,1,.91-2A11,11,0,0,1,82.15,34,6,6,0,0,1,81.11,34Z"/><path class="cls-1" d="M58,89.1l-.07,0-.11.16Z"/><path class="cls-1" d="M72.64,36.72c2.41.36,4.27.84,6.39-.64a5,5,0,0,1,1.24-2.19l-.38-.11A14.61,14.61,0,0,1,72.64,36.72Z"/><path class="cls-1" d="M31.64,56.78c-1.54-.32-1.87.71-2.58,1.61a.18.18,0,0,1-.29,0c-.34-.62-.82-2.42-1.48-1.28-.42.73-.8,1.48-1.23,2.2A8.47,8.47,0,0,1,23.64,62l-.17.35q.3-.15.6-.27c3.67-2,9.46,1.18,12-2.51l0,0a4.76,4.76,0,0,1,.31-.47,5.39,5.39,0,0,1,.61-.71,9.89,9.89,0,0,1-4.45-.63,0,0,0,0,1,0-.08c4.23.69,5.23-1.78,5.86-5.1l.09-.46c-1.64.44-3.9-.38-5.63-.42A6.75,6.75,0,0,0,28,53.16a4.52,4.52,0,0,1-.53.54,7.62,7.62,0,0,0-1.13,1.83c-.24.52-.48,1-.73,1.54a24.31,24.31,0,0,1-1.77,4.53c1.69-1.48,2.49-3.64,3.69-5.55a.17.17,0,0,1,.3,0c.22.31,1,2.06,1.36,1.55a4.08,4.08,0,0,1,.65-.85,1.69,1.69,0,0,1,1.88-.26A.15.15,0,0,1,31.64,56.78Z"/><path class="cls-1" d="M19.56,41.18a6.58,6.58,0,0,0,3.12-3.88,7,7,0,0,1-5.62,2.13c-3.06-.21-6.25-.22-9.13-1.34l.25.17c.5.3,1,.59,1.53.84,2.2,1.07,4.55,1.45,6.75,2.38l.54.06a12.94,12.94,0,0,0,2.5-.28A.24.24,0,0,1,19.56,41.18Z"/><path class="cls-1" d="M11.48,53a11.33,11.33,0,0,1-.85,1.52c1.49-1.14,2.54-2.7,4.08-3.83s3.57,1,4.95-1.27a4.08,4.08,0,0,1,2.44-1.67c-2.38-1.61-5-3.3-7.16-2-.16.26-.31.52-.46.78-.61,1-1.13,2.2-1.76,3.28A9.79,9.79,0,0,1,12,51.3a.13.13,0,0,1,0,.12,8.17,8.17,0,0,1-.41,1.27A.44.44,0,0,1,11.48,53Z"/><path class="cls-1" d="M133.54,41a8.34,8.34,0,0,1,2.73-1.71c.74-.31,1.59-.77,2.43-1l-.57-.19c-.62,0-1.26.07-1.91.12-.59.35-1,1-1.58,1.38a.08.08,0,1,1-.09-.14c.51-.34.84-.87,1.32-1.21a9.53,9.53,0,0,1-1.51,0,.13.13,0,0,1,0,.08,3.1,3.1,0,0,0-.65,1.65A6.32,6.32,0,0,1,133.54,41Z"/><path class="cls-1" d="M133.24,36.82a3.21,3.21,0,0,1-.32-1l-.68-.36c.08.18.17.37.26.54A3.11,3.11,0,0,0,133.24,36.82Z"/><path class="cls-1" d="M133.31,36a3.46,3.46,0,0,0,.46.67L134,37a3.35,3.35,0,0,1-.26-.73Z"/><path class="cls-1" d="M131.11,34.85a3.16,3.16,0,0,0,1.21,1.87l.19.07a4.37,4.37,0,0,1-.7-1.57Z"/><path class="cls-1" d="M134.46,36.54l-.18-.09a1.73,1.73,0,0,0,.14.2A.36.36,0,0,1,134.46,36.54Z"/><path class="cls-1" d="M126.32,31.65c.05.2.1.41.13.6a4.72,4.72,0,0,0,.56,2,2.57,2.57,0,0,0,1.15.84h.06c.15,0,.28,0,.41,0A5,5,0,0,1,126.79,32Z"/><path class="cls-1" d="M127.66,51.37a1.05,1.05,0,0,1,.43-.56c.41-.24.54-.43.3-.91-.9.67-1.93,1.13-2.9,1.74.66.29,1.33.54,2,.77A2.65,2.65,0,0,1,127.66,51.37Z"/><path class="cls-1" d="M129.54,53.15a14.68,14.68,0,0,1-.18-4.18,5.43,5.43,0,0,1-.83.83c.21.3.47.75,0,1s-.74.44-.73,1.07a3.2,3.2,0,0,0,.11.7C128.48,52.75,129,52.94,129.54,53.15Z"/><path class="cls-1" d="M131.06,36a10.51,10.51,0,0,1-.32-1.38l-1-.57a4.12,4.12,0,0,0,.89,1.59A4.27,4.27,0,0,0,131.06,36Z"/><path class="cls-1" d="M130.61,36.41l-.3-.2a.74.74,0,0,0-.28,0,.79.79,0,0,0-.14.37,1.17,1.17,0,0,1-.19.54.79.79,0,0,1-.55.29c-.33,0-.72-.09-.89.27,0,.09-.2,0-.16-.07.3-.72,1.32-.16,1.49-1a1.43,1.43,0,0,1,.21-.55,3.94,3.94,0,0,0-2.15.06,4.67,4.67,0,0,0,.14,3.66,10.56,10.56,0,0,1,3.37-2.9A3.7,3.7,0,0,1,130.61,36.41Z"/><path class="cls-1" d="M94,30.6l-.28-.21-.14.07a.43.43,0,0,1,.42.14Z"/><path class="cls-1" d="M119.52,15.82a17.09,17.09,0,0,1-2.38.53c1.07.7,1.88,1.9,3,2.49,1.48.79,2-.58,2.82-1.49C122,16.69,121.31,15.31,119.52,15.82Z"/><path class="cls-1" d="M124.8,61a.47.47,0,0,1,.13.15,2.39,2.39,0,0,1,.12-.22Z"/><path class="cls-1" d="M151.33,22c1.07.94,2.39,1.67,3.6.49a.12.12,0,0,1,.2.05c.32,1.09.93.95,1.62.7a1.38,1.38,0,0,0-1.14-1.8,18.72,18.72,0,0,0-3.74-.25,13.19,13.19,0,0,1-2.23-.17c.51.63,1,1.29,1.48,2l0,0h0l.06,0,.12,0c.35.1.92.19,1.44.35h.05a1.75,1.75,0,0,1,1,.61.94.94,0,0,1,.24.87,1.48,1.48,0,0,1-.86,1.77c-.09.06-.2-.07-.12-.14a1,1,0,0,0,.22-1.46c-.29-.45-.66-.48-1.11-.57l.23.32c.12.16-.13.33-.26.21-3.17-2.89-5.53-6.83-10.05-7.72-3.64-.72-7.23-.74-10.76-1.74a3,3,0,0,1-.87-.12,10.06,10.06,0,0,1-3-1.5c-.06,0,0-.13,0-.09.44.23.89.43,1.35.62a15.4,15.4,0,0,1-2-2.75c-2.51-4.05-6.63-2.27-10.56-2.87-.09,0-.07-.16,0-.16a13.84,13.84,0,0,0,2.86-.35c-1-.34-2.69.22-3.57.38a16.62,16.62,0,0,1-3.29.4.1.1,0,0,1,0-.2c.66-.06,2.34-.77,4-1.25-2.75-.54-5.38-.07-8.26-.42a42,42,0,0,1-7.32-1.62s0,0,0,0a10.62,10.62,0,0,0-4.6.24c-.13,0-.18-.17-.06-.2a19.27,19.27,0,0,1,3-.78,5,5,0,0,1,2.17.36c1.78.3,3.53.56,5.29.72-1.33-.52-2.63-1.17-3.9-1.54-.08,0-.07-.16,0-.16a14.74,14.74,0,0,1,2.2.19c-1.77-1.06-3.87-2.71-5.88-2s-3.86,1.79-5.81,2.67a16.58,16.58,0,0,1-7.16,1.13,11.16,11.16,0,0,1,1.29.51,6.8,6.8,0,0,1,2.76-.19c.8.08,1.65.29,2.45.31S93.93,6,94.35,5.34a.09.09,0,1,1,.16.09c-.53,1-.94,1.74-2.14,1.93a18.07,18.07,0,0,1-2.55,0c.32.09.63.2.9.3a5,5,0,0,1,1.54.93C93.51,9.7,94.23,8,94.34,7c0-.11.18-.12.18,0,0,1.1-.43,2.52-1.72,2.55a2,2,0,0,1-.91-.44,5.49,5.49,0,0,0-1.39-.59,2.1,2.1,0,0,1-.24-.06c1.48,1.06,2.84,2.63,4.35.58a.09.09,0,0,1,.15.09,2.36,2.36,0,0,1-2.39,1.42l0,0a9.52,9.52,0,0,0,1.89.13,2.06,2.06,0,0,1,1.15.44c.68.7.72,2.55,1.5,2.94,1.54.78,3.43-2,3.51.92a.2.2,0,0,1-.39,0c-.33-1.69-1.24.13-2.2.22a2.36,2.36,0,0,1-2.14-.92c-.47-.84-.39-1.76-1-2.29a2.35,2.35,0,0,1-.59,2.35.1.1,0,0,1-.14-.15,1.44,1.44,0,0,0,.31-1.53,1.3,1.3,0,0,0-.46-.58c-4.16-.34-6.67-4.37-11.55-1.78-3.1,1.65-6,3.62-9.18,5.14a12,12,0,0,1-1.9.7c-.5.26-1,.51-1.6.77a1.13,1.13,0,0,1-1.11-.18,9.39,9.39,0,0,1-3.09,0,13.37,13.37,0,0,1,3,2,34.62,34.62,0,0,1,6.26,5.57c1.83,2,4.2,6,7.39,5.81a20,20,0,0,0,4.84-1c3.12-.93,8.43-2.92,10.71.16-.34-1.42-.93-2.68-2.64-3-.09,0,0-.17.05-.15,2.3.33,3.17,2.87,3.46,5a5.9,5.9,0,0,1-.89,6.32c-.1.12-.3,0-.21-.17a6.15,6.15,0,0,0-.13-6.1,3.72,3.72,0,0,0-.61-.69.29.29,0,0,1-.22,0,1.09,1.09,0,0,1-.34-.13,1.5,1.5,0,0,1-2.27,1.15A4.72,4.72,0,0,1,91.65,34h0a2,2,0,0,1,.8.34,4.21,4.21,0,0,0,1.67-1.12,8.92,8.92,0,0,0,1.45-1.36A.22.22,0,0,1,96,32c0,.77-.87,1.43-1.48,1.74a7.06,7.06,0,0,1-1.78.82A4.62,4.62,0,0,1,93.91,38c-.09,2.5-1.4,4.15-2.8,6-1.29,3.44,1,6.85-.3,10.46A6.76,6.76,0,0,1,90,56a9.81,9.81,0,0,0,1-.4c1.37-1.09,1.63-2.23,2-3.77a.15.15,0,0,1,.2-.11c3.34,1.35,2.28-3.58,2-4.64a2.78,2.78,0,0,1-.16-1.51c.85-2,3.19-2.88,4.18-5,0-.07.14,0,.11.07a7.59,7.59,0,0,1-2.29,3c-2,1.67-1.48,2.82-1.25,4.86.12,1.1.27,3-.88,3.64-.71.42-1.64-.39-1.75,1.06a2.49,2.49,0,0,1-.39,1.55,4.66,4.66,0,0,1-1.27,1c.66-.14,1.34-.22,2-.3a14.67,14.67,0,0,0,3.85-1,26,26,0,0,0,2.28-1.29,10.5,10.5,0,0,0,1.56-1.43c1.7-2.13,1.77-4.82,3.49-7.12.17-.22.55,0,.38.22-2.27,3,0,6.49-3.47,9-2.15,1.52-4.79,2.59-6,5.15-1.44,3.18-1.33,5.91-.86,9.11,0-.16.11-.31.16-.47,0-1.93,1-3.47,1.49-5.46.46-1.69,1.07-2.88,2.94-3,.1,0,.13.16,0,.18-2.41.34-2.31,2.3-3,4.1a17.74,17.74,0,0,0-.79,2.66,21.23,21.23,0,0,1,1.73-2.7c2.68-4.81,6.76-9.24,12.32-9.81.52-.05,1.07-.09,1.63-.1a7.42,7.42,0,0,0-4.17-.2c-.1,0-.14-.13,0-.16a8.18,8.18,0,0,1,4.07-.57c-1.6-.76-3.34-1.06-4.68-.21-.08,0-.14-.07-.07-.12,1.49-1,4.07-.68,5.69-.09l.43.16a6.87,6.87,0,0,0-6.23-1.5c-.12,0-.17-.15-.05-.19,4-1.21,8.28,1,10.71,4.36a5.17,5.17,0,0,1,1.43,1.72,5.1,5.1,0,0,1,.32,4.85c.43-.35.87-.66,1.32-1s1.59-1,1.51-1.67-.38-2.35-1.65-1.41a.23.23,0,0,1-.32-.13c-.49-1.42-.12-3.15-1.82-3.86-.15,0-.09-.29.06-.23,1.42.49,1.59,1.4,1.85,2.78s.82.1,1.57,1c1.66,2-.19,3.34-1.77,4.49a1.09,1.09,0,0,1,.26,0c.43,0,2.54.82,2.57.61a1.86,1.86,0,0,1,.4-.93c.18-.47.65-.93,0-1.29a.24.24,0,0,1,0-.4c.2-.12.37-.29.57-.41s.13-.34.06-.54.11-.12.14,0,.18.52.1.66a3.16,3.16,0,0,1-.39.48.87.87,0,0,1,.27,1,3.9,3.9,0,0,1,.48-.17,4.16,4.16,0,0,0,.13-.59l-.28-.06a.14.14,0,0,1,0-.23c.59-.71,1.18-1.34.61-2.28,0-.08.08-.15.13-.07l0,.1.07.08s0,0,0,0c.42.86-.13,1.35-.55,2.13l.25,0a.14.14,0,0,1,.11.14,3.75,3.75,0,0,1-.12.6l.47-.14c0-.29.12-.54-.18-.78a.12.12,0,0,1,0-.16,2.63,2.63,0,0,0,.62-1.75c0-.1.14-.15.16,0a2.63,2.63,0,0,1-.5,1.83.86.86,0,0,1,.28.77,2.46,2.46,0,0,0,.45-.25.75.75,0,0,0,.07-.12,1.28,1.28,0,0,1,.07-1.23c0-.06.11,0,.1,0a1.7,1.7,0,0,0,0,.81,2.6,2.6,0,0,0,.16-2c0-.11.13-.17.19-.08a2.27,2.27,0,0,1,.11,2.34.26.26,0,0,1,0,.21,2.1,2.1,0,0,1-.44.62c-.35.78-.58,1.6-.92,2.39-.54,1.27-1.39,2.42-2.61,2.59a4.08,4.08,0,0,0,2.58.58,1.92,1.92,0,0,0,.76-.59c.4-.5.68-1.06,1.07-1.56A3.84,3.84,0,0,1,128,62.83a2.89,2.89,0,0,0,.53-1.82,1.18,1.18,0,0,1,.18-.75,1.37,1.37,0,0,1,.67-.51c1-.47.63-1.63.16-2.42,0-.06.06-.12.1-.06.5.8.92,1.88.14,2.64a1.46,1.46,0,0,0-.61,1.38,1,1,0,0,1,0,.43,6.88,6.88,0,0,1-.3.94c1.2-.06,1.65-.52,1.91-1.23v-.12a4.21,4.21,0,0,1,.27-1.2V60h0a2.42,2.42,0,0,0-.26-.95,1,1,0,0,1-.16-.57c0-.45.39-.66.2-1.2a6,6,0,0,0-.58-1.2.08.08,0,0,1,.13-.08c.39.57.91,1.27.7,2-.14.49.23.93.41,1.4a.57.57,0,0,1,.13-.08s0-.05.06-.07a4.46,4.46,0,0,1,.78-.49,1.2,1.2,0,0,0,.41-.43,3.24,3.24,0,0,1,.14-.73,1.51,1.51,0,0,0-.07-1,.64.64,0,0,1-.41,0h0c-1.05.06-1.39-.69-1.89-1.48,0-.09.08-.19.15-.11a5.27,5.27,0,0,0,.66.82.76.76,0,0,0,.59.2,8.15,8.15,0,0,0-4.08-2.35.12.12,0,0,1-.11,0,17.06,17.06,0,0,1-3.56-1.42A35,35,0,0,1,115.66,47s0-.12,0-.08a30.38,30.38,0,0,0,5.46,3.14c-1.52-1.1-3-2.22-4.51-3.37-3.38-2.64-8-4.91-8.94-9.33a5.11,5.11,0,0,0-.12,1.37,21.46,21.46,0,0,1,.08,2.89.12.12,0,0,1-.23,0c0-1.52-.52-3.13-.32-4.62a24.83,24.83,0,0,1-3.36,3.13c-.14.11-.31-.12-.19-.24,1.37-1.3,2.7-2.85,4.05-4.4l0,0c0-.08.08-.17.14-.26a.42.42,0,0,1,.15-.12c1.83-2.38,3.65-5.08,6.54-6,2.91-1.76,6.21-2.21,10.25.23,2.75,1.66,5.34,3.58,8.21,5s8.22,4.25,11.87,3.45c0,0,0,0,0-.05a4,4,0,0,1-2.91-.53c-.12-.07,0-.26.12-.19a5.08,5.08,0,0,0,2.77.47.12.12,0,0,1,.12.1,2.64,2.64,0,0,1,1.61-.53l.08,0c3.6-2,5.21-6.14,7.63-9.39a12.62,12.62,0,0,0-1.32.88c-.1.09-.26-.06-.15-.16.84-.8,1.85-1.46,2.65-2.3a11.84,11.84,0,0,0,1.28-2.52,1.53,1.53,0,0,1-1.09.14c-.21-.06-.71-.9-.75-.87-1.17,1.05-2.69.07-3.62-.76C151.1,22,151.24,21.9,151.33,22ZM99.35,4.1a14.8,14.8,0,0,1,2-.07.11.11,0,0,1,0,.21,14.8,14.8,0,0,1-2-.07A0,0,0,1,1,99.35,4.1ZM99,10.46a7.79,7.79,0,0,1-2.83-1.2s0-.11,0-.08A8.62,8.62,0,0,0,99,10.31C99.14,10.32,99.1,10.48,99,10.46Zm1.09.47a.74.74,0,0,1-.42-.19s0-.06,0-.05a.76.76,0,0,0,.41.15C100.17,10.85,100.14,10.94,100.08,10.93Zm-5.37,24c-.11.18-.19.44-.35.52h0a.11.11,0,0,1-.14,0h0a.14.14,0,0,1-.08-.14c0-.41.18-.85.62-.85.65,0,.77-.7,1.21-1.06.13-.11.39,0,.32.18C96,34.34,95.61,35,94.71,34.88Zm30.84,21.21a.8.8,0,0,1,.61.67c0,.16-.2.29-.28.12a1,1,0,0,0-.43-.55C125.31,56.26,125.41,56.05,125.55,56.09Zm-.81-1a.64.64,0,0,1,.19.28c0,.1-.12.14-.16,0l-.15-.22C124.55,55.12,124.67,55,124.74,55.08Zm-.89.14s0,.05,0,.07a2,2,0,0,0,.23-.28.09.09,0,0,1,.16.09,1.44,1.44,0,0,1-.35.43.09.09,0,0,1-.14,0,.44.44,0,0,1-.09-.29C123.67,55.11,123.83,55.12,123.85,55.22Zm-.65-.95a2.85,2.85,0,0,1,.43.42s0,.11-.07.06a2,2,0,0,0-.4-.42S123.16,54.25,123.2,54.27Zm-14-10.19c2.1,1.91,4.23,3.63,6.5,5.34s4.67,2.81,7,4.27c.14.09,0,.31-.13.22-2.36-1.46-4.93-2.44-7.12-4.18s-4.28-3.55-6.38-5.53A.08.08,0,0,1,109.24,44.08Zm-3.1-4.24c.07-.21.4-.12.33.09a8,8,0,0,0-.27,1.45c0,.18-.27.19-.28,0A4.26,4.26,0,0,1,106.14,39.84Zm31.22-22.75a1.46,1.46,0,0,0,1-.08c.15-.06.25.18.11.24a1.33,1.33,0,0,1-1.18-.07S137.31,17.07,137.36,17.09Zm-34.15-5.26a2.9,2.9,0,0,1,1.16,1.22c.25-.27.56-.57.94-.5s.91.4,1.45.47c0,0,.06.05,0,.06a1.22,1.22,0,0,1-.92,0,3.49,3.49,0,0,0-.53-.22c-.39-.06-.65.28-.88.53a.15.15,0,0,1-.23,0,4.41,4.41,0,0,0-1.08-1.45C103.08,11.88,103.15,11.8,103.21,11.83ZM101,11a5.49,5.49,0,0,1,1.44.34c.08,0,0,.17-.06.14a14,14,0,0,0-1.42-.34C100.81,11.11,100.86,11,101,11Zm-1.43,5.31c2.21,2.18,9.29,1.52,8.2,6.09.23,0,.47-.06.71-.09s.24.15.22.28c-.19,1-1.05,1.31-1.74,2-.13.13-.31-.06-.2-.2.35-.45,2.29-1.93.68-1.35a.31.31,0,0,1-.39-.3c.29-4.23-5.4-3.91-7.66-6.28C99.22,16.36,99.4,16.17,99.52,16.29ZM107.31,25h-.25a.09.09,0,0,1,0-.17h.25A.09.09,0,0,1,107.31,25Zm-3.88-3.53a.06.06,0,0,1,0-.11c1.17-.4,2.28.83,2.38,1.93,0,.14-.19.14-.23,0C105.15,22.27,104.67,21.41,103.43,21.44Zm.92,2.33a5.38,5.38,0,0,0-1-.65c-.14-.06,0-.28.09-.23a4.79,4.79,0,0,1,1.05.61C104.67,23.62,104.52,23.88,104.35,23.77ZM87.5,24a2.63,2.63,0,0,1-3.16.42c-.52-.31-.71-1.1-1-1.55-1-1.42-1.6-.25-2.34,0-1.08.43-1.39,1.19-2.55.44-1.51-1-2.42-2.67-4-3.54a.05.05,0,1,1,0-.09,11.1,11.1,0,0,1,3.07,2.44c1.29,1.25,2.91.87,4.17-.13A1.22,1.22,0,0,1,82.84,22c1.67,1.1,1.66,3.57,4.54,1.88C87.48,23.83,87.59,24,87.5,24Zm6.9.32a7.2,7.2,0,0,1-1.63-1.05c-.61-.6-1.21.36-1.82.64a1.7,1.7,0,0,1-2.21-.45s0-.1.05-.06c1.35,1.29,2.48.13,3.59-.72a.11.11,0,0,1,.12,0,7.45,7.45,0,0,0,2,1.5C94.54,24.29,94.47,24.4,94.4,24.36Zm1.39-5.11a.23.23,0,0,1-.35,0c-1.24-1.08-2.55-2-3.28-.09a.23.23,0,0,1-.29.16,7.7,7.7,0,0,1-3.3-2.27c-.29-.33-.88,2.72-1,2.91-.87,1.2-1.83,1.43-3.07.47a3.8,3.8,0,0,1-.93-1.57c-1.14-3-2-2.24-4.66-1.11-3.56,1.51-6.84.35-10.5-.29a.2.2,0,0,1,.05-.4c4,.29,8.23,1.54,11.48-1.76.75-.76,1.42-.61,2.29-.42.56.12,1.16.92,1.36,1.4.31.78.48,1.58.76,2.37,2.41.48,3.5-.14,3.26-1.84,0-.3.07-.59.1-.88s.27-.36.43-.18c1.22,1.41,3.47,3.62,4.43,1.12a.24.24,0,0,1,.34-.14c.54.33,2.83,2.52,3.07.7a.15.15,0,0,1,.3,0C96.24,18.66,96.35,18.21,95.79,19.25Zm.83,5.25s-.08,0-.05-.06c1-.81,1.28-2.49,2.76-2,1,.31.71,1.56.39,2.33,1.4-.33,3-1.95,3.13.55a.09.09,0,0,1-.17,0c-.07-1.8-1.16-1.05-2.05-.58a3.25,3.25,0,0,1-1.2.42.17.17,0,0,1-.14-.26,2.27,2.27,0,0,0,.35-1.62c-.33-1-1.26-.68-1.72-.14A9,9,0,0,1,96.62,24.5Zm6.29,16.7a5.28,5.28,0,0,0-.67,3.54c0,.08-.1.11-.12,0a4.65,4.65,0,0,1,.58-3.71A.12.12,0,0,1,102.91,41.2Zm.79.83c.13-.13.33.07.21.21a2.5,2.5,0,0,0-.46.81c-.07.17-.34.11-.29-.08A2.27,2.27,0,0,1,103.7,42Zm8.93-16.11c-3.37,1.4-6.65,2.4-8.7,5.69A47.62,47.62,0,0,1,100,37.86c-.07.09-.18,0-.12-.12a23.83,23.83,0,0,0,2.36-4.08.78.78,0,0,1-.47.16c-.22,0-.24-.3-.05-.37-.13,0-.09.1-.11,0-.13.27-.31.56-.59.59s-.6-.18-.91-.22a0,0,0,0,1,0-.06,3,3,0,0,1,.59.09c.49.1.64-.37.77-.76,0-.09.17-.15.24-.06a2.21,2.21,0,0,1,.22.32,3.56,3.56,0,0,1,.65-.38c.19-.37.38-.73.58-1.09a2.37,2.37,0,0,1-.3.23.17.17,0,0,1-.26-.15c0-.09,0-.18,0-.27a1.62,1.62,0,0,1-2.89-.55.05.05,0,0,1,.1,0,1.5,1.5,0,0,0,2.83.12.14.14,0,0,1,.27.07c0,.1,0,.2,0,.29a7.23,7.23,0,0,0,1.25-1.34.08.08,0,0,1,.08-.05c.19-.25.39-.48.6-.72a2.29,2.29,0,0,1-.77,0c-.69-.16-.65-.34-1.24.15a6.54,6.54,0,0,1-.74.56c-1.22.73-1.9.12-2.56-1a.07.07,0,1,1,.12-.07c.66,1,1.43,1.39,2.41.56l1.19-1a.24.24,0,0,1,.29,0,2,2,0,0,0,2.1.1l.07-.06a2.06,2.06,0,0,1-1-.31,1.72,1.72,0,0,0-2.12-.15,2.58,2.58,0,0,1-.9.43c-.47.09-.73-.56-.79-.9-.08-.53-1.2.12-1.37.14a2.48,2.48,0,0,1-1.43-.15c-.07,0,0-.15,0-.12a3,3,0,0,0,2.75-.57.15.15,0,0,1,.21.09c.36,2.09,1.35.36,2.36.36a2.4,2.4,0,0,1,1.16.39,2.2,2.2,0,0,0,1.71.32c.21-.15.42-.3.64-.44a1.91,1.91,0,0,1-1.19-.29,4.65,4.65,0,0,1-.79-.68c-.36-.4-.91-.13-1.3.16a.16.16,0,0,1-.16,0c-.29-.28,0-.38-.18-.73,0-.13.16-.21.21-.09s.09.51.18.46a8.73,8.73,0,0,1,1-.38.14.14,0,0,1,.15,0,2.73,2.73,0,0,0,2.73,1.12h0a16.38,16.38,0,0,1,4.93-1.65A.12.12,0,0,1,112.63,25.92Zm7.52-2.37a4,4,0,0,1-1.48.72,1.61,1.61,0,0,1-.51.6.09.09,0,0,1-.13-.13,2.86,2.86,0,0,0,.28-.4,3.39,3.39,0,0,1-.55,0,7.45,7.45,0,0,1-.94,1c-.08.07-.18,0-.11-.12.24-.3.44-.65.7-.94a3.38,3.38,0,0,1-.62-.18.25.25,0,0,1,0,.12,1.92,1.92,0,0,1-1.68,1.17c-.14,0-.14-.2,0-.22.67-.07,1-.61,1.32-1.16,0,0,0,0,.06-.05a8.79,8.79,0,0,1-2.5-2.14c-2.3-2.66-4.44-5.34-8.08-6.09a.12.12,0,0,1,0-.23,9.28,9.28,0,0,1,5.76,2.26c2.14,1.85,4.88,6.68,8.31,5.42C120.23,23.11,120.32,23.43,120.15,23.55ZM113,16.21c0-.06.05-.13.1-.08a7.54,7.54,0,0,1,.8,1.22c0,.06,0,.13-.1.08A14.23,14.23,0,0,1,113,16.21Zm1.36,1.94s0-.07.05,0a6.31,6.31,0,0,0,2,1.72c.12.06,0,.26-.11.19A6,6,0,0,1,114.32,18.15Zm2.38,2.09a1.52,1.52,0,0,1,.31.31c0,.07-.05.17-.12.12a1.52,1.52,0,0,1-.31-.31A.08.08,0,0,1,116.7,20.24Zm9.29-.12a28.74,28.74,0,0,0,4.63-2.27,7.71,7.71,0,0,0-2.58.31c-.79.31-1.26.3-1.75-.41a.06.06,0,0,1,.1-.07c.67.74,1.31.11,1.92-.21a4.79,4.79,0,0,1,1.28-.31l.36-.05-.87-.19a6.21,6.21,0,0,1-2.6-.9,2.72,2.72,0,0,1-1,1.1l.17.23a6.79,6.79,0,0,1,.7,1.12c0,.08-.07.18-.13.1a7.19,7.19,0,0,0-.76-.8c.49,1,.78,2.24-.12,3.05a.09.09,0,0,1-.13-.12c.62-.69.3-1.66-.14-2.48a3.64,3.64,0,0,1,0,2,.27.27,0,0,1-.34.19c-.17-.07-.38-.12-.55-.21s-.11.17-.19.37c-.14.37-.34.72-.48,1.1a.08.08,0,0,1-.16-.05c.1-.38.29-.74.36-1.13s0-.44.17-.7a.2.2,0,0,1,.23-.09l.48.1a3,3,0,0,0,0-1.11,3.79,3.79,0,0,1-.14.53.27.27,0,0,1-.4.16l-.24-.19a9,9,0,0,1-3.2,3.91c-.08.05-.19-.08-.11-.14a9.49,9.49,0,0,0,2.93-4.26.27.27,0,0,1,.4-.16l.2.15a4.42,4.42,0,0,0,0-1l-.15,0c-.66.67-1,1.8-1.63,2.36a1.15,1.15,0,0,1-.43.42,5,5,0,0,1-2.16,1.68c-.08,0-.14-.1-.06-.15a3.66,3.66,0,0,0,1.47-1.37v0h-.05a2.8,2.8,0,0,1-3.49.25,0,0,0,0,1,0-.06,3.79,3.79,0,0,0,2.13.19,2.65,2.65,0,0,0,.84-.47h0a2.18,2.18,0,0,1-1.36.05A17.44,17.44,0,0,1,116.48,19a.06.06,0,1,1,.06-.1,11,11,0,0,0,2.36,1,2.72,2.72,0,0,0,.61.07,53.1,53.1,0,0,1-4.66-3.32,2.74,2.74,0,0,0,.48.81c.3.36.6.71.89,1.08a.05.05,0,0,1-.08.07,6.47,6.47,0,0,1-1.9-2.22,8.65,8.65,0,0,1-2.63-1c-1.57-.91-2.69-2.1-4.6-2.25a.11.11,0,0,1,0-.21,6.21,6.21,0,0,1,3.68,1,19.44,19.44,0,0,0,3.68,1.49c2.1.06,4-.83,6.24-1,1.51-.15,2.28,1.86,3.3,2.19l.11,0,.28-.18a4.2,4.2,0,0,1-1.15-1.65c-.64-1.4-1.25-2.17-3-1.66a3.7,3.7,0,0,1-2.64.08c-.06,0,0-.12,0-.1,1.4.45,3.94-1.36,5.08,0,.57.69,1,2.95,2.11,3l.25-.17a1,1,0,0,1-.92-.75c0-.07.07-.09.1,0a.76.76,0,0,0,1.16.48,1.31,1.31,0,0,0,.35-.67,3.42,3.42,0,0,0-.49-2A31.66,31.66,0,0,0,123,9.6c-.06-.09.07-.18.14-.11,1.35,1.22,3.23,2.64,3.59,4.55a3.24,3.24,0,0,1-.22,1.88h0c1.82,1.12,4.44.45,6.48,1a5.32,5.32,0,0,1,3.65.31.14.14,0,0,1-.07.26c-3.81-.18-6.9,2.47-10.59,2.88C125.89,20.34,125.88,20.15,126,20.12Zm14.75,16.72c-5-2.59-9.51-5.84-14.33-8.68,0,0,0-.07,0-.05,4.91,2.66,9.35,6.12,14.34,8.65A0,0,0,1,1,140.74,36.84Zm4.63-4.11a12.06,12.06,0,0,1-8.3-2.89c-1.38-1.45-2.57-3.27-4.14-4.53-2.23-1.79-4.58-.07-6.86-.82a.11.11,0,0,1,.06-.21c2.84.8,4.74-2,7.36.47,3.46,3.2,6.66,7.48,11.86,7.79C145.45,32.54,145.49,32.71,145.37,32.73Zm-.86-2.37a.11.11,0,0,1,0,.22,4,4,0,0,1-2.8-1.64c-.06-.07,0-.18.11-.11A4.23,4.23,0,0,0,144.51,30.36Zm-.54-1c.33.16.67.26,1,.44.05,0,0,.11,0,.09-.35-.13-.69-.25-1-.4C143.81,29.41,143.88,29.29,144,29.32Zm2-.26a.81.81,0,0,1-.47-.16c-.12-.09,0-.28.11-.19a.73.73,0,0,0,.39.17A.09.09,0,0,1,145.93,29.06Zm-4.28-7c-2.72-1.38-6.32.61-9.32-.48-.08,0-.05-.16,0-.13,3.06.93,5.93-.72,8.9,0,2,.49,3.1,2.79,5.13,3.46a.19.19,0,0,1-.1.37C144.19,24.8,143.46,23,141.65,22.1ZM146.43,33a.1.1,0,1,1,0-.19A.1.1,0,1,1,146.43,33Zm2.46-5.45c-.84-.19-1.06-1-1.16-1.73-.31.08-.62.06-.94.11-.14,0-.2-.19-.06-.21a6.25,6.25,0,0,0,1.08-.2c.09,0,.16.06.17.13.09.69.24,1.4,1,1.61A.15.15,0,0,1,148.89,27.53Zm.53-1.42c-.08,0,0-.13,0-.11.87.23.63,1.55.94,2.2a0,0,0,0,1-.08,0,2.57,2.57,0,0,1-.35-1C149.88,26.85,149.9,26.27,149.42,26.11Zm.71,3.31s-.11,0-.07-.07a2.72,2.72,0,0,0,.33-.57c0-.06.11,0,.08,0A2.32,2.32,0,0,1,150.13,29.42Z"/><path class="cls-1" d="M115.83,16.46c.17.1.35.21.52.33l-.46-.34Z"/><path class="cls-1" d="M80.26,82.72l.06-.08v0Z"/><path class="cls-1" d="M95.24,29.81l-.08,0h0l0,0Z"/><polygon class="cls-1" points="133.39 37.07 133.39 37.07 133.38 37.07 133.39 37.07"/><path class="cls-1" d="M117.77,31.05a4.1,4.1,0,0,1,.27.48c0-.08,0-.16,0-.24-.09-.81-.51-1.69-1.44-1.72a7.8,7.8,0,0,0-1.53.18.11.11,0,0,1-.08,0c-.23.12-.46.26-.69.4C115.56,30,116.82,29.91,117.77,31.05Z"/><path class="cls-1" d="M81.62,68.24a12.09,12.09,0,0,0-4.05,2.7.2.2,0,0,1-.28-.28c.39-.45.79-1,1.2-1.47h0a6.51,6.51,0,0,0,1.42-4.31,2.54,2.54,0,0,1-1,1,.16.16,0,0,1-.2,0c-.29-.39-.65-.72-1-1.1-.45,1.2-.15,2.56-.47,3.8,0,.09-.17,0-.14,0,.35-1.32,0-2.71.46-4,0-.07.13-.12.19,0,.28.34.61.61.9.93.45.51.79-.56.91-.91a.24.24,0,0,1,.36-.13c.08-1.69.1-3.38.86-4.68-.6,0-1.21-.12-1.81-.11A9.49,9.49,0,0,0,76,60a5.31,5.31,0,0,0-2.41,1.59,10.22,10.22,0,0,0-.87,1.51c-.06.17-.13.35-.19.54a32.36,32.36,0,0,1-1.36,6.17,7,7,0,0,1-.94,2.58c2.59-.81,2.49-3.44,3.87-5.5a.19.19,0,0,1,.35,0c.35,1,.54,2.68,1.71,3.09a.08.08,0,0,1,.07.08c0,.3,0,0,.1-.28,0-.07.16,0,.13.05s-.22.58-.23.63a.09.09,0,0,1-.18,0c0-.36-.82-.7-1-1.11a12.1,12.1,0,0,1-.78-1.94c-1.25,2.17-1.35,4.65-4.18,5.23a6.38,6.38,0,0,1-.74.83c.16-.09.33-.17.49-.24a1.2,1.2,0,0,1,.82-.29,8.55,8.55,0,0,1,3,0c3.52.43,6.09-.58,9-2a8.92,8.92,0,0,1-.06-1.16,5.07,5.07,0,0,1,.24-1.63A3.36,3.36,0,0,0,81.62,68.24Z"/><path class="cls-1" d="M74.89,75.56h0c-1,3.81-1.86,7.77-.48,11.64a19.59,19.59,0,0,0,4,6.61,10.73,10.73,0,0,1-.94-4.38c-.94-2.37-1.1-5.16-1.41-7.66a1,1,0,0,1,.44-1c1.42-.85,1.25-2,.81-3.39,0-.15.19-.21.24-.07.36,1.13,1.49,2.44,0,3.21-1.77.91-.6,2.25-.51,3.57a33.42,33.42,0,0,0,.45,4.26,19,19,0,0,1,3.65-9,12.52,12.52,0,0,1,.17-3.46l.06-.29c-1.1.94-2.49,1.12-3.93,1.58a.08.08,0,0,1,0-.15c.73-.26,1.5-.44,2.22-.73a6.35,6.35,0,0,0,1.91-1.26l0-.09a10,10,0,0,1-2.82.69A8.38,8.38,0,0,1,74.89,75.56Z"/><path class="cls-1" d="M119.28,33.19h0l.17-.08a1.37,1.37,0,0,1-.4-.79,14.3,14.3,0,0,1-.19-1.73,1.62,1.62,0,0,0-2.26-1.48c-.06,0-.09,0-.09-.07-.24.08-.47.17-.71.27a2,2,0,0,1,2,.53,2.38,2.38,0,0,1,.59,1.25c.1.76,0,1.54.76,2A.28.28,0,0,1,119.28,33.19Z"/><path class="cls-1" d="M94.54,57l.08-.1a4,4,0,0,0-1.33.47,6.36,6.36,0,0,0-2,2.37.17.17,0,0,1-.3-.17,8.61,8.61,0,0,1,1.75-2.43,7,7,0,0,1,1.52-1c-2.2.2-4.39.4-5.92,2a.14.14,0,0,1-.2,0c-1,1-2.1,1.86-3,2.81-.11.12-.32,0-.22-.17,1-1.47,2.28-2.89,3.18-4.46A8.53,8.53,0,0,1,83.57,59a5.72,5.72,0,0,1-1.18.07c-1.65,2.25-1.21,5.14-2,7.64a7.31,7.31,0,0,1,1.9-.64c1.18-.25,2.45-.31,3.6-.67a11.25,11.25,0,0,0,3.17-1.86,3.18,3.18,0,0,0,1.41-2,.11.11,0,0,1,.22,0,3.41,3.41,0,0,1-1.11,2.34.32.32,0,0,1-.09.24,7.53,7.53,0,0,1-2.76,2c-3.81,4.17-1.83,11.22,0,16.26,0-.11,0-.21,0-.31a19.55,19.55,0,0,1-.09-5.81c-.16-1.91-.53-4,.3-5.68,1.2-2.38,3.42-3.85,3.45-6.76a.08.08,0,0,1,.16,0c0,2-.84,3.24-2,4.82a9.7,9.7,0,0,0-1.45,5.76,21.05,21.05,0,0,1,5.3-7.54C91.78,63.5,93.09,59.39,94.54,57Z"/><path class="cls-1" d="M119.55,28.61a3.34,3.34,0,0,1,.57,1.38c.16.68.24,1.7,1.07,1.93a12.52,12.52,0,0,0,1.46.21c-.36-.34-.72-.67-1.06-1a14.38,14.38,0,0,1-1.29-2.42Q119.93,28.63,119.55,28.61Z"/><path class="cls-1" d="M126.27,35a.91.91,0,0,0,.63.16l.15,0a2.67,2.67,0,0,1-.73-1c-.26-.61-.16-1.91-.44-2.77-.4-.28-.79-.55-1.2-.81a6.31,6.31,0,0,1,.51,1.44A7.52,7.52,0,0,0,126.27,35Z"/><path class="cls-1" d="M121,32.55l-.11,0s0,0,0,.06Z"/><path class="cls-1" d="M127.19,32.28A3.93,3.93,0,0,0,128.32,34c.53.45,1.09.89,1.62,1.34l-.06-.14a4.31,4.31,0,0,1-1.3-1.95C128.13,33,127.66,32.63,127.19,32.28Z"/><path class="cls-1" d="M129.55,33.92a1.29,1.29,0,0,0-.16-.09l-.24-.17.18.3a3.27,3.27,0,0,0,.28.37A3.12,3.12,0,0,1,129.55,33.92Z"/><path class="cls-1" d="M120.76,28.74a8.57,8.57,0,0,0,1.45,2.2,14,14,0,0,1,1.58,1.48c-.08-.32-.14-.64-.23-1a4.36,4.36,0,0,0-1.93-2.36c-.06-.05,0-.12.08-.1A7.1,7.1,0,0,0,120.76,28.74Z"/><path class="cls-1" d="M123.8,30.68c.39.8.65,1.65,1,2.48l.09.1a7.87,7.87,0,0,0-.8-3.13A12.56,12.56,0,0,0,121.75,29,4.17,4.17,0,0,1,123.8,30.68Z"/><path class="cls-1" d="M119.85,32.79c.17.13.59-.29.7-.37s0,0,.06,0a1.64,1.64,0,0,1-.75-.84c-.31-.75-.09-2.43-.82-3a9,9,0,0,0-1.39.15,1.82,1.82,0,0,1,1.69,1.64c.07.56.1,1.13.22,1.67A1.38,1.38,0,0,0,119.85,32.79Z"/><path class="cls-1" d="M118,33.65c-.56-.69-.49-1.68-1.23-2.27-.9-.71-2-.58-3.1-.83-.26.18-.51.38-.77.58-1,2.12.16,4.31,1.63,6a1.34,1.34,0,0,0-.07-.4.06.06,0,0,1,.11,0,1.65,1.65,0,0,1,.09.43c0,.07-.07.07-.11,0l.27.29a8.08,8.08,0,0,1,1.44-2.57A4.56,4.56,0,0,1,118,33.65Zm-3.33,1.67a1.18,1.18,0,0,1,0,.72.1.1,0,0,1-.19,0c0-.51-.47-1-.38-1.51s.28-.71.37-1.09c0-.2-.43-.2-.53-.27-.85-.56-.28-1.57.12-2.24,0-.06.14,0,.12,0-.36.84-.67,1.79.52,2.1a.14.14,0,0,1,.09.17c-.1.37-.32.72-.39,1.08A1.83,1.83,0,0,0,114.67,35.32Z"/><path class="cls-1" d="M114.61,40A4.24,4.24,0,0,1,111,41.25c1.24,1,2.68,1.94,4,2.91-.1-.54-.14-1.11-.19-1.61C114.72,41.71,114.64,40.86,114.61,40Zm-.23,1.19a.49.49,0,0,1,0,.24c0,.12-.22.2-.32.23s-.14.42-.12.61a.89.89,0,0,1-.15.71s-.12,0-.1,0c.14-.48-.1-.78-.1-1.23a.11.11,0,0,1,.06-.1c.2-.11.58-.13.5-.46a1.84,1.84,0,0,1,.16-.83.06.06,0,0,1,.12,0A3,3,0,0,0,114.38,41.21Z"/><path class="cls-1" d="M122.89,32.69h-.83s0,0,0,0c-.49.32-1.09.45-1.4,1a4.7,4.7,0,0,0,.32,3.47c.26.53.59,1,.8,1.61.43-.57.86-1.16,1.33-1.72l.07-.08a8.65,8.65,0,0,1,1.93-1.75C124.33,34.22,124,33,122.89,32.69Zm-1.27,5.53v-.17s0,0,0,0v.17A0,0,0,1,1,121.62,38.22Zm.44-2.15c-.43.48-.15,1-.25,1.59,0,.11-.19.06-.17,0,.07-.49-.26-1.15.14-1.57.1-.11.9-.92.42-1a.84.84,0,0,1-.39-.15c-.63-.46.26-1.32.63-1.54.07,0,.14.07.07.12-.34.21-1.12,1.27-.17,1.36a.33.33,0,0,1,.14,0,.3.3,0,0,1,.1.32A1.82,1.82,0,0,1,122.06,36.07Z"/><path class="cls-1" d="M119.07,42.8l-.11.11s.05,0,0,.08,0,.08,0,.12a.06.06,0,0,1-.11,0l0-.11a6.94,6.94,0,0,1-2.93,1.84l1.87,1.48a1.14,1.14,0,0,0-.09-.26s0,0,0,0,.15.27.23.41l1.22.95A44.23,44.23,0,0,0,119.07,42.8Zm-1,2a1.38,1.38,0,0,1-.18-.39c0-.07.09-.1.12,0s.1.24.16.36S118.09,44.85,118.05,44.79Zm.41-.5s-.09,0,0,0l.15-.21c0-.05.1,0,.08,0S118.59,44.18,118.46,44.29Z"/><path class="cls-1" d="M124.57,45.42c-1,1.38-2.82,2-4.35,2.78.83.64,1.68,1.25,2.54,1.83a2.68,2.68,0,0,0-.21-.82.06.06,0,1,1,.1-.06,1.74,1.74,0,0,1,.25,1c.5.33,1,.65,1.51,1a4.55,4.55,0,0,1,.08-1.8A22.47,22.47,0,0,0,124.57,45.42Zm-1.34,3c-.16.11-.1.09-.28.12a.08.08,0,0,1,0-.15l.21-.11A.09.09,0,1,1,123.23,48.38Zm.13-.39a1.9,1.9,0,0,1-.19-.77c0-.08.11-.08.11,0,0,.25.1.49.15.74C123.43,48,123.38,48,123.36,48Zm.24-.93c-.1,0-.12-.16,0-.18a.92.92,0,0,0,.86-.8s.08,0,.07,0C124.41,46.66,124.19,47,123.6,47.06Z"/><path class="cls-1" d="M141.36,38.84a6.86,6.86,0,0,1-.7,2.64,5.74,5.74,0,0,1-2.2,2.72,7.51,7.51,0,0,0,5.86-3.81c.27-.52.51-1.07.81-1.57A10.84,10.84,0,0,1,141.36,38.84Zm-.75,4.58-.06.07a0,0,0,0,1-.07,0c.05-.08,0-.08.11-.1S140.66,43.41,140.61,43.42ZM142.14,42a1.15,1.15,0,0,1-.51.31,1,1,0,0,0-.82.84,0,0,0,0,1-.09,0c0-.51.28-.77.75-.91,1.17-.34.93-1.81,1.23-2.77,0-.09.15-.05.13,0A5.34,5.34,0,0,1,142.14,42Z"/><path class="cls-1" d="M130.52,53.6l.51.27c.12.07.59.47,1.06.85a.67.67,0,0,1,.68-.37c-.13-.46-.26-.91-.4-1.36,0-.09.1-.12.13,0,.17.5.35,1,.55,1.49a.13.13,0,0,1-.09.15c-.17,0-.66.14-.49.42.34.25.62.44.7.41a.43.43,0,0,1,.23-.19s.57-.92.74-1.2a17.46,17.46,0,0,0,1.12-2.4c.32-.79,1.28-2.4,1.3-3.46C135.16,50.49,132.73,52.07,130.52,53.6Zm2.86-1.1a2.72,2.72,0,0,1-.42.27c-.06,0-.13-.06-.06-.11a3.42,3.42,0,0,0,.42-.23C133.37,52.39,133.43,52.47,133.38,52.5Zm.52-.87a.05.05,0,1,1-.1,0v-.08a.06.06,0,0,1,.11,0Z"/><path class="cls-1" d="M64.12,76.32c1-.55,2-1.09,3-1.59a7.61,7.61,0,0,1,.72-.55c1.92-3.43,1-7.8,2.46-11.34h0a1.21,1.21,0,0,1-.85-.08c-1.6,0-2.48,1-3.92,1.88a8.77,8.77,0,0,1-7.13,1.08c-1.23.76-.15,2.39.13,3.64a14.22,14.22,0,0,1,.3,3.62,11.61,11.61,0,0,1-1.14,5,7.13,7.13,0,0,1-.85,1.93l.08,0,.15-.17a.66.66,0,0,1,.65-.16c1-.41,2-.86,3-1.36A7.77,7.77,0,0,1,64.12,76.32Zm-6.57,3c-.07.14-.32,0-.26-.11a10.43,10.43,0,0,1,2.29-3.33c1-1,2-.44,1.79-2.07-.14-1-.51-4.63,1.75-3.71.45.18,2.13.88,1.4-.08a.67.67,0,0,1-.13-.44,3.65,3.65,0,0,1,.91-2.21,21.09,21.09,0,0,1,4.46-4.07c.08-.05.18.07.1.13a32.47,32.47,0,0,0-3.54,3.19c-1,1.08-2.28,2.29-.85,3.72.08.07.07.19.08.28a.24.24,0,0,1-.18.24c-1,.38-1.39,0-2.4-.22-1.8-.35-.92,3.95-.88,4.61a.29.29,0,0,1-.28.28C59.66,75.76,58.45,77.67,57.55,79.33Z"/></g></g></svg>