<svg xmlns="http://www.w3.org/2000/svg" viewBox="0 0 156.46 165.42"><defs><style>.cls-1{fill:#fff;}</style></defs><title>targeryen</title><g id="Layer_2" data-name="Layer 2"><g id="Layer_2-2" data-name="Layer 2"><path class="cls-1" d="M92.71,137.19A7.18,7.18,0,0,0,94.05,136h0s0-.07,0-.07h.06a2.93,2.93,0,0,0,.24-.34c0-.1.21,0,.16.1a6.66,6.66,0,0,1-1.61,1.82,6.07,6.07,0,0,0,2.74-2.4c.67-1.4-.22-3.14.32-4.45a.1.1,0,0,1-.13-.06.93.93,0,0,1-.29.05c0,.5,0,1,0,1.49,0,0-.07.05-.07,0-.08-.44-.23-.89-.29-1.35a5.45,5.45,0,0,1-.33.58,6.61,6.61,0,0,1-.24,3.91c0,.06-.12,0-.09-.05a3.28,3.28,0,0,0,.19-2.53c-.08-.31-.18-.61-.25-.91a.35.35,0,0,1-.39,0,.87.87,0,0,0-.41-.14,1.56,1.56,0,0,1,.37,1.08.09.09,0,1,1-.18,0,1.76,1.76,0,0,0-.52-1l-.3.14a3.22,3.22,0,0,1,.75,3.15A6.14,6.14,0,0,1,92.71,137.19Z"/><path class="cls-1" d="M43.84,128.46l-.12-.22s0,0,0,0c-1.81-.42-2.28,1.51-2.21,3a6.36,6.36,0,0,0,.66,2.58,3.51,3.51,0,0,1,2.35-4.09c-.06-.08-.11-.17-.17-.26a2.22,2.22,0,0,0-1.66,1,.08.08,0,1,1-.13-.08,2.14,2.14,0,0,1,1.67-1.13l-.25-.5a2.61,2.61,0,0,0-2,2.74c0,.1-.17.1-.17,0A2.73,2.73,0,0,1,43.84,128.46Z"/><path class="cls-1" d="M44.71,130h.1l0,0Z"/><path class="cls-1" d="M91.91,138,92,138h0Z"/><path class="cls-1" d="M61.63,140h0l0,0Z"/><path class="cls-1" d="M64.46,133.6v0l0,0Z"/><path class="cls-1" d="M61.56,140.68l-.07,0a1.82,1.82,0,0,0-1,.11,3.37,3.37,0,0,0-1.35.84c0,.13-.11.26-.17.39a1.17,1.17,0,0,1-.05.27.43.43,0,0,1-.21.21,4.27,4.27,0,0,1-1.48,1.57,2.71,2.71,0,0,1-2.59.27,4.12,4.12,0,0,0,4.51.78,11.39,11.39,0,0,0,2.5-2.09.2.2,0,0,1,0-.17c.1-.25.23-.48.33-.72a5.07,5.07,0,0,1-4.64,2.44c-.1,0-.1-.16,0-.16a5.35,5.35,0,0,0,2.95-.86,8.48,8.48,0,0,0,1.81-2.4,1.21,1.21,0,0,0-.05-.18l-.3-.2v0a7.14,7.14,0,0,1-1.29,1.75c-.06.07-.17,0-.11-.11A6.32,6.32,0,0,0,61.56,140.68Z"/><path class="cls-1" d="M45.69,123.83h0l.07,0a0,0,0,0,1,0,0v0Z"/><path class="cls-1" d="M14.2,110a.14.14,0,0,1,.08-.09l-.12-.48c0,.19,0,.37,0,.56Z"/><path class="cls-1" d="M30.58,83.78a.24.24,0,0,0,0-.08h-.07A.38.38,0,0,1,30.58,83.78Z"/><path class="cls-1" d="M39,106.61a3.42,3.42,0,0,0,3.3-.5A2.79,2.79,0,0,0,43,103,4.56,4.56,0,0,1,42,105.75c-.09.08-.26,0-.18-.14a4.08,4.08,0,0,0,.76-1.65c.09-.5.07-1,.15-1.51a2.24,2.24,0,0,0-.53-.48c.27,1.35-.3,3.41-1.53,4.11-.11.07-.21-.1-.1-.17,1-.64,1.31-2.07,1.28-3.29l-.06,0c-.37.68-1,1.34-1.31,2A4.51,4.51,0,0,1,39,106.61Z"/><path class="cls-1" d="M46.76,122.29s0,0,0,.06l.14-.13c0-.26.09-.55.08-.78,0,0,0-.11,0-.16-.22-.38-.39-.63-.86-.65l-.46,0a6.34,6.34,0,0,0-2.18.86,2.61,2.61,0,0,0-1.05,2.35,2.09,2.09,0,0,1,1.63-.73c.54,0,1.11.06,1.65,0a1,1,0,0,0,.21-.07,2.6,2.6,0,0,0-2.09-.43c-.12,0-.18-.16-.05-.19a2.81,2.81,0,0,1,2.46.47,3.7,3.7,0,0,0,.42-.38s0,0-.07,0a2.68,2.68,0,0,0-1.17-.75s0,0,0,0A1.36,1.36,0,0,1,46.76,122.29Z"/><path class="cls-1" d="M49.62,116.65a1.32,1.32,0,0,1,.83,1.39,3,3,0,0,0,1-.44,2.46,2.46,0,0,0-.86-1.38,2.32,2.32,0,0,0-1.8-.29,3.44,3.44,0,0,0-2.1,1.51,3,3,0,0,1,1.44-.17,1.56,1.56,0,0,1,.72.1c0-.05,0-.12.06-.1a1.74,1.74,0,0,1,.38.23l.05,0a1,1,0,0,0-1-.75s-.05-.07,0-.08c.93-.21,1.43.5,1.42,1.37a1.1,1.1,0,0,0,.36,0c0-.52,0-1-.56-1.29C49.47,116.76,49.53,116.62,49.62,116.65Z"/><path class="cls-1" d="M28.21,81.49a7,7,0,0,0-1.45,3.14h0s0,0,.06,0c1.08-1.33,2.57-2.3,4.37-1.49l0,0a1.2,1.2,0,0,0,.14-.79,2.81,2.81,0,0,0-.75-.22s0,0,0,0a1.24,1.24,0,0,1,.72.12,1.69,1.69,0,0,0-.16-.39l0-.06a5,5,0,0,0-1.32.18c-.07,0-.09-.08,0-.09a4.15,4.15,0,0,1,1.27-.25,1.59,1.59,0,0,1-.14-.6,5.21,5.21,0,0,0-1.86.79,8.34,8.34,0,0,0-1.58,1.56c-.07.07-.17,0-.09-.11.37-.28.55-.75.9-1.07a6.85,6.85,0,0,1,.9-.71A4.88,4.88,0,0,1,31,80.76a.86.86,0,0,1,.07-.25,2.24,2.24,0,0,1,.51-.58C30.67,79.25,28.73,80.89,28.21,81.49Z"/><polygon class="cls-1" points="40.76 102.69 40.77 102.69 40.77 102.69 40.76 102.69"/><path class="cls-1" d="M27.13,38.78h0a.56.56,0,0,1-.05.08,4,4,0,0,0,.45.26,4,4,0,0,1-.11-.58Z"/><path class="cls-1" d="M8.38,65.49s0-.07,0-.11a.94.94,0,0,1-.06.15l0,0h0A.19.19,0,0,1,8.38,65.49Z"/><path class="cls-1" d="M8.2,64.72s0,.08,0,.13,0,0,0-.06A.64.64,0,0,0,8.2,64.72Z"/><path class="cls-1" d="M29.78,36.29a1.77,1.77,0,0,0-.3.31s0,0,0,.07a.24.24,0,0,1,.11.13,2,2,0,0,0,.1.22,1.52,1.52,0,0,0,.44.15A2.8,2.8,0,0,1,29.78,36.29Z"/><path class="cls-1" d="M7.7,67.34a1.25,1.25,0,0,1,0,.21,2.72,2.72,0,0,0,.42-.34c.32-.36.06-.75-.06-1.15A2.26,2.26,0,0,0,7.7,67.34Z"/><path class="cls-1" d="M100.15,119.6a2.13,2.13,0,0,1,.25,0s0,0,0,0a2.91,2.91,0,0,0-.5.16Z"/><path class="cls-1" d="M29.23,38a2.65,2.65,0,0,0,.39.26.65.65,0,0,0-.13-.45.29.29,0,0,1-.15.16A.35.35,0,0,1,29.23,38Z"/><path class="cls-1" d="M28.73,38.55a3.2,3.2,0,0,1-.1-.42,1.93,1.93,0,0,1-.48,0l-.28,0s0,0,0,.06a5.83,5.83,0,0,0,.95.57A1.41,1.41,0,0,1,28.73,38.55Z"/><path class="cls-1" d="M30.2,35.83l0,.14.34.16a7,7,0,0,1-.08-.8l-.2.15a.49.49,0,0,1,0,.29Z"/><path class="cls-1" d="M101.05,118.24l.07,0s0-.05,0-.07Z"/><path class="cls-1" d="M100,119l0,0h0Z"/><path class="cls-1" d="M18.23,66.62h0v0Z"/><path class="cls-1" d="M41.81,77.27c0,.14.06.3.1.44a4.79,4.79,0,0,1,.83-.09,12,12,0,0,0-1.05-2.09A1.38,1.38,0,0,0,39.9,75a1.77,1.77,0,0,1,.83,1.46.11.11,0,0,1,.05.1A11.64,11.64,0,0,0,40.85,78l.23-.08c-.07-.46.05-1,0-1.45,0-.08.12-.1.13,0a4.68,4.68,0,0,1,.11,1.4l.31-.08a1.25,1.25,0,0,0,0-.47C41.66,77.21,41.79,77.19,41.81,77.27Z"/><path class="cls-1" d="M7.56,68.12h.06Z"/><path class="cls-1" d="M50.73,76.22l-.13-.07.16.24Z"/><path class="cls-1" d="M66.18,119.5c1.33.63,3,0,4.17-.62a5.47,5.47,0,0,0,1.58-1.16,7.62,7.62,0,0,0,.65-1.27l-.09-.07a.47.47,0,0,1-.52.09,2.17,2.17,0,0,1-.55-.45c-.16-.14-.44.29-.55.42a.29.29,0,0,1-.36,0l-.47-.32-1.37-.61a3.6,3.6,0,0,1,.57.79,1.69,1.69,0,0,1-.16,1.37A3.51,3.51,0,0,1,66.18,119.5Z"/><path class="cls-1" d="M10.2,76.18c.46-.13.22-.34-.08-.45L10,75.67a1.15,1.15,0,0,1,0,.55Z"/><path class="cls-1" d="M10.08,74a3.6,3.6,0,0,1-.46.81.56.56,0,0,1,.1.15s.07,0,.1,0h0l.31-.15.44-.17c.3.08.31,0,0-.11A1.77,1.77,0,0,1,10.08,74Z"/><path class="cls-1" d="M8.92,77.63a1.91,1.91,0,0,0,.75-.26,3.1,3.1,0,0,0-.21-.55A1.84,1.84,0,0,0,8.92,77.63Z"/><path class="cls-1" d="M8.78,79.28l.37-.15c.37-.14.43-.19.07-.41a4.17,4.17,0,0,1-.44-.29C8.77,78.71,8.78,79,8.78,79.28Z"/><path class="cls-1" d="M10.37,73.21a9.32,9.32,0,0,1,.89-.39,1.78,1.78,0,0,1-.57-.69C10.59,72.49,10.48,72.85,10.37,73.21Z"/><path class="cls-1" d="M121.27,105.6l-.09-.13.06.29Z"/><path class="cls-1" d="M134.91,102.27c.91,3,2,6,2.66,8.89v-.1a76.14,76.14,0,0,0-6.88-25.17c-2.65-5.6-6.39-12.66-12.2-15.53-2-1-6.6-3-7.15,1.17a5.6,5.6,0,0,1-.19.91,7.65,7.65,0,0,1-.2,3.41,8.28,8.28,0,0,1-2.72,4c-.06,0-.14-.06-.08-.11a7.14,7.14,0,0,0,2.45-5.84l0,0a10.64,10.64,0,0,1-3.73,4.35c-3.24,2.13-7.58,3-11.14,1.22,0,0,0,0,0,0a3.53,3.53,0,0,0-1-.26,8.12,8.12,0,0,0-1.21,0c-.07,0-.07-.1,0-.11.71-.08,1.86-.35,2.52.14a9.12,9.12,0,0,0,4.3.49.2.2,0,0,1,0-.15,10.6,10.6,0,0,1,.43-1.56s0-.08,0-.12a4.11,4.11,0,0,1-4.25.73.07.07,0,0,1,0-.12,4.14,4.14,0,0,0,4.29-1.32c0-1.3-1.54-.68-2.21-.47-1,.34-2.07.66-3.1,1a9.84,9.84,0,0,1-1.84.39,4.31,4.31,0,0,1-.58.16,4.84,4.84,0,0,1-4.25-1,.08.08,0,0,1,0-.11.1.1,0,0,1-.14,0c-.46-.47-.81-.42-1.41-.42a1.46,1.46,0,0,1-.87-.28s0-.12,0-.08c.5.26,1,.07,1.52.09a1.13,1.13,0,0,1,.88.56.09.09,0,0,1,0,.11.07.07,0,0,1,.1,0,3.59,3.59,0,0,0,2.39.68A1.9,1.9,0,0,1,91,76.43a.17.17,0,0,1,0-.05,1.67,1.67,0,0,1-.76.13c-.7-.09-1.26-.61-2-.25,0,0,0,0,0,0,.54-.32.89-.15,1.46,0s1.16-.16,1.74-.33a.09.09,0,0,0,0,0c1.14-.52,0-1.27-.79-1.26s-1.71.11-2.56.2l-1.43.36a19.9,19.9,0,0,1-3.06.49,12.13,12.13,0,0,1-6-1,.09.09,0,0,1,.07-.17,16.39,16.39,0,0,0,2.74.47,3.13,3.13,0,0,1-1-.91,2.82,2.82,0,0,1-.24-1.19c0-.5-.23-.73-.53-.79l-.07,0-.3.11c-.46.19-.89.42-1.34.62a9,9,0,0,1-2,.72c-2.1.75-4.41.59-6-1.29-.12-.15.09-.37.22-.22A3.77,3.77,0,0,0,72,73.35a.9.9,0,0,1-.45-1,3,3,0,0,1,1.34-1.91,1.83,1.83,0,0,1,.13-.16c-1.41-.19-2.78.1-4.25,0a4.28,4.28,0,0,1-3.1-2c-.08-.12.11-.26.2-.15a5,5,0,0,0,.39.4,1,1,0,0,1,0-.75.92.92,0,0,1,.86-.72,1.91,1.91,0,0,1,1,0h0c.37,0-2.21-1.89-2.35-2a3.81,3.81,0,0,1-1-1.29,3.31,3.31,0,0,1,.47-3.56.08.08,0,0,1,.14.09,3.64,3.64,0,0,0,0,3.41,1.91,1.91,0,0,1-.1-.52s0,0,0-.06a1.27,1.27,0,0,1,0-.34c.18-1.12,1.26-1.88,2-1.36.12-1.33-.56-2.73-.74-4a4.67,4.67,0,0,1-.39-2.15,8.54,8.54,0,0,1,1.07-3.25c.06-.1.25,0,.2.09a8.93,8.93,0,0,0-.67,2.52,1.43,1.43,0,0,1,2-.35,3,3,0,0,1,1.1,2.55,6.73,6.73,0,0,0,.8-4.06,12.52,12.52,0,0,1-.28-2.5c.06-1,.34-2,1.47-2a.13.13,0,0,1,.06.24c-.89.48-.93,1.4-.77,2.37.62-.46,1.61.4,2.11,1.29,1.06-1.71.59-3.51.79-5.47a2.81,2.81,0,0,1,1.75-2.34.12.12,0,0,1,.12.2,2.45,2.45,0,0,0-1,1.21c.75-.12,1.61,1,1.9,1.65A2.62,2.62,0,0,1,77,48.69,9.51,9.51,0,0,0,80,43.15a2.91,2.91,0,0,1,2-2.49c.18-.06.24.2.08.26a2.15,2.15,0,0,0-1.41,2c1.15-1.1,2,.38,2.1,1.69,1.69-.79,2.12-2.35,2.44-4.15.19-1.07.6-1.82,1.72-2a.11.11,0,0,1,.06.22,1.78,1.78,0,0,0-1,1.06c.75-.29,1.56.66,1.66,1.64,2-1.25.72-5.32,3.45-5.86a.14.14,0,0,1,.1.25,2.39,2.39,0,0,0-1,1c1.07-.85,1.62.53,1.69,1.73,1.4-1.48,1.09-3.25,1.29-5.29a1.61,1.61,0,0,1,1.49-1.6c.09,0,.1.12,0,.15a1.44,1.44,0,0,0-1,1.32c.72-.54,1.39.32,1.58,1.28,1.28-1.3,2-3.46.85-5a2.49,2.49,0,0,1-.57-2.61.09.09,0,0,1,.17,0,1.65,1.65,0,0,0,.09,1.39c.12-.84,1.14-1.06,1.93-.64a3.29,3.29,0,0,0-1-2.57c-.49-.42-1.06-.73-1.57-1.14-.74-.58-.68-1.24-.4-2.08a.08.08,0,1,1,.16,0c-.17.85,0,1.23.37,1.52-.51-1.11,1-2.45,2.29-2.15-.74-1.65-1.88-2.82-4-2.42-1.08.22-2,.3-2.77-.57-.09-.09,0-.23.15-.14a2,2,0,0,0,2.29.23,1,1,0,0,1-.56-.17L92.5,18a1.67,1.67,0,0,1-1.13-1.38,1.85,1.85,0,0,1,1.06-1.52,2.1,2.1,0,0,1,.94-.31,1.34,1.34,0,0,1,.26-.09h0c-1.46-1.06-3.47.17-5.15-.5a2.33,2.33,0,0,1-1-.73,3,3,0,0,0-.18.36A4,4,0,0,0,87.09,15c0,.06-.1.08-.11,0a2.2,2.2,0,0,1,0-1.08c.09-.28.17-.57.27-.85a.85.85,0,0,1,0-.35,4.23,4.23,0,0,0-.55.92c-.37.7-.85,1.33-.52,2.16,0,.08-.09.13-.12.06-.53-1,.11-1.57.34-2.49a3.71,3.71,0,0,1,.21-.72,12.34,12.34,0,0,1-2.67-.16,9.37,9.37,0,0,0-1.82.7s-.06,0,0-.07c.38-.22.72-.56,1.1-.77h0a.06.06,0,0,1,0,0c-1.45.16-2.26,1.9-3.81,1.57-.08,0-.06-.15,0-.14,1.16.1,1.66-1.09,2.44-1.66a1.66,1.66,0,0,0-.62.11,4.29,4.29,0,0,0-.37.5,1.05,1.05,0,0,1-1.18.52c-.12,0-.09-.22,0-.21.62.06.83-.28,1.07-.68,0,0,0,0,0-.05l.06-.05c.06-.1.12-.2.19-.3a1,1,0,0,1,1.35-.3s0,0,0,.05a2.77,2.77,0,0,0,.92.06.64.64,0,0,1,.65.12h0c2,.09,3.8-.12,5.87-.22,2.38-.11,4.75-.08,7.12-.16a7.14,7.14,0,0,0-.89-.3l-1.37-.33L93.27,11a8.89,8.89,0,0,1-2-.09,27.41,27.41,0,0,1-6.14,0A6.06,6.06,0,0,1,83,10.7l-.92,0c-1.41-.07-6.27-2.32-6.68-.57a.29.29,0,0,1-.28.22c-.45-.16-.56-.07-.38.26a6.38,6.38,0,0,1,2.82.14,2.23,2.23,0,0,1,1.22,1.12c0,.07,0,.14-.11.08a3.11,3.11,0,0,0-.77-.61,2.21,2.21,0,0,1-1.4.62,2.88,2.88,0,0,0,.39.32,4.75,4.75,0,0,0,.73.32s0,.1,0,.11a1.35,1.35,0,0,1-1.06-.29c.34.6.63,1.19,1.39,1.35.17,0,.1.29-.07.26-.86-.15-1.16-.8-1.71-1.39a16.57,16.57,0,0,0-1.6-1.19c.07.2.13.41.2.61a.11.11,0,0,1-.18.1,3.18,3.18,0,0,1-.5-.86h-.19a7,7,0,0,1,.31,1.32c0,.14-.18.2-.21.06a5.22,5.22,0,0,0-.54-1.38h-.27a1.52,1.52,0,0,1,.28,1.13c0,.16-.3.08-.23-.06.16-.41-.27-.77-.52-1.06h-.25a1.71,1.71,0,0,1,.25.83c0,.16-.21.15-.23,0a1.77,1.77,0,0,0-.4-.81c-1.1,0-2.21.11-3.31.14a19.74,19.74,0,0,1-3.26.05,1.64,1.64,0,0,1-.76-.14c-.68-.51-1.17-.2-1.48.94a.26.26,0,0,1,0,.27,2.19,2.19,0,0,1,1.3-.57c.12,0,.12.16,0,.19a1.57,1.57,0,0,0-.84.68,3.19,3.19,0,0,0-.21.82c0,.07.07.14.1.22s.12.53.21.52a1.15,1.15,0,0,1,.32,0c.45,0,.57.44.61.83a1,1,0,0,1,.11.24c.51.33,1.16-.86,1.76-1.23,1.12-.68,2.34.38,3.48-.48a1.06,1.06,0,0,0-.92-.5l-.7-.1c-.06,0,0-.1,0-.1.6,0,1.14-.26,1.72,0a1.39,1.39,0,0,1,.44.52.23.23,0,0,1,.1.07c1.06,1.14,2.32.46,3.48,1.14.69.4.83,1.31,1.46,1.67a.21.21,0,0,1,.08.11c.28-.23.47-.39.57-.45s.28.11.17.21l-1.07,1.1a.17.17,0,0,1,0,.11,5.1,5.1,0,0,0,1.86-1.43c.06-.08.19,0,.14.08a5.48,5.48,0,0,1-2,1.95,23.93,23.93,0,0,0-2.36,1.61,15.4,15.4,0,0,1-2.93,2.09c-.89.47-2.82,1.63-3.88.95l-.09.34a3.58,3.58,0,0,0,.11.75c.17.64.39,1.26.58,1.89.55-1.05,2.58-1.29,2.91-2.51a.07.07,0,0,1,.13,0c-.16.91-1.07,1.37-1.76,1.94a5.07,5.07,0,0,0,1.08-.72c1.52-1.2,3-1,4.61-.57l.39,0h0l0,0a5.86,5.86,0,0,1-1.09-1.32.23.23,0,0,1,0-.14.15.15,0,0,1,0-.07,1.56,1.56,0,0,1,.32-1.58c.06-.08.2,0,.14.09a1.19,1.19,0,0,0-.13,1.19,9.13,9.13,0,0,1,1.79.42c.27.09.61.23,1,.33l.16.05h.08c-.55-.49-1-1.18-.73-1.74.37-.75,1.56-.48,2.42-.35h.39c-.42-.3-.76-1-.49-1.4.49-.7,1.36-.42,2.1-.44a.31.31,0,0,1,0-.32l-.06-.12a.24.24,0,0,1,0-.27,1.15,1.15,0,0,1,.58-1.13c.29-.17.54-.52.19-.75a1.1,1.1,0,0,1-.21-.14,1.11,1.11,0,0,1-.34-.72c-.1-.63.49-1.36.81-1.83.07-.09.21,0,.15.09-.56,1-.69,1.57.21,2.38a.89.89,0,0,1,.28.75c0,.32-.3.56-.53.72a.63.63,0,0,0-.32.64c1.14.52,1.88,2.55,2.9,2.47a3,3,0,0,1-.12-.94A5.87,5.87,0,0,1,83.4,19c-.16-1,1.13-1.49.37-2.52-.06-.09.08-.17.15-.09.6.8.29,1.11.16,2a.86.86,0,0,0,.16.48c1.89-.33,1.28-2.06.63-3.33a1.49,1.49,0,0,1-.38-.85,1.38,1.38,0,0,1,.65-1.27c.11-.07.24.1.14.18a1,1,0,0,0-.35,1.15,1.71,1.71,0,0,0,.14.27.14.14,0,0,1,.08.05,4.22,4.22,0,0,1,1.1,2.9c.07.32.15.64.25,1s.41.84.6,1.27l.18.2.07,0a10.33,10.33,0,0,1-.84-2.6.07.07,0,0,1,.13,0,8.54,8.54,0,0,0,1,2.1c.21.33.49.63.71.95a4.32,4.32,0,0,1,.48.21c.15.08,0,.34-.12.28l-.08,0a.05.05,0,0,0,0,0,.13.13,0,0,1,0,.15c.1.25.16.53.26.75a3.36,3.36,0,0,0,2,1.7c.17,0,.14.33,0,.31a2.28,2.28,0,0,1-.52-.1c.06.29,0,.62.09.94,0,.07,0,.14,0,.21a10,10,0,0,0,1.27,2,.16.16,0,0,1-.27.16,6,6,0,0,0-.75-.83c0,.2-.08.4-.1.61s0,.61-.08.91a5.7,5.7,0,0,1-.5,1.71c-.07.13-.26,0-.2-.12a2,2,0,0,0,.16-.54c-.15.2-.31.4-.47.59a8.18,8.18,0,0,1-.53.64c-.65.87-.91,2-1.52,2.86-.1.16-.36,0-.25-.15A4.69,4.69,0,0,0,87.71,32c-.4.23-.85.39-1.25.66l-.38.38a.47.47,0,0,1-.06.09l-.07,0c-.1.11-.2.21-.29.32A10.86,10.86,0,0,1,85,34.84a5.27,5.27,0,0,1-1,1.49c-.11.13-.33,0-.24-.18a11,11,0,0,0,.9-1.69c-.33-.1-.61-.25-1,0a5.09,5.09,0,0,0-1.27,1.18l-.52.68a.28.28,0,0,1-.21.29,7.84,7.84,0,0,1-1.14,1.23c-.11.1-.28-.06-.17-.17a5.36,5.36,0,0,0,.77-1l-.08,0a.08.08,0,0,1-.08.07.07.07,0,0,1-.07,0,3.65,3.65,0,0,0-2.05,1.39c-.29.33-.59.67-.9,1a.26.26,0,0,1-.2.17,3.69,3.69,0,0,1-1,.65c-.21.1-.39-.19-.18-.31a3.08,3.08,0,0,0,.61-.45,2,2,0,0,0-1.11.06c-.31.18-.62.38-1,.59a15.67,15.67,0,0,0-1.43,1.59.12.12,0,0,1,0,.19,8,8,0,0,0-1,1.12,7.25,7.25,0,0,1-.81,1.1c-.07.07-.18,0-.11-.12a9.24,9.24,0,0,0,.91-1.47v0a.13.13,0,0,1,0-.2c.19-.21.38-.45.57-.69-2.53-.79-3.35,3.36-4.77,4.65-.15.14-.37-.08-.23-.22a7.09,7.09,0,0,0,1.12-1.8,3.73,3.73,0,0,0-2.32,2.15c-.11.3-.22.59-.34.87a.27.27,0,0,1-.12.29h0a3.65,3.65,0,0,1-.9,1.22.19.19,0,0,1-.17,0,2.08,2.08,0,0,1-.21.21c-.05,0-.11,0-.06-.09a1.37,1.37,0,0,0,.17-.17.16.16,0,0,1,0-.25,2.67,2.67,0,0,0,.5-.63,2.34,2.34,0,0,0-1.14.88,9.11,9.11,0,0,0-.63,1.34v0a7.77,7.77,0,0,1-.7,4.11c-.09.22-.46.15-.51-.07a3.54,3.54,0,0,0-.35-.8,3.45,3.45,0,0,0,0,2.33c1.22,1.67,2.76,3.3,1.48,5.4a.16.16,0,0,1-.29,0l-.08,0c-1.26-.28-1.73,0-1.42,1l.24.68c.27.47.6.94.83,1.43A3.83,3.83,0,0,1,63.82,66a.16.16,0,0,1-.3.08l-.05,0c-.49.12-.66.35-.51.7a3.66,3.66,0,0,0,.18.46,6.71,6.71,0,0,0,.49.77,19.48,19.48,0,0,0,1.59,1.8c.78.81,1.61,1.57,2.44,2.34.14.13-.06.39-.22.27a19.12,19.12,0,0,1-4.31-4.11A2.33,2.33,0,0,1,62.56,66c.17-.44.41-.46.66-.32,0,0,0-.05,0-.06a.14.14,0,0,1,0-.12c-.34-.78-.73-1.55-1.06-2.34-1-1.64-2-3.45-.57-5,.07-.08.23,0,.16.13a2.53,2.53,0,0,0-.12,2.58,2.25,2.25,0,0,1,.36-.94c.27-.4.73-.35,1.13-.26s.52.39.66.28a4.07,4.07,0,0,0-1.29-3.49A3.83,3.83,0,0,1,61.38,55a4.1,4.1,0,0,1,.4-4c.07-.09.23,0,.17.1a2.85,2.85,0,0,0-.07,3.2,2.64,2.64,0,0,1,.54-1.85.28.28,0,0,1,.48,0,7,7,0,0,1,.38.6,9.49,9.49,0,0,0,0-5c-.62-1.52-1.19-3,.45-4.27.06-.05.12,0,.08.11a2.51,2.51,0,0,0-.53,2.4c0-.1.05-.19.08-.28.42-1,1-.83,1.66-.15a4.34,4.34,0,0,0-.74-3.79,5.38,5.38,0,0,1-2.46-2.55,3.39,3.39,0,0,1,.42-3.09.07.07,0,0,1,.12.07,3.37,3.37,0,0,0,.11,3.06.86.86,0,0,1,.18-.54c.37-.45,1.16-1.12,1.76-.5l.23.24c0-.56,0-1.12,0-1.67a5,5,0,0,0-.86-2.38,9.06,9.06,0,0,1-.87-1c-.93-1.05-1.71-2.19-.81-3.46a.08.08,0,0,1,.13.08,1.62,1.62,0,0,0,.13,2,1.76,1.76,0,0,1,.13-.77,1.7,1.7,0,0,1,2.29-.75A1.73,1.73,0,0,0,63.55,29c-1.35-.33-3-.11-3.92-1.27-.52-.66-1.19-2-.28-2.61,0,0,.06,0,0,.05a1.63,1.63,0,0,0,.47,2A1.85,1.85,0,0,1,62,25.08c-.61-1.65-1.61-1.33-2.76-1a5.24,5.24,0,0,1-2.83.39c-1-.19-1.32-1-1.37-1.93a.08.08,0,0,1,.15,0c.08.57.25,1.34.92,1.48a2,2,0,0,0,.74,0h0a1.21,1.21,0,0,1-.07-2.25,1.48,1.48,0,0,1,.38-.33,9,9,0,0,0-.9-.21h0a4,4,0,0,0-2.92.67c-.56.67-1.22,1.58-2.07,1.58a2.1,2.1,0,0,1-1.92-1.18,0,0,0,0,1,.07-.05c.31.48,1,1.08,1.6.88a1.38,1.38,0,0,0,.61-.45h-.15A2.74,2.74,0,0,1,49.78,22c-.05,0,0-.12.07-.09a2.88,2.88,0,0,0,1.41.31c.24,0,.61,0,.74-.3a.16.16,0,0,0,0-.07l-.76-.08a1.68,1.68,0,0,1-.78-.26c-.07,0,0-.15.06-.11a1.47,1.47,0,0,0,.92.09,1,1,0,0,1-.42-.84,1,1,0,0,1-.9-.27.91.91,0,0,1-.17-.91,1.42,1.42,0,0,1,1.66-.86c-1.62-.67-3.63.76-4.85,1.68a.26.26,0,0,1-.17.05c-.93,1-3.14,1.83-2,3.15a.14.14,0,0,1,0,.19l-.75,1.09c0,.11-.21.09-.2,0,.11-.83.91-1.08,0-1.56a.23.23,0,0,1-.11-.25,4,4,0,0,1,1.72-2.17c.94-.72.85-1.68,1.48-2.5a6.46,6.46,0,0,1,4-2.33c-1.85.14-3.35,1.06-5.09,1.68A17,17,0,0,0,42,21.34a7.14,7.14,0,0,1-2.82,2c-2,.92-8.38,2-7.42,5.13l.07,0h0a.56.56,0,0,0,.25,0,3.59,3.59,0,0,1,1.36-1.65,2.06,2.06,0,0,1,1.79-.35c.06,0,.06.13,0,.12a2,2,0,0,0-1.76.74l0,0h.05a1.92,1.92,0,0,1,.24,0,1.09,1.09,0,0,1,1.06-.4c.09,0,.06.14,0,.15a1.28,1.28,0,0,0-.64.21,2,2,0,0,1,1.08.28,4.43,4.43,0,0,0,1-1,1.63,1.63,0,0,1,.11-.17,3.3,3.3,0,0,1,.55-1.07c.63-.58,1.88-.35,2.23-1.19.05-.12.24-.08.2.05-.23.91-1,.82-1.7,1.27l0,0,.12,0c.1,0,.12.16,0,.18a1.2,1.2,0,0,0-.49.25,8.48,8.48,0,0,1-.56,1.13,5,5,0,0,1-.38.41,1.52,1.52,0,0,1-.65.61l-.21.18a.34.34,0,0,1-.39.05c-.08-.06-.15-.08-.22-.13-.28,1.22-1.86,1-3,1.2a.37.37,0,0,1-.23.05,1.88,1.88,0,0,0-.38.14h0c-.11.11-.24.21-.36.32A8.79,8.79,0,0,1,32,29.79c.14,0,.17.22,0,.24a8.16,8.16,0,0,0-1.47.39.16.16,0,0,1-.15,0c-.12.16-.26.31-.39.46a2.41,2.41,0,0,0,.59-.14.07.07,0,0,1,.07.12,3.46,3.46,0,0,1-1.27.6c-.18.16-.38.32-.58.47-1.6,1.19-4.06,2.28-4.31,4.51a.54.54,0,0,1-.52.52c-.48.36-.5.65,0,.88a.29.29,0,0,1-.05.45,2.32,2.32,0,0,1,.78.26,1,1,0,0,1,.47.25s0,.07.05.11l0,0c.3.27.66.05,1-.17a1.4,1.4,0,0,1,.51-.66c.12-.63,1.25-.51,1.9-.64a1.48,1.48,0,0,1,.47-1.64.11.11,0,0,1,.08-.13,2.57,2.57,0,0,0,.33-.18,5.11,5.11,0,0,1,.26-.53A6.93,6.93,0,0,1,31,33.91a5.83,5.83,0,0,1,1.22-1.74,6.55,6.55,0,0,1,2.53-1,.09.09,0,0,1,.14,0,3.53,3.53,0,0,0,1.29-.73.38.38,0,0,1,.09-.09c.26-.21.51-.34.52-.73s0-.51.06-.77a1.68,1.68,0,0,1,1.4-1.58.08.08,0,0,1,0,.16c-1.32.39-.93,1.3-1.07,2.36a1.32,1.32,0,0,1-.21.67l-.12.12-.1.1a2.74,2.74,0,0,1-.09.39,2.77,2.77,0,0,0,.94-1c0-.07.17,0,.14.06a3.15,3.15,0,0,1-.53,1c-.17.16-.39.31-.57.49a4.9,4.9,0,0,0,.93-.39.07.07,0,0,1,.09.09c-.3.46-.83.62-1.19,1l0,0,0,0c.44-.07.81-.1,1-.56,0-.09.19,0,.16.07a1.14,1.14,0,0,1-.92.82c1.25,1.74-.31,4.33-1.13,5.93a.2.2,0,0,1-.21.09,9.48,9.48,0,0,0-1.11-.35l.26.61a.17.17,0,0,1,0,.14,2.1,2.1,0,0,1,0,1.72c0,.1-.22,0-.18-.07a1.34,1.34,0,0,0,0-.77,7.34,7.34,0,0,1-1,2.65c-.46.63-1.2.58-1.81.89l0,0a.25.25,0,0,1,.33.16.58.58,0,0,1,0,.29l.07,0a4.23,4.23,0,0,1,1.94.57c.92.51,1.59.9,2.48.38a.86.86,0,0,1-.34-.55c-.07-.25.33-1.17.13-1.16s-.32-.5-.33-.7a.85.85,0,0,1,.22-.5c.41-.67.45-1.38-.3-1.83-.12-.07,0-.24.11-.18a1.31,1.31,0,0,1,.76.9c.14-.35.3-.73.58-.8.53-.14.93.26,1.45-.06a18.47,18.47,0,0,0,2.06-1.89c.06-.07.12-.15.19-.22a.12.12,0,0,1,.15,0l.16-.11-.11-.07a3.81,3.81,0,0,0-.85-.36,6.07,6.07,0,0,0-1.28,0c-.74,0-1-.45-1.23-1.11,0-.08.09-.13.12-.06.21.4.47.89,1,.86.31,0,.6-.09.9-.14a1.74,1.74,0,0,1,.77.07s0,0,0-.06c0-.22.29-.29.07-.52a.81.81,0,0,1-.18-1.06c.25-.38.82-.4,1.21-.39a1.76,1.76,0,0,0,1.26-.5,2.1,2.1,0,0,1-.64-.19A.51.51,0,0,1,42,33.8l-.09-.11s0,0,0,0a1.37,1.37,0,0,1-1.56-.4c-.07-.05,0-.15.09-.09a1,1,0,0,0,1.39.2s0-.05,0-.06a1.58,1.58,0,0,1,1-.52,1,1,0,0,1,.94-1.07,3.21,3.21,0,0,0,2.34-1.8,2.09,2.09,0,0,1-.77.34,1.16,1.16,0,0,1-.94-.3c-.18-.14-.33-.38-.55-.43l-.14.1a.17.17,0,0,1-.2,0c-.33.34-.78.22-1.13-.23a1.15,1.15,0,0,1-.29-.78c0-.38.31-.79.09-1.17-.45-.8-2.17-.39-2.06-1.6,0-.06.1-.08.11,0,.21.93,1.59.54,2.23,1a1.14,1.14,0,0,1,.42,1,3.89,3.89,0,0,1-.21.66.57.57,0,0,0,.23.65,5.59,5.59,0,0,1,1.06-1.31c.46-.39,1.53-.49,1.67-1.09.22-.92,1.75-1.78,2.53-2.16.12-.06.27.1.15.2a8.87,8.87,0,0,0-1.64,1.54c-.41.53-.32,1-.67,1.5a4.4,4.4,0,0,1,3.08-.12,1.89,1.89,0,0,0,1.89-.3,1.69,1.69,0,0,1,.41-.24,1.76,1.76,0,0,1,.94,0,.08.08,0,0,1,0,.16,2.18,2.18,0,0,0-1.44.63c.82.55,1.73,2.05,2.83,1.72.64-.19,1.38-.53,1.93,0a.09.09,0,0,1-.09.16,2.46,2.46,0,0,0-1.15.15,16.93,16.93,0,0,1,1.2,2,2.9,2.9,0,0,0,1,1,.19.19,0,0,1,.12.07,9.37,9.37,0,0,0,.9.44c.18.09.05.39-.13.32L57,33.64a2.41,2.41,0,0,1,.15.85,8.45,8.45,0,0,0,0,1.74c.06.14.11.29.17.43a.73.73,0,0,0,0,.09c.52.69,1.19.86,1.44,1.75a.15.15,0,0,1-.28.08,2.27,2.27,0,0,0-.88-1c0,.05,0,.09,0,.13v0a1.72,1.72,0,0,1,0,1.34c0,.24-.07.49-.1.71a10.22,10.22,0,0,0,.06,2,.64.64,0,0,1,0,.07.2.2,0,0,1,.13.21v.08a10.48,10.48,0,0,1,.45,1c0,.11-.12.17-.18.07l-.33-.54c-.16,1.34-.43,2.47.63,3.65.11.13-.07.31-.18.19s-.38-.43-.55-.65A8.26,8.26,0,0,0,57,48.08c0,.06,0,.12,0,.18s0,.06,0,.09,0,.17,0,.26a2,2,0,0,0,.19.42,2.54,2.54,0,0,1,.58,1.79c0,.14-.21.09-.22,0a2.4,2.4,0,0,0-.35-1A10.5,10.5,0,0,0,57,51.75a5.11,5.11,0,0,0,.72,2.57.19.19,0,0,1-.34.19c-.13-.23-.25-.48-.36-.73-.07.2-.16.39-.24.58l0,.13c.69,1.75,1.7,3.87.6,5.48a.11.11,0,0,1-.21-.09,4.34,4.34,0,0,0-.35-3.07c-.13.31-.32.61-.46.87A6.27,6.27,0,0,0,56,59.43a.38.38,0,0,0,0,.1h0a3.49,3.49,0,0,0,.18.58c.06.15-.18.24-.26.11s0-.08-.07-.12a7.31,7.31,0,0,0-.78,2.29,3.73,3.73,0,0,0,1.13,2.16c.12.1,0,.29-.17.22a2.89,2.89,0,0,1-1.11-1.25,1.72,1.72,0,0,0,0,.64,1,1,0,0,1,.24.29.13.13,0,0,1,0,.17,2.08,2.08,0,0,1,1.81,1.74,10.56,10.56,0,0,1,.91,1,3.68,3.68,0,0,1,.59,1.25,1.88,1.88,0,0,1,.63.44,9.3,9.3,0,0,0-2.54-4s0-.1,0-.07a7.11,7.11,0,0,1,2.66,3.18,26.81,26.81,0,0,0,1.15,3.52c.37.68.82,1.32,1.24,2,.63.28,1.27.55,1.92.82-2.7-2.7-2.1-7.26-4.89-10,0,0,0-.08,0,0,3,2.89,2.63,7.5,5.71,10.42h0l.57.26.41.19a7.93,7.93,0,0,1-1.27-1.82c0-.08.07-.14.11-.07a6.15,6.15,0,0,0,2.14,2.3.13.13,0,0,1,.06.09l.81.39A9.11,9.11,0,0,1,66,74.31s0-.07.06,0A7.23,7.23,0,0,0,68,76.44a.12.12,0,0,1,.06.08,11.7,11.7,0,0,0,4.51,1.18.09.09,0,0,1,0,.17c-2.86.16-5.18-1.34-7.77-2.31a24.36,24.36,0,0,1-5.21-2.21h0l-.1-.08-.06,0c.35.42.72.82,1.1,1.21.07.06,0,.15-.09.09a9.53,9.53,0,0,1-2.59-2.63,1.56,1.56,0,0,1,.81-2.21c-.77-1-2.28-.51-3.49-.64a2,2,0,0,1-1.85-1.71s.06,0,.08,0a2.26,2.26,0,0,0,2.17,1.12A1.15,1.15,0,0,1,54.92,67a1.39,1.39,0,0,1,1.13-.75,1.49,1.49,0,0,0-1.72-.86c-.56.09-1.11.24-1.68.29a2.54,2.54,0,0,1-2.75-1.34.06.06,0,0,1,.09-.07,2.2,2.2,0,0,0,1.91.83,1.72,1.72,0,0,1-.75-1.73,2.32,2.32,0,0,1,1.69-1.94c-1.54-1.68-3.91.39-5.92-.42-.14-.06-.09-.27.06-.23a4.1,4.1,0,0,0,1.94,0c-.94-.32-1.93-1.38-1.28-2.41A2.61,2.61,0,0,1,50,57.08a4.5,4.5,0,0,0-3-.9,6.78,6.78,0,0,0-2.68,1c-.75.35-1.39.22-1.42-.66a.11.11,0,0,1,.21,0c.23.8,1,.4,1.56,0-1-.16-1.91-.76-1.2-1.8A3.41,3.41,0,0,1,45,53.48,1.88,1.88,0,0,1,46.23,53c-1.12-1.08-3.81-.77-4.86-.07s-2,1.3-3.38,1.08c-.16,0-.12-.29,0-.28a3,3,0,0,0,.87-.09c-.83-.19-1.57-.63-1.34-1.62s1.26-1.59,2.19-2.05c-2-.61-3.83.6-5.44,1.88-.73.58-1.33,1-2.23.58-.06,0,0-.14.05-.12a1.35,1.35,0,0,0,.86-.09c-1.45-.09-1.34-2.13-.4-3.26a6.11,6.11,0,0,0-2.3.79,6,6,0,0,0-1.86,2.14c-.64,1-1.37,1.89-2.65,1.73-.1,0-.1-.16,0-.16a1.63,1.63,0,0,0,1-.24c-.57,0-1-.47-1.23-1.19a1.61,1.61,0,0,1,0-1,5.1,5.1,0,0,0-2.86,2.12c-.47.94-1.21,2.74-2.54,2.51a.12.12,0,0,1,0-.24.81.81,0,0,0,.63-.26.73.73,0,0,1-.43-.11c-1,0-1.19-.8-1-1.8v-.22a4.7,4.7,0,0,1,.64-1.85,6.59,6.59,0,0,0-.93.81,32.05,32.05,0,0,0-1.73,2.72A5.76,5.76,0,0,1,16,55.87a3.2,3.2,0,0,0-1.35,1.81C14,59,13.22,60.27,11.88,59c-.09-.09,0-.21.14-.13,1,.75,1.46,0,1.79-.81-.34.15-.81.26-.94-.18-.28-.92.75-1.65-.24-2.42a.85.85,0,0,1-.22-1.22,11.53,11.53,0,0,0,1.4-6.17,12.21,12.21,0,0,1-1.11,3.19c-.52,1-2.58,3.63-2.28,4.79a5.27,5.27,0,0,1,.24,1.9,3.68,3.68,0,0,0,.58-.34c.07-.05.17,0,.12.12-.8,1.13-2,1.73-2.55,3.07a9.56,9.56,0,0,1-1.88,2.88c-.62.68-1.54,1.58-.58,2.45a1.07,1.07,0,0,1,.26.52c.12.41-.22,1-.46,1.44a2.79,2.79,0,0,1,.58.19A4.38,4.38,0,0,0,7,67.09a3.12,3.12,0,0,1,.56-2.17.08.08,0,0,1,.14.06,4.88,4.88,0,0,0-.26,1.1c.09-.11.17-.22.26-.32.06-.46.3-.88.32-1.34a.07.07,0,0,1,.06-.06,2.1,2.1,0,0,1,0-1.46c.46-1,1.38-1.29,2.18-1.91.07-.05.13.06.07.1-.93.66-2.22,1.66-1.74,3A3.49,3.49,0,0,1,9,66.11a1.77,1.77,0,0,1,.1,1.38c-.15.41-.71.69-1.08.86a.29.29,0,0,1-.27,0l-.58.4a.18.18,0,0,1-.14,0,.36.36,0,0,1-.23.29c0,.11,0,.22,0,.34a1.71,1.71,0,0,1,1-.45s.09.06,0,.1a4,4,0,0,0-.73.7,1.45,1.45,0,0,1-.28.36v.44c.22-.21.47-.41.67-.59,0-.05.13,0,.1.08a3.11,3.11,0,0,1-.82,1.19A14.44,14.44,0,0,1,5.7,75.64a7.7,7.7,0,0,1-1.63,2.42c-1,1.11,0,1.51.8,1.84a3.78,3.78,0,0,0,.45,0h.15a1.44,1.44,0,0,1-.3-.8c0-.29-.2-.55,0-.83s1-.64.84-1.22c0-.11.13-.15.17,0a.75.75,0,0,1,0,.7c-.09.14-.63.67-.53.8a1.28,1.28,0,0,1,.24.74c.06.41.32.43.61.62,0-.08,0-.16.09-.25A.34.34,0,0,1,7,79.46a1.11,1.11,0,0,0,.41.08l.21-.33a.25.25,0,0,1,.45.19v0l.15,0a4.1,4.1,0,0,1,.32-2.6,2.53,2.53,0,0,1,.69-.73c.22-.14,0-.72-.09-1,0,0,0-.06,0-.09a2.53,2.53,0,0,1-.43-.85.92.92,0,0,1,.15-.58,2.36,2.36,0,0,0,.17-1.31c0-.1.16-.12.17,0a2.88,2.88,0,0,1,.09,1c-.05.28-.3.75-.1,1l.1.12a18.36,18.36,0,0,0,1.05-4.09A2,2,0,0,1,11,69.08a.15.15,0,0,1-.06-.1c-.07-.39.3-.93.52-1.22a4.44,4.44,0,0,1-.27-1.41c.48-1.57,2.13-2.33,1.88-4.18,0-.11.17-.13.19,0a3.55,3.55,0,0,1-.57,2.45,4,4,0,0,0-.95,2.3.12.12,0,0,1,.09.08c.37,1.11,1.23,1.69,1.74,2.7a19.45,19.45,0,0,1,.84,3.19c.74,2.36,1.79,4.62.93,7.11a.22.22,0,0,1-.22.16l-.57.18h0a.16.16,0,0,1-.06.16.33.33,0,0,0,.22.17.22.22,0,0,1,.17.13,1.17,1.17,0,0,0,.29-.22,2.73,2.73,0,0,0,.83-1.7c0-.08.12-.08.13,0a2.91,2.91,0,0,1-.38,1.5,2.81,2.81,0,0,1-.41.55h.2a2.06,2.06,0,0,1,.31-.28,1.27,1.27,0,0,0,.39-.8c0-.09.16,0,.14,0A2.85,2.85,0,0,1,16,81h0c.35.05.74.07,1.12.13h.55a4,4,0,0,0,1-.57,2.53,2.53,0,0,1,.12-.23,6,6,0,0,1-1.08-1,1.3,1.3,0,0,1-.15-.18L17.55,79l0-.07a7.6,7.6,0,0,1-1.2-3,.1.1,0,0,1,.2,0,5.86,5.86,0,0,0,.61,1.71A12.8,12.8,0,0,1,17.18,76a2.87,2.87,0,0,1,.1-1.17,1.43,1.43,0,0,1,.5-.41c.24-.15.29-.32.23-.47a2.06,2.06,0,0,1-.78-.12,1.6,1.6,0,0,1-.76-.67,6.54,6.54,0,0,1-.73-2.53c0-.12.15-.17.17-.05.17.75.28,2.11,1.1,2.48a.16.16,0,0,1,0-.15,7.79,7.79,0,0,1-.75-3.07A3.24,3.24,0,0,1,16.57,68c.34-.51.95-.94.85-1.64a.76.76,0,0,1,0-.15A8.22,8.22,0,0,1,16.8,63a8.39,8.39,0,0,1,1-3.15c.06-.12.24,0,.18.11a6,6,0,0,0-.51,4.8,8.39,8.39,0,0,0,.43.85c.31-1,0-2,.2-3.05,0-.11.22-.09.2,0-.12,1.1.42,2.28,0,3.32a3.12,3.12,0,0,0,.44,0A1.5,1.5,0,0,0,19,64.47a.06.06,0,0,1,.11,0,2.11,2.11,0,0,1,0,1.27l.27-.13a.32.32,0,0,1,.35-.28c.88,0,.31-1.33.29-1.79a5.69,5.69,0,0,1,.29-2.13,8.38,8.38,0,0,1,3.12-3.63c.1-.07.19.07.12.15a15.52,15.52,0,0,0-2.24,2.73c1.81,0,3.47-.11,4.78-1.53a27.09,27.09,0,0,1,3-3.23c.18-.14.44.1.26.26a11.49,11.49,0,0,0-1.83,2.15h0a5.5,5.5,0,0,0,.67-.11,4.48,4.48,0,0,0,1.48-.46c.94-.64,1.42-1.47,2.61-1.63.1,0,.1.13,0,.16a4.89,4.89,0,0,0-1.77,1.56c.73-.23,1.52.37,2.38.36,1.41,0,2.42-1.06,3.75-1.35.12,0,.2.14.09.2-.67.36-1.27.84-1.91,1.23.27.12.46.4.74.53a1.68,1.68,0,0,0,1.45,0h0a.23.23,0,0,1,.22-.11,5,5,0,0,1,1.92-.72.11.11,0,0,1,.08.19A11.12,11.12,0,0,1,38,59l-.13.09c.92.93,2.8,2.06,3.84,1.26.08-.06.21.07.14.15a1.56,1.56,0,0,1-1.21.61c.14.18.28.36.44.54.78.82,2.11.47,2.95-.07.13-.09.27.1.16.21a3.7,3.7,0,0,1-1.61.93c.35.29.65.65,1,1a2.9,2.9,0,0,0,2,.92c.11,0,.13.16,0,.18a2.34,2.34,0,0,1-1.11,0c.23.35.4.81.52,1a5.23,5.23,0,0,0,.8,1.25c.39.39.75.32,1.24.18a.09.09,0,0,1,.09.16,1.08,1.08,0,0,1-.79.41c.23.58.25,1.17.79,1.61a2.42,2.42,0,0,0,2.32.65.1.1,0,0,1,.1.16,1.49,1.49,0,0,1-1.59.42c.18.72.25,1.57.9,1.89a9.71,9.71,0,0,0,3,.8.08.08,0,1,1,0,.15,9.74,9.74,0,0,1-2.16,0A10.92,10.92,0,0,0,50.25,75a2.33,2.33,0,0,0,.77.79.31.31,0,0,1,.29.14v0a3.43,3.43,0,0,0,1,.29.1.1,0,0,1,0,.18,2.77,2.77,0,0,1-.81,0,9.28,9.28,0,0,0,.55,1.74c.41.79,1.14,1,1.78,1.52.05,0,0,.11,0,.12a2.23,2.23,0,0,1-.64,0c.32.5.47,1.12.81,1.61a2.66,2.66,0,0,0,1.83,1.11c.1,0,.11.17,0,.16-.34,0-.67,0-1-.08a8.25,8.25,0,0,0,.62,1.77,4.15,4.15,0,0,0,1.74,1.33c.09,0,0,.16-.06.14a5.2,5.2,0,0,1-.8-.2,2.67,2.67,0,0,0,.21.66,4.46,4.46,0,0,0,.75,1,8,8,0,0,0,1.91,1.45c.09,0,0,.19-.07.16a10.41,10.41,0,0,1-1.08-.5,4,4,0,0,0,.28.54,4.09,4.09,0,0,0,.66.72,2.76,2.76,0,0,0,.87.51.21.21,0,0,1,.21,0,1.82,1.82,0,0,0,.9,0,.08.08,0,0,1,.06.15,1.73,1.73,0,0,1-.67.26,6.23,6.23,0,0,0,.57.78,4,4,0,0,0,1,.79.12.12,0,0,1-.07.22,1.75,1.75,0,0,1-.72-.21,7.94,7.94,0,0,0,1.58,2.1,3.08,3.08,0,0,0,1.8.8,1.47,1.47,0,0,1,.54.2l-.11-.1a5,5,0,0,0-.73-.46c-.5-.27-1-.48-1.54-.75a0,0,0,1,1,0-.06,18.48,18.48,0,0,1,2.46.77v-.11a.31.31,0,0,1-.13-.1c-.41-.54-1.44-.68-2.06-.94a4,4,0,0,1-1.55-1c-.07-.07,0-.18.1-.1a4.13,4.13,0,0,0,2.64,1,2.31,2.31,0,0,1,.88.26v0A3.24,3.24,0,0,0,63.83,93a10.55,10.55,0,0,1-1.33-.48c-.08,0,0-.16,0-.13.76.25,1.51.27,2.18.56a3.92,3.92,0,0,0-1.61-1.24,7.33,7.33,0,0,1-1.74-.94s0-.07,0,0c.64.39,1.86.54,2.77,1-.6-.89-1.34-1.56-2-2.56,0-.07.06-.15.11-.09,1.85,2,3.33,2.94,3.71,5.93.22,1.68-.42,3-.35,4.66a7.86,7.86,0,0,0,2.37,5.07c-.12-.2-.23-.41-.35-.59a13.72,13.72,0,0,1-.86-1.49c0-.07.07-.13.11-.06a13.17,13.17,0,0,0,1.24,1.65c.13.16.26.33.38.5a14.2,14.2,0,0,0-1.1-3,5.23,5.23,0,0,1-.38-3.39c0-.07.14,0,.12,0-.49,1.9.84,3.57,1.5,5.25a4.07,4.07,0,0,1,.39,1.77l.39,0c.08-1.41.08-2.87-.93-4a.13.13,0,0,1,.18-.18c1.11,1,1.25,2.51,1.31,3.94a.41.41,0,0,1,0,.09c0,.06,0,.11,0,.16h.08a6,6,0,0,0,.16-1.14,12.56,12.56,0,0,0-.16-2.45c0-.09.11-.16.15-.06a10.59,10.59,0,0,1,.66,3.48,2.43,2.43,0,0,0,.33-1.44c0-.08.12-.08.13,0a3.54,3.54,0,0,1-.4,2c-.27,1.08-1,2.15-2.18,1-.84-.84-4.63-.53-6-1.09-5-2.11-11-5.65-14.29-10.44.15.32.3.64.43,1,0,.12-.16.21-.21.09a33.31,33.31,0,0,1-2.07-4.14c-.4-1.32-.46-3-.75-4.43a18.47,18.47,0,0,1,0-2,36.64,36.64,0,0,0-1-4.1c-.3-1.31.09-4.5-3.21-3.47a5,5,0,0,1-1,.28,5.86,5.86,0,0,1,1.49,2.94,16.12,16.12,0,0,0,.47,2.93c.37,1.05.93,2,1.34,3,0,.1-.12.16-.16.07a28.13,28.13,0,0,1-1.46-3c-.44-1.1-.48-2.26-.86-3.37s-1.58-3-3-3.18c-.9-.13-3.3,0-3.59,1.27.71.46,1.39,1,1.69,1.24.79.51,2,.47,2.61,1.26,1,1.33.91,3.32,1.6,4.84a.18.18,0,0,1-.32.18,14.25,14.25,0,0,1-1.33-3.56c-.5-1.49-1.43-1.23-2.51-1.89-.47-.29-1.65-1.5-2.61-2-.65-.25-1.19.16-1.68.53a.42.42,0,0,1-.08.12,1.4,1.4,0,0,0-.53,1.92A1.83,1.83,0,0,1,32,83.08a2.28,2.28,0,0,1-.42.67c.05.52,0,.93.53,1.18.3.13.6.22.89.34a3.46,3.46,0,0,1,1.45.66c1.2.95,1.84,2.31,3.46,2.59a2,2,0,0,1,1.8,1.41c.14.6-.14.91,0,1.4.58.62,1.36,1,1.92,1.71a2.75,2.75,0,0,1,.64,1.81,5.67,5.67,0,0,1,0,1.36,5.55,5.55,0,0,1-1.85,3.58,2.65,2.65,0,0,1-.71.75.71.71,0,0,0-.15.15c.34.48,1.06.57,1.64.8a1.52,1.52,0,0,1,.23-1.25c.79-.88,1.67-1.33,1.79-2.66a.1.1,0,0,1,.19,0,3.17,3.17,0,0,1-1,2.22c-.28.28-.72.66-.69,1.09a2,2,0,0,0,0,.24s0,0,.08,0A2.6,2.6,0,0,1,44,103.56a7,7,0,0,0,1.05-3.93,4.54,4.54,0,0,1,.26-1.23,2.29,2.29,0,0,1,.38-1,1,1,0,0,1,.78-.65,1.32,1.32,0,0,1,.33-.08c1.14-.09,1.34,1.11,1.41,2,0,.11-.18.13-.2,0-.13-.51-.47-1.48-1.17-1.29-.34.5-.89.88-.92,1.51H46c3.53.26,6.69,5,9.1,7.13,3,2.65,5.7,5.46,9.7,6.61a17.72,17.72,0,0,1,5.51,3,.33.33,0,0,1,.12.21h0c.21-.35.56-.74,1-.62a1.36,1.36,0,0,1,.5.31l.11.1.1-.14a.18.18,0,0,1,.13-.08,2.34,2.34,0,0,0,0-.59,4,4,0,0,0-.53-1.41c0-.08.07-.14.12-.07.48.67,1.17,1.78.87,2.64a3.72,3.72,0,0,0,.57.08,1,1,0,0,0,.89-.43l.06,0c1.06-1.33.57-3.83,1.2-5.38a6,6,0,0,1,.77-1.32,12.35,12.35,0,0,0,.73-3,17.88,17.88,0,0,1,.5-2.91s.1,0,.08,0a19.12,19.12,0,0,0-.19,4,7.83,7.83,0,0,1,.4-.89c.06-.11.14-.22.2-.34-.18-2.39.83-4.91,1.57-7.11,0-.06.1,0,.09,0a39.87,39.87,0,0,0-1,6l.43-.68a5.53,5.53,0,0,1,.27-1.39c.34-1.16.83-2.25,1.2-3.39,0-.07.14,0,.12,0a33.71,33.71,0,0,0-.93,3.72l0,0c.64-1,1-2.16,1.66-3.17a4.53,4.53,0,0,1,.44-.59,2.06,2.06,0,0,1,.46-.79,19.19,19.19,0,0,0,.92-3.86c.08-1.55-.35-4.46-2.61-4.07,0,0,0,0,0,0,1.55-.51,2.51,1,2.91,2.32a6.68,6.68,0,0,1,0,3.55,14.71,14.71,0,0,0,1.12-4.13,4.43,4.43,0,0,0-2-2.88c-1.27-.76-2.09,0-3.33-.11-1.83-.14-2.93-2-4-3.22,0,0,0-.05,0,0,1.55,1.6,2.77,3.51,5.32,2.82a2,2,0,0,1,2.16.32,5.79,5.79,0,0,1,1.89,2.33A6.2,6.2,0,0,0,82.73,87c-.07-.07,0-.17.11-.11,4.38,3.62,2.23,8.54.41,13.09a49.14,49.14,0,0,0-.87,12.84c.2,4.46.87,7.46,4.2,10.41a1.53,1.53,0,0,0-.16-.31c-.22-.36-.49-.65-.73-1,0-.05,0-.11.08-.08a3.85,3.85,0,0,1,1,1.06l.12.18a1.49,1.49,0,0,0-.11-.4,3,3,0,0,0-1-1.4c-.06-.05,0-.16.09-.11a3.07,3.07,0,0,1,1.28,1.34,0,0,0,0,1,0,0,3,3,0,0,0-.65-1.78c-.09-.1,0-.23.15-.15a4.13,4.13,0,0,1,1.38,3.85,3.46,3.46,0,0,1-.76,1.79,2.06,2.06,0,0,1-1.85,1c-3,1.28-7.11,1.53-10.06,1.64a25.31,25.31,0,0,1-10.46-1.52c.83.86,1.6,1.78,3.17,1.84a.1.1,0,0,1,0,.2,5,5,0,0,1-3.5-1.43A31.26,31.26,0,0,0,59.9,125a9.35,9.35,0,0,1-3.85-3.88c-.86-1.59-1.34-2.48-3.15-3.24a2.78,2.78,0,0,0,.41.73.12.12,0,0,1-.18.17,4.83,4.83,0,0,1-.72-1,1.8,1.8,0,0,1-.39-.39h0a2.12,2.12,0,0,1,0,.44s0,0,0,0a.33.33,0,0,1-.15.24,2,2,0,0,1-2.15.29,1.62,1.62,0,0,1,0,.2.88.88,0,0,1,.47.77,4,4,0,0,1,1.13.44,1.31,1.31,0,0,1,.65.76,3.35,3.35,0,0,0,1.23,1.67,10.54,10.54,0,0,1,2.35,2.63c0,.06,0,.13-.1.08a21.62,21.62,0,0,0-2.82-2.41,2.83,2.83,0,0,1-.89-.9,2.63,2.63,0,0,0-2.52-1.72,6.88,6.88,0,0,0-2.37.34h0a1,1,0,0,1,.66.62c.15.38.39,1.49-.1,1.74a1.12,1.12,0,0,1-.5.77c.15.16.29.33.45.47.29-.6.84-1,.76-1.8,0-.11.17-.13.19,0,.13.77-.35,1.37-.65,2l.14.06H48a1.68,1.68,0,0,0,.35-.86c0-.08.13-.1.15,0a1.27,1.27,0,0,1-.13.88h.37a2.27,2.27,0,0,0,.05-.53c0-.19.32-.24.35,0a1.94,1.94,0,0,1,0,.59l.65,0c1.6.1,2.14.7,3.47,1.54s2.31.88,3.37,1.79c.17.15-.07.38-.24.24-1.2-1-2.72-1.27-4-2.19-1.49-1.1-2.71-.88-4.42-.71-1.88.18-2.79,1.3-4,2.14a1.07,1.07,0,0,1-.23.2,1.73,1.73,0,0,1-.26.28l.14,0a1.22,1.22,0,0,1,.73.53,1.78,1.78,0,0,1,.12.24,2.87,2.87,0,0,1,.58.5,2.44,2.44,0,0,0,.57.54,1,1,0,0,0,.26.09,2.35,2.35,0,0,1,.59.05h0l.09,0a.2.2,0,0,1,0-.07c.17-.22.47-.31.68-.5s.25.06.15.15a4,4,0,0,1-.57.52,4.5,4.5,0,0,1,.43.27c1.23-.25,2.33-1.13,3.78-.79a13.91,13.91,0,0,1,5.59,3l.46.38A12.66,12.66,0,0,0,56,131.08c-.06-.05,0-.13.08-.08a27.7,27.7,0,0,1,2.64,3,.09.09,0,0,1,0,.14,6,6,0,0,1,.38.64c0-.23,0-.46.05-.69a19.18,19.18,0,0,0-2.33-3.52s0,0,0,0a11.84,11.84,0,0,1,2.3,3,5.73,5.73,0,0,0-.15-1h0a12,12,0,0,0-.92-1.29,0,0,0,0,1,.05-.05,7.12,7.12,0,0,1,.66.69,3.54,3.54,0,0,0-2.32-2s0,0,0,0c3.8.35,4.09,4.49,2.82,7.36-.23.83-.56,1.78-.34,2.27a2.53,2.53,0,0,1,.23,1.41,8.32,8.32,0,0,0,.46-.81c0-.09.19,0,.16.06s-.07.2-.1.3,0,0,0,0l.18,0a2.59,2.59,0,0,1,1.61-.35l.2,0h0c.09-.53-.16-1-.08-1.53a7,7,0,0,1,.51-1.55c0-.06.11,0,.09,0a3.8,3.8,0,0,0-.32,1.95,4.33,4.33,0,0,1,.35,1.2,2.18,2.18,0,0,1,.5.63c.32-.52.05-.72.25-1.51.12-.46.36-.91.45-1.38.2-1.17-.18-1.06-.41-2a2.94,2.94,0,0,1,1.47-3.37c.1-.06.17.08.09.15a2.16,2.16,0,0,0-.88,1.12l.18-.09h0a.3.3,0,0,1,.3-.14c4.53-2.12,10.85.35,15.53.54,4.14.17,7.25,0,10.36-2.82.93-.85,2.55-.45,3.69-.52a2.06,2.06,0,0,0,.38-1.22,8.58,8.58,0,0,0-.16-1.24,2.15,2.15,0,0,1,.5-1.57c.09-.12.29,0,.21.12a2.09,2.09,0,0,0-.29,2,4.3,4.3,0,0,1,.38,1.2v0h.11v0a3.12,3.12,0,0,0-.1-2.25.11.11,0,0,1,.21-.06c.23.77.76,1.53.53,2.37.09,0,.14-.1.26-.2h0a3.36,3.36,0,0,0-.14-2.23c0-.08.07-.14.11-.07a3.28,3.28,0,0,1,.47,2.32l0,0c1.19-2.46-1.19-4.14-.82-6.56a6.6,6.6,0,0,1,2.36-4.06c1.24-1.13,3.16-1.59,4-3.21a10.05,10.05,0,0,1,1-1.73c1.16-1.43,2.9-1.79,4.12-3.17,0,0,0,0,.06,0a3.74,3.74,0,0,0,.76-3.42c0-.1.13-.14.16,0a4.28,4.28,0,0,1-.89,4.23,3.32,3.32,0,0,0,1.29-1.31c.07-.14.28,0,.21.12a5.69,5.69,0,0,1-2.35,2.36c-.55.31-1.09.59-1.58.92a5.42,5.42,0,0,0-1.42,1.77,3.58,3.58,0,0,1-.21.39,8,8,0,0,0,2.07-1,9.47,9.47,0,0,1,2.91-1.77c.08,0,.14.11.06.15a24.37,24.37,0,0,0-3.2,2.53,7.68,7.68,0,0,1-2.12,1.12c1.41-.09,2.89-.18,3.7-1.39a.09.09,0,0,1,.15.09c-.81,1.46-2.69,1.9-4.34,2.11a3.5,3.5,0,0,0,3.59.25.1.1,0,0,1,.1.18,5.15,5.15,0,0,1-3.26.69l0,.08a2.8,2.8,0,0,0,2.27.78c.12,0,.2.15.08.21a2.28,2.28,0,0,1-2.08-.07c0,.16.05.32.07.49a2.25,2.25,0,0,0,1.11.88c.11,0,.09.23,0,.21a2.28,2.28,0,0,1-1-.37c0,.17,0,.35,0,.52a1,1,0,0,1,.62.87.09.09,0,0,1-.15.06,3.11,3.11,0,0,0-.48-.48c-.06,1.37-.29,2.72-.4,3.55a25.31,25.31,0,0,1-2,7.17,17.43,17.43,0,0,1-1.1,2.81,23.77,23.77,0,0,1-2,3.92.07.07,0,0,1-.1,0A10.31,10.31,0,0,1,95,142a21.74,21.74,0,0,1-8.16,6.13c-.09,0-.15-.11-.07-.15a24.4,24.4,0,0,0,5.88-4.54c-1.72,1.25-3.68,2.25-5.49,3.31-4.43,2.61-8.84,3.59-13.9,4.39a47.31,47.31,0,0,1-13.6.16,45.91,45.91,0,0,1-8.43-2.25,31.07,31.07,0,0,1-4.22-1,47.86,47.86,0,0,1-11.13-4.89A.11.11,0,0,1,36,143a14.75,14.75,0,0,0,4,1.52,63.42,63.42,0,0,1-10.63-8.13c-4.39-3.87-8.7-8.17-11.61-13.31-3.33-5.86-8.62-20.4.53-24.32A9,9,0,0,1,31,107.66a7.92,7.92,0,0,1-4.61,6.57,8.75,8.75,0,0,1-4.75.47h0a7.73,7.73,0,0,1-4.67-1.37c-.38-.1-.79-.16-1.08-.21l-.19,0a.15.15,0,0,1,0,.07s.05,0,.05,0a19,19,0,0,0,.24,2,5.77,5.77,0,0,0,1.29,2.26.4.4,0,0,1,.12.23,1.69,1.69,0,0,0,.48.16s.05,0,.08.06a3.45,3.45,0,0,0,.93-.5c-.56-.67-.34-2-1.59-1.89-.09,0-.12-.15,0-.17a1.31,1.31,0,0,1,1.43.5c.27.39.39,1.08.86,1.28a.32.32,0,0,1,.15.28v0h0c.14.76,1.12.82,1.44,1.47a.9.9,0,0,1,0,.94,3.89,3.89,0,0,0,3.12-1,3,3,0,0,1-.63-.59,1.37,1.37,0,0,1,.61-2,.17.17,0,0,1,.23.23c-.37.68-.65,1.15,0,1.71a7.09,7.09,0,0,1,1.17.94,1.3,1.3,0,0,1,.26,1.35c1.7-.27,4-1.1,3.16-3.1-.53-1.28-1-2.54.62-3.15.08,0,.14.08.08.14a1.49,1.49,0,0,0-.35,2.08,2.23,2.23,0,0,1,1.32-.62,1.81,1.81,0,0,1,1.7.55,1.41,1.41,0,0,1,.11,1.28l.06,0,.3-.42a3.12,3.12,0,0,0,.57-2.43,1.37,1.37,0,0,0-.58-.53,3.68,3.68,0,0,1-1.21-.75,1.49,1.49,0,0,1-.31-.66,2.1,2.1,0,0,1-.11-1.72c.27-.72.9-1.6,1.74-1.6a.07.07,0,0,1,0,.14,2,2,0,0,0-1.22,1.39,2,2,0,0,1,.19-.22,1.92,1.92,0,0,1,2.33,0,2,2,0,0,1,.84,1.4,10.36,10.36,0,0,0,.4-2.64,4.25,4.25,0,0,0-.27-1.81,1.59,1.59,0,0,0-.45-.55,1.91,1.91,0,0,0-.93-.36,2.53,2.53,0,0,1-1.45-.78c-.93-1,0-2.18.47-3a.07.07,0,1,1,.12.07c-.44.92-1.22,2.51.32,2.94-.62-1.09.59-2.82,2-2.64-.15-1.12-.87-2.46-2-2.38a4.08,4.08,0,0,1-1.89-.32,1.37,1.37,0,0,1-.69-2.14c.05-.08.19,0,.16.07-.4,1.07,0,1.47.67,1.61a2.21,2.21,0,0,1,0-1.5c.28-.72,1.06-1.63,1.88-1.42-.8-1.06-2-2-3.43-1.54a18.44,18.44,0,0,1-1.93.69c-1.08.23-1.16-.77-1-1.57,0-.15.27-.11.26,0,0,.84.29,1,.71.94A2.14,2.14,0,0,1,28,94a1.47,1.47,0,0,1,.63-1.3c-1-.65-2.13-1.09-3.27-.24a11.78,11.78,0,0,0-1.79,1.81c-.66.74-1.4,1.36-2.42,1a.08.08,0,0,1,0-.16,1.6,1.6,0,0,0,1.57-.64c-2,.31-1.56-2.26-.3-3.59a4.58,4.58,0,0,0-3.56,1.43,6.86,6.86,0,0,0-1.22,2.66c-.36,1-1,1.91-2.13,1.43-.14-.06-.09-.29.07-.24a.89.89,0,0,0,1.08-.41c-1.5.41-1.46-1.57-1-3a4.31,4.31,0,0,0-2.59,5c.17,1.19.33,2.33-.62,3.21-.05,0-.13,0-.09-.08a2.6,2.6,0,0,0,.35-1c-.82.9-2.77.16-2.85-1.29a7,7,0,0,0-.47,2.59c.42,1.81,1.38,3.43,1.69,5.26a2.65,2.65,0,0,1-.77,2.65s-.1,0-.07-.09a2.35,2.35,0,0,0,.27-2.08,1.51,1.51,0,0,1-2.3.88c.05.47.05,1,.07,1.49a4.38,4.38,0,0,0,0,.51c.06.22.12.44.2.65a4.65,4.65,0,0,0,1.13,1.71,1.27,1.27,0,0,0,.12.1c.49.34,1.08.52,1.57.86a1.83,1.83,0,0,1,.64.77,3.15,3.15,0,0,1,.91,2.79c-.15.93-.74,1.92-1.77,1.38a.07.07,0,0,1,.06-.13c1.16.34,1.19-1.28,1-2a3,3,0,0,0-.12-.32,1.69,1.69,0,0,1-.27.47c-.91,1.07-2,.45-2.79-.42a26.62,26.62,0,0,0,3.08,6,5,5,0,0,0,.89.79c.41.27.85.51,1.27.79.76.2,1.62.54,1.54,1.41a1.05,1.05,0,0,1-.25,1.16c-.05.06-.16,0-.11-.09a.64.64,0,0,0,.12-.63.25.25,0,0,1-.16-.06,1,1,0,0,1-.85.25,1.74,1.74,0,0,1-.36-.08l-.39-.11-.18-.09c.52.82.71,1.82,1.31,2.65.93,1.29,2.33,1.17,3.63,1.46a.14.14,0,0,1,.09,0l.14.07a3.38,3.38,0,0,1,1.1.49c.1.07,0,.25-.08.21l-.21-.05a1.05,1.05,0,0,1-.21,1.49c-.42.35-1.29,0-2-.37a3.9,3.9,0,0,0,1.65,2,8.84,8.84,0,0,0,2.42,1.11c1,.2,2.54.2,3.12,1.22a.1.1,0,0,1-.16.12,2.63,2.63,0,0,0-1.7-.62c.85.3,2.23,1,1.58,2-.4.61-1.08.52-1.78.25a6.44,6.44,0,0,0,2.36,1.89,4.34,4.34,0,0,1,1.54.71,3,3,0,0,1,.63.19,1,1,0,0,1,.68,1.38.12.12,0,0,1-.23-.07.7.7,0,0,0-.4-.74.91.91,0,0,1-.31.83,1.26,1.26,0,0,1-1.34.25l.14.13a2.79,2.79,0,0,0,.32.28,6.73,6.73,0,0,0,3,1.27,25.25,25.25,0,0,1,3.35.59c.84.24,3,.88,2.49,2.14a.1.1,0,0,1-.19,0,.71.71,0,0,0-.19-.51c.37,1.43-1.68,1.27-3.3.94,1.19,1,2.34,2.28,3.61,2.53s2.57.15,3.83.28,2.79.68,1.92,2.06c-.08.13-.32,0-.26-.11a.55.55,0,0,0,0-.5,1.91,1.91,0,0,1-1.51.92,6.06,6.06,0,0,1-2,.08c.12.09.26.17.38.27.34.26.68.55,1,.82a6.68,6.68,0,0,0,3.86.55,28.75,28.75,0,0,1,3.44-.59c1.07-.08,2.37,0,2.89.87,0,0,.08,0,.1.1a1.86,1.86,0,0,1-.49,2.15c-.1.08-.24-.05-.15-.15a1.62,1.62,0,0,0,.2-1.67.88.88,0,0,0-.25-.26,2.09,2.09,0,0,1-1.44,2,3.67,3.67,0,0,1-.83.21l.27.35c2.07,1.33,5.19,2.21,7.11,1.61s2.67-2,4.24-2.8c1.3-.65,2.2-.62,2.71.82a.12.12,0,0,1-.21.09c-.31-.49-.83-.53-1.43-.34,1.32,1,.45,3-1,3.91a11.49,11.49,0,0,0,5.93.21c1.9-.52,2.57-1.44,3.31-3.11S68,153.76,70,154a.09.09,0,1,1,0,.18,2.69,2.69,0,0,0-2.09,1.19,1.88,1.88,0,0,1,.45-.12,1.7,1.7,0,0,1,1.87.39,3,3,0,0,1,.52.87.08.08,0,0,0,0,0,2.44,2.44,0,0,1,0,1.78,4.52,4.52,0,0,1-1.44,1.8c2.11,0,4.58.3,6.5-.38,2.77-1,3.49-2.61,5-4.76,1.34-1.95,2.48-1.74,4.45-1.3a.16.16,0,0,1,0,.31,5.36,5.36,0,0,0-1.2.16c1.22.71.74,2.51-.12,3.85,2.47-.46,4.13-2.21,5.19-4.57l.09-.23a4.11,4.11,0,0,1,1.32-2.83h0l.09-.15a12.42,12.42,0,0,1,1.72-1.68c.06-.05.16,0,.11.09A13.08,13.08,0,0,0,91,150.93c1.42.35,1.53,1.85,1,3.23,2.78-.79,5.27-3.13,5.33-6.16,0-.26,0-.5,0-.74,0,0,0,0,0,0a3,3,0,0,1,1.7-2.88.08.08,0,0,1,.09.12,3,3,0,0,0-1,1.55c.66-.7,1.69-1.11,2.23,0a3.84,3.84,0,0,1-.13,2.89c2.68-1.33,6.19-4.07,5.28-7.17-.43-1.44-.54-2.35.81-3.18a.08.08,0,0,1,.09.12,1.89,1.89,0,0,0-.55,2,1.75,1.75,0,0,1,1.33-1c1.15-.16,1.64.82,1.7,1.79A7.63,7.63,0,0,0,111.3,138c.37-1.51,0-2.76-.22-4.23a2.79,2.79,0,0,1,1.64-3.19c.12-.06.27.11.15.21a3.06,3.06,0,0,0-.94,1.34c1.27-.77,1.88.88,2,2.24a5.81,5.81,0,0,0,2-4c0-1.76-1.19-2.47-2.18-3.68a2.61,2.61,0,0,1-.08-3.47.1.1,0,1,1,.18.1,2.4,2.4,0,0,0,.64,3.35c-.46-1.24-.42-2.75.77-3,2-.43,2.7,1.78,2.78,3.55.73-1.83,1.55-4,.79-5.81a14.93,14.93,0,0,0-2.46-3.62,3.8,3.8,0,0,1-.58-3.65c0-.13.22-.07.19,0a3.36,3.36,0,0,0,.44,2.54,1.68,1.68,0,0,1,1.47-1.41A2.6,2.6,0,0,1,121,117.1c1.5-1.83-1.3-3.54-3-5.38l0,0a.9.9,0,0,1-.18-.23,2.86,2.86,0,0,1-.89-2.22c0-.16.31-.12.29,0a1.13,1.13,0,0,0,.14.64,1.63,1.63,0,0,1,2.19-.84,3.17,3.17,0,0,1,1.57,1.37,16.33,16.33,0,0,0-.64-4.23c-.88.09-1.79,0-2.68.1a30.6,30.6,0,0,0-3.82.44c-.14,0-.2-.18-.06-.21a27.26,27.26,0,0,1,6.34-.92s0-.1-.07-.14c-1.94-.44-3.89.13-5.86,0l-.18.36a.21.21,0,0,1-.31.07.43.43,0,0,1-.68-.2c0-.12-.19-.56-.43-1.13a.41.41,0,0,1-.16,0,17.22,17.22,0,0,0-4.24.15c-.05,0-.07-.07,0-.08,1.38-.24,2.74-.46,4.09-.82-.07-.15-.14-.3-.22-.45,0,0,0,0,0,0-1.33.47-2.82,0-4.19.09-.1,0-.1-.14,0-.14a16.85,16.85,0,0,0,4-.4c-.14-.27-.3-.54-.46-.79a10.36,10.36,0,0,1-3.08-.15c-.09,0-.08-.19,0-.18a8.81,8.81,0,0,0,1.78,0,6.45,6.45,0,0,0,.92-.22l-.22-.27a1.73,1.73,0,0,1-.49-.08,6.32,6.32,0,0,0-.74-.06l-1-.06a4,4,0,0,0-.23.37.53.53,0,0,1-.9,0l-.21-.32a2,2,0,0,1-1.06-.44.11.11,0,0,1,.06-.2c.19,0,.41,0,.62,0l-.23-.34a2.57,2.57,0,0,0-1.62,0c-.1,0-.13-.11,0-.14a3.83,3.83,0,0,1,1.29-.37l-.21-.3a23.83,23.83,0,0,0-3.15.31c-.08,0-.09-.12,0-.14a22.43,22.43,0,0,1,2.8-.69l-.08-.09a.22.22,0,0,1-.27.1c-1.71-.56-3.32.32-5,.61a0,0,0,1,1,0,0c1-.27,2-.72,3-1a3.85,3.85,0,0,1,1.93-.22l-.12-.15a.29.29,0,0,1-.16,0c-2.48-.61-4.4.47-6.74,1.1a.09.09,0,0,1,0-.17c1.39-.4,3.4-1.62,5.15-1.77a13.73,13.73,0,0,0-4.87.58,7.66,7.66,0,0,1-4.37.19c-.11,0-.06-.2.06-.18,2.45.59,5.55-1.43,8.2-1.58a16.91,16.91,0,0,0-5.06.29c-1.56.23-3.27.49-4.65-.42a.13.13,0,0,1,.13-.22c2.8,1.36,6.65-1.17,9.7-.48l-.13-.09A22.55,22.55,0,0,0,96,95.5a6.22,6.22,0,0,1-3.74-.37.05.05,0,0,1,0-.1c2.29.83,4.14-.41,6.39-.52a12.56,12.56,0,0,1,2,0A9.52,9.52,0,0,0,99.32,94a11.71,11.71,0,0,0-3,.17,9.29,9.29,0,0,1-1.87.39c-1.11.09-1.79-1.19-2.42-1.88-.07-.06,0-.15.1-.1.6.54,1.43,1.66,2.32,1.56a12.33,12.33,0,0,0,2-.57h-.14l0,0a1.85,1.85,0,0,1-2.36-1c-.41-.93-.57-2.25-1.64-2.66-.11,0-.07-.21,0-.17,1.89.54,1.81,3.24,3.89,3.36l.06,0c3-.2,5.86.4,8.1,2.63a24.8,24.8,0,0,1,3.37,4.14c.18.28.36.24.54.1,1.31-2.57,3.6-4.45,4.56-7.33a29.41,29.41,0,0,0,1.58-11.08.12.12,0,1,1,.24,0,29.49,29.49,0,0,1-1.41,11.19c-.86,2.51-2.48,4.34-3.76,6.48.87-.06,1.64.74,2.17,1.36a10.08,10.08,0,0,1,1.5,2.68c.7,1.67.31,1.6,1.43.45,2.63-5.76,4.21-11.9,2.39-18.27,0-.08.1-.11.12,0,1.93,5.91.78,12.06-1.63,17.58a4.09,4.09,0,0,1,1-.49c.11-.24.23-.47.33-.71a4.53,4.53,0,0,0,.42-1.73c0-.16.25-.16.24,0a6.74,6.74,0,0,1-.6,2.34c2.47-.58,5.1,1.35,6.34,3.67a17.77,17.77,0,0,1,1.78,4.91,81.58,81.58,0,0,0-.51-14.91c-.87-7.45-3.11-14.1-7.7-20.1-.06-.07.07-.17.13-.1a42.77,42.77,0,0,1,8.29,20.1c.94,6.08,1.55,13.45-.08,19.67a9.67,9.67,0,0,1-1.41,3.71c2.81-.06,3.62,2,3.43,4.47a5.93,5.93,0,0,0-.76-5.67c0-.05,0-.11.07-.06,3.05,3.13,1.33,7.62-.87,10.91a8.09,8.09,0,0,1-.68,1.08,20,20,0,0,1-5,4.25c-2.06,1.38-1.54.89-1,2.69a13,13,0,0,1,.65,4.76,6.2,6.2,0,0,0,.21-4.64.08.08,0,0,1,.14-.06c1.9,4.41-1,8-4.59,10.19a20.83,20.83,0,0,1-12.72,3.39l.12.18c.92.88,0,4.13-.35,4.8a6.44,6.44,0,0,1-.87,1.34,6.44,6.44,0,0,0,2.73-4.21c0-.15.25-.08.23.07a6.49,6.49,0,0,1-2.21,4.46,10.63,10.63,0,0,1-3.79,1.69c-.78.3-1.6.54-2.42.77s-1.47.44-2.21.63c-.33.11-.65.22-1,.34a.08.08,0,0,1-.11-.06c-1.43.35-2.86.66-4.28,1a59.6,59.6,0,0,1-20.13,1.85,31.66,31.66,0,0,1-7.15-.21,18.24,18.24,0,0,1,4,1c16,3.35,35.55-2.06,49-10.87,11.95-7.85,21.45-19.22,23.11-33.23,0-2.73.37-5.43,0-8.18a66.83,66.83,0,0,0-2.51-9.83A.07.07,0,0,1,134.91,102.27ZM26.2,35.79a3.51,3.51,0,0,0-.72,2,.23.23,0,0,1-.09.19h0c.23.19-.06.54-.31.4s-.67-.44-.47-.92a.3.3,0,0,1,.42-.17A5.5,5.5,0,0,1,26,35.67.12.12,0,0,1,26.2,35.79Z"/><path class="cls-1" d="M111.78,133.09v.15a3,3,0,0,1,.23-.38A1.25,1.25,0,0,0,111.78,133.09Z"/><path class="cls-1" d="M9.18,107.25a.93.93,0,0,0,.64-.78,5.27,5.27,0,0,0-.1-1.77l-.06-.11a6.75,6.75,0,0,1-.85-2.94,2.9,2.9,0,0,1-.24-1.18c-.14-.57-.26-1.13-.36-1.71A12.52,12.52,0,0,1,7.82,96c0-.34,0-.7,0-1.07,0-.92,0-1.85,0-2.77,0,0,0,0,0-.07a4.74,4.74,0,0,0-.67-1.89A1.53,1.53,0,0,0,6.82,90a2.51,2.51,0,0,0-.44-.1A1.54,1.54,0,0,0,6,90c-.5.21-.07,1.14-.41,1.6-.43.61-1,.83-1.39.54a3.9,3.9,0,0,0,.59,2.49,6.73,6.73,0,0,1,1.57,2.13,3,3,0,0,0,0-.31,5.21,5.21,0,0,0-.75-1.63,3,3,0,0,1-.66-1.75c0-.13.19-.12.2,0,.1,1.18,1.27,1.69,1.63,2.76a3.12,3.12,0,0,1,.13,1.77,2,2,0,0,1-1.41,1.86,1.08,1.08,0,0,1-.79-.07A2.81,2.81,0,0,0,6,100.92a7.56,7.56,0,0,1,1,.54,1.37,1.37,0,0,1,1.15.89s0,0,0,.06a2.19,2.19,0,0,1-.86,3.11.07.07,0,0,1,0-.12,1.66,1.66,0,0,0,.73-1.89.41.41,0,0,1-.05-.09.85.85,0,0,0,0-.17,1.47,1.47,0,0,1-.18.79,1.11,1.11,0,0,1-1.39.54,2.54,2.54,0,0,1-.68-.5,13.07,13.07,0,0,0,1.12,3.33l.8,1.3a5.93,5.93,0,0,0,0-2.68.11.11,0,0,1,.2-.09l.08.17c0,.11.11.23.15.34C8.19,106.92,8.66,107.44,9.18,107.25Z"/><path class="cls-1" d="M23.65,38.32l-.09,0a.46.46,0,0,0,.07.07Z"/><path class="cls-1" d="M8,79.83s0,0,0,.06H8s0,0,0-.05Z"/><path class="cls-1" d="M10.86,71.59v0l.43-.15c.16-.06-.09-.34-.28-.55A3.16,3.16,0,0,1,10.86,71.59Z"/><path class="cls-1" d="M11.33,69.64l-.08.12a1.94,1.94,0,0,0-.17.58l.88-.07A5.35,5.35,0,0,0,11.33,69.64Z"/><path class="cls-1" d="M11.81,68.3h0Z"/><path class="cls-1" d="M12.4,69.26c-.08-.14-.17-.27-.25-.42a1.8,1.8,0,0,1-.38.35C12,69.2,12.19,69.23,12.4,69.26Z"/><path class="cls-1" d="M13.82,74.18a1.36,1.36,0,0,1,.4.14l-.16-.45Z"/><path class="cls-1" d="M35.42,77.77a3,3,0,0,1,1.09-.43c-.73-.68-1.36-1.81-2.31-2-1.4-.21-2.63.67-3.66,1.58,1.2-.16,2.7.09,2.84,1.34a2.07,2.07,0,0,1,.86,0,7,7,0,0,1-.45-.62s0,0,0,0c.35.26.77.47.88.91a.86.86,0,0,1,.07.1,1.2,1.2,0,0,1,.12-.35s0,0,0,0c-.48-.58-.83-1.33-1.6-1.57a3,3,0,0,0-2,0c-.05,0-.07-.06,0-.08,1.6-.67,2.82,0,3.8,1.32a1.86,1.86,0,0,1,.26-.23l-.09-.1s0,0,0,0Z"/><path class="cls-1" d="M14.16,75.5a2,2,0,0,1,.57.31c-.07-.25-.15-.49-.24-.73A2.18,2.18,0,0,1,14.16,75.5Z"/><path class="cls-1" d="M14.08,81a.22.22,0,0,1,.05-.21l-.06-.25a2,2,0,0,1-.45.32A1.76,1.76,0,0,0,14.08,81Z"/><path class="cls-1" d="M114.45,105.25c1.3-.16,2.58-.45,3.89-.53a9,9,0,0,1,1.32,0,3.13,3.13,0,0,0-.54-.55,24.66,24.66,0,0,0-4.09.55A6.34,6.34,0,0,0,114.45,105.25Z"/><path class="cls-1" d="M23.2,61.19a5.18,5.18,0,0,1-.95.28,8.89,8.89,0,0,0,1.19-.28Z"/><path class="cls-1" d="M13.45,72.94a1.6,1.6,0,0,1,.31.1l-.12-.38C13.57,72.75,13.51,72.85,13.45,72.94Z"/><path class="cls-1" d="M12.89,71.91a5.81,5.81,0,0,1,.58.09c-.08-.34-.17-.66-.27-1A6.62,6.62,0,0,0,12.89,71.91Z"/><path class="cls-1" d="M14.82,76.44a1.31,1.31,0,0,1-.31.61,2.66,2.66,0,0,1,.59.28,8,8,0,0,0-.2-.92A.19.19,0,0,1,14.82,76.44Z"/><path class="cls-1" d="M109.94,100.89h.24A1,1,0,0,0,109,101,7,7,0,0,1,109.94,100.89Z"/><path class="cls-1" d="M117.54,117.33s0,0,0,0a2.08,2.08,0,0,1-.06-.59A.77.77,0,0,0,117.54,117.33Z"/><path class="cls-1" d="M117.93,103.53a.28.28,0,0,1-.21-.14,4,4,0,0,0-2.15.85c.65-.2,1.29-.38,1.94-.52l.6-.13Z"/><path class="cls-1" d="M47.34,153.43l-.07,0s0,.06,0,.09a.14.14,0,0,1,0-.06Z"/><path class="cls-1" d="M15.17,78.14c-.22.14-.44.29-.65.45a2.67,2.67,0,0,1,.55.4A2.92,2.92,0,0,0,15.17,78.14Z"/><path class="cls-1" d="M14.39,80a1.64,1.64,0,0,0,.44-.47,4.45,4.45,0,0,0-.73.12A2.34,2.34,0,0,1,14.39,80Z"/><path class="cls-1" d="M115.07,125.16h0s0,0,0,0Z"/><path class="cls-1" d="M34.71,31.75l-.81.3a1.63,1.63,0,0,0,.45.38A4.42,4.42,0,0,1,34.71,31.75Z"/><path class="cls-1" d="M71.57,15l-.34-.17-.08.09c.11.2.18.42.29.61a5,5,0,0,1,.5-.43A2.54,2.54,0,0,1,71.57,15Z"/><path class="cls-1" d="M70.9,20.6l0,0c.27-.2.55-.4.83-.62-.2-.14-.34-.36-.55-.46C71.1,19.9,71,20.25,70.9,20.6Z"/><path class="cls-1" d="M77.61,38.68h0l.17-.21Z"/><path class="cls-1" d="M72.32,19c0,.22,0,.47-.11.69l.54-.44-.1-.13C72.52,18.9,72.39,18.62,72.32,19Z"/><path class="cls-1" d="M73.17,18.86h0v0Z"/><path class="cls-1" d="M73.94,15.4s0,0,0,.06l-.08.06c0,.35,0,.7,0,1.05a6.58,6.58,0,0,0,.83-.34A1.6,1.6,0,0,0,73.94,15.4Z"/><path class="cls-1" d="M70.76,14.59a.6.6,0,0,0-.48.06,1.92,1.92,0,0,1-.48.19h0a.6.6,0,0,1-.09.13l.33.4A5,5,0,0,1,70.76,14.59Z"/><path class="cls-1" d="M74.07,18.1c-.19-.12-.33-.34-.54-.45a5.21,5.21,0,0,1-.12,1Z"/><path class="cls-1" d="M73.84,22.69a.16.16,0,0,1,0-.09l-.14-.05,0,.07S73.82,22.67,73.84,22.69Z"/><path class="cls-1" d="M66.57,22.09a1,1,0,0,0,1.05.3,7.2,7.2,0,0,1-1-1.07A4.9,4.9,0,0,1,66.57,22.09Z"/><path class="cls-1" d="M86,18.81s0-.06,0-.1l0,0h0Z"/><path class="cls-1" d="M68.1,22.26a5.56,5.56,0,0,0,.82-.36,2.93,2.93,0,0,1-.63-.59C68.22,21.63,68.17,22,68.1,22.26Z"/><path class="cls-1" d="M66.85,15.09c0,.08,0,.16,0,.23.2.19.37.41.57.59a4.29,4.29,0,0,1,.41-1.12A2,2,0,0,0,66.85,15.09Z"/><path class="cls-1" d="M68.32,14.87l0,.06a2.51,2.51,0,0,0,.44.67,3.56,3.56,0,0,1,.39-.72c-.26,0-.52-.05-.78-.08C68.33,14.83,68.34,14.85,68.32,14.87Z"/><path class="cls-1" d="M69.43,21.62c.32-.19.66-.4,1-.64a.32.32,0,0,1-.09-.08,2.48,2.48,0,0,0-.51-.41A3.06,3.06,0,0,1,69.43,21.62Z"/><path class="cls-1" d="M72.46,15.16c.08.21.17.43.26.64a3.78,3.78,0,0,1,.62-.58C73.06,15.18,72.77,15.18,72.46,15.16Z"/><path class="cls-1" d="M146,71.33c-.7-1.31-1.57-3.08-2.6-4.94-2.41-4-4.69-8-9.76-9.34l-.11,0h-.26a.08.08,0,0,1-.09-.09c-5-1.42-10.15-4.41-15.28-4.56a.07.07,0,1,1,0-.14c3.78,0,6.65,1.49,10.23,2.46.67.18,1.36.33,2.07.46a23.74,23.74,0,0,0-9.36-5.35,66.52,66.52,0,0,0-20.24-2.53c-1.1,0-15.72,2-19.66,4.07l0,0c2.36-1,5.51-.64,7.94-.86,3.34-.31,6.66-.72,10-.91a.09.09,0,0,1,0,.17c-3.66.38-7.26,1.22-10.92,1.62a9.55,9.55,0,0,0,1.81,1.25,15,15,0,0,0,2.55.86c.07,0,0,.12,0,.12a6,6,0,0,1-2.91-.89,8.58,8.58,0,0,1-1.71-1.3h0c-.92.09-8.54.39-7.69,2.62a8.25,8.25,0,0,0,1,1.72,8.38,8.38,0,0,1-.43-1.91s0,0,0,0c.69,2,2.08,3.59,3.05,5.4a7.6,7.6,0,0,1,2.1,4.37,11.46,11.46,0,0,1-1.08,5.13.05.05,0,0,1,.08,0,29.46,29.46,0,0,0,3.18,3c.86.61,1.84,1.07,2.67,1.74a1.38,1.38,0,0,1,.29,0A12.37,12.37,0,0,1,89,71.9a23.85,23.85,0,0,0-3.68-3.35s0,0,0,0a28.8,28.8,0,0,1,3.23,2.61,27.58,27.58,0,0,0,3.22,2.28c.18-.93,1.35-1.61,2.32-1.82h0a5.44,5.44,0,0,1,.54-.15A14.14,14.14,0,0,1,98.06,71c-2.53-3.17-4.53-6.5-7.7-9.17-2.72-2.28-5.53-4.41-7.4-7.49a.08.08,0,0,1,.14-.08c2.31,3.72,6,5.62,9.16,8.39a26.67,26.67,0,0,1,4.89,6.06c-.53-1.68-.41-3.6,1-4.6,2.43-1.77,5.75-.39,8.15,1.43A17.83,17.83,0,0,0,100.33,60a40.17,40.17,0,0,0-8.24-3.43.08.08,0,0,1,0-.16c6.39,1.69,12,4.54,15.44,10.25.19.18.37.36.53.53l.09-.38c.1-.35.22-.69.33-1,.26-1.6.28-3.42,1.38-4.53,1.4-1.39,3.34-.8,5-.23a16.06,16.06,0,0,1,6,4.11l-.4-.51c-2.5-2.65-5-4.3-8.77-4.79-.07,0-.07-.1,0-.11a11.36,11.36,0,0,1,4.79,1.07c-2.45-1.78-5.25-2.73-7.69-1.13-.08,0-.15-.08-.08-.13,2.6-1.92,5.39-.87,7.85.78a26.79,26.79,0,0,1,3,2.26c-1-1.46-1.83-2.88-3.78-3.39,0,0,0-.06,0,0,2.15.36,3.49,2.2,4.64,4a10.25,10.25,0,0,0-5.27-5.67,40.47,40.47,0,0,0-9.31-2.93c-3.5-.66-6.72.14-10.19-.27-.1,0-.1-.16,0-.15,3.48.32,6.8-.58,10.28.11a36.82,36.82,0,0,1,9.41,2.91c2,1,4.32,2.33,5.43,4.41s1.74,4.38,2.87,6.45a14.09,14.09,0,0,0-.54-2c0-.06.06-.11.09,0,.7,1.42.83,3.37,2.29,4.25l0,0h0a5.67,5.67,0,0,1,1.2-1.48,1.46,1.46,0,0,1,1.16-.66h0c1.87-.52,3.86,1.14,5.29,3.51.6,1,1.21,2.07,1.74,3.18-1-5.92-2.69-11.31-9.44-13.88,0,0,0-.1,0-.08,7.49,2.66,9.6,9.59,10.52,16.69q.15.47.27.93a49.37,49.37,0,0,1,1,5.79,15.51,15.51,0,0,0,.32,2.79s0,0,0,0c.73,1.26,2.35-.35,3.2-.85a2,2,0,0,1,2.84.34.17.17,0,0,1-.24.24c-.6-.54-1.31-.35-2,.06a2.24,2.24,0,0,1,.81.51,3,3,0,0,1,2.58,1.4c0-.24,0-.47,0-.71a3.69,3.69,0,0,0-.57-1c-.06-.06,0-.15.1-.1a2.4,2.4,0,0,1,.41.43,48.93,48.93,0,0,0-4.52-16.92c-.05-.09.08-.17.13-.08,4.18,8.54,6.71,17.82,5.46,27.19a31.27,31.27,0,0,1-.56,4.26,34.72,34.72,0,0,1-.84,4.8c-.41,1.65-1.15,3,.4,3.81l.1,0,.7.12a1.45,1.45,0,0,1,1.3,0,1.74,1.74,0,0,1,.72,1,7.3,7.3,0,0,1,.21,1.24l.06.23c0-.32.06-.68.08-1a8.94,8.94,0,0,0-.32-1.47,1.38,1.38,0,0,0-1.23-.91,4.39,4.39,0,0,1-1.08-.15s0-.08,0-.07c.8.19,1.84-.17,2.38.66a2.69,2.69,0,0,1,.24.48c-.08-1.37-.51-2.52-1.89-2.37-.89.09-1.11-.19-1.19-1.07,0,0,.07,0,.07,0,.23,1.67,2.31.23,2.88,1.58a7.53,7.53,0,0,1,.52,2.39c.9-4.41,1.74-8.81,1.35-13.38,0-.07.09-.07.1,0,.63,6.79-.79,13.25-2.23,19.84a30.81,30.81,0,0,1-1.89,7,40,40,0,0,1-6.4,11.23.2.2,0,0,1,.08.12c.22-.22.45-.44.66-.68a54.77,54.77,0,0,0,8.73-13.31A50.52,50.52,0,0,0,152.85,90,66.52,66.52,0,0,0,146,71.33Z"/><path class="cls-1" d="M121.84,66.32a1.84,1.84,0,0,1,.17.22l-.12-.23Z"/><path class="cls-1" d="M100.87,79.64s0,.07,0,.11h.08s0,0,0,0Z"/><path class="cls-1" d="M75.12,16.82h-.06a.68.68,0,0,0,.09.35l.33-.29Z"/><path class="cls-1" d="M143.94,89.57l-.34-.25a12.64,12.64,0,0,1,.54,1.45l.49.37.34.28c0-.26,0-.51,0-.76A3.74,3.74,0,0,0,143.94,89.57Z"/><path class="cls-1" d="M144.11,88.33a2.53,2.53,0,0,0-1.73-.94,6,6,0,0,1,1,1.45A5.73,5.73,0,0,1,144.93,90c0-.24,0-.49-.05-.74A5.59,5.59,0,0,0,144.11,88.33Z"/><path class="cls-1" d="M80.61,74.05a2.71,2.71,0,0,0,1,.44,3.76,3.76,0,0,1-.75-.74Z"/><path class="cls-1" d="M144.29,91.32l.06.23c.23.93.45,1.89.64,2.86,0-.83,0-1.66,0-2.48a1.73,1.73,0,0,1-.61-.53Z"/><polygon class="cls-1" points="66.8 55.62 66.79 55.63 66.79 55.63 66.8 55.62"/><path class="cls-1" d="M80.06,71.74l0,.11.23-.2Z"/><path class="cls-1" d="M76.49,11.37a2.2,2.2,0,0,0,.61-.26h-.19c-.45,0-.89,0-1.34,0l.23.16A1.08,1.08,0,0,0,76.49,11.37Z"/><path class="cls-1" d="M32.21,42.57a1.57,1.57,0,0,0,.73-.56,5.89,5.89,0,0,0,.34-.66,3,3,0,0,1-1,.06A1.85,1.85,0,0,1,32.21,42.57Z"/><path class="cls-1" d="M81,73.63a4.6,4.6,0,0,0,1.07.8,4.3,4.3,0,0,0,.54.2h.18a3.47,3.47,0,0,1-1.44-1.35Z"/><path class="cls-1" d="M82.41,72.13a6.73,6.73,0,0,0,3.46,2.28L87,74.23a10.63,10.63,0,0,1-3.68-2.85s0-.09.05,0a11.48,11.48,0,0,0,3.75,2.88l.28,0,.08,0,.43-.11a18.56,18.56,0,0,1-4.1-3.7s0-.13.07-.08a23.24,23.24,0,0,0,4.47,3.66c.39-.1.8-.2,1.21-.28-1.92-1.2-3.45-3.26-5-4.8a.06.06,0,0,1,0-.08A15.28,15.28,0,0,1,82.41,72.13Z"/><path class="cls-1" d="M81.49,73.17a4.18,4.18,0,0,0,1.8,1.47h0a5.4,5.4,0,0,1-1.27-1.45c0-.06,0-.1.09,0a4.39,4.39,0,0,0,1.22,1.21,3.49,3.49,0,0,0,.55.27l1-.09a7.75,7.75,0,0,1-2.56-2.34C82.08,72.52,81.79,72.85,81.49,73.17Z"/><path class="cls-1" d="M53.68,30.22l.2.11s-.05-.09-.07-.14Z"/><polygon class="cls-1" points="54.63 64.61 54.63 64.61 54.63 64.61 54.63 64.61"/><path class="cls-1" d="M54.38,63.91h.06s0-.06,0-.1Z"/><path class="cls-1" d="M56.07,66.92a.6.6,0,0,0-.32.54,2.7,2.7,0,0,1,.78.93h.57a4.8,4.8,0,0,0-1-1.43S56.08,66.93,56.07,66.92Z"/><path class="cls-1" d="M59,72.12c-.18-.48-.3-1-.46-1.47C58.25,70.94,58.59,71.57,59,72.12Z"/><path class="cls-1" d="M56.09,68.17a2.52,2.52,0,0,0-.32-.5.79.79,0,0,0,.29.47Z"/><path class="cls-1" d="M57.38,68.39h0a3.43,3.43,0,0,1,.56.08,4.5,4.5,0,0,0-.71-1.33l-.35-.42a.31.31,0,0,1-.37.18.74.74,0,0,0-.36,0A3.64,3.64,0,0,1,57.38,68.39Z"/><path class="cls-1" d="M31.12,43a5.9,5.9,0,0,1,.85-.37,6.2,6.2,0,0,0-.72-.16A4.07,4.07,0,0,1,31.12,43Z"/><path class="cls-1" d="M31.94,33.37l-.22.35a.31.31,0,0,1,.13,0c.13.1.28.17.41.26a8.68,8.68,0,0,1,0-1A2.43,2.43,0,0,0,31.94,33.37Z"/><path class="cls-1" d="M50.39,28.28l.07,0,0,0Z"/><path class="cls-1" d="M33.35,32.28a3.94,3.94,0,0,0-.72.41l.08,0a2,2,0,0,0,.46.37C33.23,32.82,33.27,32.55,33.35,32.28Z"/><path class="cls-1" d="M61,73.32a6.93,6.93,0,0,1-1.54-2.92.25.25,0,0,1-.21.08,1.15,1.15,0,0,0-.5.07,14.83,14.83,0,0,0,1.1,2.18C60.18,72.94,60.56,73.14,61,73.32Z"/><path class="cls-1" d="M31,34.75l.54.15a3.13,3.13,0,0,0-.1-.8C31.34,34.33,31.19,34.55,31,34.75Z"/><path class="cls-1" d="M49.61,60.57l-.07,0s0,0,0,.05Z"/><path class="cls-1" d="M45.41,28.7a.71.71,0,0,0-.28.78,1.39,1.39,0,0,0,1.43-.61A6.25,6.25,0,0,1,45.41,28.7Z"/><path class="cls-1" d="M73.19,40.64l.09,0s0,0,0-.07Z"/><path class="cls-1" d="M36,36.61c.06-.19.13-.37.2-.56v0a.67.67,0,0,1-.38.09Z"/><path class="cls-1" d="M34.18,27.94a2.67,2.67,0,0,0-.49,0,1.87,1.87,0,0,0-.53.63,1.15,1.15,0,0,0,.57-.17A2.79,2.79,0,0,0,34.18,27.94Z"/><path class="cls-1" d="M36.41,33.11l-.11.11a1.9,1.9,0,0,1,.28.37A1.38,1.38,0,0,0,36.41,33.11Z"/><path class="cls-1" d="M63.36,65.77h0Z"/><path class="cls-1" d="M74.85,23.05,74.73,23c0,.05,0,.11.08.16a.3.3,0,0,1,0-.08Z"/><path class="cls-1" d="M36.36,35.45a7,7,0,0,0,.22-.9s-.07,0-.11,0l-.3,0A3.81,3.81,0,0,1,36.36,35.45Z"/><path class="cls-1" d="M56.66,53.28a.41.41,0,0,1,0,.11s0,0,.06-.07Z"/><path class="cls-1" d="M65.48,16.27h0c.16.23.32.45.47.69a7.06,7.06,0,0,1,.2-1.29A6.37,6.37,0,0,1,65.48,16.27Z"/><path class="cls-1" d="M42.36,33.58l0,0,0,0Z"/><path class="cls-1" d="M57.28,45.47a.3.3,0,0,1,0-.08l0-.06Z"/><path class="cls-1" d="M36.27,44.39a2.41,2.41,0,0,1,0-.38A.27.27,0,0,0,36.27,44.39Z"/><path class="cls-1" d="M35.7,31.28a2.71,2.71,0,0,1-.37.21l.06,0a.21.21,0,0,1,.15-.11s.07,0,.1,0v0l0-.05h0Z"/><path class="cls-1" d="M33.61,40.11c0,.11,0,.22,0,.32.05-.11.09-.23.14-.35A1,1,0,0,1,33.61,40.11Z"/><path class="cls-1" d="M34.15,38.92H34l.18.48.09,0a1,1,0,0,1,0-.3.1.1,0,0,1,0,0Z"/><path class="cls-1" d="M27.39,45.91c-.09,0-.16.12-.07.16,2,.84,3.83-2.76,1.73-3.4-.07,0-.14.08-.07.13a1.57,1.57,0,0,1,.33,2.07A1.62,1.62,0,0,1,27.39,45.91Z"/><path class="cls-1" d="M18.3,37.49a2,2,0,0,1,1.17-.07c.47.12.61.48.76.89a.22.22,0,0,0,.16.14,6.2,6.2,0,0,1-.31.77.09.09,0,0,0,.05.12,3.2,3.2,0,0,0-.1,3.94c.41.5,1.2.3,1.69.11s.44-1.06.73-.58c.51.87,1.76,2,2.61.75-.1.56-.19,1.18-.67,1.36-.82.32-1.63-.77-2.41-.05-.05.05,0,.14.09.1.53-.27,1.16.27,1.63.46A1.41,1.41,0,0,0,25,45.32a1.56,1.56,0,0,0,.62-1.1c.08-.4.05-.89.44-1.17a3.82,3.82,0,0,0-.22,1c-.12,1.1.14,2.4-1.43,2.25-.08,0-.1.14,0,.16a1.32,1.32,0,0,0,1.7-1,9.52,9.52,0,0,0,.23-1.06,1.44,1.44,0,0,0,1.09,1.12c.73.13,1.32-.58,1.44-1.23s-.49-1.16-1.05-.64a.16.16,0,0,0,.11.28c.46,0,.23.42,0,.68-.45.52-1-.24-.94-.72.2-1.12,1.62-1.72,1.9-2.84a.11.11,0,0,0-.11-.14c.2-.25.42-.43.65-.4s.22-.27.05-.31c-.32-.07-.92-.23-1,.26A1.66,1.66,0,0,1,26.86,42c-.34,0-.81-.23-1.16,0-.82.48-1.73,2.26-2.55.78-.37-.66-.58-1-1.38-.86a.41.41,0,0,0-.28.29,2.33,2.33,0,0,0-.07.25c0,.57-.5.42-1.37-.47A3,3,0,0,1,20.78,39c.07-.08,0-.22-.12-.17a2.38,2.38,0,0,0,.15-.52.2.2,0,0,0-.14-.25h0c-.21-1-1.56-1-2.38-.71C18.18,37.38,18.21,37.52,18.3,37.49Zm9,4.9-.13.1v-.06Z"/><path class="cls-1" d="M6.15,86.23A4,4,0,0,0,10,85.35a6.89,6.89,0,0,0,2.14-4.18c.56-2.68-1.31-5.41.06-7.93a.15.15,0,0,0-.26-.15C10,76.2,13.66,86.88,6.42,85.26,5.22,85,4.16,84.23,3,85a2.19,2.19,0,0,0-.58.85c-.11.28-.23.55-.34.83q-2.92-.75-1-2.37c.11.15.36,0,.25-.14-.73-1-1.28.57-1.32,1.25s1,3.65,2.24,2.31a3.36,3.36,0,0,0,.68-1.08C3.58,85.16,5.07,85.86,6.15,86.23Z"/><path class="cls-1" d="M1.38,85.25l-.18-.07a.17.17,0,0,0-.17.3,1.24,1.24,0,0,0,.45.21.21.21,0,0,0,.23-.09,1,1,0,0,0,0-1,.19.19,0,0,0-.35.15A1.08,1.08,0,0,1,1.38,85.25Z"/><path class="cls-1" d="M.86,83a.1.1,0,1,0,0-.19A.1.1,0,0,0,.86,83Z"/><path class="cls-1" d="M11.31,85.19a.22.22,0,0,0-.39-.22c-.41.63-2.9,2.92-3.53,1.8a.12.12,0,0,0-.21.12C8,88.58,10.86,86.15,11.31,85.19Z"/><path class="cls-1" d="M11.61,84.43a3.89,3.89,0,0,0,.27-.88.19.19,0,0,0-.36-.1c-.09.27-.19.55-.26.83S11.52,84.63,11.61,84.43Z"/><path class="cls-1" d="M12.48,84.42a5,5,0,0,0-.09-3.29.11.11,0,0,0-.22.06c.5,1.82,0,3.15-.85,4.76-.33.64-.75,1.54,0,2.09,1.43,1.1,2.7-1.47,1.24-1.55-.44,0-.44.66,0,.68-.4.7-.73.64-1-.17a3.88,3.88,0,0,1,.29-.83C12.06,85.59,12.28,85,12.48,84.42Z"/><path class="cls-1" d="M11.05,89.81a2.34,2.34,0,0,0,2.75-.55A3.83,3.83,0,0,0,15,86.66a1.33,1.33,0,0,0-1.64-1.29.22.22,0,0,0,0,.42c.72.12,1.12.34,1.07,1.13a3.43,3.43,0,0,1-.89,1.83,2,2,0,0,1-2.1.68c-1.07-.24-1-1.52-.9-2.35,0-.15-.2-.15-.24,0A2.2,2.2,0,0,0,11.05,89.81Z"/><path class="cls-1" d="M10,90a.17.17,0,0,0,0-.33c-.77-.24-.88-1.3-.69-2,0-.11-.13-.17-.19-.08C8.65,88.33,8.89,90,10,90Z"/><path class="cls-1" d="M8.11,88.23c-.37,0-.18.42-.07.61s.45,0,.31-.18c0,0-.15-.26-.18-.24A.1.1,0,0,0,8.11,88.23Z"/><path class="cls-1" d="M59,12.92c.62.13,1.87.41,1.5,1.29,0,.08.11.14.15.06.53-1-.85-1.47-1.63-1.49A.07.07,0,0,0,59,12.92Z"/><path class="cls-1" d="M59.73,17.27a.26.26,0,0,0-.26-.14,3.74,3.74,0,0,0-.62.17,3.88,3.88,0,0,1-.66-.45,7.67,7.67,0,0,1-1.1-1.75c-.4-1,.71-1.68,1.33-2.24a.1.1,0,0,0-.13-.16c-.66.4-1.72.82-1.8,1.73-.11,1.29,1.06,2.57,1.78,3.51a.3.3,0,0,0,.41.11c.32-.17.65-.32,1-.5,0,0,0,0,0-.05.73.07,1.46.22.85,1-.35.44-.65,1.12-.08,1.55.75.56,1.37.62,2,.11a6.15,6.15,0,0,0-.08.93,3.56,3.56,0,0,1-1.08.2c-.7,0-1.18-.65-1.53-1.17a.1.1,0,0,0-.17.09,2.68,2.68,0,0,0,1.23,1.3,3.56,3.56,0,0,0,1.86,0,.26.26,0,0,0,.19-.25,3.14,3.14,0,0,1,.25-1.41c.08.77.54,2.37-.35,2.62a.11.11,0,0,0,0,.21c.81.06.85-1,.87-1.55s0-.95,0-1.43.12-.41.46-.36a2.43,2.43,0,0,0,0,1.44c0,.08.15.06.14,0a3.49,3.49,0,0,1,.17-1.2.78.78,0,0,1,.17-.26,7.42,7.42,0,0,0,.75.24,2.33,2.33,0,0,0,.38,0s0,0,0,0a5.7,5.7,0,0,0,2.33-.45.19.19,0,0,0-.1-.36,5,5,0,0,1-3.43-.29,1.67,1.67,0,0,0-1.45-.14,1.9,1.9,0,0,0-.69.6l-.45.6c-.58.74-1.26-.13-.92-.64s.79-1.13.4-1.8a1,1,0,0,0-.53-.38C60.13,16.52,60,17,59.73,17.27Zm-1.11.14-.1-.12.2.08Z"/><path class="cls-1" d="M68.86,18.79a7.85,7.85,0,0,1,2.73-.65.11.11,0,0,0,.06-.19c-.87-.39-2.09.3-2.84.72A.07.07,0,0,0,68.86,18.79Z"/><path class="cls-1" d="M60.34,15.73c-.43,0-.82-.06-1.05-.48,0-.08-.18,0-.15.06a1.1,1.1,0,0,0,1.2.66A.12.12,0,1,0,60.34,15.73Z"/><path class="cls-1" d="M14.53,39.31c-.13,0-.13.22,0,.21,1.62-.1,2.23,1.18,2.57,2.52a2.75,2.75,0,0,1-.45,2.43.62.62,0,0,0,.25.76,1.76,1.76,0,0,0,2,.22c.66-.25,1.38.19.79.77a1.23,1.23,0,0,0-.35.47.87.87,0,0,0,.27,1c.74.64,2.11-1.35,2.81-1.38.13,0,.21-.21.07-.27-.38-.17-.63,0-1,.18a7.7,7.7,0,0,0-.71.57,2.48,2.48,0,0,1-.74.5c-.66.28.39-1,.37-1,.76-.71-.1-1.93-1-1.8-.74.1-2.19.84-1.72-.38a3.78,3.78,0,0,0-.2-2.17C17.11,40.46,16.2,39.1,14.53,39.31Z"/><path class="cls-1" d="M24,47.18a1.17,1.17,0,0,1-1.41.06c-.07-.05-.12.06-.06.1a1.28,1.28,0,0,0,1.59.06C24.22,47.31,24.11,47.1,24,47.18Z"/><path class="cls-1" d="M57.22,17.86h.05S57.29,17.84,57.22,17.86Z"/><path class="cls-1" d="M54.82,17.83a.26.26,0,0,0,.2.2c-.09,0-.15.1-.17.55a.27.27,0,0,0,.34.25c1.52-.46,1.39-.37,2,.67a1.47,1.47,0,0,0,1.6.9.15.15,0,0,0,0-.3c-.42-.67-.84-1.35-1.27-2a.21.21,0,0,0-.24-.22c-.17.09-2,.72-1.7-.2.1-.3-.29-.47-.5-.29,1.12-1-2.3-2.08-1.49-3.54C55.16,11,57.21,10,57,6.42a.08.08,0,1,0-.16,0,7.41,7.41,0,0,1-2.22,5.29,8.87,8.87,0,0,0-2,2.76.91.91,0,0,0,.16.8C53.65,16.13,54.61,16.39,54.82,17.83Z"/><path class="cls-1" d="M13,36c.19.27.92.32,1.2.4,1.26.34,1.72,1.41,2.3,2.44.1.18.36,0,.27-.16a4.25,4.25,0,0,0-3.4-2.84c-.72-.18-.76-1.93-.89-2.51a2.21,2.21,0,0,0-1.13-1.48.09.09,0,0,0-.09.15C12.73,32.91,12.1,34.71,13,36Z"/><path class="cls-1" d="M58.17,11.72c-.06.14.18.2.23.06C59.74,8.06,61.69,3,58,0c-.09-.07-.21.05-.12.12C61.48,3.12,59.5,8.08,58.17,11.72Z"/><path class="cls-1" d="M122.72,37.58a.27.27,0,0,1,.08-.1c.11-.34.27-.69.08-1l0,.22a2.84,2.84,0,0,1-.29,1Z"/><path class="cls-1" d="M101.92,20.14c.78.17,1.57.28,2.35.44a15.65,15.65,0,0,1,4.47,1.52c.07,0,0,.18-.06.14-2.43-1-5-.83-7.49-1.6.86.72,2.3,1,3.3,1.41.71.31,1.5.59,2.21,1,3.6,1.32,7.2,3.66,8.88,6.59,1.82,3.18,3.11,9.41-1.58,11-3.1,1.08-7.92-.83-7.17-4.84a6.15,6.15,0,0,1,8.64-4.3,7.7,7.7,0,0,0-.78-1.38l-.06-.08c-3-1.19-6.59.57-8.36,3.16-.06.08-.2,0-.14-.09a8.6,8.6,0,0,1,5.34-3.75,9.55,9.55,0,0,1,2.36-.32,19.24,19.24,0,0,0-3.82-3.3,6,6,0,0,0-4.67.84c.49,0,.92.24.93.86a1.93,1.93,0,0,1-1.42,2,10.08,10.08,0,0,0-1.17,1c-.08.09-.2,0-.13-.12a5.77,5.77,0,0,1,.9-.88.1.1,0,0,1,.06-.1,1.8,1.8,0,0,0,.88-.82,1,1,0,0,1-.35,0,2.5,2.5,0,0,0-1.75.89,8.23,8.23,0,0,0-1.56,2.32.68.68,0,0,1,.2,0,1,1,0,0,1,1.32.45.26.26,0,0,1,.09.34l0,0c0,1-1,1.46-1.54,2.17-.09.1-.22,0-.18-.13.26-.54.7-1,1-1.46a.11.11,0,0,1,0,0,2,2,0,0,0,.11-.2l0-.13a.25.25,0,0,0-.14-.19h0c-.73.93-1.68,2-1.59,3.2a7.64,7.64,0,0,0,1,2.39,3.5,3.5,0,0,1,.41-.48,1.9,1.9,0,0,1,1.75-.6,2,2,0,0,1,.93,2.7.13.13,0,1,1-.25-.07c.15-.51,0-1.59-.57-1.85A2.91,2.91,0,0,1,104,39c0,.11,0,.23-.06.34a9,9,0,0,0,.36,3.51,2.56,2.56,0,0,0,1.27.78,1.41,1.41,0,0,1,.34-.85,1,1,0,0,1,.62-.3h.1a.39.39,0,0,1,.15,0,2.43,2.43,0,0,1,1.41.66c.06.05,0,.14-.08.1a1.18,1.18,0,0,0-.76-.25c.54.63.68,1.68,1.48,2.05a5,5,0,0,0,2,.36c-.07-.63,1-1.32,1.89-1.13.09,0,.07.17,0,.16a2.09,2.09,0,0,0-.86.31c2.17.45,5.13,2.33,6.76.68a1.12,1.12,0,0,1-.31,0,1.43,1.43,0,0,1-1.36-.24c-.9-.95-.06-2.45.36-3.44,0-.07.14,0,.12.06s-.07.26-.11.41,0,0,0,0l-.06.38a.06.06,0,0,1,.11,0,2.27,2.27,0,0,0,.07,1.2,1.57,1.57,0,0,0,.21.24A7.79,7.79,0,0,1,119.68,43a5.09,5.09,0,0,0,2.95-4.09c-.37.42-.83.69-1.31.37-1-.7-.57-1.74-.5-2.86a.09.09,0,1,1,.18,0,8.69,8.69,0,0,0,0,1c0,.5.12.72.5.68.22-2,1.18-4.72,0-6.51-.71,1.87-2.76.92-3.27-1.05a.09.09,0,0,1,.18,0A2.12,2.12,0,0,0,119.82,32a2.36,2.36,0,0,1-.23-2.05c0-.26,0-.49,0-.68a6.64,6.64,0,0,0-1.49-3.9c0,.76-.16,1.5-.94,1.54a3.25,3.25,0,0,1-.54,0,.27.27,0,0,1-.27,0s0,0,0,0a3.48,3.48,0,0,1-2.54-2.23c0-.16.19-.22.25-.07a2.53,2.53,0,0,0,1.53,1.44,4.47,4.47,0,0,1-.34-2.2,4.46,4.46,0,0,0-2.9-4.38,3.91,3.91,0,0,1,0,.48c.19.79-.32,2.13-1.18,1.93-.36.07-.79-.09-1.28-.63a.14.14,0,0,1,.19-.2c.51.4.86.46,1.11.34a3.66,3.66,0,0,1-1.6-1.89A4.82,4.82,0,0,0,106,16.86c.32.33.56.75.17,1.14s-1.63.35-2.25.32a22.23,22.23,0,0,0-2.58-.2,1,1,0,0,0-.3.06,2.65,2.65,0,0,0-.44.56A1.44,1.44,0,0,0,101.92,20.14Z"/><path class="cls-1" d="M122.6,35.12l.07-.09h-.06S122.6,35.09,122.6,35.12Z"/><path class="cls-1" d="M154.26,73.65a77.38,77.38,0,0,1,2.15,15c0,.1,0,.21.05.31-.18-3-.38-6-.42-9.06-.06-3.59,1.43-10.37-2.63-12.48.33.54.59,1.13.91,1.68.06.1-.09.18-.16.09-.28-.39-.5-.81-.76-1.21,0,.12,0,.24.07.36s0,0,0,0c.52,1.39,1.14,2.73,1.56,4.16,0,.08-.1.13-.13.06-.84-2-2.45-4-2.34-6.17a11.54,11.54,0,0,1-.1-2.35c0-.24,0-.48,0-.72,0-1,.17-1.74-1-2a4.2,4.2,0,0,1-1-.34,31.18,31.18,0,0,0,1.07,4.77c0,.07-.09.12-.12,0a24.68,24.68,0,0,1-1.9-6.43c-.35-2.07-.27-3.53-2.06-4.39a.41.41,0,0,1-.44,0,11.79,11.79,0,0,0,1,2.8.16.16,0,0,1-.28.17,16.58,16.58,0,0,1-1.72-5.14c-.2-1-.33-3-1.19-3.66a4,4,0,0,0-1.63-.65c.38,1.28.8,2.56,1.27,3.84,0,.09-.12.16-.16.07a44.54,44.54,0,0,1-2-5.25c-.31-1-.6-2-.84-3-.14-.55-1.28-.5-2-.48a12.2,12.2,0,0,0,2.05,3.84.08.08,0,0,1-.11.11A8.45,8.45,0,0,1,139,44.61s0,0,0,0c-.94-1.09-1-2.81-1.11-4.17,0,0,0,0,0,0-.16-.83-.44-1.62-1.12-1.85a3.21,3.21,0,0,1-.65-.29c0,.22,0,.46,0,.78a16.46,16.46,0,0,0,1.22,4.7c0,.12-.16.21-.22.09a20.77,20.77,0,0,1-1.63-4.31,1.29,1.29,0,0,1,0-.19,19.24,19.24,0,0,0-1.34-4.37c-.73-1.35-2.14-.78-3.18-1.12.53,1.11,1.06,2.22,1.65,3.3a.08.08,0,1,1-.14.09c-1.24-1.94-2.19-4.08-3.49-6a3.6,3.6,0,0,0-2.26-1.71,2.67,2.67,0,0,1-.34-.14,23.42,23.42,0,0,0,1.48,2.55c.15.21-.18.45-.35.27a13.72,13.72,0,0,1-3.08-5.33c-.58.15-1.13.32-1.71.45A27.55,27.55,0,0,1,124,29.8c.12.26-.24.48-.38.23A24.27,24.27,0,0,0,120,25a1.3,1.3,0,0,1-.54.57,5.64,5.64,0,0,1,.63,1.71,3,3,0,0,1,0,.6c0,.12.07.24.09.36.18,1-.2,2.26.52,3.12a2.52,2.52,0,0,0,.15-.59s0-.07,0-.1a1.48,1.48,0,0,0-.22-1c-.06-.08,0-.19.12-.11a1.62,1.62,0,0,1,.59.75.38.38,0,0,1,0,.1.39.39,0,0,1,.11.06,4.4,4.4,0,0,1,1.15,3.83,2.8,2.8,0,0,1,1.7-.14h0a9.06,9.06,0,0,1,1.11.25,9.18,9.18,0,0,1,3.93,1.9.08.08,0,0,1-.09.13,15,15,0,0,0-3.28-1.25,5,5,0,0,1-1.12.48c-.12.19.11.36.55.56a10.37,10.37,0,0,1,1.4.75,13.86,13.86,0,0,1,2.82,1.56c.09,0,0,.19-.06.16-.66-.2-1.39-.39-2.08-.65h0a4.76,4.76,0,0,0-1.36.86c2.69.7,6.74,1.53,7.89,4.2a.25.25,0,0,1-.39.29,14.21,14.21,0,0,0-1.73-1.3,4.82,4.82,0,0,1-.73,1.73,12.3,12.3,0,0,1,1.91.73,22.09,22.09,0,0,1,2.13.87.05.05,0,0,1,0,.1,2.08,2.08,0,0,1-1.49-.07A3,3,0,0,1,133.7,47c2,.59,4.71,1.58,5.54,3.61,0,.08-.09.14-.14.08a9.25,9.25,0,0,0-2.24-1.65,2.31,2.31,0,0,1-.28,1.43,18.76,18.76,0,0,1,5.25,3.74.07.07,0,0,1-.09.11c-.62-.43-1.24-.84-1.87-1.24A2.86,2.86,0,0,1,140,54a1.76,1.76,0,0,0,.68,1.49c1.11,1.11,2.55,1.76,3.7,2.81.09.08,0,.22-.13.17-.4-.19-.83-.39-1.26-.61a3,3,0,0,1-.25,1.62,27.84,27.84,0,0,1,4.12,2.83.09.09,0,0,1-.1.14c-.39-.23-.8-.44-1.19-.65a3.2,3.2,0,0,1-.2,1.17c.93.55,1.89,1,2.78,1.61a.22.22,0,0,1,.09.13,7,7,0,0,1,2.2,2.38c0,.06,0,.13-.1.08a6.86,6.86,0,0,0-1.81-1.63,10.77,10.77,0,0,1-.89-.61,1.55,1.55,0,0,1,.12.57c0,.6-.35,1.53.14,1.93s1,.78,1.53,1.17a3.9,3.9,0,0,1,1.47,1.07,9.68,9.68,0,0,1,1.9,3.27.08.08,0,0,1-.15.06,14.29,14.29,0,0,0-2.23-2.89c-.12,2.38,2.7,5.32,3.54,7.53a32.34,32.34,0,0,1,1.29,4.49c-.37-2.84-.71-5.68-1.09-8.49C154.13,73.6,154.24,73.56,154.26,73.65Z"/></g></g></svg>