<?xml version="1.0" encoding="utf-8"?>
<!-- Generator: Adobe Illustrator 23.0.1, SVG Export Plug-In . SVG Version: 6.00 Build 0)  -->
<svg version="1.1" id="Layer_1" xmlns="http://www.w3.org/2000/svg" xmlns:xlink="http://www.w3.org/1999/xlink" x="0px" y="0px"
	 viewBox="0 0 2500 321" style="enable-background:new 0 0 2500 321;" xml:space="preserve">
<style type="text/css">
	.st0{fill:#FFFFFF;}
</style>
<path class="st0" d="M273.2,181.5c-5.4,3.1-8.2,8.4-8.2,16.1v100.7c0,0.3-0.3,0.7-0.8,1.2c-6.4,4.8-13.4,8.7-20.9,11.5
	c-7.6,2.9-15.5,5.1-23.5,6.6c-8,1.4-16.1,2.4-24.3,2.8c-8.1,0.4-16,0.6-23.7,0.6c-11.7,0-23.5-0.4-35.4-1.2
	c-21-1.6-39.9-6.9-56.7-15.9c-16.9-9-31.2-20.8-43-35.2c-11.7-14.5-20.8-31-27.2-49.4C3.2,200.8,0,181.4,0,161
	c0-23.6,4.2-44.5,12.7-62.7s20.1-33.4,34.8-45.8C62.2,40.2,79.4,30.9,99,24.6c19.6-6.2,40.6-9.4,62.9-9.4c11.9,0,23.9,0.7,36,2
	c11.9,1.3,23.8,2.8,35.6,4.4c5.3,0.8,10.5,1.6,15.7,2.4s10.4,1.5,15.7,2c1.1,0,1.6,0.5,1.6,1.6c-0.5,9.4-1.4,18.8-2.8,28.1
	c-1.3,9.2-2.7,18.4-4,27.7c-0.3,1.9-0.5,3.7-0.8,5.4c-0.3,1.7-0.5,3.4-0.8,5c0,0.8-0.5,1.3-1.4,1.4s-1.5-0.2-1.8-1
	c-2.1-11.4-6-21.2-11.5-29.5c-5.6-8.2-12.4-15.1-20.5-20.5s-17.2-9.4-27.3-11.9s-20.6-3.8-31.4-3.8c-18.3,0-35.4,3.1-51.1,9.2
	c-15.7,6-29.4,14.6-41.1,25.6s-20.9,24.3-27.7,39.8s-10.1,32.6-10.1,51.1c0,20.2,3.7,39.2,11.1,57.1s17.6,33.6,30.4,47
	c12.9,13.4,28.1,24,45.8,31.8c17.6,7.8,36.7,11.7,57.1,11.7c8.8,0,17.6-1,26.7-3c9-2,16.7-6.3,23.1-12.9v-89.5c0-6.4-2-10.7-6-12.9
	c-4-2.3-8.5-4.2-13.5-5.8c-2.2-0.5-4.3-1.2-6.4-2c-2.1-0.8-4.2-1.9-6.4-3.2c-0.8-0.5-1.1-1.1-0.8-1.8s0.8-1,1.6-1
	c15.9,0,31.6,0.1,47.2,0.4c15.5,0.3,31.2,0.8,47.2,1.6l0.4,3.2C284.8,176.2,278.6,178.4,273.2,181.5L273.2,181.5z M482.7,287.1
	c-3.5-0.3-7-0.5-10.5-0.8c-2.2-0.3-4.4-0.5-6.6-0.6c-2.3-0.1-4.6-0.2-7-0.2c-6.1,0-12.2,0.3-18.3,0.8c-6.1,0.5-12.2,1.1-18.3,1.6
	c-0.8,0-1.3-0.4-1.6-1.2c-0.3-0.8,0-1.5,0.8-2l15.5-7.6c-4.5-12.4-9.2-24.6-14.1-36.8c-5-12.3-9.7-24.7-14.1-37.2h-61.7
	c-2,5.1-3.9,10.2-5.8,15.3c-2.6,7-5.1,14-7.4,21.1c-2.3,6.9-4.4,13.8-6.4,20.7c-1.9,6.5-2.8,11.2-2.8,14.1c0,4,1.7,6.6,5.2,7.8
	c3.4,1.2,6.8,2.1,9.9,2.6v3.2c-5-0.5-10.2-1-15.5-1.4c-10.6-0.8-21.2-0.8-31.8,0c-5.3,0.4-10.6,0.9-15.9,1.4
	c-0.8,0.3-1.3-0.1-1.4-1.2s0.2-1.7,1-2c14.6-1.9,24.8-9.6,30.6-23.1v0.4c7.7-19.4,15.1-38.7,22.3-58.1c7.2-19.4,14.2-38.9,21.1-58.5
	c4.8-13.3,9.4-26.5,13.9-39.6c4.6-13.3,9.3-26.5,14.3-39.6c0.3-0.8,0.8-1.2,1.6-1.2c0.8,0,1.3,0.4,1.6,1.2c1.3,3.7,2.7,7.3,4.2,10.9
	s2.9,7.3,4.2,10.9c11,30,22.3,59.8,34,89.5c11.8,30,25.3,59.4,40.4,87.9c3.2,6.1,7.2,10.5,12.1,13.1s10.5,4.2,16.9,4.8v3.2
	C489.6,287.3,486.1,287.4,482.7,287.1L482.7,287.1z M377.9,107.3c-4.4,13.7-8.7,27.4-12.9,41.2c-4.3,14-8.9,27.8-13.7,41.6h51.3
	L377.9,107.3z M780.5,287.5h-32.2c-10.6,0-21.1-0.3-31.4-0.8c-1.6,0-2.1-0.7-1.6-2c0.3-0.5,0.5-1.1,0.6-1.6s0.3-1.1,0.6-1.6l2.4-7.2
	c0.8-2.4,1.2-4.6,1.2-6.8c0-15.1-0.7-30-2.2-44.8s-3.1-29.6-5-44.4c-0.9-8-1.9-16.1-3-24.1c-0.9-7-1.7-15.2-2.2-24.5
	c-10,19.2-19.7,38.6-29.1,58.1c-9.3,19.4-18.6,39-27.9,58.9c-3.1,6.6-6.3,13.1-9.4,19.7c-3.1,6.6-6.2,13.1-9.4,19.7
	c-0.3,0.5-0.7,0.8-1.2,0.8s-1.1-0.3-1.6-0.8c-12.2-17-22.8-34.3-31.6-51.9c-8.8-17.5-17.3-35.2-25.3-53.1
	c-3.8-8.4-7.6-16.8-11.3-25.3c-3.7-8.4-7.6-16.7-11.7-24.9c-0.8,6.4-1.6,12.9-2.4,19.3c-0.8,6.2-1.6,12.4-2.4,18.5
	c-2.1,16.3-4,32.6-5.6,49s-2.4,32.9-2.4,49.3c0,4.8,1.2,8,3.6,9.7c2.4,1.7,5.3,3.3,8.8,4.6c1.1,0.5,2.5,1.1,4.4,1.8
	c1.9,0.7,3,1.1,3.6,1.4c0.8,0.5,1.1,1.2,0.8,2s-0.8,1.2-1.6,1.2c-3.7,0-7.4-0.1-10.9-0.2c-3.7-0.1-7.3-0.3-10.9-0.6
	c-3.7-0.3-7.4-0.5-11.1-0.6c-3.7-0.1-7.4-0.2-11.1-0.2h-8c-2.4,0-5,0.3-8,0.8c-0.8,0.3-1.3-0.1-1.6-1.2c-0.3-1.1,0-1.7,0.8-2
	c2.1-0.5,3.7-0.8,4.8-0.8c2.6-0.4,5.1-1,7.6-1.8c2.1-0.7,4.1-2.4,6-5.4c0.5-0.8,1.3-4.2,2.2-10.3c0.9-6.1,2-13.9,3.2-23.3
	c1.2-9.4,2.5-20.1,4-32c1.5-12.2,2.9-24.4,4.2-36.6c1.3-12.5,2.6-24.7,4-36.8c1.3-12.1,2.5-23.1,3.6-33.2c1.1-8.8,1.9-16.5,2.4-23.3
	s1.1-11.6,1.6-14.5c0-0.8,0.3-1.3,1-1.4s1.3,0.1,1.8,0.6c3.2,3.5,7.7,10.3,13.5,20.5s12.1,22.1,18.9,35.6
	c7.1,14.3,14.2,28.6,21.1,43c6.8,14,13.5,28.1,20.1,42.2c4.5,9.3,8.2,17.3,11.1,23.9c2.9,6.6,5.6,12.2,8,16.7
	c4.5-9.1,8.8-18.3,12.9-27.7c4.4-10,8.7-19.8,12.9-29.6c9.5-21.9,19.3-43.7,29.5-65.3c10.3-22,21.4-41.7,33-58.9
	c0.5-0.5,1.1-0.7,1.6-0.6s0.8,0.6,0.8,1.4c0.5,3.2,1,7.6,1.4,13.3c0.4,5.7,1,12.3,1.8,19.7c0.8,9.8,1.8,20.6,3,32.2
	c1.2,11.7,2.5,23.6,3.8,35.8s2.6,24.1,4,35.6c1.2,10.6,2.6,21.1,4.2,31.6c1.5,9.6,2.8,17.6,4.2,24.1c1.3,6.5,2.6,10.5,4,12.1
	c2.9,4.2,5.7,7,8.4,8.2c2.6,1.2,5.8,2.1,9.6,2.6c1.9,0.5,3.8,0.9,5.8,1s4,0.7,6.2,1.8L780.5,287.5L780.5,287.5z M908.1,267.4
	c-0.8,5.9-1.6,11.8-2.4,17.7c0,0.8-0.5,1.2-1.6,1.2l-0.4,0.4c-2.1,0.8-3.8,1.2-5.2,1.2c-6.1,0-12.3-0.1-18.5-0.2s-12.3-0.2-18.5-0.2
	c-5.3,0-10.5-0.1-15.5-0.2c-5.2-0.1-10.3-0.2-15.5-0.2c-7.2,0-14.4,0.1-21.7,0.2s-14.5,0.3-21.7,0.6v-3.2c4,0,7.2-0.9,9.7-2.6
	s4.4-3.9,5.8-6.6c1.3-2.6,2.2-5.6,2.6-9c0.4-3.3,0.6-6.7,0.6-10.1V90.9c0-5.3-1.3-8.8-3.8-10.3c-2.6-1.6-5.3-2.9-8.2-4l-5.4-1.8
	c-2-0.7-4-1.7-6.2-3c-0.5-0.5-0.7-1.1-0.6-1.8c0.1-0.7,0.6-1,1.4-1h113.4c1.1-0.5,2.2-1,3.4-1.4s2.3-0.9,3.4-1.4c1.3-0.5,2,0,2,1.6
	c-0.7,6.5-1.7,12.9-3,19.3c-1.2,6-2.5,12-3.8,18.1c-0.3,0.8-0.9,1.1-1.8,1c-0.9-0.1-1.4-0.6-1.4-1.4c-0.5-9.3-3.7-15.4-9.5-18.3
	s-13-4.4-21.5-4.4h-31.4v81.6H879c1.3,0,3-0.4,5.2-1.2c2.1-0.8,4.2-1.6,6.4-2.4c2.8-1.5,5.7-2.7,8.8-3.6c1.3-0.5,2,0,2,1.6
	c-0.3,3.2-0.6,6.6-1,10.3c-0.4,3.5-0.8,6.9-1.4,10.3c-0.5,3.3-0.9,6.6-1.2,10c-0.3,3.3-0.7,6.7-1.2,9.9c0,0.8-0.3,1.3-1,1.6
	s-1.3,0.1-1.8-0.4c-1.3-1.3-2.2-2.6-2.6-4c-0.4-1.5-0.9-2.9-1.4-4.4c-0.5-1.6-1.1-3.2-1.6-4.8s-1.5-3-2.8-4.4
	c-1.3-1.3-3.8-2.3-7.4-3c-3.8-0.7-7.7-1.2-11.5-1.6c-4-0.4-8.1-0.6-12.1-0.6h-21.1v82c4,5.8,9.6,10.3,16.9,13.3
	c7.3,3.1,14.4,4.6,21.3,4.6c9.3,0,17.2-2.5,23.7-7.4s10.8-11.9,12.9-20.9l3.2,0.8C910,255.6,909,261.5,908.1,267.4L908.1,267.4z
	 M1150.8,148c-0.2,0.5-0.5,0.7-1,0.6c-0.5-0.1-0.8-0.3-0.8-0.8c0-5-1.4-8.6-4.1-10.6c-2.7-2.1-6.5-3.1-11.4-3.1
	c-2.1,0-4.1,0.1-6.1,0.3c-1.9,0.2-3.9,0.5-6.1,0.8c-1.5,0.3-3.2,0.5-5,0.7s-3.5,0.2-5,0.2v44.7h30.8c1.1,0,2.3-0.5,3.7-1.4
	c1.4-0.9,2.4-1.8,3.2-2.7c0.3-0.3,0.6-0.4,1-0.2s0.6,0.5,0.6,0.9c-0.6,8.2-1.6,16.4-3.2,24.4c-0.2,0.5-0.5,0.6-1,0.6
	c-0.5-0.1-0.8-0.3-0.8-0.8c0.1-5-1.1-8.5-3.8-10.4c-2.7-1.9-6.4-2.9-11.3-2.9h-19.2V234c0,1.8,0.4,3.7,1.1,5.7
	c0.8,2,1.8,3.7,3.2,5.3c1.4,1.5,3,2.7,4.8,3.7c1.8,0.9,3.8,1.4,5.9,1.4v1.8h-1.6c-1.7,0-3.3-0.1-4.8-0.2c-1.5-0.2-3.1-0.3-4.8-0.5
	c-1.6-0.1-3.2-0.3-4.8-0.3c-1.5-0.1-3-0.1-4.6-0.1s-3,0.1-4.6,0.2l-4.6,0.5c-3.5,0.3-7,0.5-10.5,0.5h-1.4c-0.5,0-0.7-0.3-0.8-0.8
	c-0.1-0.5,0.1-0.9,0.6-1c2.7-0.5,4.9-1,6.4-1.7s2.6-1.6,3.3-2.7c0.7-1.1,1.1-2.6,1.1-4.3c0.1-1.7,0.1-4,0.1-6.7v-95.4
	c0-3.5-0.7-5.7-2.1-6.5c-1.5-0.9-3.1-1.5-4.8-1.9c-0.9-0.4-1.9-0.7-2.9-1c-1.2-0.4-2.4-1-3.5-1.7c-0.5-0.3-0.6-0.6-0.5-1
	s0.5-0.6,0.9-0.6c9.6,0.5,19.2,0.7,29,0.7h16.2c0.8,0,1.6,0,2.4,0.1s1.7,0.1,2.6,0.1c3.5,0.2,7.1,0.2,10.8,0c3.7-0.2,7-1,9.7-2.5
	c0.3-0.3,0.6-0.3,1,0s0.5,0.7,0.3,1.1L1150.8,148L1150.8,148z"/>
<path class="st0" d="M2396.4,35.6c-0.3,9.3-1.5,17.8-3.8,25.3c-0.3,0.8-0.8,1.3-1.7,1.3c-0.8,0-1.4-0.4-1.7-1.3
	c-1.4-7-3.6-12.6-6.5-16.9c-2.8-4.2-6.6-7.7-11.1-10.2s-9.5-4.2-15.1-5.2c-5.8-1-11.7-1.5-17.6-1.5H1277.8v244.3
	c0,11.2,3.6,20.6,10.7,28.4s16,12.5,26.6,14.2c0.8,0.3,1.2,0.9,1,1.9c-0.1,1-0.6,1.5-1.5,1.5c-9.8-0.8-19.7-1.5-29.5-2.1
	c-9.9-0.6-19.9-0.8-29.9-0.8c-7.3,0-14.4,0.2-21.5,0.6s-14.3,0.9-21.5,1.5c-0.8,0-1.3-0.5-1.5-1.5c-0.1-1,0.2-1.6,1-1.9
	c6.7-1.4,11.9-2.9,15.7-4.6c3.8-1.7,6.5-3.9,8.4-6.7c1.8-2.8,2.9-6.3,3.3-10.7c0.4-4.3,0.6-9.8,0.6-16.5V27.5h-69
	c-8.9,0-16.8,3.1-23.6,9.4c-6.8,6.3-11.9,13.3-15.3,21.1c-0.6,0.8-1.2,1.2-1.9,1c-0.7-0.1-1-0.6-1-1.5c-0.6-2.8-0.8-5.3-0.8-7.5
	c0-5.6,0.7-11,2.1-16.3c2.2-8.2,4.6-16.4,7.1-24.5c0.8-2.6,1.5-5.2,2.1-7.7c0.6-1.7,1.4-1.9,2.5-0.8c5.9,3.6,11.6,5.9,17.2,6.9
	s12,1.5,19.2,1.5h1192.2c2.2,0,4.7-0.3,7.3-1s5.1-1.3,7.3-1.9c1.6-0.3,3.2-0.6,4.8-0.8c1.8-0.3,3.7-0.6,5.6-0.8
	c0.8,0,1.3,0.6,1.3,1.7v3.3C2396.8,18.2,2396.7,26.9,2396.4,35.6L2396.4,35.6z"/>
<path class="st0" d="M1534.1,288.7c-13.9-0.8-27.8-1.2-41.8-1.2c-5,0-10,0.1-14.9,0.2s-10,0.3-15.3,0.6c-0.8,0-1.3-0.5-1.4-1.4
	s0.2-1.5,1-1.8c8.2-2.4,13.5-5.6,15.9-9.6s3.6-10.2,3.6-18.7V174H1359v83.6c0,16.7,8.6,25.9,25.9,27.5c0.8,0,1.2,0.5,1.2,1.6
	s-0.4,1.6-1.2,1.6h-12.3c-3.7,0-7.7,0.1-11.9,0.4c-2.9,0-6.3,0.1-10.1,0.2c-3.8,0.1-7.2,0.2-10.1,0.2h-10c-3.5,0-6.9-0.1-10.3-0.4
	c-1.1,0-2.3-0.1-3.8-0.2c-1.3-0.1-2.5-0.2-3.8-0.2c-0.8,0-1.3-0.5-1.4-1.4s0.2-1.5,1-1.8c4.2-0.8,7.7-1.7,10.3-2.6
	c2.6-0.9,4.6-2.3,6-4c1.3-1.7,2.2-3.9,2.6-6.6c0.4-2.6,0.6-6.1,0.6-10.3V92.1c0-5.8-2.3-10.2-7-13.1c-4.6-2.9-9.6-4.5-14.9-4.8V71
	c11.1,0.8,22.1,1.2,33,1.2c4.5,0,9-0.1,13.5-0.2s9-0.2,13.5-0.2h8.4c0.8,0,1.2,0.5,1.2,1.6s-0.4,1.6-1.2,1.6
	c-4.8,0-9.1,1.5-12.9,4.4c-3.9,2.9-5.8,7-5.8,12.3V161h121.8V93.3c0-6.4-1.7-10.4-5-12.1s-7.4-3.2-12.1-4.6c-1-0.2-2-0.5-3-0.8
	s-2-0.5-3-0.8c-0.8-0.3-1.1-0.9-1-1.8s0.6-1.4,1.4-1.4c17.7,1.1,35.4,1.5,53.1,1c5.4-0.1,10.8-0.3,16.1-0.6c0.8,0,1.3,0.5,1.4,1.4
	s-0.2,1.5-1,1.8c-5.8,1.1-10.5,2.6-13.9,4.6c-3.5,2-5.2,6.3-5.2,12.9v163.2c0,9,2,15.8,6,20.3s10.5,7.6,19.5,9.2L1534.1,288.7
	L1534.1,288.7z M1747.6,291.7c-4.8,1.2-9.6,1.8-14.5,1.8c-8,0-15.1-1.5-21.5-4.4s-12.1-6.6-17.1-11.1s-9.7-9.7-14.1-15.5
	s-8.6-11.8-12.5-17.9c-3.8-5.6-7.7-11.1-11.7-16.5c-4.1-5.4-8.6-10.3-13.5-14.7s-10.2-7.9-15.9-10.5c-5.7-2.6-12.1-4-19.3-4h-6.4
	c-1.9,0-3.8,0.3-6,0.8v56.5c0,7.7,2.3,14.3,7,19.7c4.6,5.4,10.8,8.6,18.5,9.4v3.2c-6-0.5-12.1-1-18.1-1.4s-12.1-0.6-18.1-0.6
	c-6.1,0-12,0.3-17.7,0.8s-11.6,1.2-17.7,2c-0.8,0.3-1.4-0.1-1.8-1s-0.2-1.7,0.6-2.2c5.6-2.6,10.2-6.6,13.9-11.9
	c3.7-5.3,5.6-11,5.6-17.1v-159c0-6.1-2.2-11.5-6.6-16.1s-9.6-7.8-15.7-9.4c-0.8-0.3-1.1-0.9-1-1.8s0.6-1.4,1.4-1.4h78.4
	c8.2,0,16.3,1,24.3,3s15,5.1,21.1,9.4c6.1,4.2,11,9.8,14.7,16.7s5.6,15.1,5.6,24.7c0,12.7-3.5,24.8-10.5,36.2s-14.9,21.2-23.7,29.5
	c2.9,3.2,6.1,7.2,9.6,12.1c3.6,5.2,7.3,10.3,11.1,15.3c6.1,8.2,12.2,16.4,18.5,24.5c6.5,8.4,13.3,15.9,20.5,22.7
	s14.6,12.1,22.3,15.9c7.7,3.8,15.5,5.2,23.5,4.2l1.2,3.2C1757.2,288.9,1752.4,290.5,1747.6,291.7z M1658,117.2
	c-2-6.9-5-13.1-8.9-18.7c-3.9-5.5-8.9-10.2-14.7-13.7c-5.8-3.6-12.6-5.4-20.3-5.4c-3.2,0-6.4,0.2-9.6,0.6s-6.3,1.3-9.2,2.6v99.1
	c4.5,0.8,8.9,1.3,13.1,1.6c4.4,0.3,8.8,0.4,13.1,0.4c14.9,0,25.1-4,30.8-12.1c5.7-8.1,8.6-19.3,8.6-33.6
	C1661,131,1660,124.1,1658,117.2L1658,117.2z M1949.7,228.4c-6.2,13.1-14.5,24.5-24.9,34c-10.3,9.6-22.3,17-36,22.3s-28.1,8-43.2,8
	c-12.5,0-25.4-3.1-38.8-9.2s-25.8-14.1-36.8-23.9c-11.1-9.8-20.4-21-27.7-33.4c-7.3-12.5-10.9-25.1-10.9-37.8
	c0-19.4,1.8-36,5.4-49.9s9.4-25.7,17.3-35.4c8-9.7,18.4-17.6,31.4-23.9c13-6.2,28.9-11.3,47.8-15.3l5.2-0.4
	c17-1.3,32.8,1.1,47.4,7.4c14.6,6.2,27.3,15,38.2,26.3c10.9,11.3,19.4,24.6,25.7,40c6.2,15.4,9.4,31.6,9.4,48.6
	C1959.1,201,1955.9,215.3,1949.7,228.4L1949.7,228.4z M1841.7,76.6c-3.3,0.1-6.6,0.3-9.9,0.7v200.9c3.2,0.7,6.5,1.2,9.9,1.5V76.6z
	 M1865.4,278.6c7.1-1.3,13.6-3.4,19.7-6.4c10.3-5.2,19-12.1,26.1-20.7c7-8.6,12.3-18.6,15.9-30s5.4-23.5,5.4-36.2
	c0-13-1.9-26-5.8-39c-3.8-13-9.6-24.7-17.1-35s-16.9-18.7-27.9-25.1c-5.1-2.9-10.6-5.2-16.3-6.8L1865.4,278.6L1865.4,278.6z
	 M1858.5,77.8c-3.3-0.6-6.6-0.9-9.9-1.1V280h0.6c3.2,0,6.3-0.1,9.3-0.4V77.8L1858.5,77.8z M1824.9,78.4c-6.2,1.2-11.9,3.1-17.3,5.6
	c-10.5,4.9-19.3,11.7-26.5,20.3s-12.7,18.6-16.5,29.8c-3.8,11.3-5.8,23.3-5.8,36c0,13.3,2,26.4,6,39.4s9.9,24.7,17.7,35.2
	c7.8,10.5,17.3,19,28.5,25.5c4.4,2.6,9.1,4.6,13.9,6.2L1824.9,78.4L1824.9,78.4z M2195.2,74c-0.1-0.1-0.5-0.1-1,0.2
	c-4,1.1-7.9,2.5-11.7,4c-4.1,1.6-6.2,4.4-6.2,8.4l0.4,95.9v16.3c0,15.2-0.3,30.4-0.8,45.6c-0.5,15.1-1.5,30.1-2.8,45.2
	c0,0.5-0.3,1-1,1.4s-1.3,0.3-1.8-0.2c-12.7-10.9-25.5-22.6-38.2-35.2c-12.8-12.6-25.3-25.5-37.6-38.6
	c-12.3-13.1-24.5-26.4-36.4-39.8c-11.5-12.9-23-26-34.2-39.2c-3.4-3.7-6.8-7.5-9.9-11.3c-3.2-3.9-6.5-7.7-10-11.3
	c-0.8,6.9-1.2,13.8-1.2,20.7c0,10.1,0.1,20.2,0.4,30.2c0.3,10.1,0.7,20.2,1.2,30.2c1.1,20.3,1.6,40.6,1.6,60.9
	c0,4.5,0.4,8.2,1.2,10.9c0.8,2.8,1.8,5,3,6.6s2.6,2.7,4.4,3.4c1.7,0.7,3.5,1.1,5.4,1.4c2.1,0.5,4.2,1.1,6.4,1.8
	c2.1,0.7,4.6,2.1,7.6,4.2c0.5,0.5,0.7,1.1,0.6,1.8c-0.1,0.7-0.6,1-1.4,1c-2.6-0.3-5.2-0.5-7.8-0.8c-2.5-0.3-5.1-0.5-7.8-0.8
	c-3.8-0.5-7.5-0.9-11.3-1.2c-3.8-0.3-7.6-0.4-11.3-0.4c-4.9,0-9.8,0.3-14.7,1c-5,0.7-10.1,1.4-15.1,2.2c-0.8,0.3-1.4,0-1.8-0.8
	s-0.3-1.5,0.2-2c2.1-1.9,4-3.3,5.8-4.4c1.6-1,3.3-1.9,5-2.8c3.2-1.6,6-3.8,8.6-6.6c2.5-2.8,3.8-7.2,3.8-13.3V72.2l3.2-6.4
	c0.3-0.5,0.7-0.9,1.2-1.2c0.5-0.3,0.9-0.1,1.2,0.4c28.2,29.3,56.2,58.8,84,88.5c27.7,29.8,55.2,59.8,82.4,90.1v-1.2
	c0-12.2-0.1-24.3-0.2-36.2c-0.1-11.9-0.3-24.1-0.6-36.6c-0.3-11.4-0.5-23.5-0.8-36.4s-0.4-25-0.4-36.4c0-4.5-0.5-8.2-1.4-10.9
	c-0.9-2.8-2.2-4.9-3.8-6.4s-3.3-2.4-5.2-3c-1.8-0.5-3.7-0.9-5.6-1.2c-1.9-0.2-3.9-0.6-5.8-1c-1.7-0.4-3.3-1.3-4.6-2.6
	c-0.5-0.5-0.6-1.2-0.2-2c0.4-0.8,0.9-1.1,1.4-0.8c6.1,0.8,11.8,1.2,17.1,1.2h16.7c3.4,0,7-0.1,10.5-0.2c3.6-0.1,7.3-0.1,10.9,0.2
	c1.3,0,2.8,0.1,4.4,0.2c1.5,0.1,2.9,0.2,4.4,0.2l0.8,3.2C2195.6,74.1,2195.3,74.2,2195.2,74L2195.2,74z M2345.8,267.4
	c-0.8,5.9-1.6,11.8-2.4,17.7c0,0.8-0.5,1.2-1.6,1.2l-0.4,0.4c-2.1,0.8-3.8,1.2-5.2,1.2c-6.1,0-12.3-0.1-18.5-0.2s-12.3-0.2-18.5-0.2
	c-5.3,0-10.5-0.1-15.5-0.2c-5.2-0.1-10.3-0.2-15.5-0.2c-7.2,0-14.4,0.1-21.7,0.2s-14.5,0.3-21.7,0.6v-3.2c4,0,7.2-0.9,9.7-2.6
	s4.4-3.9,5.8-6.6c1.3-2.6,2.2-5.6,2.6-9c0.4-3.3,0.6-6.7,0.6-10.1V90.9c0-5.3-1.3-8.8-3.8-10.3c-2.6-1.6-5.3-3-8.2-4l-5.4-1.8
	c-2-0.7-4-1.7-6.2-3c-0.5-0.5-0.7-1.1-0.6-1.8c0.1-0.7,0.6-1,1.4-1h113.4c1.1-0.5,2.2-1,3.4-1.4s2.3-0.8,3.4-1.4c1.3-0.5,2,0,2,1.6
	c-0.7,6.5-1.7,12.9-3,19.3c-1.2,6-2.5,12-3.8,18.1c-0.3,0.8-0.9,1.1-1.8,1c-0.9-0.1-1.4-0.6-1.4-1.4c-0.5-9.3-3.7-15.4-9.5-18.3
	s-13-4.4-21.5-4.4h-31.4v81.6h46.2c1.3,0,3.1-0.4,5.2-1.2l6.4-2.4c2.8-1.5,5.7-2.7,8.8-3.6c1.3-0.5,2,0,2,1.6
	c-0.3,3.2-0.6,6.6-1,10.3c-0.4,3.5-0.8,6.9-1.4,10.3c-0.5,3.3-0.9,6.6-1.2,10c-0.3,3.3-0.7,6.7-1.2,9.9c0,0.8-0.3,1.3-1,1.6
	s-1.3,0.1-1.8-0.4c-1.3-1.3-2.2-2.6-2.6-4c-0.4-1.5-0.9-2.9-1.4-4.4c-0.5-1.6-1.1-3.2-1.6-4.8s-1.5-3-2.8-4.4
	c-1.3-1.3-3.8-2.3-7.4-3c-3.8-0.7-7.7-1.2-11.5-1.6c-4-0.4-8.1-0.6-12.1-0.6H2271v82c4,5.8,9.6,10.3,16.9,13.3
	c7.3,3.1,14.4,4.6,21.3,4.6c9.3,0,17.2-2.5,23.7-7.4s10.8-11.9,12.9-20.9l3.2,0.8C2347.7,255.6,2346.7,261.5,2345.8,267.4
	L2345.8,267.4z M2492.6,255.7c-4.9,7.7-11.1,14.3-18.7,19.7c-7.6,5.4-15.9,9.7-25.1,12.7c-9.2,3.1-17.8,4.6-26.1,4.6
	c-4,0-8.2-0.5-12.5-1.4c-4.4-0.9-8.4-2.4-11.9-4.6c-3.6-2.1-6.5-4.8-8.8-8.2c-2.3-3.3-3.4-7.5-3.4-12.5c0-3.2,0.3-6.4,1-9.6
	c0.7-3.2,1.3-6.2,1.8-9.2l2-9.5c0-0.8,0.5-1.2,1.6-1.2s1.6,0.4,1.6,1.2v6c0,5.6,1.2,10.5,3.6,14.7c2.3,4.2,5.4,7.9,9.2,10.9
	c3.7,3.1,8,5.3,12.9,6.8s9.9,2.2,14.9,2.2c4.8,0,9.7-0.8,14.7-2.4c4.9-1.5,9.6-3.9,13.7-7c4.1-3,7.5-6.8,10.1-11.1
	c2.6-4.4,4-9.2,4-14.5c0-5-1.2-10-3.6-14.9c-2.4-4.9-5.6-9.9-9.6-14.9c-4.2-5.3-8.7-10.3-13.5-15.1c-5.1-5.1-10.3-10.1-15.5-15.1
	c-5.6-5.3-11.2-10.7-16.7-16.1c-5.6-5.4-10.5-11-14.7-16.7s-7.7-11.5-10.3-17.3c-2.7-5.8-4-11.8-4-17.9c0-9,2.5-16.8,7.6-23.3
	c5-6.5,11.3-11.8,18.7-15.9s15.5-7.2,24.3-9.2s16.8-3,24.3-3c10.6,0,20.3,1.3,29.1,4c0.8,0.5,1.2,1.1,1.2,1.6
	c-1.1,13.5-2.7,26.9-4.8,40.2c-0.3,0.8-0.8,1.2-1.6,1.2s-1.3-0.4-1.6-1.2c-2.1-9.3-6.2-17.2-12.1-23.9c-6-6.6-13.9-10-23.7-10
	c-10.1,0-18.5,3.3-25.3,9.7c-6.8,6.5-10.1,14.8-10.1,24.9c0,5.3,1.1,10.2,3.4,14.7c2.2,4.5,5.2,8.9,8.7,13.1
	c3.6,4.2,7.8,8.4,12.5,12.5c4.9,4.2,9.8,8.4,14.7,12.5c5.6,4.6,11.1,9.3,16.5,14.1c5.3,4.7,10.1,9.9,14.5,15.5
	c4.2,5.3,7.6,11.1,10.3,17.3c2.6,6.1,4,12.7,4,19.9C2500,239.5,2497.5,248,2492.6,255.7L2492.6,255.7z M1073.7,218.4
	c-3.5,7.5-8.3,13.9-14.1,19.3c-5.9,5.4-12.7,9.6-20.5,12.7c-7.8,3-15.9,4.5-24.5,4.5c-7.1,0-14.4-1.7-22-5.2s-14.7-8-20.9-13.6
	c-6.3-5.6-11.6-11.9-15.7-19c-4.1-7.1-6.2-14.3-6.2-21.5c0-11,1-20.5,3.1-28.4c2-7.9,5.3-14.6,9.8-20.1s10.5-10,17.9-13.6
	c7.4-3.5,16.4-6.4,27.1-8.7l2.9-0.2c9.6-0.8,18.6,0.6,26.9,4.2c8.2,3.5,15.6,8.5,21.7,14.9c6.2,6.4,11,14,14.6,22.7
	c3.5,8.7,5.3,17.9,5.3,27.6C1079,202.9,1077.2,211,1073.7,218.4L1073.7,218.4z M1012.3,132.2c-1.9,0-3.8,0.2-5.6,0.4v114.2
	c1.8,0.4,3.7,0.7,5.6,0.8V132.2z M1025.8,247c3.9-0.7,7.6-1.9,11.2-3.6c5.9-2.9,10.8-6.9,14.8-11.8c4-4.9,7-10.6,9.1-17.1
	c2-6.5,3.1-13.3,3.1-20.6c0-7.4-1.1-14.8-3.3-22.2c-2.2-7.4-5.4-14-9.7-19.9c-4.2-5.8-9.6-10.7-15.8-14.3c-2.9-1.7-6-3-9.2-3.8
	L1025.8,247L1025.8,247z M1021.8,132.8c-1.9-0.3-3.7-0.5-5.6-0.6v115.5h0.4c1.8,0,3.6-0.1,5.3-0.2L1021.8,132.8L1021.8,132.8z
	 M1002.8,133.1c-3.4,0.7-6.7,1.7-9.8,3.2c-6,2.8-11,6.6-15,11.5c-4.1,4.9-7.2,10.6-9.4,17s-3.3,13.2-3.3,20.5c0,7.5,1.1,15,3.4,22.4
	c2.3,7.4,5.6,14.1,10.1,20c4.4,5.9,9.9,10.8,16.2,14.5c2.5,1.5,5.2,2.6,7.9,3.5L1002.8,133.1z"/>
</svg>
