<svg xmlns="http://www.w3.org/2000/svg" viewBox="0 0 152.53 70.82"><defs><style>.cls-1{fill:#fff;}</style></defs><title>greyjoy</title><g id="Layer_2" data-name="Layer 2"><g id="Layer_2-2" data-name="Layer 2"><path class="cls-1" d="M31.27,44.92c-.21-.21-.42-.42-.62-.65a1.28,1.28,0,0,1,0,.19,3.41,3.41,0,0,1,.5.58Z"/><path class="cls-1" d="M127,57a34,34,0,0,1-1.47-9.65,4,4,0,0,1-1.43,0,1.25,1.25,0,0,0-.46.39,4.62,4.62,0,0,0-.34,1c0,.45,0,.89,0,1.3a23.21,23.21,0,0,0,2.48,9.13,36.91,36.91,0,0,1-1.62-11.34.07.07,0,0,1,.14,0c.17,5.2,1.57,9.84,3.22,14.66.25.47.52.93.78,1.41.39.68.74,1.35,1.06,2a13.12,13.12,0,0,0-.52-3.59C128.17,60.55,127.46,58.79,127,57Z"/><path class="cls-1" d="M11.72,45.25l0,.06.05,0Z"/><path class="cls-1" d="M13.48,44.94l-.05-.08a.3.3,0,0,1,0,.08Z"/><path class="cls-1" d="M128.14,46.3a7,7,0,0,1-1.31.67c.74,7.53,6.85,14.8,4.94,22.38.78-1.1,1.5-2.28,2.24-3.42,0-4.61-1.43-7.82-3.53-12A18.63,18.63,0,0,1,128.14,46.3Z"/><path class="cls-1" d="M86.48,33.41l.06,0-.05,0A.13.13,0,0,0,86.48,33.41Z"/><path class="cls-1" d="M86.56,33.07a1.6,1.6,0,0,1,.3.13l.32-.16c-.18-.21-.37-.42-.54-.65A3.08,3.08,0,0,1,86.56,33.07Z"/><path class="cls-1" d="M86.58,31.35c0,.22,0,.44.06.65a12.05,12.05,0,0,1,.85.9l.69-.26a17.62,17.62,0,0,1-1.64-1.81A3.28,3.28,0,0,0,86.58,31.35Z"/><path class="cls-1" d="M32.84,50a1.17,1.17,0,0,1,0,.2A1.5,1.5,0,0,1,33,50h-.22Z"/><path class="cls-1" d="M30.39,47.87a6.16,6.16,0,0,1,2.15-.31,10.34,10.34,0,0,0,2.36-.15c.77-.22.78-.71.74-1.32C33.94,46.54,31.62,46.9,30.39,47.87Z"/><path class="cls-1" d="M29,50.74s0,.11-.05.16-.05.05-.07.07,0,.11,0,.16l.88-.24a3.14,3.14,0,0,0,.7-.3A2.64,2.64,0,0,0,29,50.74Z"/><path class="cls-1" d="M31,45.17c-.12-.15-.25-.3-.38-.44,0,.12,0,.24,0,.37a2.7,2.7,0,0,1,.2.31Z"/><path class="cls-1" d="M30.46,45.82l.16-.21-.09-.17C30.51,45.57,30.49,45.69,30.46,45.82Z"/><path class="cls-1" d="M31.89,44.45a5.63,5.63,0,0,1,.62-.37c-.87-.48-1.37-1.46-2.16-2.07a7.67,7.67,0,0,1,.22.92A14.67,14.67,0,0,1,31.89,44.45Z"/><path class="cls-1" d="M29.32,49.68c-.06.25-.13.49-.21.73a3.1,3.1,0,0,1,2.07-.33,7.35,7.35,0,0,1,.79.27c.13,0,.2,0,.18.12,0-.15,0-.32.06-.47s0,0,0,0A16,16,0,0,0,29.32,49.68Z"/><path class="cls-1" d="M29.51,48.77l0,.07c0,.15,0,.29-.07.44a5.52,5.52,0,0,1,2.22-.14c1.06.09,2.11.28,2.3-.93-1.66.08-3.6-.11-4.2.6A.13.13,0,0,1,29.51,48.77Z"/><path class="cls-1" d="M83.52,32.65a2.65,2.65,0,0,0-3-2,.09.09,0,0,1-.11-.12,16.31,16.31,0,0,0-1.83.46,4.47,4.47,0,0,1,3.39,1.75,8.37,8.37,0,0,1,1.21,1.64c.18.36.65,1.61,1.14,1.51a2.5,2.5,0,0,1,.15-.38,2.34,2.34,0,0,1-.44-.88C83.8,34,83.7,33.3,83.52,32.65Z"/><path class="cls-1" d="M126.7,47a7.25,7.25,0,0,1-1.08.3,38.41,38.41,0,0,0,2.82,12.17,22.49,22.49,0,0,1,1.41,7.6,11.62,11.62,0,0,1,.75,3.73c.17-.19.34-.38.49-.58A.27.27,0,0,1,131,70C133.2,62.22,127.19,54.79,126.7,47Z"/><path class="cls-1" d="M1.32,57.31l.09.56a1.76,1.76,0,0,0,.26.66l.24.12a4.93,4.93,0,0,1-.19-1.15C1.59,57.45,1.46,57.38,1.32,57.31Z"/><path class="cls-1" d="M2,57.6c0,.21.09.41.15.61a2,2,0,0,0,.33.67l.29.1.14,0a2,2,0,0,1-.4-1.23A3.18,3.18,0,0,1,2,57.6Z"/><path class="cls-1" d="M.75,57c.06.25.1.49.17.74a2.35,2.35,0,0,0,.17.49l.13.09a6,6,0,0,1-.1-1.05A4.33,4.33,0,0,1,.75,57Z"/><path class="cls-1" d="M6.65,57.42c-.05-.08.06-.15.12-.1a7.75,7.75,0,0,0,1.45,1.17c.77.46.69-.31.92-.85.62-1.38,1.44-.16,2.41-.15a.14.14,0,0,1,.07.26.88.88,0,0,1-.78.16c-.34-.13-.83-.48-1,0l0,.18a1.08,1.08,0,0,1,.75,0c.52.23.75.52,1.23.07l0,0a3.73,3.73,0,0,1-.09-.46,9.22,9.22,0,0,0-.25-1.16,7.23,7.23,0,0,0-4.72.47,13.86,13.86,0,0,1-2.61.69,2.39,2.39,0,0,1,.2.74c0,.09-.13.13-.17,0a5.12,5.12,0,0,1-.3-.77l-.41,0c0,.25.11.49.15.75a.07.07,0,0,1-.14,0,3.75,3.75,0,0,1-.2-.8,3.6,3.6,0,0,1-.56,0c.09.48.26,1.2.53,1.06a.11.11,0,0,1,.14.05,6.48,6.48,0,0,0,2.29-.72,1.59,1.59,0,0,1,1.4,0C6.92,57.89,6.76,57.6,6.65,57.42Z"/><path class="cls-1" d="M43.36.23a3.78,3.78,0,0,0-.5.48l-.09.1.42-.37Z"/><path class="cls-1" d="M.37,56.68a.12.12,0,0,1,0-.16h0A.75.75,0,0,1,0,56.18a2.25,2.25,0,0,0,.63,1.6,8,8,0,0,1-.07-1A2.31,2.31,0,0,1,.37,56.68Z"/><path class="cls-1" d="M132.46,37.46a.69.69,0,0,0,0,.1l.11-.1Z"/><path class="cls-1" d="M11.89,56.71l-.14,0c.08.24.15.48.21.73a2.91,2.91,0,0,0,.28.73l.1,0a8.07,8.07,0,0,0-.28-1.4Z"/><path class="cls-1" d="M83,35.62c-1-2-2.33-4.8-5.06-4.42,0,0,0,0,0,0a18.05,18.05,0,0,0-2,.88,5.48,5.48,0,0,1,5.11,1.73A5.28,5.28,0,0,1,82,36c.14.48.5,2.17,1,2.51.3-.52.65-1.16,1-1.82A2.07,2.07,0,0,1,83,35.62Z"/><path class="cls-1" d="M78.11,40.34a9.15,9.15,0,0,0,1.65,2.27l-.13-.18c-1.21-2-.77-4.3-3.14-5.57s-5.06-1.52-7,.5h0l-.73.8a12.76,12.76,0,0,1,4.4-.87,6.83,6.83,0,0,1,4.64,2.22c.13.15-.08.37-.22.22a6.4,6.4,0,0,0-6.13-1.58l-.51.19a6.71,6.71,0,0,1,4.21,1,6.63,6.63,0,0,1,2,2.54l.82.47c0-.14-.09-.28-.14-.41a6,6,0,0,0-1-1.76s0-.11.06-.06a8.79,8.79,0,0,1,1.57,2.48,8,8,0,0,0,1,.39A21,21,0,0,1,78,40.41C77.94,40.34,78.06,40.27,78.11,40.34Zm-1.31-.29c-.13,0-.07,0-.18-.08s0,0,0,0l.17.08S76.81,40.06,76.8,40.05Z"/><path class="cls-1" d="M80.69,34.67a4.91,4.91,0,0,0-6.08-1.83c-.35.23-.7.47-1,.73a4.6,4.6,0,0,1,4.18.11,6.81,6.81,0,0,1,2.83,5.45c0,.13-.19.15-.23,0-.47-1.54-.82-3.52-2.15-4.59a5,5,0,0,0-5.59-.23c-.65.55-1.27,1.14-1.89,1.76a6.15,6.15,0,0,1,5.65-.17,5.27,5.27,0,0,1,2.79,2.4c.42,1,.46,2.42,1,3.37a5.36,5.36,0,0,0,.72,1.06l.06-.08a7.12,7.12,0,0,0,.31-.76.43.43,0,0,1-.13-.05c-.08-.06,0-.21.08-.15l.12,0A12.92,12.92,0,0,1,82.15,40a2.15,2.15,0,0,1-1.4-1.51c0-.14.23-.17.25,0a1.4,1.4,0,0,0,1.38,1.14c.07-.1.15-.23.25-.4a3.46,3.46,0,0,1-.9-1.33C81.38,36.91,81.26,35.48,80.69,34.67ZM81,40.36a2.16,2.16,0,0,0,.51.86c.1.1-.07.26-.16.15a2.23,2.23,0,0,1-.49-1A.07.07,0,1,1,81,40.36Z"/><path class="cls-1" d="M44.55,48.84s0,0,0-.05c-.87.62-1.69,1.29-2.49,2a2.33,2.33,0,0,1,1.34.13c.07,0,.07.15,0,.15a3.45,3.45,0,0,0-2.31.72,12.08,12.08,0,0,1,5.35,1.42c.41.27.82.55,1.22.84a5.49,5.49,0,0,0-1.38-1.24,17.42,17.42,0,0,0-2.93-1.3,0,0,0,0,1,0,0A8.26,8.26,0,0,1,48.06,54c-1.34-2.08-2.79-4.79-5.65-3.35a.06.06,0,0,1-.06-.11c3.94-2.51,5,3.34,7.58,5A8.5,8.5,0,0,1,49,54C48.06,52.17,47.11,48.82,44.55,48.84Z"/><path class="cls-1" d="M40.9,53.81h0Z"/><path class="cls-1" d="M48.47,54.67h0l0-.06A.17.17,0,0,1,48.47,54.67Z"/><path class="cls-1" d="M12.88,58a2.93,2.93,0,0,1-.23-1,3.18,3.18,0,0,1-.38-.11,3.67,3.67,0,0,1,.42,1.35Z"/><path class="cls-1" d="M41,51.83a4.51,4.51,0,0,0-.54.44,5.54,5.54,0,0,0-.42.42,5.71,5.71,0,0,1,2.48.13c1.57.48,3,1.28,4.57,1.73A15.15,15.15,0,0,0,41,51.83Z"/><path class="cls-1" d="M75.07,40.08a8,8,0,0,0-4.63-1.51l-.8.32a12.44,12.44,0,0,1,5,1.28c.21.13.73.5,1.38.94A6.12,6.12,0,0,0,75.07,40.08Z"/><path class="cls-1" d="M113.3,36.24a.13.13,0,0,1,.15,0l-.55-.45A2,2,0,0,0,113.3,36.24Z"/><path class="cls-1" d="M13.66,56.05a4.43,4.43,0,0,0,.51.06,3.12,3.12,0,0,1,.64-.72l-.21-.06C14.3,55.58,14,55.83,13.66,56.05Z"/><path class="cls-1" d="M14.67,56.09a2.34,2.34,0,0,1,.66-.45,1.71,1.71,0,0,0-.23-.13c-.2.21-.41.42-.61.64a.19.19,0,0,1,.09,0Z"/><path class="cls-1" d="M114.34,37s0,0,0,0l.12.07-.39-.34h0A2.2,2.2,0,0,1,114.34,37Z"/><path class="cls-1" d="M132.59,41.78a.08.08,0,0,1,.08-.13c5.05,2.69,14.43,7.07,19.86,3a2.73,2.73,0,0,0-.83-1.74c-5.12,3.27-13.1,1.39-17.56-2.08-.09-.07,0-.23.13-.16A17.08,17.08,0,0,0,151,42.3a5.35,5.35,0,0,0-.83-.49l-1.11-.56a21.63,21.63,0,0,1-7.3.48c-3.06-.43-5.67-2.06-8.5-3.2-.09,0-.05-.17,0-.14,2.77,1,5.52,2.53,8.56,2.63a39.26,39.26,0,0,0,6-.35A26.7,26.7,0,0,0,145,39.4,29.38,29.38,0,0,1,137,38s0-.09,0-.07a30.47,30.47,0,0,0,5,.75,19.19,19.19,0,0,1-3.22-.58,24.21,24.21,0,0,0-5-.62,3.79,3.79,0,0,0-.83.36,1.74,1.74,0,0,0-.76,1.15,5.46,5.46,0,0,1-1.62,4.16c-.08.07-.21,0-.15-.11.87-1.18,1.71-4.4.23-5.44a.46.46,0,0,1-.12-.12c-1,0-2,0-3.06,0a4.32,4.32,0,0,1-3.31-1.08c-.11-.09,0-.29.16-.2a4.07,4.07,0,0,0,3.21.56A6.33,6.33,0,0,1,124.66,35a36,36,0,0,0-7.32-6.1c-2.16-1.33-4.78-2.63-6.32-4.65a.54.54,0,0,1-.38-.54,6.06,6.06,0,0,1-.93-2.85.13.13,0,0,1,.25,0,7.25,7.25,0,0,0,1,2.13,1.88,1.88,0,0,0-.6-1.92c0-.05,0-.14.08-.1a2.06,2.06,0,0,1,1,1.41c.28-.28.6-.48.69-.91a1.24,1.24,0,0,0-.19-.9c-.37-.6-1.07-.84-1.46-.12-.11.2-.41,0-.31-.19a1.26,1.26,0,0,1,2.16-.1,1.85,1.85,0,0,1,.39,1,2.47,2.47,0,0,0,.16-.77c-.59-1.22-2-2.3-3.31-1.4-.14.09-.3-.12-.18-.22a2.72,2.72,0,0,1,2.77-.22,4.6,4.6,0,0,0-3.81-1.15c-2.07.22-4.08.72-6.13,1.08a11.73,11.73,0,0,1-2.18.18c.7.21,1.4.4,2.11.57,1.29-.13,2.69.37,3.88-.37.11-.07.2.1.1.17a4.9,4.9,0,0,1-2.24.81,7.73,7.73,0,0,1-1.82.14c-4-.25-7.73-2.55-11.7-3.38-4.73-1-9.35-2.57-14.1-3.4-9.11-1.58-18.82-1.87-27.56,1.61a.15.15,0,0,1-.16,0c-.67.29-1.29.64-2,1a10.64,10.64,0,0,1-2.43.52.1.1,0,0,1-.06-.2,25.61,25.61,0,0,0,3.13-1.16,4.81,4.81,0,0,1,2-.78A32.72,32.72,0,0,1,54,12.33c1.36-.89,2.57-2.23,3.74-3.12S60.29,8,61.25,7.08l-.67-.29a6.19,6.19,0,0,0-1.34.6A19.5,19.5,0,0,0,57,9.19a14,14,0,0,1-3.65,2.59c-.09,0-.17-.09-.08-.13,2.46-1.2,4-4.1,6.39-5.28L58.94,6c-2.08.11-4.73,3.46-5.78,4.5a17.11,17.11,0,0,1-5.32,3.84c-.1.05-.2-.1-.09-.15,3.54-1.6,5.49-4.62,8.27-7.13a9.93,9.93,0,0,1,2-1.51l-1.32-.67c-3.26.3-6,4.82-8.16,6.89a27.91,27.91,0,0,1-8.65,5.47c-.07,0-.14-.08-.06-.12A31.6,31.6,0,0,0,51.41,8c1.09-1.35,2.46-3.13,4.17-3.63l-.52-.27a.36.36,0,0,1-.35,0c-2.9-1.27-6.23,4.18-7.85,6a30.94,30.94,0,0,1-6.53,5.55.06.06,0,0,1-.06-.11c3.91-2.6,6.53-6,9.45-9.62,1-1.19,2.16-2.52,3.57-2.72l-1-.5-.06,0c-3.52-.18-5.84,4.87-8,7-1.92,1.92-3.75,4.41-6.18,5.68a.11.11,0,0,1-.11-.19c3.9-2.09,6.57-6.62,9.18-10C48,4,49.37,2.34,51,2c-.34-.15-.69-.31-1-.45C48,1.79,46,4.59,45,5.77c-1.69,2-3.34,4-5,6-.07.07-.17,0-.11-.11,2.37-2.95,4.66-6,7.1-8.85a8,8,0,0,1,1.78-1.69c-.53-.2-1.08-.39-1.62-.57-2.54.91-3.91,4.23-5.41,6.33A46,46,0,0,1,35.7,14c-.09.08-.22,0-.14-.13A59.16,59.16,0,0,0,43.79,2.56,8.16,8.16,0,0,1,45.5.36a.94.94,0,0,0-1-.3c-3.65,3.28-5.76,8-8.8,11.86-1.95,2.47-3.88,4.94-6,7.22a2.61,2.61,0,0,0,.28-.17,14.71,14.71,0,0,0,4.59-4.43c.06-.09.21,0,.15.09A17,17,0,0,1,31,18.86a35.67,35.67,0,0,0,6.89-5.76s.09,0,.07.05a39.59,39.59,0,0,1-9.06,8.16c-3.69,2.63-7.07,5.64-10.67,8.35.73.29,1.31.39,1.63,1.24a2.53,2.53,0,0,0,2,1.69,7.07,7.07,0,0,1,1.45.49c.06,0,0,.12,0,.11-1-.22-2.38-.42-3.09-1.19A3.34,3.34,0,0,1,19.63,31c-.28-.73-.93-.9-1.55-1.2l-1.1.82c1.48,0,2,2.09,3.34,2.68.06,0,0,.12,0,.1-1.43-.56-2.06-2.65-3.69-2.49h0l0,0c-.3.26-.59.53-.88.8a2.69,2.69,0,0,1,2,.53.11.11,0,0,1-.1.18,3.28,3.28,0,0,0-2.75.42,10.69,10.69,0,0,0-1.15.79c-1.25,1.28-2.44,2.62-3.54,4-.68.85-1.32,1.71-1.93,2.58a20,20,0,0,0-1.55,3.51,7,7,0,0,1-1.56,3.24,0,0,0,0,1-.07,0c1-1.25,1.09-2.69,1.49-4.13a58.31,58.31,0,0,0-3.64,7L2.78,50a11.86,11.86,0,0,0,2-2.35c.06-.1.21,0,.16.1a20.77,20.77,0,0,1-3.69,5,14.13,14.13,0,0,0-1,2,2.77,2.77,0,0,0,.15,1.7s0,0,0,0a.1.1,0,0,1,.09,0,5.27,5.27,0,0,0,.63.38h0c2.54,1.27,5.05-.55,7.54-1.47a4.94,4.94,0,0,0-4,.2.06.06,0,0,1-.06-.11A7.25,7.25,0,0,1,11,55.23c.58.15,1.15.36,1.73.56a3.26,3.26,0,0,0,1-.69,1.63,1.63,0,0,1-.31-.11c-.91-.39-1.76-.94-2.7-1.29-.09,0,0-.17,0-.14,1.11.34,2.12,1,3.24,1.27h0a.09.09,0,0,1,.15,0c.62.12,1.34.16,1.73.69a5.91,5.91,0,0,0,1.33,0,.08.08,0,0,1,.07.15c-.44.31-.82.1-1.29.3a2.65,2.65,0,0,0-1.08.94,13.13,13.13,0,0,1-2.14,2.14l-.07.07c-.89,1-1.83,1.91-2.78,2.91A24.28,24.28,0,0,0,7,65.42a1.42,1.42,0,0,0,.16,2.33,1.46,1.46,0,0,1,.32-1.19,19.41,19.41,0,0,1,2.77-3.37,45.83,45.83,0,0,0,3.55-3.27c.06-.06.14,0,.09.09-1.08,1.2-2.38,2.15-3.49,3.32A11.3,11.3,0,0,0,8.6,65.51a6.58,6.58,0,0,0-.8,1.73c.31.47.61.68.9.67.19-.23.38-.45.56-.68,3.07-3.74,8.34-5,12.11-7.94.13-.1.3.06.18.18s-.38.34-.57.5c.87-.37,1.79-.7,2.72-1,1.66-1.73,3.65-3,4.59-5.36.05-.11.21-.06.17,0-.8,2.09-2.48,3.56-4,5.09,2.61-.8,5.31-1.43,7.62-2.33,5.58-2.19,9.2-6.65,14.43-9.24.17-.08.31.16.15.25a22,22,0,0,0-2.06,1.33c4.1-.58,3.69,6.38,6.92,6.94l.07-.08a4.73,4.73,0,0,1-.91-1A10,10,0,0,1,49,51.11c-.36-1.27-1-3.37-2.73-3.11,0,0-.07-.06,0-.07,1.54-.34,2.34.93,2.91,2.19a19.45,19.45,0,0,0,1.42,3.16,5.84,5.84,0,0,0,1.33,1.52,8.62,8.62,0,0,0,.25-1.21A4,4,0,0,1,51.32,52c-.59-1.88-.94-4.14-3-5-.12,0-.07-.24,0-.2a4.26,4.26,0,0,1,2.45,2.6c.33.82.68,2.65,1.45,3.5a12.4,12.4,0,0,1,.2-1.52,2.5,2.5,0,0,1-.5-1,13.81,13.81,0,0,0-.38-1.57,4.78,4.78,0,0,0-1.9-2.33c-.08-.06,0-.18.07-.13A4.76,4.76,0,0,1,52,49a4.61,4.61,0,0,0,.65,1.81c.06-.18.12-.35.19-.52.11-.5.23-1,.39-1.49-.18-.45-.3-1-.5-1.37-.41-.83-1-1.55-2-1.46-.12,0-.15-.19,0-.21a2.11,2.11,0,0,1,2.11.94,11,11,0,0,1,.79,1.18c.09-.22.18-.43.29-.64a2.24,2.24,0,0,0-.53-1.17c-.3-.31-.64-.59-1-.89-.08-.08,0-.23.12-.16a4,4,0,0,1,1.63,1.75c.11-.17.2-.35.31-.51l0,0c-.06-.18-.07-.39-.11-.54-.12-.47-.31-1.11-.91-1a.12.12,0,0,1-.13-.11c-.37.21-.75.41-1.13.59-1.38.67-2.87,1-4.27,1.56a.14.14,0,0,1,0,.27.54.54,0,0,0-.49.21.08.08,0,0,1-.14-.08.85.85,0,0,1,.14-.21c-.07,0-.13-.09,0-.13,1.38-.67,2.87-1,4.27-1.54a13.31,13.31,0,0,0,4.47-3c.06-.06.16,0,.1.1a12.49,12.49,0,0,1-2.59,2.06,1.19,1.19,0,0,1,1.13.8c0,.1.13.28.2.46l.63-.82c0-.51-.14-1.09-.73-1a.07.07,0,0,1,0-.13c.61-.14.92.3,1,.82.17-.22.34-.44.5-.67,0-.41-.06-.93-.54-.74-.11,0-.18-.14-.08-.19.32-.16.72-.19.91.18l.1.22.29-.44v0a1.44,1.44,0,0,0-.51-.7c-.1-.09,0-.25.15-.19a1.33,1.33,0,0,1,.57.58c.13-.23.26-.46.37-.7a.57.57,0,0,0-.56-.38.09.09,0,0,1,0-.17,1,1,0,0,1,.7.26c.08-.19.16-.39.23-.59a1,1,0,0,0-.41-.39.07.07,0,0,1,.07-.13,1.07,1.07,0,0,1,.38.35,6.22,6.22,0,0,0,.17-2.88.11.11,0,0,1,.21-.06,8.26,8.26,0,0,1-1.64,7.1c1.63-1.45,3.17-2.87,2.66-5.49,0-.09.11-.12.13,0,.63,2.88-.9,4.88-2.75,6.74,1.2-.89,2.5-1.72,2.95-3.25,0-.14.23-.08.21.06a4,4,0,0,1-.43,1.25c1-1,2.46-1.75,2.71-3.32,0-.09.16-.07.16,0a4.12,4.12,0,0,1-1.12,2.66l-.34.38.27-.16c3.18-1.95,5.27-4.74,7.7-7.49a23.58,23.58,0,0,1,3.78-3.51,3,3,0,0,0-1.1.2c-.09,0-.15-.11-.07-.15A2.53,2.53,0,0,1,73,32.5a13.84,13.84,0,0,1,8.19-2.45.16.16,0,0,1,.1.28,3.31,3.31,0,0,1,2.77,2.05c.22.56.34,1.14.52,1.71a4.43,4.43,0,0,0,.26.69c.09-.12.2-.23.3-.34a13.28,13.28,0,0,0,.57-1.37,11.62,11.62,0,0,0,0-1.18c-1.2-.46-2.36-2.31-3.73-1.87-.06,0-.11-.08,0-.11,1.53-.72,2.49.76,3.77,1.32a3.72,3.72,0,0,1,.2-1.32,6.54,6.54,0,0,1,1.75-2.27.1.1,0,0,1,.15.12c-.34.61-.67,1.09-.92,1.6A21.67,21.67,0,0,1,89.05,32c.1.12-.07.3-.17.17a32.5,32.5,0,0,0-2.06-2.62,2.89,2.89,0,0,0-.25.95c.64.69,1.32,1.36,1.94,2.08a29.17,29.17,0,0,1,7.2-1c3.6-.12,10.86-.72,13.72,2.2.17.17-.09.42-.27.26-1.75-1.58-5.12-1.85-8.17-1.79,2.4,1,3.54,4.26,4.72,6.48A12.77,12.77,0,0,0,107,40.76a8.24,8.24,0,0,0-.8-1.6c0-.06.05-.14.11-.08a7.84,7.84,0,0,1,1,1.8,3.56,3.56,0,0,0,.35.58,2.56,2.56,0,0,0,1.4.66c-1.22-1.33-2.11-4.85-2.78-5.36,0,0,0-.14.06-.1.94.67,1.94,5.21,3.48,5.38l.19-.08a3.33,3.33,0,0,1-.61-1c-.92-2.21-1.1-4.46-3.36-5.83a0,0,0,1,1,0-.08A6.71,6.71,0,0,1,109,38.56c.49,1.07.73,2.5,1.6,3.11a1.28,1.28,0,0,0,.21-.14l.17-.11a24.55,24.55,0,0,1-1-2.68c-1-2.55-3-5.14-5.92-5.3a.06.06,0,1,1,0-.12c4.51,0,5.73,4.46,7.79,7.61a3.89,3.89,0,0,0-.08-.51,11,11,0,0,0-1.68-3.93c0-.06.06-.11.1-.06a13,13,0,0,1,1.5,3c.2.58.28,1.24.49,1.82a2,2,0,0,1,.6.49,4.3,4.3,0,0,0,.49.47,18.61,18.61,0,0,0-.94-2c0-.05.06-.13.11-.07a11.11,11.11,0,0,1,.93,1.65A1.62,1.62,0,0,0,115,42.9a.22.22,0,0,1,.21.25l.69.17c-1.89-1.53-2.78-4.15-3.85-6.25,0,0,0-.1.07,0,.66,1.15,1.28,2.32,2,3.41a12.86,12.86,0,0,0,3.07,3c.2-1.18-1.79-3.49-2.27-4.17a32.75,32.75,0,0,1-2.79-4.12.1.1,0,0,1,.08-.15,1.31,1.31,0,0,0-.27-.3c-.07-.06,0-.18.07-.12a2.22,2.22,0,0,1,.57.68l.94.51a26.12,26.12,0,0,0-3.7-3.81c-.06,0,0-.15.06-.1,3.19,2.22,5.75,5.12,9,7.24a12.93,12.93,0,0,1,2.45,2,13.07,13.07,0,0,0-2-3.75c-.1-.12.07-.3.18-.18,2,2.32,3.72,5.64,3.65,8.8a.76.76,0,0,1,0,.15,8.59,8.59,0,0,0,3.35.27,5,5,0,0,0,2.9-1.57c.07-.09.19,0,.14.11a3.55,3.55,0,0,1-1.21,1.29c.65,6.11,7.4,12.15,6.6,18.42.16-.23.32-.45.49-.67s.55-.69.83-1.05c-.31-6.69-6.86-11.08-6.61-17.74a.08.08,0,0,1,.15,0c.14,6.34,7.45,10.73,7,17a15,15,0,0,0,.84-1.29c.32-5.85-4.8-9.68-6.79-14.93,0,0,0,0,0,0,1.46,3.52,7,8.37,7.61,13a5.06,5.06,0,0,0-.41-4.13,44.17,44.17,0,0,1-2.12-4c0-.11.09-.24.18-.14.8,1,1.6,2,2.26,3a2.53,2.53,0,0,0-.78-2c-.09-.07,0-.19.11-.14a2.81,2.81,0,0,1,1.3,1.67,6.85,6.85,0,0,0,4.55.21c-2.64.1-5.45-1.86-7.3-3.4,0,0,0-.09.06-.06,2.59,2,5.6,3.36,8.9,2.55a.23.23,0,0,1,.23.09l.75-.46c-4.77.93-10-3.71-13.48-6.28-.14-.1,0-.34.14-.24,4.81,3.31,9.27,7,15.26,5.1.53-.44,1.06-.9,1.59-1.36-5.12,2.49-13.41-2.53-17-5.65-.07-.06,0-.15.09-.1,4.66,3.73,12,6.84,17.91,4.7a.15.15,0,0,1,.17,0,8.62,8.62,0,0,0,1.46-2.6C146.67,49.68,137.63,44.65,132.59,41.78ZM2.4,55.63A2.11,2.11,0,0,1,.92,55.3.1.1,0,0,1,1,55.13a2.62,2.62,0,0,0,1.37.33A.09.09,0,0,1,2.4,55.63ZM3,54.57a2.15,2.15,0,0,1-1.45-.38.07.07,0,0,1,.07-.12A2.38,2.38,0,0,0,3,54.35C3.11,54.34,3.1,54.56,3,54.57Zm.17-1.07a1.51,1.51,0,0,1-.89-.27.12.12,0,1,1,.12-.2,1.86,1.86,0,0,0,.77.23A.12.12,0,0,1,3.13,53.5Zm.4-1a.65.65,0,0,1-.72-.08c-.12-.1,0-.32.14-.23a.45.45,0,0,0,.48.08C3.56,52.22,3.66,52.43,3.53,52.49Zm.77-1H3.71a.19.19,0,0,1,0-.37H4.3A.18.18,0,0,1,4.3,51.47Zm11.22,6.72c0,.07-.17,0-.12-.08a5.65,5.65,0,0,1,.64-.82.06.06,0,0,1,.09.09A4.91,4.91,0,0,0,15.52,58.19Zm12.85-2.52a12.7,12.7,0,0,1-.84,1.19c-.07.08-.2,0-.14-.11.27-.39.58-.76.83-1.16C28.28,55.5,28.42,55.58,28.37,55.67ZM65.7,13.78a18.51,18.51,0,0,1,6.92-.07c.16,0,.09.28-.07.25a18.83,18.83,0,0,0-6.82-.06C65.65,13.91,65.61,13.79,65.7,13.78Zm-1.2,5.4a10.48,10.48,0,0,0,1,1s0,.07,0,0a6.82,6.82,0,0,1-1-1C64.39,19.2,64.45,19.13,64.5,19.18ZM53.88,15.05a11.82,11.82,0,0,1,1.26,2c0,.08-.07.14-.11.07a12,12,0,0,0-1.23-2C53.75,15.07,53.83,15,53.88,15.05ZM51,14.74a4,4,0,0,1,2.7,2.66c.06.14-.14.26-.21.12a4,4,0,0,0-2.54-2.59C50.81,14.9,50.87,14.72,51,14.74Zm-4.37,2.41a7.17,7.17,0,0,1,2.53,2.27c.06.08-.07.16-.13.08a7.54,7.54,0,0,0-2.47-2.23C46.47,17.23,46.54,17.11,46.62,17.15ZM42.49,17a11.66,11.66,0,0,1,4.93,2.88.12.12,0,0,1-.17.17,12.7,12.7,0,0,0-4.81-2.88C42.34,17.13,42.38,17,42.49,17Zm-.13,4.8a3.27,3.27,0,0,1,.75.64,0,0,0,1,1,0,0,5.55,5.55,0,0,0-.75-.61S42.31,21.78,42.36,21.8Zm-3.75-2.87A17.61,17.61,0,0,1,41,20.55s0,.11-.07.07A17.37,17.37,0,0,0,38.57,19S38.57,18.91,38.61,18.93Zm-1.74.48a6.19,6.19,0,0,1,1.4,1.14c0,.06-.06.14-.1.08a8,8,0,0,0-1.36-1.11C36.74,19.47,36.8,19.36,36.87,19.41ZM35,19.73a3.08,3.08,0,0,1,2.33,1.56c.05.08-.07.17-.14.11C36.52,20.74,36,20,35,20,34.82,19.94,34.82,19.72,35,19.73Zm-.66,5.49a.08.08,0,0,1,0,.16A.08.08,0,0,1,34.3,25.22Zm-1.25-1.78a.1.1,0,0,1,0,.21A.1.1,0,1,1,33.05,23.44Zm0,3.57a.14.14,0,1,1,0-.27A.14.14,0,0,1,33.05,27Zm-.25-1.89a.16.16,0,0,1,0-.32A.16.16,0,0,1,32.8,25.12Zm-.17-3.34a.18.18,0,0,1,0,.36A.18.18,0,0,1,32.63,21.78ZM32,20.25a.24.24,0,0,1,.47,0v.05c0,.3-.5.3-.47,0Zm.16,6.66c.14-.08.31.13.18.24l-.13.15c-.11.19-.41,0-.29-.17A.57.57,0,0,1,32.14,26.91Zm.07-3.18a.15.15,0,0,1,0,.3A.15.15,0,0,1,32.21,23.73Zm-.33,1.65a.08.08,0,1,1,0,.16A.08.08,0,1,1,31.88,25.38Zm-.25,2.71a.13.13,0,0,1,0-.25A.13.13,0,0,1,31.63,28.09Zm-.17-5.21a.17.17,0,0,1,0-.33A.17.17,0,0,1,31.46,22.88Zm-.25-1.23.14,0a.11.11,0,0,1,.14.14.34.34,0,0,1,0,.14C31.31,22.12,31,21.79,31.21,21.65Zm0,2.57a.16.16,0,0,1,0,.32A.16.16,0,0,1,31.21,24.22Zm0,2.06a.18.18,0,0,1,0,.36A.18.18,0,0,1,31.21,26.28Zm-.33,2.48a.2.2,0,0,1,0,.4A.2.2,0,0,1,30.88,28.76Zm-.33-5.05a.17.17,0,0,1,0-.33A.17.17,0,0,1,30.55,23.71ZM30.38,26a.17.17,0,0,1,0-.33A.17.17,0,0,1,30.38,26Zm-.08-4.8a.14.14,0,0,1,0,.27A.14.14,0,1,1,30.3,21.16Zm0,7,.06,0a.15.15,0,0,1,0,.25l-.06,0C30,28.63,30,28,30.31,28.14Zm-.75-6.34h0a.16.16,0,0,1,0,.32h0C29.21,22.3,29.21,21.63,29.56,21.8Zm-.31,1.29.08,0a.49.49,0,1,1,0,.95l-.08,0A.48.48,0,0,1,29.25,23.09Zm-.09,3.72c-.25-.1-.08-.48.15-.34a.78.78,0,0,1,.15.1c.14.1.07.36-.12.3A.64.64,0,0,1,29.16,26.81ZM29.1,31s0,0,0,0a.21.21,0,1,1-.41-.06.3.3,0,0,1,.18-.28C29.05,30.59,29.29,30.88,29.1,31Zm.28-5.94a.13.13,0,0,1,0,.26A.13.13,0,0,1,29.38,25.08Zm0,5.07a.13.13,0,0,1,.23,0,.3.3,0,0,1,0,.1c.06.26-.37.26-.31,0A.3.3,0,0,1,29.35,30.15Zm.36-2.59a.15.15,0,0,1,0,.3A.15.15,0,0,1,29.71,27.56Zm-.91,1.63a.15.15,0,0,1,0-.29A.15.15,0,0,1,28.8,29.19Zm-.15-2c.44.26,0,.82-.4.62S28.24,27,28.65,27.23Zm-.86,3.16a.39.39,0,0,1,.34-.09c.17,0,.23.27,0,.32l-.2.08A.18.18,0,0,1,27.79,30.39Zm-.08-1.17a.16.16,0,0,1,0,.32A.16.16,0,0,1,27.71,29.22Zm.5-4.1a.18.18,0,0,1,0,.35A.18.18,0,0,1,28.21,25.12Zm0-2.56h.07a.16.16,0,1,1,0,.32h-.07C28,22.84,28,22.59,28.18,22.56Zm-.24,1.64a.24.24,0,0,1,.27-.26.24.24,0,0,1,.28.26h0a.19.19,0,0,1,0,.13.08.08,0,0,1,0,0,.26.26,0,0,1-.5,0v0a.19.19,0,0,1,0-.13Zm-.06,2.05a.21.21,0,0,1,0,.42A.21.21,0,0,1,27.88,26.25Zm-.48-3a.15.15,0,0,1,.29,0v.09c0,.18-.3.18-.29,0Zm.37,5.17a.49.49,0,0,0,0,.12c-.09.76-1.16.12-.55-.31l.1-.07A.31.31,0,0,1,27.77,28.38Zm-.31,3a.1.1,0,0,1,0-.19A.1.1,0,1,1,27.46,31.39Zm-.33-7.34a.17.17,0,1,1,0,.33A.17.17,0,0,1,27.13,24.05Zm0,1.56a.19.19,0,0,1,0,.37A.19.19,0,0,1,27.13,25.61ZM26.71,30a.18.18,0,0,1,.34,0,.78.78,0,0,1,0,.21.21.21,0,0,1-.42,0A.78.78,0,0,1,26.71,30Zm-.33,1a.19.19,0,0,1,0,.38A.19.19,0,0,1,26.38,31Zm0-2.72a.08.08,0,0,1,0,.16A.08.08,0,0,1,26.38,28.3Zm.24,3.91.09-.07c.14-.1.34.1.24.25l-.07.09A.19.19,0,1,1,26.62,32.21Zm.05-5a.15.15,0,0,1-.1.13H26.5c-.18.05-.22-.21-.07-.25a.12.12,0,0,1,.24,0Zm-.21-1.46a.14.14,0,1,1,0,.28A.14.14,0,0,1,26.46,25.74Zm0-2.14a.19.19,0,0,1,0,.39A.19.19,0,0,1,26.46,23.6Zm-.5.9a.3.3,0,0,1,0,.59A.3.3,0,0,1,26,24.5Zm-1.42,9.68h0a.15.15,0,0,1,0,.07.14.14,0,0,1,0,.11v0h0s0,0,0,0a.2.2,0,0,1-.36,0v0C24.11,34.12,24.42,34,24.54,34.18Zm-.08-2.84a.13.13,0,0,1,0,.25A.13.13,0,0,1,24.46,31.34Zm.05.91c-.05,0,0-.12.07-.09a1.14,1.14,0,0,1,.25.18c.05,0,0,.11-.06.08A.9.9,0,0,1,24.51,32.25ZM25,30.2a.43.43,0,0,1,0,.86A.43.43,0,0,1,25,30.2Zm.33,3.25.08-.08c.12-.12.31.07.19.18l-.09.09C25.35,33.76,25.17,33.57,25.29,33.45Zm.15-1.72,0-.06a.08.08,0,0,1,.15,0,.21.21,0,0,1,0,.06C25.77,32,25.33,32,25.44,31.73Zm.27.65a.08.08,0,1,1,0,.16A.08.08,0,0,1,25.71,32.38Zm0-2.71a1.25,1.25,0,0,1,0-.19c0-.37.63-.26.44.12l0,0a.15.15,0,0,1-.17.08A.13.13,0,0,1,25.74,29.67Zm-.12-2.25c-.06.1-.22,0-.15-.09a.46.46,0,0,1,.2-.19c.1-.06.18.09.09.15Zm-.07-1.12a.17.17,0,0,1,0,.33A.17.17,0,0,1,25.55,26.3Zm-.26,1.89,0-.06a.17.17,0,0,1,.29,0l0,.06C25.81,28.57,25.11,28.57,25.29,28.19Zm-.48-3h.07c.29,0,.53.49.17.64l-.06,0C24.37,26.13,24.29,25.13,24.81,25.19Zm-.39,2a.24.24,0,0,1,.42,0,.34.34,0,0,1,0,.28.26.26,0,0,1-.5,0A.34.34,0,0,1,24.42,27.17Zm0,1.84a.2.2,0,0,1,0,.4A.2.2,0,0,1,24.46,29Zm-.25,4.69c-.08,0-.08-.14,0-.14A.07.07,0,0,1,24.21,33.7Zm-.29-7.62.08,0a.4.4,0,0,1,0,.69l-.08,0C23.1,27.26,23,25.68,23.92,26.08Zm0,4.65a.1.1,0,0,1,0-.2A.1.1,0,1,1,24,30.73Zm-.66-3.4h.08c.17,0,.17.27,0,.27H23.3A.13.13,0,0,1,23.3,27.33Zm.08.89a.41.41,0,0,1,0,.82A.41.41,0,0,1,23.38,28.22Zm.17,4.31a.15.15,0,0,1,0-.3A.15.15,0,0,1,23.55,32.53Zm-.86-2.23s0,0,0,0a.25.25,0,0,1,0-.15.17.17,0,0,1,.3,0,.25.25,0,0,1,0,.15s0,0,0,0h0a.19.19,0,0,1-.38,0Zm-.39-3a.21.21,0,0,1,0,.41A.21.21,0,0,1,22.3,27.34Zm-.09,2v0c-.06.51-.87.51-.81,0a.57.57,0,0,1,.22-.44C21.93,28.59,22.46,28.93,22.21,29.32Zm-.91-1.61a.17.17,0,0,1,0,.33A.17.17,0,0,1,21.3,27.71Zm-.8,1a.08.08,0,0,1,0,0,.1.1,0,0,1-.16,0,.08.08,0,0,1,0,0C19.87,28.41,20.89,28.41,20.5,28.75ZM21.55,32a.13.13,0,0,1,0-.26A.13.13,0,0,1,21.55,32Zm-2-2.93c-.05,0,0-.09,0-.07a5.2,5.2,0,0,1,1.68,1.52,2.85,2.85,0,0,0,2.3,1.11.07.07,0,0,1,0,.14C21.58,32.12,20.92,30,19.53,29.08Zm3.29,5.32a.43.43,0,0,1,.28-.15.13.13,0,1,1,0,.26l-.23,0C22.82,34.57,22.76,34.46,22.82,34.4ZM21,33.8a2.25,2.25,0,0,1,1.22.32.11.11,0,0,1-.08.2A4.39,4.39,0,0,0,21,34.13C20.75,34.12,20.75,33.79,21,33.8ZM5.7,49.89a6.85,6.85,0,0,1-1,.62.05.05,0,1,1,0-.09,3.8,3.8,0,0,1,.94-.66A.08.08,0,0,1,5.7,49.89Zm.14-.15v0a.08.08,0,0,1,0-.1l.06-.05a0,0,0,0,1,.06,0H6C6.29,49.58,5.89,50.05,5.84,49.74Zm.61-.33c-.21.16-.46-.19-.27-.36,2.24-2.1,2.05-5,3.45-7.53a4.32,4.32,0,0,1,2-2.1c1-.48,2.26-.53,3-1.49a.05.05,0,0,1,.09.06A3.07,3.07,0,0,1,13,39.7a6,6,0,0,0-1.56,1.08,4,4,0,0,1,.94-.16A2.37,2.37,0,0,0,14,39.55c.05-.09.17,0,.13.08a2.2,2.2,0,0,1-1,1,5,5,0,0,1,.75.15c.3-.3.62-.53.64-1a.06.06,0,0,1,.12,0,1.61,1.61,0,0,1-.41,1.14l.36.12a1.29,1.29,0,0,0,.3-.69.07.07,0,1,1,.14,0,1.68,1.68,0,0,1-.17.83,3.31,3.31,0,0,1,.33.15,2.16,2.16,0,0,0,0-.36c0-.09.13-.1.15,0a1.91,1.91,0,0,1,.07.52,4.72,4.72,0,0,1,1.95,2.13,4,4,0,0,0-.2-.86c-.41-1-1-2-1.45-3.06,0-.07.08-.11.11-.05.67,1.25,2.07,2.49,2.2,4a4.64,4.64,0,0,1-.61,2.73,5.36,5.36,0,0,1-4,3.32c-1.75.35-3.62,0-4-2,0,0,0,0,0,0a2.53,2.53,0,0,0,3.1,1.74c-.76-.19-1.53-.54-2.14-.73a.07.07,0,0,1,0-.13,7.14,7.14,0,0,0,3.39.32,5.06,5.06,0,0,0,1.8-1A3.35,3.35,0,0,0,17,45.21a4.16,4.16,0,0,0-3.41-3.7c-1.8-.33-3,.58-3.66,2.18h0A23.43,23.43,0,0,1,9,46.06c0,.53.09,1,.15,1.59,0,.05-.07.06-.08,0-.08-.39-.2-.77-.3-1.15-.07.15-.15.3-.23.45a1.48,1.48,0,0,0,.18.79.05.05,0,1,1-.09,0,1.63,1.63,0,0,1-.26-.57A7.45,7.45,0,0,1,6.45,49.41Zm9.78-7.92a.05.05,0,0,1,.09-.06c.13.19.25.38.37.57s-.05.09-.08,0Zm2.21.29a0,0,0,0,1,0,0c1.38,3-.48,6.43-3.1,8.1-.1.06-.2-.08-.12-.15C17.42,47.55,19.71,45.07,18.44,41.78ZM18.06,49c.11-.06.21-.13.32-.18s.08,0,0,.08l-.3.19A.05.05,0,1,1,18.06,49Zm-.61,0c-.07.05-.16,0-.1-.09a5.15,5.15,0,0,0,.76-.86,0,0,0,0,1,.08,0A3,3,0,0,1,17.45,49ZM11,43.46l.06-.07s0,0,0,0l-.06.06S11,43.46,11,43.46Zm2.19.39a1.63,1.63,0,0,1,1.33,1.64,2.05,2.05,0,0,1-.22.66,1.24,1.24,0,0,1-.76.89c-.55.22-.84,0-1.3-.25-.11-.06,0-.2.09-.16a.55.55,0,0,0,.17,0h0l.1,0h.08a.13.13,0,0,1,.09-.1h0c0-.33.08-.5-.31-.67s-.76-.1-.75.36c0,0,0,0,0,.07a.59.59,0,0,0,.06.14.08.08,0,0,1-.14.08A1.76,1.76,0,0,1,13.15,43.85Zm-1.71-1a2,2,0,0,1,2.23-.32s0,.09,0,.07a2.21,2.21,0,0,0-2.16.31S11.41,42.84,11.44,42.81Zm2.91.17c.09,0,.08,0,.14.07a0,0,0,1,1-.06.07l-.1,0C14.27,43.05,14.29,43,14.35,43Zm-.26,4.92a1,1,0,0,1-.5.32s0,0,0,0a.88.88,0,0,0,.49-.31Zm-.91,0a.39.39,0,0,1-.21.13c-.05,0-.07-.06,0-.08l.17-.11A0,0,0,0,1,13.18,47.93Zm2-4.38s0-.07,0,0a2.64,2.64,0,0,1,.38,3s-.06,0,0,0A2.88,2.88,0,0,0,15.19,43.55Zm.08,3.4s0,0,0,0a2,2,0,0,1-.43.45s-.08,0,0-.05A1.8,1.8,0,0,0,15.27,47ZM8,47.87c0-.11.12-.21.19-.11a1.67,1.67,0,0,1,.23.44s-.05.09-.09.07A.65.65,0,0,1,8,47.87Zm12.62,6.62c-1.39.32-2-1.19-2.64-2.14-1.86-2.69-6.7-1.49-9.64-2,0,0,0,0,0,0a36,36,0,0,0,5.19-.08,7.17,7.17,0,0,1,3.16.11c1.75.81,2.09,3.38,3.93,3.88A.11.11,0,0,1,20.66,54.49Zm-1.47-18c.19.33.45.61.66.92,0,.06-.05.13-.1.08a5.16,5.16,0,0,1-.68-.93C19,36.5,19.15,36.43,19.19,36.51Zm2.39,17.4a6,6,0,0,1-.6-1.35c0-.08.1-.12.14,0,.17.44.36.88.56,1.32A.06.06,0,0,1,21.58,53.91Zm.19-14.68c.08-.17.34-.65.06-.79a1.61,1.61,0,0,0-.48-.12,3,3,0,0,1-.93-.28c-.1-.06,0-.2.09-.15.46.24,1,.12,1.48.39s.19.62.06.93a5.45,5.45,0,0,1,.64.32c.14.06,0,.26-.12.2a2.52,2.52,0,0,0-.69-.31A.13.13,0,0,1,21.77,39.23Zm.94.84a.11.11,0,0,1,0-.22A.11.11,0,1,1,22.71,40.07Zm-.32,14c0,.1-.17.12-.18,0-.09-.61-.23-1.22-.32-1.84,0-.1.13-.14.15,0C22.14,52.81,22.31,53.42,22.39,54.05Zm-.05,4.32a1.88,1.88,0,0,1-.54-.7c-.06-.1.09-.19.16-.09a3.13,3.13,0,0,0,.48.65C22.51,58.3,22.42,58.43,22.34,58.37Zm.67-1a1,1,0,0,1-.61-.47c-.11-.19.16-.34.29-.17a4.4,4.4,0,0,0,.46.4A.15.15,0,0,1,23,57.35Zm1.58-14.73a23.46,23.46,0,0,1-1.77-2.21c-.05-.08.07-.14.12-.07.87,1.29,2.7,1.56,2.81,3.3a2.33,2.33,0,0,1-.91,1.76,3.59,3.59,0,0,0-.59.73,1.89,1.89,0,0,0,.18,1.47.06.06,0,1,1-.1.06A2.3,2.3,0,0,1,24,46.57c-.47,1-.58,2.09.83,2.36a.12.12,0,0,1,0,.24c-1.33-.09-1.82-1.6-1.35-2.75S25.63,44,24.59,42.62Zm.52,4.09c0,.08-.11.09-.13,0a4.38,4.38,0,0,1-.1-1.35c0-.1.16-.1.16,0C25.07,45.82,25.09,46.27,25.11,46.71ZM29,56.36c-.08.08-.21,0-.15-.11a.7.7,0,0,0,.16-.6c0-.11.15-.16.17,0A.77.77,0,0,1,29,56.36Zm.93-.81c0-.06,0-.12-.05-.18s.16-.32.27-.15a.55.55,0,0,1,.11.33C30.23,55.75,29.89,55.76,29.88,55.55Zm1.39-4c0,.08-.15,0-.12-.07a1.41,1.41,0,0,0,.11-.45c0-.09.16-.06.16,0A1,1,0,0,1,31.27,51.5ZM40.19,30c-.29-.38-.62-.73-.89-1.12,0-.05,0-.1.08-.05.27.39.6.74.86,1.14C40.26,30,40.21,30,40.19,30Zm4.27-.14-.25-.38h0c.09.12.15.25.25.38ZM46.29,34a5,5,0,0,0-.5-1.11s.06-.11.09,0a4.82,4.82,0,0,1,.5,1.14C46.4,34,46.31,34,46.29,34Zm1.36-2.62a7.85,7.85,0,0,0-2-3.48c-.06,0,0-.11.07-.07a8,8,0,0,1,2,3.52C47.8,31.39,47.68,31.43,47.65,31.35Zm1.27,10.49a.08.08,0,0,1-.16,0c0-2.87.14-5.74-.85-8.49,0-.06.08-.09.1,0A24.73,24.73,0,0,1,48.92,41.84Zm0-14.09c-.39-.64-.86-1.24-1.25-1.88,0-.07.08-.15.12-.07.4.64.86,1.24,1.26,1.87A.08.08,0,0,1,48.9,27.75Zm1.66,6.46c0-.3-.11-.58-.13-.87,0-.05.07-.05.07,0,0,.29.1.58.11.87C50.62,34.25,50.56,34.25,50.56,34.21Zm.76-3.36a2.13,2.13,0,0,1-.25-.5s0-.06,0,0a2.1,2.1,0,0,0,.24.5S51.34,30.88,51.32,30.85Zm.46,5.25c0-.26-.12-.5-.15-.76,0-.1.16-.11.16,0s.1.49.11.75A.06.06,0,0,1,51.78,36.1Zm2.64-5.5a23.45,23.45,0,0,0-2.39-6c0-.07.07-.14.12-.07a20.45,20.45,0,0,1,2.35,6C54.52,30.63,54.43,30.65,54.42,30.6Zm.44,4.74a10.82,10.82,0,0,0-.25-2.6c0-.13.17-.19.2-.06a9.51,9.51,0,0,1,.26,2.66A.11.11,0,0,1,54.86,35.34Zm.76-6.6a11.08,11.08,0,0,0-1-3.23c0-.11.1-.19.15-.09a9.77,9.77,0,0,1,1,3.29C55.82,28.82,55.63,28.85,55.62,28.74Zm1.72,6.46a.12.12,0,0,1,0-.23A.12.12,0,0,1,57.34,35.2Zm.1-2.23c-.12-.41-.14-.84-.26-1.25,0,0,.06-.07.07,0,.11.41.13.84.24,1.26C57.5,33,57.45,33,57.44,33Zm1.43,2.66c0,.17-.33.13-.32,0a29,29,0,0,0-.61-7.25s0,0,.05,0C58.41,30.78,59.22,33.11,58.87,35.63Zm11.95-2.54c-2.93,1.6-5.88,3.22-7.57,6.23,0,0-.1,0-.07,0,1.66-3.16,4.57-4.66,7.59-6.28C70.83,33,70.88,33.06,70.82,33.09ZM72.15,28a20.16,20.16,0,0,0-.64-2.87c0-.1.12-.14.16-.05a10.35,10.35,0,0,1,.61,2.9C72.29,28,72.16,28.06,72.15,28Zm1.46-1.61a8.37,8.37,0,0,0-.86-2.73c-.06-.12.11-.22.17-.1a6.93,6.93,0,0,1,.9,2.8C73.83,26.46,73.63,26.48,73.61,26.37Zm1-4.2A6.24,6.24,0,0,1,73.72,21c-.1-.15.14-.28.24-.14A10.1,10.1,0,0,0,74.8,22C74.9,22.12,74.74,22.28,74.63,22.17Zm7.67-1.56c-4.86.06-9.77.14-14.64.44a17.58,17.58,0,0,1,.8,3.79c0,.13-.22.16-.24,0a24.48,24.48,0,0,0-.81-3.81C52.63,22,38.2,24.81,26.27,34.35a1.91,1.91,0,0,1,.82-.13.12.12,0,0,1,0,.23,4.07,4.07,0,0,0-1.59.94c-.25.23-.49.51-.75.74a5.89,5.89,0,0,1,.84.14.11.11,0,0,1,0,.21,2.6,2.6,0,0,1-.73.08,12,12,0,0,1,4.78,4,6.08,6.08,0,0,1,.59,1.24c.93.59,1.48,1.75,2.49,2.2l.13-.06v0c-.41-.42-.72-1-1.15-1.35-.06-.06,0-.14.09-.09a11.21,11.21,0,0,1,1.07,1,1.84,1.84,0,0,1,.09-.25l.05-.05a.29.29,0,0,1-.36-.2,9.3,9.3,0,0,0-6.48-6.48c-.11,0-.1-.21,0-.21a8,8,0,0,1,7,6.53.29.29,0,0,1-.16.33.17.17,0,0,1,.19.12c0,.15.09.31.12.46.61-.24,1.23-.46,1.85-.69-.43-1.83-.61-3.62-1.76-5.24a7.49,7.49,0,0,0-6-3.36c-.22,0-.21-.32,0-.34,4.58-.53,9.07,3.93,8.71,8.58a6.24,6.24,0,0,0,2.71-2,.39.39,0,0,1,.71.09c.74,2.37-.64,4.08-2.79,5a4.09,4.09,0,0,1-.42.16c.49,1.44-.18,2-1.28,2.22a1.78,1.78,0,0,1-.39.76h0a1.37,1.37,0,0,1-.62.85,1.51,1.51,0,0,1-.18.25.06.06,0,0,1-.11-.06l0-.06-.16.05c-.09.22-.27.35-.38.57,0,.07-.14,0-.11-.06a2.46,2.46,0,0,0,.12-.44h-.06a1.28,1.28,0,0,1-.32.44c0,.49-.33.94-.91.75l-.15-.06a.47.47,0,0,1-.16.21c-.06.05-.15,0-.11-.08a.71.71,0,0,0,.06-.22l-.39-.17L31,51a1.26,1.26,0,0,1-.49.86s-.07,0-.06,0c.09-.21.17-.43.25-.64a1.83,1.83,0,0,1-.32.14,1.81,1.81,0,0,1-.45.88c-.08.07-.22,0-.16-.12a3.91,3.91,0,0,0,.37-.7l-.37.07a2,2,0,0,1-.57,1.06c-.06.07-.16,0-.1-.1a4.28,4.28,0,0,0,.47-.93l-.36,0A2.19,2.19,0,0,1,28.5,53c-.05,0-.14,0-.11-.09.1-.3.27-.57.37-.88,0-.15.1-.31.16-.45h-.16a5.8,5.8,0,0,1-1.24,2.23.08.08,0,0,1-.12-.1,5.84,5.84,0,0,0,.75-1.6,15.22,15.22,0,0,1-4.4,4.46c-.08.06-.16-.08-.08-.14a15.24,15.24,0,0,0,4.86-5.86c.47-2.15,1.13-4,.47-6.23,0-.12.14-.17.18,0A9.33,9.33,0,0,1,29.61,47c.74-3.36,0-6.2-3.52-8.39-2.48-1.56-5.21-2.73-7.53-4.54a.12.12,0,0,1-.08,0,2.1,2.1,0,0,0-1.86-.44,7,7,0,0,0-1.46.63.07.07,0,0,1-.06-.12c.9-.54,2.38-1.47,3.28-.61,1.56.77,3.47,1.53,5.33,2.42h0l.29-.2.33-.18.31-.28s0,0,0,0c11.7-11.45,27-14.35,42.47-14.86a7.26,7.26,0,0,0-1.9-2.89.09.09,0,0,1,.13-.13,7.61,7.61,0,0,1,2,3c5-.15,10-.06,14.87.07A.07.07,0,0,1,82.3,20.61ZM39,39.71c0,.11-.18.14-.2,0a.41.41,0,0,0-.07-.11.11.11,0,1,1,.18-.14A.27.27,0,0,1,39,39.71Zm-.39.06c0,.06-.05.11-.09,0l-.17-.25c0-.06.06-.11.09,0A2.2,2.2,0,0,1,38.59,39.77Zm-1-.34c.05.16-.18.22-.24.07a10.84,10.84,0,0,0-4.25-5.72.08.08,0,0,1,.08-.13A9,9,0,0,1,37.58,39.43Zm-3.7-7.18a1.53,1.53,0,0,1,1.4.76.07.07,0,0,1-.13.07,1.42,1.42,0,0,0-1.27-.73C33.82,32.34,33.81,32.24,33.88,32.25Zm3.8,8.53a1.5,1.5,0,0,1,.09.52.06.06,0,0,1-.11,0,1.18,1.18,0,0,0-.08-.49C37.55,40.74,37.66,40.71,37.68,40.78Zm-.74-4.15c-.1,0-.06-.2,0-.16.64.22.83.92,1.13,1.45A.08.08,0,1,1,38,38C37.66,37.54,37.52,36.84,36.94,36.63Zm.19-1.46a0,0,0,0,1,0,.08A0,0,0,0,1,37.13,35.17ZM32,33.34a4.77,4.77,0,0,1-1.13-.12c-.19-.06-.17-.38.05-.36a7.42,7.42,0,0,1,1.12.23C32.13,33.12,32.11,33.36,32,33.34Zm-3.25-.1a.2.2,0,0,1,0-.39A.2.2,0,1,1,28.71,33.24Zm58.5-11.76a13.54,13.54,0,0,1-2.27-.42c-.13,0-.07-.21,0-.19a18.57,18.57,0,0,0,2.22.33A.14.14,0,0,1,87.21,21.48ZM111.36,34.3c.32-.07.42.11.44.41,0,.12-.17.12-.18,0l-.22-.25C111.3,34.48,111.25,34.32,111.36,34.3Zm-.36.05c0-.05.12,0,.09,0s0,.12-.08.17-.12,0-.09,0Zm11-.44a5.87,5.87,0,0,0,1.69,1.78.1.1,0,0,1-.08.18c-.85-.28-1.22-1.2-1.72-1.87A.07.07,0,0,1,122,33.91Zm-11.38-9.08a.05.05,0,0,1,0,.1A.05.05,0,0,1,110.63,24.83Zm-.43-.76a.08.08,0,0,1,.15,0l.09.1c.34.23-.28.58-.3.17A.51.51,0,0,1,110.2,24.07Zm-.4.11-.09.24a.17.17,0,0,1-.32-.09c0-.08,0-.16.07-.25S109.89,24,109.8,24.18Zm-3.3-4.65a1.86,1.86,0,0,1,3,.22c.05.09-.08.19-.14.11a1.54,1.54,0,0,0-2.35,0,1.45,1.45,0,0,0,.21,2.15c.4.21.7-.38.78-.69.12-.47,0-.68-.52-.6-.25,0-.45-.32-.18-.45,2.14-1,1.37,3.19-.32,2.3A2,2,0,0,1,106.5,19.53Zm-2.39,2.31c1,1.45,3.51,2.67,4.79.95a.17.17,0,0,1,.31.13c-.67,2.81-4.44.54-5.22-1C104,21.83,104.05,21.78,104.11,21.84Zm-13,.61a5.09,5.09,0,0,1-1.81-.64c-.13-.07,0-.25.11-.19.57.24,1.15.42,1.73.61C91.24,22.26,91.22,22.47,91.09,22.45ZM110,34.3a1,1,0,0,0,.61.31.11.11,0,0,1,0,.21.71.71,0,0,1-.78-.39C109.72,34.33,109.88,34.21,110,34.3Zm13.6,7.29,0,0s0-.07,0,0,.06,0,.07.08A0,0,0,1,1,123.56,41.59Zm1.4,3c-.28,0-.56-.12-.84-.18s-.09-.22,0-.23a2.09,2.09,0,0,1,.86.08C125.17,44.36,125.16,44.66,125,44.63Zm6.73,1.86c-.93-1.16-1.93-2.28-3-3.36a3.6,3.6,0,0,1-.52.43c-.11.07-.23-.09-.14-.18s.29-.33.43-.49l-.74-.76a8.39,8.39,0,0,1-1.83,1.32.06.06,0,1,1-.06-.1,9.86,9.86,0,0,0,1.66-1.43c-.18-.19-.38-.37-.57-.55a5.76,5.76,0,0,1-1.9,1.09.13.13,0,0,1-.07-.24,4.86,4.86,0,0,0,1.72-1.09,64.45,64.45,0,0,0-8.37-6.62l0,.06a.1.1,0,1,1-.17-.1l0-.07-.69-.47-.33.48c-.11.15-.35,0-.25-.15l.33-.49A94.55,94.55,0,0,0,94.12,23.25c-.05,0,0-.09,0-.08A75.31,75.31,0,0,1,117.78,33l0,0c.1-.12.32,0,.22.17h0c.22.14.42.29.63.43.1-.15.18-.31.27-.45a.13.13,0,0,1,.23.13c-.09.16-.19.31-.29.46a53.83,53.83,0,0,1,8.33,6.91c.65-.72,1.22-1.52,1.89-2.21.09-.1.25,0,.18.15a11.81,11.81,0,0,1-1.8,2.34l.51.52a15.56,15.56,0,0,1,1.29-1.51.12.12,0,0,1,.19.15,8.42,8.42,0,0,1-1.25,1.61c.23.24.45.5.67.75.19-.24.37-.49.56-.74a.12.12,0,0,1,.21.13,4.94,4.94,0,0,1-.54.88,44.6,44.6,0,0,1,2.84,3.58C132,46.44,131.8,46.62,131.69,46.49ZM134,49a9.85,9.85,0,0,1,1,.92,6.6,6.6,0,0,1,1.25,1.54.09.09,0,0,1-.15.11,16.18,16.18,0,0,1-1.24-1.5c-.26-.3-.54-.58-.82-.85,0,0-.08,0-.1,0s-.05-.09-.07-.14-.26-.25-.4-.36,0-.12.06-.08l.19.15a17.57,17.57,0,0,0-1.26-1.75s.05-.11.09,0A11.42,11.42,0,0,1,134,49Z"/><path class="cls-1" d="M31.74,44.55a13.93,13.93,0,0,1-1.14-1.38,6.3,6.3,0,0,1,0,.75,7,7,0,0,1,.79.85Z"/><path class="cls-1" d="M13.83,57l-.17,0,.07.09Z"/><path class="cls-1" d="M39,41.64a7.51,7.51,0,0,1-2.52,1.62,2.76,2.76,0,0,0-.5.46c-.17.21-.44.67-.7.8-.85.42-1.92.15-2.63.88a.08.08,0,0,1-.12-.12c.75-.8,2.36-.34,2.88-1.34a1.59,1.59,0,0,1,.15-.21.34.34,0,0,1-.09-.08c-1.89.67-3.85,1.2-5.18,2.89h0l-.08.29a.76.76,0,0,1,.38-.19C33.57,45.07,39.65,45.76,39,41.64Z"/><path class="cls-1" d="M13.18,57a3.64,3.64,0,0,1,.12.53l.13-.13.06-.06a1.22,1.22,0,0,1-.14-.33Z"/><path class="cls-1" d="M12.93,55.85l.44.13a11,11,0,0,0,.93-.72l-.42-.1A3.79,3.79,0,0,1,12.93,55.85Z"/></g></g></svg>