<svg xmlns="http://www.w3.org/2000/svg" viewBox="0 0 141.46 140.15"><defs><style>.cls-1{fill:#fff;}</style></defs><title>tyrell</title><g id="Layer_2" data-name="Layer 2"><g id="Layer_2-2" data-name="Layer 2"><path class="cls-1" d="M141.28,51.1a9.78,9.78,0,0,1-3.2.26,3.49,3.49,0,0,0-2.39.25,4.51,4.51,0,0,1-1.59.73,6.13,6.13,0,0,1-4.6.59c-.12,0-.08-.18,0-.17a6.35,6.35,0,0,0,4-1.15c.16-.1.31-.22.47-.33a5.37,5.37,0,0,1,1-.82c-.69-.54-1.3-1.36-2.24-1.27-1.59.15-2.63,1.62-4.26,1.69,0,0,0,0,0,0a4.33,4.33,0,0,0,1.76-1.29c-.64,0-1.31-.26-1.95-.33a6.31,6.31,0,0,0-2.11.69,5.86,5.86,0,0,1-2.62,1.76s0,0,0,0c-.63.1-1.5.32-1.61,1.1a7,7,0,0,1-.12.78,3.78,3.78,0,0,1-.5,1.08,5.88,5.88,0,0,1-1.75,1.58c-.09.06-.18-.08-.1-.15a5.64,5.64,0,0,0,1.75-1.79c.29-.67,0-1.23.22-1.87.25-1,1.14-1.13,2-1h0a2.38,2.38,0,0,0,.83-.52l-.09,0c-.54.1-1.1,0-1.85.13-2.06.26-2.71,2-3.67,3.56a.1.1,0,0,1,0,0,7.19,7.19,0,0,1-1.5,1.9A10.74,10.74,0,0,1,112,58.93c-.1,0-.15-.13,0-.15,2.3-.57,4.7-1.7,5.8-3.94.2-.42.36-.8.52-1.16-1,.35-2.08,0-2.9.89s-1.55,1.87-2.92,2c-.17,0-.18-.24,0-.27a1.69,1.69,0,0,0,1-.48c-.5-.2-1-.51-1.51-.25a12.5,12.5,0,0,0-1.21.78l-.5.29c-.07.2-.13.41-.19.62a3.35,3.35,0,0,1,1.89-.85c.09,0,.13.14,0,.16a3.18,3.18,0,0,0-2.17,1.93c0,.17,0,.33,0,.5a6.17,6.17,0,0,1,1.87-1.48c1.13-.61,2.8-.38,3.7-1.42A7.55,7.55,0,0,1,117,54.25c.09,0,.18.08.09.13-.9.56-1.21,1.51-1.89,2.26a3.6,3.6,0,0,1-1.7.82c-1.51.42-3.11,1.17-3.67,2.71a7.87,7.87,0,0,1,1.58-1.07c.06,0,.11,0,.06.08a8,8,0,0,0-1.32,1.27,3.51,3.51,0,0,0-.39.74,2,2,0,0,0,0,.24c4.16-1.56,10.64-2.6,13.47-5.81.72-.8,1.53-.65,2.49-.48,3.72.66,6.55-1,9.76-2.37.2-.08.29.23.11.31-2.17,1-4.6,2.55-7,2.88-1.44.2-3.84-.35-4.82,1.15a5.15,5.15,0,0,1-.86,1.24c-2,1.33-4.57,1.4-6.92,1.95-2,.48-4,1-6,1.66l0,0a3.47,3.47,0,0,0,.75.36,7.39,7.39,0,0,0,1.82.24c.06,0,.06.09,0,.1a8.17,8.17,0,0,1-1.91.08c1.36.9,3.1.56,4.57,0a3.7,3.7,0,0,1,1.85-.36c1,.21,1.8.79,2.86.7.1,0,.11.15,0,.16a7.59,7.59,0,0,1-2.53-.42c-1.33-.3-2.55.88-3.81,1.06a6.07,6.07,0,0,1-2.39-.08l.34.38a3.15,3.15,0,0,0,2.88.26c.09,0,.16.1.08.15a3.43,3.43,0,0,1-2,.44c.17.13.34.27.52.39l.58-.07a13.72,13.72,0,0,0,1.43-.09c.6-.12.8-.64,1.07-1.1a1.71,1.71,0,0,0-1.07.19c-.15.07-.3-.13-.15-.23,1.17-.71,2.27-.34,3.53-.13s1.89-.73,2.87-1c-.35-.2-.71-.41-1.12-.62-2.22-1.15-4.81-.63-7,.27-.1,0-.15-.11,0-.15a10.76,10.76,0,0,1,5.54-1.13A7,7,0,0,1,121,62h0c1.71.69,3.26,1.7,5.07.68.66-.37,1.08-.75,1.57-1a.47.47,0,0,1,.05-.1,2.23,2.23,0,0,0-1,.08h0c-.6.65-1.42,1-2.19.42-.51-.42-.65-1-1.28-1.38a5.76,5.76,0,0,0-2.47-.4c-.11,0-.13-.17,0-.18a6.15,6.15,0,0,1,2.34.23,4.14,4.14,0,0,1,1,.58,5.92,5.92,0,0,1,.56.56c.55.55,1.38.22,1.94-.08a.1.1,0,0,1,.09,0,6,6,0,0,1,3.13-.12,6.36,6.36,0,0,0,2.08-.68c.49-.45.91-1,1.41-1.44a4.27,4.27,0,0,0-2.19,0s0,0,0,0c1.35-.91,3-.35,4.43-1.18.81-.48.81-1.5,1.05-2.35a5.16,5.16,0,0,1-1.29-.06h-.58A6.35,6.35,0,0,0,131,57.05c-.09.08-.22,0-.14-.12a6.23,6.23,0,0,1,4.08-2.26,4.4,4.4,0,0,1,1.69-.35c.85,0,1.46-.71,2.07-1.22a9.71,9.71,0,0,1,2.81-1.72A.43.43,0,0,1,141.28,51.1Z"/><path class="cls-1" d="M73.28,102.74a4,4,0,0,1-.74-1.09,6,6,0,0,1-.4-3.1s.09-.06.09,0a4.59,4.59,0,0,0,1.1,3.7l.53.48c0-.57.32-1.11,0-1.68a2.62,2.62,0,0,1-.56-1.87.08.08,0,0,1,.15,0,.91.91,0,0,0,.09.6c.19-.23.43-.42.38-.76a7.34,7.34,0,0,0-.21-.77,2.84,2.84,0,0,1-.06-.31l-.31-.21a1.87,1.87,0,0,1,.14,1.15,0,0,0,0,1-.09,0,1.75,1.75,0,0,0-.67-1.47l-.24-.11A3.44,3.44,0,0,1,73,98.57c.13.69-.27,1.53.13,2.18a4.26,4.26,0,0,1,.67,1.24,0,0,0,0,1-.09,0c-.14-.57-.59-.89-.87-1.37a2,2,0,0,1-.15-1,2.8,2.8,0,0,0-.81-2.39,4.53,4.53,0,0,1,.3,1s0,0-.06,0a4.17,4.17,0,0,0-.44-.9,1.72,1.72,0,0,0-.33-.33l-.14,0c.13,2.45-.4,6,.82,8.06.31.51.09.91-.16,1.38-1,1.85-.57,3.61-.38,5.53,0,.12-.17.12-.18,0a15.35,15.35,0,0,1-.35-4.16c.14-.79.83-2,.2-2.72a3,3,0,0,1-.51-.67c-.36-1.28,0-2.63.13-4,.08-1.16.13-2.29.12-3.45h0a1.68,1.68,0,0,0-.32.33,3.76,3.76,0,0,0-.42.91s-.06,0-.06,0a4.38,4.38,0,0,1,.28-1,2.78,2.78,0,0,0-.76,2.4,2.17,2.17,0,0,1-.12,1c-.28.48-.72.81-.85,1.38,0,.06-.09,0-.08,0a4,4,0,0,1,.64-1.26c.38-.65,0-1.48.08-2.18a3.19,3.19,0,0,1,.44-1.24l-.25.11A1.73,1.73,0,0,0,68.79,99c0,.05-.08.06-.09,0a1.89,1.89,0,0,1,.12-1.14l-.3.21-.06.32a6.49,6.49,0,0,0-.19.76c0,.34.2.53.4.75a1,1,0,0,0,.08-.59c0-.09.12-.14.14,0a2.55,2.55,0,0,1-.52,1.87c-.29.58.07,1.12,0,1.68.17-.15.33-.3.52-.49a4.61,4.61,0,0,0,1-3.72c0-.06.08-.06.09,0a6,6,0,0,1-.33,3.1,3.93,3.93,0,0,1-.72,1.11.06.06,0,0,1,0,0c-.65.78-1.44,1.43-1.2,2.55.08.41.21.7.25,1l0,0a1.19,1.19,0,0,0,.13-.53h0c-.25-.42-.32-.91.14-1.22.3-.2.64-.17.93-.44a3.13,3.13,0,0,0,.63-1.23c0-.06.11,0,.09,0a3.35,3.35,0,0,1-.51,1.2,2.06,2.06,0,0,1-.48.45,2.75,2.75,0,0,1-.38.2c-.39.2-.35.69-.29,1,0,0,0,0,0,0a3.34,3.34,0,0,1-.46,1.68,3.51,3.51,0,0,0,0,1.21c.15.33.38.64.52,1a2.39,2.39,0,0,0,.36-1.16h0c.26.87-.32,1.67-.12,2.53.12.5.66.67,1.07.94a3.28,3.28,0,0,1,.23-.64,1.91,1.91,0,0,0,.1-.34,3.4,3.4,0,0,0-.11-2.27c0-.06.05-.11.09,0a3.41,3.41,0,0,1,.51,2.52,2.56,2.56,0,0,1-.09,1,1.86,1.86,0,0,0,.29,1.29,5.49,5.49,0,0,1,.44,1.76.22.22,0,0,1,.18,0,5.5,5.5,0,0,1,.39-1.73,1.94,1.94,0,0,0,.27-1.3,2.56,2.56,0,0,1-.12-1,3.41,3.41,0,0,1,.45-2.53.05.05,0,0,1,.09,0,3.49,3.49,0,0,0-.06,2.28c0,.11.07.22.11.33a2.65,2.65,0,0,1,.25.64c.4-.28.94-.46,1-1,.19-.87-.41-1.66-.18-2.52,0,0,0,0,0,0a2.34,2.34,0,0,0,.38,1.14c.14-.34.36-.66.5-1a3.46,3.46,0,0,0,0-1.2,3.32,3.32,0,0,1-.49-1.68s0,0,0,0c.06-.35.08-.84-.31-1a3.49,3.49,0,0,1-.39-.19,2.57,2.57,0,0,1-.49-.44,3.4,3.4,0,0,1-.53-1.18,0,0,0,0,1,.09,0,3.27,3.27,0,0,0,.65,1.22c.31.26.64.23,1,.42.46.29.4.79.17,1.22h0a1.54,1.54,0,0,0,.14.53l0,0c0-.31.16-.59.24-1,.21-1.14-.6-1.76-1.26-2.53Z"/><path class="cls-1" d="M67.44,104.24h0Z"/><path class="cls-1" d="M67.65,102.18a1.37,1.37,0,0,1-.07-.87s0-.09,0-.14a0,0,0,0,1,0-.07,1.17,1.17,0,0,0,0-1.47.89.89,0,0,1-.18-.41,5.2,5.2,0,0,0-.64,3.92,6.28,6.28,0,0,0,.44,1.24v0s0,0,0,0a3.65,3.65,0,0,0,.51-2A.72.72,0,0,1,67.65,102.18Z"/><path class="cls-1" d="M73.86,100.21a.43.43,0,0,1,0-.11l-.06,0Z"/><path class="cls-1" d="M68.38,100.17s0,.07,0,.1l.07-.08Z"/><path class="cls-1" d="M39.53,89.17l0,0h-.08Z"/><path class="cls-1" d="M67.27,108.93l.07,0,0-.08Z"/><path class="cls-1" d="M104.94,81.18l.06,0a.14.14,0,0,0,0-.07Z"/><path class="cls-1" d="M47.33,85.24l.09,0,0,0A.47.47,0,0,0,47.33,85.24Z"/><path class="cls-1" d="M75.05,104.27s0,0,0,0a6.54,6.54,0,0,0,.41-1.25,5.27,5.27,0,0,0-.72-3.9.89.89,0,0,1-.18.41,1.18,1.18,0,0,0,.06,1.47,0,0,0,0,1,0,.07.78.78,0,0,1,0,.14,1.3,1.3,0,0,1,0,.87,1.51,1.51,0,0,1-.11.22,3.6,3.6,0,0,0,.54,1.93S75.05,104.26,75.05,104.27Z"/><path class="cls-1" d="M98.19,87.05l0,0h0Z"/><path class="cls-1" d="M100.6,79.83h0A6,6,0,0,0,99.56,79a5.21,5.21,0,0,0-3.92-.53.91.91,0,0,1,.33.29,1.17,1.17,0,0,0,1.42.41,0,0,0,0,1,.06,0h.14a1.36,1.36,0,0,1,.82.33.91.91,0,0,1,.17.17,3.59,3.59,0,0,0,2,.09S100.6,79.82,100.6,79.83Z"/><path class="cls-1" d="M43.84,87.64v0a6.38,6.38,0,0,0,1.31,0,5.21,5.21,0,0,0,3.48-1.9,1.15,1.15,0,0,1-.45,0,1.15,1.15,0,0,0-1.37.52s0,0-.08,0l-.1.09a1.36,1.36,0,0,1-.85.22.86.86,0,0,1-.24,0,3.66,3.66,0,0,0-1.67,1.13Z"/><path class="cls-1" d="M94.62,84.87l.1,0a.41.41,0,0,1,0-.09Z"/><path class="cls-1" d="M96.37,79.69l-.1,0s0,0,0,.07Z"/><path class="cls-1" d="M100.46,79.94h0Z"/><path class="cls-1" d="M93.88,85.42a.84.84,0,0,1-.44,0A5.2,5.2,0,0,0,97,87.29a7.13,7.13,0,0,0,1.31,0h0a3.63,3.63,0,0,0-1.69-1.08.85.85,0,0,1-.23,0,1.36,1.36,0,0,1-.86-.2.87.87,0,0,1-.11-.09,0,0,0,0,1-.07,0A1.16,1.16,0,0,0,93.88,85.42Z"/><path class="cls-1" d="M74.9,104.17l0,0v0Z"/><path class="cls-1" d="M75.09,108.89a.18.18,0,0,1,.07,0l0,0Z"/><path class="cls-1" d="M104.68,81.72a3.58,3.58,0,0,0-1.15-.36,3.31,3.31,0,0,1-1.74-.06s0,0,0,0c-.31-.17-.77-.34-1.07,0-.1.1-.2.22-.31.31a2.14,2.14,0,0,1-.57.32,3.31,3.31,0,0,1-1.29.14,0,0,0,1,1,0-.09,3.28,3.28,0,0,0,1.36-.24c.35-.21.42-.53.7-.77s.87-.14,1.21.22h0a1.24,1.24,0,0,0,.54,0,.42.42,0,0,1,0-.06c-.27-.12-.51-.32-.88-.52-1-.55-1.85,0-2.79.41h0a3.94,3.94,0,0,1-1.27.36,6,6,0,0,1-3.07-.58c-.05,0,0-.11,0-.09a4.61,4.61,0,0,0,3.86.11l.62-.35c-.55-.15-1-.66-1.59-.54a2.63,2.63,0,0,1-2,0c-.08,0,0-.17.08-.13a.93.93,0,0,0,.59.1c-.15-.25-.26-.54-.6-.6a6.85,6.85,0,0,0-.79,0l-.31,0a2.1,2.1,0,0,0-.3.22,1.85,1.85,0,0,1,1.13.22s0,.11,0,.08a1.78,1.78,0,0,0-1.6.18c-.06.07-.12.13-.17.2A3.3,3.3,0,0,1,94.54,80c.69.09,1.37.73,2.11.56A4.11,4.11,0,0,1,98,80.34a0,0,0,0,1,0,.09,5.34,5.34,0,0,0-1.57.4,2,2,0,0,1-1-.18,2.74,2.74,0,0,0-2.51,0,3.94,3.94,0,0,1,1,0s0,.05,0,.06a3.77,3.77,0,0,0-1,.14,1.56,1.56,0,0,0-.41.2l-.06.13c2.37.64,5.6,2.27,7.9,1.74.58-.13.9.2,1.27.59,1.45,1.49,3.25,1.66,5.13,2.09.12,0,.06.19,0,.17a15.14,15.14,0,0,1-4.06-1c-.71-.38-1.61-1.4-2.53-1a3,3,0,0,1-.79.27c-1.33-.06-2.49-.84-3.72-1.35-1.07-.44-2.13-.85-3.23-1.2v0a1.49,1.49,0,0,0,.22.41,4,4,0,0,0,.73.69s0,.06,0,0a4.73,4.73,0,0,1-.88-.58,2.78,2.78,0,0,0,2,1.47,2,2,0,0,1,1,.44c.37.41.55.93,1,1.23,0,0,0,.1,0,.08a4.13,4.13,0,0,1-1-1c-.5-.56-1.43-.42-2-.75a3.3,3.3,0,0,1-1-.81,2.11,2.11,0,0,0,0,.26,1.76,1.76,0,0,0,1.21,1.07c.06,0,0,.1,0,.09a1.87,1.87,0,0,1-1-.46,3.38,3.38,0,0,0,.11.34,2.4,2.4,0,0,1,.27.16,5.92,5.92,0,0,0,.68.42c.31.14.56,0,.83-.14a1,1,0,0,0-.54-.27.08.08,0,0,1,0-.15c.75.06,1.12.58,1.62,1.08s1.08.28,1.61.48l-.3-.64a4.61,4.61,0,0,0-3.22-2.14c-.06,0,0-.1,0-.09a6.13,6.13,0,0,1,2.85,1.29,3.73,3.73,0,0,1,.83,1l0,0c.54.86.91,1.81,2,1.94.42,0,.73,0,1,.06l0,0a1.27,1.27,0,0,0-.46-.28s0,0,0,0c-.48.1-1,0-1.11-.52-.1-.35,0-.66-.13-1a3.24,3.24,0,0,0-1-1s0-.12,0-.08a3.48,3.48,0,0,1,1,.85,2.73,2.73,0,0,1,.28.6,3.21,3.21,0,0,1,.07.43c.07.43.55.55.9.59,0,0,0,0,0,0a3.26,3.26,0,0,1,1.46,1,3.37,3.37,0,0,0,1.15.37c.36-.05.73-.16,1.09-.19a2.31,2.31,0,0,0-1-.7s0,0,0,0c.9,0,1.48.83,2.36.91.52,0,.85-.42,1.23-.72a3.36,3.36,0,0,1-.53-.42l-.29-.2a3.47,3.47,0,0,0-2.19-.61.05.05,0,0,1,0-.1,3.42,3.42,0,0,1,2.56.31,2.41,2.41,0,0,1,.87.38,1.87,1.87,0,0,0,1.32.12,5.5,5.5,0,0,1,1.81.14.22.22,0,0,1,0-.18,5.52,5.52,0,0,1-1.52-.92c-.34-.28-.68-.66-1.15-.66a2.27,2.27,0,0,1-.93-.18A3.43,3.43,0,0,1,104,83.78s0-.11.08-.07a3.52,3.52,0,0,0,2.14.77h.35a2.67,2.67,0,0,1,.68,0c-.13-.47-.14-1-.59-1.29-.76-.45-1.7-.13-2.45-.62,0,0,0,0,0,0a2.48,2.48,0,0,0,1.21,0C105.18,82.27,105,82,104.68,81.72Z"/><path class="cls-1" d="M102.6,88.68l.06-.05h-.08Z"/><path class="cls-1" d="M43.89,87.46h0v0Z"/><path class="cls-1" d="M54,44.09h-.08l.07,0Z"/><path class="cls-1" d="M58.14,50.63s.06,0,.06,0A1.16,1.16,0,0,0,59,51.89a.93.93,0,0,1,.38.23,5.17,5.17,0,0,0-1.75-3.56,6.51,6.51,0,0,0-1.07-.76v0s0,0,0,0a3.71,3.71,0,0,0,.71,1.87.91.91,0,0,1,.22.11,1.38,1.38,0,0,1,.57.67A.7.7,0,0,1,58.14,50.63Z"/><path class="cls-1" d="M49,48.06h0a2.28,2.28,0,0,0-1-.71c.09.35.09.73.17,1.09a3.58,3.58,0,0,0,.7,1,3.23,3.23,0,0,1,1.37,1.08h0c.15.32.42.74.84.67a3.21,3.21,0,0,1,.43-.07,2.13,2.13,0,0,1,.66.08,3.16,3.16,0,0,1,1.12.65s0,.11-.06.08A3.15,3.15,0,0,0,52,51.31c-.4,0-.65.18-1,.2-.55,0-.79-.41-.85-.89h0a1.08,1.08,0,0,0-.42-.35.11.11,0,0,1,0,0c.15.26.21.57.39,1,.49,1,1.5,1.09,2.49,1.33,0,0,0,0,0,0a4,4,0,0,1,1.27.46A5.91,5.91,0,0,1,56,55.38s0,.1-.07,0a4.61,4.61,0,0,0-3-2.38L52.16,53c.35.45.38,1.1,1,1.38s1.25.5,1.54,1.2c0,.09-.1.14-.14.05a1,1,0,0,0-.42-.43c0,.3-.11.59.13.84a7.37,7.37,0,0,0,.61.5,2.39,2.39,0,0,1,.23.22h.36a2,2,0,0,1-.77-.85s.06-.09.09,0a1.76,1.76,0,0,0,1.39.81l.26-.06a3.46,3.46,0,0,1-1.1-.73c-.51-.49-.67-1.41-1.37-1.7a4.51,4.51,0,0,1-1.26-.63s0-.11.06-.07c.44.38,1,.38,1.5.61a2,2,0,0,1,.72.76,2.77,2.77,0,0,0,2,1.47,4,4,0,0,1-.83-.65s0-.07,0-.05a4,4,0,0,0,.89.48,1.93,1.93,0,0,0,.46.08l.11-.06c-1.52-1.93-3.15-5.16-5.31-6.1-.55-.24-.61-.69-.68-1.23C51.38,46.69,50,45.48,48.78,44c-.08-.09.06-.2.14-.11a14.89,14.89,0,0,1,2.69,3.19c.35.73.46,2.08,1.42,2.34a2.9,2.9,0,0,1,.79.25c1,.84,1.51,2.16,2.19,3.3s1.22,1.94,1.89,2.88l0,0a2.13,2.13,0,0,0,.06-.45,3.68,3.68,0,0,0-.18-1s0-.06.05,0a3.94,3.94,0,0,1,.37,1A2.77,2.77,0,0,0,57.45,53a2,2,0,0,1-.5-.91,5.58,5.58,0,0,0-.11-1.63c0-.05,0-.08.08,0a4.13,4.13,0,0,1,.2,1.4c.07.75.89,1.19,1.2,1.82a3.47,3.47,0,0,1,.36,1.27,2.53,2.53,0,0,0,.13-.22,1.73,1.73,0,0,0-.33-1.58,0,0,0,0,1,.06-.06,1.82,1.82,0,0,1,.57,1c0-.12.09-.23.12-.35s-.09-.2-.13-.29a6,6,0,0,0-.29-.74c-.17-.3-.47-.31-.76-.38a1,1,0,0,0,.28.53c.07.07,0,.18-.09.12-.58-.49-.57-1.13-.67-1.83s-.7-.87-1-1.34c-.05.22-.1.44-.14.7a4.63,4.63,0,0,0,1.32,3.63s0,.09-.07,0a6,6,0,0,1-1.53-2.72,4.09,4.09,0,0,1,0-1.35v0c.07-1,.34-2-.5-2.77-.31-.29-.58-.44-.79-.67h0a1.26,1.26,0,0,0,.21.51h0c.44.21.79.56.59,1.07-.13.34-.42.51-.51.91a3.17,3.17,0,0,0,.2,1.36c0,.06-.07.1-.09,0a3.33,3.33,0,0,1-.27-1.27A2.09,2.09,0,0,1,55,48.6a3.49,3.49,0,0,1,.19-.39c.2-.38-.11-.76-.37-1,0,0,0,0,0,0a3.35,3.35,0,0,1-.61-1.64,3.24,3.24,0,0,0-.71-1c-.32-.18-.68-.31-1-.5a2.45,2.45,0,0,0,.38,1.15h0c-.71-.56-.7-1.55-1.37-2.13-.39-.34-.92-.17-1.41-.15a2.66,2.66,0,0,1,.18.66c0,.11.07.22.11.33a3.53,3.53,0,0,0,1.41,1.79,0,0,0,0,1,0,.09,3.42,3.42,0,0,1-1.88-1.76,2.52,2.52,0,0,1-.47-.83c-.14-.45-.62-.65-1-.88A5.79,5.79,0,0,1,47,41.16a.16.16,0,0,1-.11.13,5.92,5.92,0,0,1,.68,1.64,1.92,1.92,0,0,0,.53,1.22,2.37,2.37,0,0,1,.64.7,3.36,3.36,0,0,1,1.1,2.32.05.05,0,1,1-.1,0,3.53,3.53,0,0,0-1.27-1.88,3.15,3.15,0,0,0-.29-.22,2.72,2.72,0,0,1-.56-.37c-.17.46-.5.92-.3,1.4C47.71,46.92,48.66,47.22,49,48.06Z"/><path class="cls-1" d="M56.52,48v0Z"/><path class="cls-1" d="M66.11,27.38a.49.49,0,0,1,0,.12l.08,0Z"/><path class="cls-1" d="M64,19.92a11.36,11.36,0,0,0-.77,2.26,9.46,9.46,0,0,0,1.22,7.07,1.66,1.66,0,0,1,.33-.73,2.09,2.09,0,0,0-.08-2.66.11.11,0,0,1,0-.14,1.22,1.22,0,0,1-.1-.23,2.55,2.55,0,0,1,.12-1.59,2.78,2.78,0,0,1,.22-.42A6.56,6.56,0,0,0,64,20s0,0,0,0A.05.05,0,0,1,64,19.92Z"/><path class="cls-1" d="M78.21,11.67l-.11-.07a.5.5,0,0,1,.05.13Z"/><path class="cls-1" d="M128.09,48.08l0,.08h.15Z"/><path class="cls-1" d="M41.49,80.4h0Z"/><path class="cls-1" d="M67.17,22.75a7.11,7.11,0,0,1,1.34,2,10.79,10.79,0,0,1,.66,5.62c0,.1-.17.11-.16,0,.17-2.36-.15-5-1.93-6.74l-.94-.86c0,1-.61,2-.06,3s1.29,2.05,1,3.39c0,.17-.29.09-.26-.08a1.72,1.72,0,0,0-.15-1.06c-.35.4-.79.74-.71,1.35a10.9,10.9,0,0,0,.36,1.39c0,.19.08.38.11.57l.54.37a3.46,3.46,0,0,1-.23-2.06c0-.09.18-.07.17,0A3.14,3.14,0,0,0,68,32.38c.15.08.3.14.46.21a6.15,6.15,0,0,1-.82-2.25c-.23-1.26.51-2.78-.19-3.95a7.84,7.84,0,0,1-1.19-2.27.08.08,0,0,1,.16,0c.25,1,1.05,1.62,1.56,2.5a3.72,3.72,0,0,1,.23,1.87c-.07,1.56.15,3.32,1.43,4.33a7.88,7.88,0,0,1-.52-1.84.05.05,0,0,1,.1,0,7.59,7.59,0,0,0,.79,1.65,4.15,4.15,0,0,0,.58.6l.24,0c-.18-4.45.87-10.92-1.3-14.62-.54-.93-.14-1.65.32-2.51,1.79-3.32,1.1-6.53.8-10,0-.22.31-.21.33,0,.27,2.37,1,5.15.55,7.55-.26,1.43-1.54,3.53-.42,4.93a5.66,5.66,0,0,1,.91,1.21c.63,2.35-.1,4.78-.31,7.18-.18,2.09-.3,4.15-.31,6.24h0a3.31,3.31,0,0,0,.58-.6,7.16,7.16,0,0,0,.79-1.65c0-.06.11,0,.1,0a7.42,7.42,0,0,1-.52,1.84c1.28-1,1.5-2.77,1.43-4.33a3.61,3.61,0,0,1,.24-1.87c.51-.88,1.31-1.47,1.56-2.5,0-.1.17-.06.15,0a7.38,7.38,0,0,1-1.19,2.27c-.7,1.17,0,2.69-.18,3.95a6.36,6.36,0,0,1-.83,2.25l.47-.21a3.16,3.16,0,0,0,1.15-2.66c0-.09.15-.11.17,0a3.46,3.46,0,0,1-.22,2.06c.18-.12.36-.24.53-.37a5.78,5.78,0,0,1,.12-.57,12.88,12.88,0,0,0,.36-1.39c.07-.61-.36-.95-.71-1.35a1.72,1.72,0,0,0-.16,1.06c0,.17-.22.25-.26.08-.31-1.34.38-2.27,1-3.39s-.1-2-.06-3c-.29.27-.61.54-.94.86-1.79,1.75-2.11,4.38-1.93,6.74,0,.11-.15.1-.17,0a10.89,10.89,0,0,1,.67-5.62,7.08,7.08,0,0,1,1.33-2s0,0,0-.05c1.19-1.41,2.63-2.56,2.23-4.61-.14-.74-.37-1.25-.44-1.79a.27.27,0,0,1-.08-.07,2.23,2.23,0,0,0-.24.95v0c.43.77.55,1.67-.29,2.2-.56.36-1.16.31-1.71.79a5.68,5.68,0,0,0-1.15,2.22c0,.1-.2.07-.17,0a6.07,6.07,0,0,1,.95-2.16,3.94,3.94,0,0,1,.87-.81,5.91,5.91,0,0,1,.71-.36c.7-.35.64-1.24.53-1.87a.09.09,0,0,1,0-.09,5.93,5.93,0,0,1,.86-3,6.37,6.37,0,0,0,0-2.22c-.27-.59-.67-1.16-.92-1.75a4.24,4.24,0,0,0-.68,2.07s0,0,0,0c-.44-1.57.63-3,.27-4.58-.2-.91-1.17-1.23-1.9-1.73a5.57,5.57,0,0,1-.47,1.22c-.06.18-.12.36-.17.55a6.39,6.39,0,0,0,.15,4.12c.05.1-.09.19-.15.09a6.16,6.16,0,0,1-.88-4.56,4.25,4.25,0,0,1,.2-1.73A3.52,3.52,0,0,0,72,3.21,10.3,10.3,0,0,1,71.21,0a.35.35,0,0,1-.31.08,10.08,10.08,0,0,1-.75,3.13,3.45,3.45,0,0,0-.51,2.35,4.42,4.42,0,0,1,.19,1.73A6.16,6.16,0,0,1,69,11.85a.09.09,0,0,1-.16-.09A6.39,6.39,0,0,0,69,7.64c0-.19-.11-.37-.17-.55a5.52,5.52,0,0,1-.46-1.22c-.73.5-1.7.82-1.91,1.73-.35,1.57.71,3,.27,4.58,0,0,0,0,0,0A4.33,4.33,0,0,0,66,10.11c-.25.59-.66,1.16-.93,1.75a6.62,6.62,0,0,0,0,2.22,5.94,5.94,0,0,1,.87,3,.09.09,0,0,1,0,.09c-.11.63-.17,1.52.54,1.87a5.77,5.77,0,0,1,.7.36,4.22,4.22,0,0,1,.88.81,6.25,6.25,0,0,1,1,2.16c0,.11-.13.14-.17,0a5.83,5.83,0,0,0-1.16-2.22c-.55-.48-1.15-.43-1.71-.79-.83-.53-.72-1.43-.29-2.2v0a2.23,2.23,0,0,0-.24-.95.46.46,0,0,1-.07.07c-.07.54-.31,1.05-.45,1.79-.4,2.05,1,3.2,2.23,4.61C67.17,22.71,67.17,22.73,67.17,22.75Z"/><path class="cls-1" d="M76,27.38l-.08.09s0,0,.07,0A.49.49,0,0,1,76,27.38Z"/><path class="cls-1" d="M77.38,23.9a2.55,2.55,0,0,1,.12,1.59,1.23,1.23,0,0,1-.09.23.1.1,0,0,1,0,.14,2.11,2.11,0,0,0-.08,2.66,1.66,1.66,0,0,1,.33.73,9.46,9.46,0,0,0,1.22-7.07,11.33,11.33,0,0,0-.76-2.26s0,0,0,0,0,0,0,0a6.65,6.65,0,0,0-1,3.48A2.78,2.78,0,0,1,77.38,23.9Z"/><path class="cls-1" d="M42,87.13c.35-.06.82-.19.88-.62a3.18,3.18,0,0,1,.06-.43,2.3,2.3,0,0,1,.27-.6,3.24,3.24,0,0,1,1-.88s.1,0,0,.08a3,3,0,0,0-.95,1c-.16.37,0,.68-.11,1-.13.54-.62.63-1.1.54h0a1.26,1.26,0,0,0-.46.3l0,0c.3-.06.61,0,1-.08,1.13-.16,1.48-1.12,2-2l0,0a4.28,4.28,0,0,1,.81-1,6,6,0,0,1,2.81-1.35c.06,0,.09.07,0,.09a4.59,4.59,0,0,0-3.17,2.21c-.11.23-.2.44-.29.64.53-.2,1.16,0,1.6-.51s.85-1,1.6-1.11c.1,0,.1.13,0,.15a1,1,0,0,0-.54.27c.28.11.54.27.84.13a7.57,7.57,0,0,0,.66-.44l.28-.16a3.57,3.57,0,0,0,.1-.35,1.86,1.86,0,0,1-1,.49s-.07-.08,0-.09a1.77,1.77,0,0,0,1.19-1.1c0-.08,0-.17,0-.26a3.34,3.34,0,0,1-1,.83c-.61.34-1.54.23-2,.8a4,4,0,0,1-1,1c-.05,0-.1,0-.05-.07.5-.32.66-.84,1-1.26a2,2,0,0,1,.93-.46,2.78,2.78,0,0,0,2-1.52,4.41,4.41,0,0,1-.87.6s-.06,0,0,0a4,4,0,0,0,.72-.71,1.4,1.4,0,0,0,.21-.4l0-.14c-2.28.89-5.85,1.5-7.39,3.29-.39.45-.84.37-1.37.28-2-.34-3.6.59-5.37,1.37-.1.05-.16-.12-.06-.17a15.16,15.16,0,0,1,3.85-1.63c.79-.12,2.12.17,2.65-.67a3,3,0,0,1,.47-.68c1.11-.75,2.51-.81,3.8-1.13,1.12-.27,2.22-.58,3.31-.95v0a1.81,1.81,0,0,0-.42-.2,4.21,4.21,0,0,0-1-.12s0,0,0,0A3.81,3.81,0,0,1,49,81a2.77,2.77,0,0,0-2.52,0,2.1,2.1,0,0,1-1,.21,5.43,5.43,0,0,0-1.58-.37c-.06,0-.06-.08,0-.09A4.17,4.17,0,0,1,45.3,81c.74.15,1.4-.5,2.1-.61a3.23,3.23,0,0,1,1.31,0c-.05-.07-.11-.13-.17-.2A1.79,1.79,0,0,0,46.93,80s-.08,0,0-.08A1.89,1.89,0,0,1,48,79.71a1.66,1.66,0,0,0-.3-.22l-.31,0a5.25,5.25,0,0,0-.79.06c-.33.07-.44.35-.59.61a1,1,0,0,0,.59-.11c.09,0,.17.07.09.12a2.53,2.53,0,0,1-2,.1c-.64-.1-1,.41-1.57.57l.62.34A4.62,4.62,0,0,0,47.66,81c.05,0,.08,0,0,.08a6,6,0,0,1-3,.66,3.91,3.91,0,0,1-1.28-.34h0c-.94-.37-1.8-.92-2.8-.34-.36.2-.59.41-.86.54,0,0,0,0,0,.06a1.24,1.24,0,0,0,.54,0h0c.33-.37.77-.59,1.2-.25s.37.55.72.75a3.16,3.16,0,0,0,1.37.21.05.05,0,0,1,0,.1,3.3,3.3,0,0,1-1.29-.12A2,2,0,0,1,41.6,82a2.2,2.2,0,0,1-.31-.3c-.31-.31-.77-.12-1.08.06h0a3.46,3.46,0,0,1-1.75.1,3.43,3.43,0,0,0-1.13.38c-.27.26-.5.57-.77.81a2.47,2.47,0,0,0,1.21,0s0,0,0,0c-.74.51-1.68.21-2.43.68-.45.27-.44.83-.57,1.3a3.13,3.13,0,0,1,.68,0l.36,0a3.48,3.48,0,0,0,2.12-.81c.05,0,.12,0,.08.07a3.43,3.43,0,0,1-2.24,1.27,2.68,2.68,0,0,1-.93.21c-.47,0-.8.39-1.13.68a5.55,5.55,0,0,1-1.54,1,.2.2,0,0,1,.1.15A5.76,5.76,0,0,1,34,87.42a1.87,1.87,0,0,0,1.32-.15,2.5,2.5,0,0,1,.86-.4,3.41,3.41,0,0,1,2.55-.37.05.05,0,0,1,0,.1,3.51,3.51,0,0,0-2.18.66,2.83,2.83,0,0,0-.28.2,2.69,2.69,0,0,1-.53.44c.39.3.73.75,1.24.69.89-.09,1.45-.91,2.35-1,0,0,0,0,0,0a2.36,2.36,0,0,0-1,.73c.37,0,.74.13,1.1.16a3.57,3.57,0,0,0,1.14-.38,3.24,3.24,0,0,1,1.44-1A0,0,0,0,1,42,87.13Z"/><path class="cls-1" d="M37,81.78l.06,0,0,0A.19.19,0,0,1,37,81.78Z"/><path class="cls-1" d="M58.11,51.89l0-.1s0,.07,0,.11Z"/><path class="cls-1" d="M45.93,79.15a.79.79,0,0,1,.33-.3,5.21,5.21,0,0,0-3.92.62,6.84,6.84,0,0,0-1,.8h0s0,0,0,0a3.64,3.64,0,0,0,2-.13,1.29,1.29,0,0,1,.16-.17,1.45,1.45,0,0,1,.81-.35h.14a.05.05,0,0,1,.07,0A1.16,1.16,0,0,0,45.93,79.15Z"/><path class="cls-1" d="M45.66,80l-.11,0,.1,0A.17.17,0,0,1,45.66,80Z"/><path class="cls-1" d="M50.3,52.4h0a5.82,5.82,0,0,0,.39,1.25,5.25,5.25,0,0,0,2.84,2.77.94.94,0,0,1-.09-.44,1.17,1.17,0,0,0-.9-1.16.07.07,0,0,1,0-.07s-.08,0-.11-.08a1.39,1.39,0,0,1-.47-.74,2.24,2.24,0,0,1,0-.24,3.53,3.53,0,0,0-1.56-1.26S50.3,52.41,50.3,52.4Z"/><path class="cls-1" d="M53.73,55l-.11,0,.08.08Z"/><path class="cls-1" d="M47.61,48.74s0-.06,0-.08a.19.19,0,0,1,0,.07Z"/><path class="cls-1" d="M50.48,52.39h0Z"/><path class="cls-1" d="M34.16,112a12.24,12.24,0,0,0-.69,2.29h0s0,0,0,0a6.61,6.61,0,0,0,2.8-2.29,2.53,2.53,0,0,1,.06-.46,2.48,2.48,0,0,1,.83-1.37,1.16,1.16,0,0,1,.21-.16.1.1,0,0,1,.06-.11,2.09,2.09,0,0,0,1.6-2.12,1.77,1.77,0,0,1,.15-.79A9.48,9.48,0,0,0,34.16,112Z"/><path class="cls-1" d="M64,11.6l-.11.07.06.06A.5.5,0,0,1,64,11.6Z"/><path class="cls-1" d="M27.7,55.53l-.1,0,.06.1Z"/><path class="cls-1" d="M16.53,40c1.86-3.48,5.6-5.91,9-7.6,4.47-2.21,7.75-2.75,12.54-3.14a30,30,0,0,1,6.51-10.6c2.63-2.77,6-5.63,9.93-6.38a16.74,16.74,0,0,1,7.88.15c-4.26-2.41-11.08-.81-15.18.2-6.3,1.55-11,5.35-15.82,9.47-.17.15-.43-.1-.25-.26l.11-.1C26.46,24.82,22.05,28,19,33.1c-2.17,3.61-5.71,9.66-4.66,14.44C14.27,44.93,15.54,41.83,16.53,40Z"/><path class="cls-1" d="M10.54,57.78a6.32,6.32,0,0,0-3.89-1.36,5.42,5.42,0,0,0-.57,0,5.79,5.79,0,0,1-1.3.08c.25.85.27,1.87,1.09,2.34,1.39.8,3.09.2,4.46,1.08a0,0,0,0,1,0,0,4.28,4.28,0,0,0-2.19,0c.5.42.93,1,1.43,1.41a6.19,6.19,0,0,0,2.1.65,6,6,0,0,1,3.12.06.1.1,0,0,1,.09,0c.57.29,1.41.61,2,0a6.06,6.06,0,0,1,.55-.58,3.94,3.94,0,0,1,1-.59,5.91,5.91,0,0,1,2.33-.28.09.09,0,0,1,0,.18,5.77,5.77,0,0,0-2.47.45c-.62.38-.75,1-1.25,1.4-.76.64-1.58.26-2.2-.37h0a2.24,2.24,0,0,0-1-.07l0,.1c.5.23.92.61,1.58,1,1.84,1,3.37-.05,5.06-.78h.06a7.07,7.07,0,0,1,2.32-.68,10.83,10.83,0,0,1,5.57,1c.09,0,.05.19-.05.16-2.21-.87-4.81-1.33-7-.14-.41.22-.76.44-1.11.64,1,.26,1.73,1.17,2.89.95s2.35-.62,3.53.07c.16.09,0,.3-.14.23a1.72,1.72,0,0,0-1.08-.17c.29.45.49,1,1.1,1.08a11.32,11.32,0,0,0,1.43.06c.19,0,.39,0,.58.06l.51-.4a3.34,3.34,0,0,1-2-.4c-.08,0,0-.19.07-.15A3.16,3.16,0,0,0,30,64.58l.33-.38a6.11,6.11,0,0,1-2.39.12c-1.27-.15-2.5-1.31-3.83-1a7.33,7.33,0,0,1-2.52.46c-.1,0-.1-.16,0-.15,1.06.06,1.87-.53,2.85-.76a3.82,3.82,0,0,1,1.86.32c1.48.53,3.22.84,4.57-.08A7.91,7.91,0,0,1,29,63.08a.05.05,0,0,1,0-.1,7.41,7.41,0,0,0,1.81-.27,3.44,3.44,0,0,0,.74-.38,2.14,2.14,0,0,0,.1-.22c-4.3-1.13-10.18-4-14.35-3.06-1.05.24-1.62-.35-2.31-1-2.65-2.68-5.91-3-9.33-3.71-.21,0-.11-.36.1-.32,2.34.45,5.22.59,7.37,1.71,1.3.67,2.93,2.51,4.6,1.85A5,5,0,0,1,19.14,57c2.43.08,4.54,1.5,6.77,2.41,1.94.78,3.88,1.5,5.88,2.12v0a2.91,2.91,0,0,0-.4-.73,7.5,7.5,0,0,0-1.34-1.24c-.05,0,0-.12.05-.09a8.07,8.07,0,0,1,1.61,1C31.12,59,29.5,58.24,28,57.85a3.65,3.65,0,0,1-1.72-.78c-.69-.75-1-1.69-1.93-2.23-.09-.05,0-.18.08-.13a7.41,7.41,0,0,1,1.82,1.8c.92,1,2.59.76,3.72,1.34a6.33,6.33,0,0,1,1.91,1.45l-.06-.5a3.17,3.17,0,0,0-2.2-1.89.08.08,0,0,1,0-.16,3.41,3.41,0,0,1,1.9.81,6.21,6.21,0,0,0-.2-.61l-.51-.28a11.82,11.82,0,0,0-1.22-.76c-.56-.25-1,.07-1.5.28a1.74,1.74,0,0,0,1,.47.13.13,0,1,1,0,.26c-1.36-.09-2.05-1-2.95-1.93s-1.95-.49-2.92-.83c.17.36.34.74.55,1.15,1.14,2.22,3.56,3.3,5.87,3.83.1,0,.05.17-.05.15A10.64,10.64,0,0,1,24.4,57a7,7,0,0,1-1.54-1.86l-.05,0c-1-1.55-1.67-3.27-3.74-3.49-.75-.08-1.31,0-1.85-.1l-.08.05a2.18,2.18,0,0,0,.84.51h0c.86-.18,1.76,0,2,.92.18.64-.05,1.2.25,1.87a5.9,5.9,0,0,0,1.79,1.76c.08.06,0,.21-.1.14a6.08,6.08,0,0,1-1.78-1.53,4.13,4.13,0,0,1-.52-1.08,7,7,0,0,1-.13-.78c-.13-.78-1-1-1.63-1.06a.16.16,0,0,1-.08,0,5.93,5.93,0,0,1-2.61-1.71,6.42,6.42,0,0,0-2.13-.65c-.64.09-1.3.31-2,.37a4.36,4.36,0,0,0,1.79,1.25s0,0,0,0c-1.63-.05-2.69-1.49-4.29-1.61-.94-.08-1.53.76-2.22,1.31a5.35,5.35,0,0,1,1,.8l.48.32a6.4,6.4,0,0,0,4,1.08.09.09,0,0,1,0,.17,6.18,6.18,0,0,1-4.62-.5,4.65,4.65,0,0,1-1.6-.7,3.44,3.44,0,0,0-2.39-.2A10,10,0,0,1,0,52a.4.4,0,0,1,0,.32A10.13,10.13,0,0,1,2.77,54c.61.51,1.23,1.2,2.09,1.18a4.38,4.38,0,0,1,1.69.32,6.21,6.21,0,0,1,4.13,2.18C10.76,57.75,10.63,57.85,10.54,57.78Z"/><path class="cls-1" d="M13.23,48.75l-.11.1.15,0Z"/><path class="cls-1" d="M29.08,54.54a1.84,1.84,0,0,1,.8-.1,9.46,9.46,0,0,0-6.4-3.24,11.08,11.08,0,0,0-2.38.06l0,0h.05a6.53,6.53,0,0,0,3,2,2.34,2.34,0,0,1,.46-.09,2.51,2.51,0,0,1,1.56.36,1.4,1.4,0,0,1,.2.16.1.1,0,0,1,.14,0A2.08,2.08,0,0,0,29.08,54.54Z"/><path class="cls-1" d="M24.67,64.94l.12,0v-.08Z"/><path class="cls-1" d="M39.65,109.42a.18.18,0,0,1,0-.07.73.73,0,0,1-.08.09Z"/><path class="cls-1" d="M47.57,115l0,.18a.69.69,0,0,1,.07-.15Z"/><path class="cls-1" d="M22.81,65.85s-.08,0-.11,0h-.26A2.53,2.53,0,0,1,21,65.23a3.22,3.22,0,0,1-.32-.32A6.66,6.66,0,0,0,17,64.79s0,0,0,0h0a11.42,11.42,0,0,0,1.94,1.4A9.48,9.48,0,0,0,26,67.1a1.71,1.71,0,0,1-.6-.54A2.12,2.12,0,0,0,22.81,65.85Z"/><path class="cls-1" d="M28.72,121h-.08s0,.09.05.13Z"/><path class="cls-1" d="M9.09,62.38A.87.87,0,0,1,9,62.29l0,.13Z"/><path class="cls-1" d="M46.7,118.8a3,3,0,0,1-.4.2,6.6,6.6,0,0,0-1.25,3.41s0,0,0,0v0A12.19,12.19,0,0,0,47,121.07,9.41,9.41,0,0,0,50,114.58a1.59,1.59,0,0,1-.69.43,2.08,2.08,0,0,0-1.47,2.21c0,.06,0,.08-.08.1s0,.16-.08.25A2.51,2.51,0,0,1,46.7,118.8Z"/><path class="cls-1" d="M102.06,128.93h.14l-.13-.08Z"/><path class="cls-1" d="M112.59,128.75a4.41,4.41,0,0,1-1.19-1.28,6.18,6.18,0,0,1-2-4.19.09.09,0,0,1,.18,0,6.31,6.31,0,0,0,2.33,3.41,5.48,5.48,0,0,0,.46.34,5.66,5.66,0,0,1,1.09.7c.3-.83.89-1.66.51-2.52-.65-1.47-2.36-2-2.94-3.52,0,0,0,0,0,0a4.39,4.39,0,0,0,1.78,1.28c-.15-.64-.18-1.35-.31-2a6.67,6.67,0,0,0-1.31-1.77,6,6,0,0,1-2.47-1.9s-.06,0-.07,0c-.29-.58-.77-1.33-1.55-1.2a5.1,5.1,0,0,1-.78.14,4.4,4.4,0,0,1-1.19-.14,6.22,6.22,0,0,1-2-1.17c-.09-.07,0-.19.11-.14a5.77,5.77,0,0,0,2.25,1.1c.73.07,1.18-.33,1.84-.38,1-.06,1.43.73,1.55,1.61h0a2.23,2.23,0,0,0,.75.62s0-.06,0-.1c-.26-.47-.38-1-.7-1.71-.89-1.88-2.74-2-4.53-2.37l0,0a7,7,0,0,1-2.27-.83,10.82,10.82,0,0,1-3.88-4.12c0-.09.08-.19.14-.1,1.26,2,3.08,3.93,5.55,4.27l1.27.14c-.64-.8-.7-2-1.75-2.48s-2.27-.89-2.8-2.15c-.07-.16.17-.25.25-.1a1.74,1.74,0,0,0,.76.78c0-.54.19-1.07-.24-1.52a12.21,12.21,0,0,0-1.11-.91c-.15-.12-.29-.25-.43-.38s-.44,0-.65,0a3.53,3.53,0,0,1,1.4,1.53c0,.09-.1.17-.15.08a3.16,3.16,0,0,0-2.51-1.45l-.49.11a6,6,0,0,1,2,1.32c.93.87,1.24,2.54,2.5,3.07a7.28,7.28,0,0,1,2.31,1.12c.07.07,0,.19-.1.12-.81-.68-1.81-.68-2.74-1.08a3.74,3.74,0,0,1-1.31-1.37c-.87-1.3-2.09-2.58-3.72-2.64a7.55,7.55,0,0,1,1.51,1.18,0,0,0,1,1-.06.07,7.38,7.38,0,0,0-1.62-.85,3.44,3.44,0,0,0-.82-.14l-.21.12c2.78,3.47,5.79,9.3,9.72,11,1,.43,1.1,1.25,1.24,2.21.54,3.74,3,5.91,5.3,8.54.14.16-.12.35-.26.19-1.63-1.75-3.85-3.57-4.92-5.75-.65-1.31-.87-3.76-2.6-4.22a5.17,5.17,0,0,1-1.45-.44c-1.9-1.51-2.76-3.9-4-6-1.09-1.79-2.22-3.52-3.46-5.2l0,0a3.69,3.69,0,0,0-.11.83,7.35,7.35,0,0,0,.34,1.79c0,.07-.06.1-.09,0a7.62,7.62,0,0,1-.68-1.79c-.43,1.58.44,3.12,1.43,4.34a3.7,3.7,0,0,1,.92,1.65c.11,1-.18,2,.23,2.93,0,.1-.11.15-.15.06A7.44,7.44,0,0,1,96.2,115c-.14-1.36-1.64-2.15-2.2-3.29a6.23,6.23,0,0,1-.67-2.3,4.91,4.91,0,0,0-.25.44,3.13,3.13,0,0,0,.65,2.83c.06.07,0,.18-.13.11a3.43,3.43,0,0,1-1-1.78c-.07.2-.15.4-.21.61a5.05,5.05,0,0,1,.24.53c.19.44.31.91.54,1.33s.86.55,1.38.67a1.75,1.75,0,0,0-.51-1c-.12-.12,0-.33.16-.22,1,.89,1,2,1.23,3.31s1.28,1.56,1.86,2.41c.07-.39.16-.8.24-1.25.4-2.47-.9-4.77-2.45-6.57-.07-.08.06-.17.13-.1A10.9,10.9,0,0,1,98,115.66a7.26,7.26,0,0,1,.12,2.41.14.14,0,0,1,0,.06c-.13,1.83-.6,3.62.94,5,.55.51,1,.78,1.42,1.18h.1a2.25,2.25,0,0,0-.37-.91h0c-.81-.37-1.44-1-1.09-2,.24-.62.76-.94.91-1.65a5.68,5.68,0,0,0-.39-2.47.09.09,0,0,1,.17-.07,6.15,6.15,0,0,1,.51,2.3,3.91,3.91,0,0,1-.22,1.18,5.15,5.15,0,0,1-.36.7c-.35.7.22,1.38.69,1.83a.11.11,0,0,1,0,.08,6,6,0,0,1,1.09,2.93,6.31,6.31,0,0,0,1.31,1.77c.57.32,1.23.54,1.8.88a4.43,4.43,0,0,0-.69-2.08s0,0,0,0c1.29,1,1.29,2.79,2.5,3.84.72.62,1.69.3,2.57.26a5.34,5.34,0,0,1-.35-1.25c-.06-.18-.12-.37-.19-.54a6.38,6.38,0,0,0-2.57-3.23.09.09,0,0,1,.07-.17,6.18,6.18,0,0,1,3.41,3.15,4.41,4.41,0,0,1,.88,1.51c.26.82,1.12,1.17,1.8,1.59a9.77,9.77,0,0,1,2.52,2.13.35.35,0,0,1,.21-.25,10.15,10.15,0,0,1-1.26-3C113.38,130.17,113.29,129.25,112.59,128.75Z"/><path class="cls-1" d="M132.49,61.63l.07,0c0-.05,0-.09,0-.14Z"/><path class="cls-1" d="M132.35,63.31c1.58,2.08,2.33,5.34,2.6,7.44.5,3.92-1.14,8.07-3,11.42a30,30,0,0,1-7.93,9.42,29.21,29.21,0,0,1,.9,11.79c-.46,3.79-1.52,8.12-4.19,11-1.43,1.55-3.94,3.78-6.43,4.55,4.85-.59,9.39-5.93,12.09-9.17,4.14-5,5.64-10.81,7.1-17,.05-.23.4-.18.36,0s-.1.48-.15.72c2-5.11,3.59-10.11,3.16-15.76C136.58,73.59,136,66.6,132.35,63.31Z"/><path class="cls-1" d="M40.16,129.25h.14s0-.06,0-.09Z"/><path class="cls-1" d="M21.32,115.09c-2.73-2.85-3.87-7.17-4.4-10.94a29.89,29.89,0,0,1,.79-12.29A29.4,29.4,0,0,1,10,82.92C8.1,79.59,6.38,75.48,6.8,71.55c.23-2.11.93-5.39,2.47-7.49C5.71,67.42,5.23,74.41,5,78.62c-.37,6.48,1.88,12,4.39,17.91.09.21-.22.38-.32.17s-.2-.45-.31-.67c1.42,5.3,3.12,10.27,6.82,14.56,2.76,3.19,7.4,8.44,12.27,8.94A16.67,16.67,0,0,1,21.32,115.09Z"/><path class="cls-1" d="M44,118.38s0,0,0,0a7.3,7.3,0,0,1,.08-2.42,10.89,10.89,0,0,1,2.71-5c.07-.07.2,0,.14.1-1.51,1.82-2.77,4.15-2.33,6.61.09.45.19.86.27,1.25.56-.86,1.65-1.28,1.81-2.45s.13-2.42,1.16-3.33c.14-.11.29.09.17.21a1.76,1.76,0,0,0-.49,1c.52-.13,1.07-.16,1.36-.7a13.72,13.72,0,0,0,.52-1.34,5,5,0,0,1,.23-.53c-.07-.21-.14-.41-.22-.61a3.38,3.38,0,0,1-1,1.8c-.07.07-.19,0-.13-.11a3.18,3.18,0,0,0,.6-2.84c-.08-.15-.17-.29-.26-.43a6,6,0,0,1-.63,2.3c-.54,1.16-2,2-2.13,3.34a7.26,7.26,0,0,1-.35,2.54.08.08,0,1,1-.14-.06c.39-1,.08-1.93.17-2.94a3.67,3.67,0,0,1,.88-1.66c1-1.24,1.81-2.8,1.35-4.37a7.79,7.79,0,0,1-.64,1.8c0,.06-.11,0-.09,0a7.37,7.37,0,0,0,.3-1.8,3.61,3.61,0,0,0-.12-.83l-.18-.16c-2.42,3.73-7,8.41-7.4,12.67-.09,1.08-.83,1.43-1.71,1.87-3.38,1.67-4.68,4.68-6.45,7.7-.1.18-.37,0-.27-.19,1.16-2.09,2.19-4.78,3.93-6.47,1-1,3.3-2,3.2-3.79a5.25,5.25,0,0,1,0-1.51c.84-2.28,2.84-3.85,4.4-5.68,1.35-1.6,2.64-3.21,3.85-4.92l0,0a3.32,3.32,0,0,0-.81.16,7.14,7.14,0,0,0-1.6.88c-.06,0-.11,0-.07-.07a8.17,8.17,0,0,1,1.49-1.21c-1.63.09-2.83,1.4-3.67,2.72a3.79,3.79,0,0,1-1.28,1.39c-.92.42-1.92.44-2.72,1.13-.08.07-.17,0-.1-.12a7.33,7.33,0,0,1,2.28-1.16c1.25-.56,1.53-2.23,2.44-3.12a6.17,6.17,0,0,1,2-1.36l-.5-.1A3.17,3.17,0,0,0,41.5,108c0,.09-.18,0-.15-.08a3.47,3.47,0,0,1,1.38-1.55c-.22,0-.44,0-.65,0a5.22,5.22,0,0,1-.43.39,12.15,12.15,0,0,0-1.09.93c-.42.45-.26,1-.21,1.52a1.8,1.8,0,0,0,.75-.79c.07-.15.32-.07.25.1-.51,1.26-1.62,1.62-2.76,2.2s-1.08,1.7-1.71,2.51c.4,0,.81-.09,1.27-.16,2.47-.39,4.25-2.35,5.47-4.38.06-.09.19,0,.14.09A10.83,10.83,0,0,1,40,113a6.9,6.9,0,0,1-2.25.88s0,0-.05,0c-1.78.46-3.63.56-4.48,2.47-.31.68-.42,1.24-.68,1.72l0,.1a2.38,2.38,0,0,0,.74-.64,0,0,0,0,1,0,0c.1-.88.52-1.68,1.51-1.64.66,0,1.13.43,1.85.35a5.77,5.77,0,0,0,2.23-1.14c.09-.06.2.06.11.13a6,6,0,0,1-2,1.21,4,4,0,0,1-1.19.16,5.47,5.47,0,0,1-.78-.12c-.77-.12-1.24.64-1.51,1.22a.19.19,0,0,1-.07.06,6.05,6.05,0,0,1-2.44,2,6.21,6.21,0,0,0-1.28,1.8c-.12.64-.13,1.34-.27,2a4.22,4.22,0,0,0,1.75-1.31s0,0,0,0c-.55,1.53-2.26,2.09-2.88,3.57-.36.87.25,1.69.56,2.52a6.06,6.06,0,0,1,1.07-.72,5.32,5.32,0,0,0,.47-.36,6.36,6.36,0,0,0,2.26-3.44.09.09,0,1,1,.18,0A6.16,6.16,0,0,1,30.93,128a4.23,4.23,0,0,1-1.16,1.3c-.69.51-.76,1.44-.94,2.21a10,10,0,0,1-1.23,3.06.35.35,0,0,1,.3.12,9.64,9.64,0,0,1,2.42-2.12c.67-.43,1.52-.8,1.78-1.62a4.24,4.24,0,0,1,.84-1.53,6.17,6.17,0,0,1,3.35-3.21.09.09,0,0,1,.08.16,6.33,6.33,0,0,0-2.51,3.28,4.88,4.88,0,0,0-.18.54,5.81,5.81,0,0,1-.32,1.26c.88,0,1.85.32,2.55-.3,1.2-1.08,1.16-2.87,2.43-3.9,0,0,0,0,0,0a4.3,4.3,0,0,0-.66,2.09c.56-.35,1.22-.59,1.79-.92a6.27,6.27,0,0,0,1.27-1.79,6.08,6.08,0,0,1,1-2.95.12.12,0,0,1,0-.09c.45-.45,1-1.14.65-1.83a4.28,4.28,0,0,1-.37-.7,4,4,0,0,1-.25-1.17,6.16,6.16,0,0,1,.48-2.31c0-.11.19,0,.16.06a5.7,5.7,0,0,0-.34,2.48c.17.71.69,1,.94,1.63.37.92-.25,1.59-1.05,2v0a2.23,2.23,0,0,0-.36.91h.1c.37-.4.86-.69,1.41-1.21C44.71,122,44.2,120.22,44,118.38Z"/><path class="cls-1" d="M94.18,134c-3.57,1.7-8,1.43-11.78.76A29.91,29.91,0,0,1,71,130.2a29.33,29.33,0,0,1-10.91,4.55c-3.75.74-8.19,1.09-11.79-.54-1.93-.87-4.83-2.56-6.34-4.68,2.07,4.43,8.57,7.07,12.49,8.61,6,2.38,12,2,18.38,1.43.23,0,.3.33.06.36l-.73.08c5.48.31,10.73.25,16-1.93,3.89-1.62,10.33-4.38,12.33-8.84A16.83,16.83,0,0,1,94.18,134Z"/><path class="cls-1" d="M116.28,66.12a1.66,1.66,0,0,1-.61.54,9.48,9.48,0,0,0,7.12-1,11.33,11.33,0,0,0,1.91-1.43h0s0,0,0,0a6.62,6.62,0,0,0-3.63.19,2.33,2.33,0,0,1-.31.32,2.51,2.51,0,0,1-1.47.61H119a.11.11,0,0,1-.12,0A2.1,2.1,0,0,0,116.28,66.12Z"/><path class="cls-1" d="M91.48,52.46h0Z"/><path class="cls-1" d="M94.41,48.78s0-.05,0-.07,0,0,0,.08Z"/><path class="cls-1" d="M88.09,44.17H88v0Z"/><path class="cls-1" d="M85.9,50.15s0,0,0,0a4,4,0,0,1,0,1.34,5.92,5.92,0,0,1-1.52,2.73s-.11,0-.07-.05a4.63,4.63,0,0,0,1.31-3.64c0-.25-.1-.47-.14-.69-.31.47-.92.7-1,1.34s-.08,1.34-.66,1.83c-.07.07-.16-.05-.09-.11a1,1,0,0,0,.28-.54c-.29.08-.6.09-.76.39a6.52,6.52,0,0,0-.29.73c0,.1-.08.2-.13.3s.08.23.13.35a1.83,1.83,0,0,1,.56-1s.1,0,.06.06a1.79,1.79,0,0,0-.33,1.59l.14.22a3.23,3.23,0,0,1,.35-1.27c.3-.64,1.13-1.08,1.19-1.83a4.13,4.13,0,0,1,.2-1.4s.11,0,.08,0a5.19,5.19,0,0,0-.1,1.62,2.12,2.12,0,0,1-.5.92,2.76,2.76,0,0,0-.76,2.4,4.5,4.5,0,0,1,.36-1s.06,0,0,0a4.19,4.19,0,0,0-.17,1,1.63,1.63,0,0,0,.06.45.94.94,0,0,0,.1.1c1.35-2,3.91-4.61,4.13-7,.06-.59.47-.79,1-1,1.87-.91,2.6-2.57,3.59-4.23.06-.1.2,0,.15.11a15.15,15.15,0,0,1-2.19,3.55c-.58.56-1.83,1.09-1.78,2.08a2.76,2.76,0,0,1,0,.84c-.47,1.25-1.58,2.1-2.45,3.11s-1.47,1.76-2.14,2.69h0a1.78,1.78,0,0,0,.45-.08,4.51,4.51,0,0,0,.89-.48,0,0,0,1,1,0,0,4.2,4.2,0,0,1-.82.66,2.79,2.79,0,0,0,2-1.48,2,2,0,0,1,.71-.76,5.53,5.53,0,0,0,1.51-.62s.09,0,0,.07a3.92,3.92,0,0,1-1.26.63c-.69.3-.85,1.22-1.36,1.71a3.44,3.44,0,0,1-1.09.74l.25.05a1.72,1.72,0,0,0,1.39-.81s.11,0,.09,0a1.9,1.9,0,0,1-.77.85h.36l.24-.22a7.22,7.22,0,0,0,.6-.5c.24-.25.15-.54.13-.84a1,1,0,0,0-.42.43c0,.08-.17,0-.14-.05.29-.7.9-.89,1.53-1.2s.61-.94,1-1.39l-.71.09a4.61,4.61,0,0,0-3,2.39c0,.05-.1,0-.07,0a6,6,0,0,1,2.1-2.3,4,4,0,0,1,1.26-.47l0,0c1-.24,2-.3,2.48-1.34.18-.38.24-.69.38-.95a.43.43,0,0,0,0-.05,1.06,1.06,0,0,0-.41.35h0c-.06.48-.29.93-.84.9-.37,0-.62-.24-1-.2a3,3,0,0,0-1.23.62s-.11,0-.06-.08a3.45,3.45,0,0,1,1.11-.65,2.5,2.5,0,0,1,.66-.09c.14,0,.29,0,.43.07.43.07.69-.34.84-.66,0,0,0,0,0,0a3.4,3.4,0,0,1,1.37-1.09,3.34,3.34,0,0,0,.7-1c.07-.36.08-.75.16-1.1a2.5,2.5,0,0,0-1,.71s0,0,0,0c.31-.85,1.25-1.15,1.6-2,.2-.48-.13-.94-.3-1.39a3,3,0,0,1-.57.37l-.28.21a3.51,3.51,0,0,0-1.26,1.9c0,.06-.11,0-.1,0a3.39,3.39,0,0,1,1.08-2.33,2.42,2.42,0,0,1,.64-.71c.39-.28.43-.79.53-1.21A5.67,5.67,0,0,1,95,41.31a.24.24,0,0,1-.16-.07,5.6,5.6,0,0,1-1.35,1.16c-.37.23-.84.43-1,.88a2.52,2.52,0,0,1-.47.83,3.44,3.44,0,0,1-1.86,1.77c-.07,0-.1-.06,0-.09a3.48,3.48,0,0,0,1.4-1.8,3.38,3.38,0,0,0,.11-.34,3.26,3.26,0,0,1,.18-.65c-.49,0-1-.19-1.42.16-.66.58-.64,1.57-1.35,2.13h0a2.41,2.41,0,0,0,.37-1.16c-.31.19-.67.32-1,.5a3.84,3.84,0,0,0-.71,1,3.32,3.32,0,0,1-.59,1.64s0,0,0,0c-.25.25-.56.63-.36,1,.06.12.15.25.2.38a2.88,2.88,0,0,1,.13.65,3.53,3.53,0,0,1-.27,1.27c0,.06-.11,0-.09,0a3.21,3.21,0,0,0,.19-1.37c-.08-.39-.37-.57-.51-.9-.2-.51.15-.88.59-1.08h0a1.24,1.24,0,0,0,.2-.51h0c-.21.23-.48.38-.78.67C85.55,48.16,85.82,49.14,85.9,50.15Z"/><path class="cls-1" d="M90.12,53.75a1.12,1.12,0,0,1,0,.24,1.38,1.38,0,0,1-.46.74.42.42,0,0,1-.12.08.05.05,0,0,1,0,.07A1.14,1.14,0,0,0,88.59,56a1.05,1.05,0,0,1-.1.44,5.2,5.2,0,0,0,2.83-2.77,5.91,5.91,0,0,0,.39-1.26h0s0,0,0,0A3.63,3.63,0,0,0,90.12,53.75Z"/><path class="cls-1" d="M85.44,48.08v0Z"/><path class="cls-1" d="M88.38,55.1l-.11,0,0,.05A.27.27,0,0,1,88.38,55.1Z"/><path class="cls-1" d="M83.94,52s0-.07,0-.1l0,.09Z"/><path class="cls-1" d="M84.43,49.91l.22-.11a3.57,3.57,0,0,0,.71-1.87l0,0v0a6.51,6.51,0,0,0-1.07.76,5.24,5.24,0,0,0-1.74,3.57A.9.9,0,0,1,83,52a1.16,1.16,0,0,0,.82-1.22.05.05,0,0,1,0-.05s0-.09,0-.14A1.41,1.41,0,0,1,84.43,49.91Z"/><path class="cls-1" d="M114.85,53.27a.1.1,0,0,1,.14,0l.19-.16a2.56,2.56,0,0,1,1.55-.38,2.31,2.31,0,0,1,.47.08,6.57,6.57,0,0,0,3-2s0,0,0,0,0,0,0,0a11.12,11.12,0,0,0-2.38,0,9.49,9.49,0,0,0-6.34,3.36,1.7,1.7,0,0,1,.8.09A2.09,2.09,0,0,0,114.85,53.27Z"/><path class="cls-1" d="M113.57,120.43h-.09s0,.1,0,.14S113.55,120.48,113.57,120.43Z"/><path class="cls-1" d="M102.47,109.11l-.09-.1a.43.43,0,0,1,0,.07Z"/><path class="cls-1" d="M116.84,64.52a.53.53,0,0,1,.12,0l-.12-.06Z"/><path class="cls-1" d="M94.26,117a2.12,2.12,0,0,0-1.52-2.19,1.63,1.63,0,0,1-.7-.4,9.43,9.43,0,0,0,3.22,6.42,11.72,11.72,0,0,0,2,1.37.06.06,0,0,1,0,0s0,0,0,0a6.58,6.58,0,0,0-1.31-3.38,3.86,3.86,0,0,1-.41-.2,2.51,2.51,0,0,1-1-1.21,1.83,1.83,0,0,1-.08-.25A.09.09,0,0,1,94.26,117Z"/><path class="cls-1" d="M102.7,106.6a1.72,1.72,0,0,1,.16.79,2.1,2.1,0,0,0,1.64,2.09.1.1,0,0,1,.07.1l.21.16a2.49,2.49,0,0,1,.85,1.34,2.82,2.82,0,0,1,.07.47,6.59,6.59,0,0,0,2.85,2.23.06.06,0,0,1,0,0h0a11.31,11.31,0,0,0-.73-2.27A9.46,9.46,0,0,0,102.7,106.6Z"/><path class="cls-1" d="M61.25,15.2a14.08,14.08,0,0,0-2.31,1c-1.29.69-2.53,1.47-3.76,2.28,0,0,0,0,0,0,2.11-1.48,4.88-3.87,7.65-3.78a4.13,4.13,0,0,1,1.15.19c-1.57-2-6.48.47-7.88,1.37a34.25,34.25,0,0,0-5.17,4.53c-.07.07-.17,0-.1-.1,2.88-2.83,5.54-5.18,9.35-6.7a7.36,7.36,0,0,1,2.25-.54,5.67,5.67,0,0,0-1.88-.51c-5.11,1-8.81,4.87-11.82,8.95,0,0-.11,0-.07,0,2.32-3.2,5.7-7.58,9.82-8.9-.31,0-.61.08-.92.13C52.39,15,48.88,19.29,46,23.94c-.1.16-.34,0-.25-.14,2.28-3.73,5.1-7.73,8.9-10-.67.22-1.33.48-2,.75-4.07,2.75-6.54,7-9.22,11.16-.06.11-.23,0-.17-.1,2-3.43,3.9-7.1,6.75-9.76l-.18.1-.62.43a20.86,20.86,0,0,0-2.61,2.54,42,42,0,0,0-5,7.81c-.08.15-.31,0-.23-.14a46.1,46.1,0,0,1,3.88-6.8,24.37,24.37,0,0,0-5,7.83c0,.09-.18.05-.15,0a25.41,25.41,0,0,1,3.39-6.27c-.48.5-.94,1-1.38,1.51-1.68,1.95-2.51,4.17-3.55,6.41a.19.19,0,0,1,0,.37l-.2,0c-.11.23-.21.46-.33.69s-.44,0-.36-.15l.19-.46c-2.62.39-5.15.48-7.67,1.58-.62.27-1.23.57-1.85.88a25.6,25.6,0,0,1,7-1.4c.09,0,.09.14,0,.15a24.46,24.46,0,0,0-9,2.48,46.58,46.58,0,0,1,7.64-1.71.14.14,0,0,1,.06.27,41.58,41.58,0,0,0-8.91,2.43A20.34,20.34,0,0,0,22,36.1l-.58.45-.15.15c3.38-1.94,7.43-2.62,11.31-3.58.12,0,.17.16,0,.2-4.74,1.34-9.55,2.44-13.38,5.52-.44.53-.88,1.09-1.29,1.66,3.33-3,8-4.47,12.21-5.55.18,0,.24.24.07.29-5.31,1.39-10.48,3.48-13.86,7.83-.13.28-.27.55-.38.83,2.46-3.54,7.65-5.48,11.39-6.76.05,0,.07.06,0,.08-4.79,1.67-9.54,4.08-12,8.67a5.54,5.54,0,0,0-.06,1.94,7.57,7.57,0,0,1,1.17-2c2.58-3.19,5.61-5.05,9.16-7,.08,0,.15.09.07.13a33.66,33.66,0,0,0-5.85,3.6c-1.28,1.08-5.09,5-3.63,7.14a3.94,3.94,0,0,1,.15-1.16c.73-2.68,3.84-4.62,5.86-6.2,0,0,0,0,0,0C21.14,43.34,20,44.3,19,45.33a13.37,13.37,0,0,0-1.59,1.93c-.47.65-1.24,2.17-.68,3.05l0,0a4.85,4.85,0,0,0,.55.09c.06-1.36,2.23-4.18,2.6-4.61.06-.07.17,0,.1.11-.49.58-2.65,3.47-2.34,4.53,2.26.07,5.12-1.05,7.08-1a9.61,9.61,0,0,1,5.93,2.85,9,9,0,0,1,2.84,5.3c0-.13,0-.26,0-.39a6.81,6.81,0,0,0-3.3-6.6c-.12-.07,0-.24.11-.18a7.56,7.56,0,0,1,3.81,5.68A10.31,10.31,0,0,1,34,60.31a6.25,6.25,0,0,1-1.31,4.26,10.44,10.44,0,0,1-2.24,3.55,7.57,7.57,0,0,1-6.35,2.54c-.12,0-.12-.21,0-.2a6.82,6.82,0,0,0,6.44-3.6l.19-.35a9,9,0,0,1-5.33,2.78,9.67,9.67,0,0,1-6.51-1c-1.66-1-3.39-3.59-5.3-4.8-.85.7-.69,4.3-.61,5.06,0,.09-.13.13-.14,0-.07-.56-.27-4.11.44-5.27a4.59,4.59,0,0,0-.5-.24h-.05c-1,.41-1.17,2.1-1.16,2.9a13.81,13.81,0,0,0,.23,2.49c.29,1.44.67,2.86,1.08,4.27,0,0,0,0,0,0-.79-2.45-2.26-5.8-1.36-8.42a4.14,4.14,0,0,1,.53-1c-2.38.92-1.47,6.34-1,8a33.81,33.81,0,0,0,2.8,6.27c.05.08-.08.15-.13.06-1.85-3.58-3.31-6.82-3.65-10.91a7.39,7.39,0,0,1,.15-2.3,5.62,5.62,0,0,0-1,1.63c-.53,5.2,2.06,9.86,5.07,13.94,0,0,0,.1-.06.06-2.38-3.17-5.57-7.69-5.62-12-.06.29-.1.6-.14.9.34,5.5,3.44,10.13,7,14.27a.15.15,0,0,1-.22.19c-2.89-3.26-5.88-7.14-7-11.46,0,.72.07,1.42.14,2.11,1.43,4.7,4.78,8.32,8,12.1.08.09-.06.22-.15.13-2.67-3-5.64-5.82-7.34-9.32a.74.74,0,0,0,0,.14c.1.36.24.7.36,1a19,19,0,0,0,1.54,3,41.21,41.21,0,0,0,6,7c.12.12-.08.3-.2.18a49,49,0,0,1-5.21-5.51,24.4,24.4,0,0,0,5.86,6.89c.08.06,0,.18-.08.12a25.3,25.3,0,0,1-5-5.08c.33.6.67,1.19,1,1.76a22.92,22.92,0,0,0,4.61,4.86l.12-.55a.2.2,0,0,1,.38.08c0,.27-.09.54-.13.8.33.3.66.6,1,.92.15.15-.08.43-.25.3l-.84-.69a25.12,25.12,0,0,0-.78,7.15c.06.67.15,1.35.26,2a25.32,25.32,0,0,1,.85-7.07c0-.1.17,0,.15,0a24.26,24.26,0,0,0-.45,9.28,47.15,47.15,0,0,1,.77-7.79c0-.17.29-.15.27,0a41.27,41.27,0,0,0-.48,9.23,19.74,19.74,0,0,0,.66,3.59l.25.7.09.19c-.79-3.82-.17-7.88.14-11.87,0-.12.21-.1.2,0-.21,4.92-.67,9.85,1.06,14.44.37.59.76,1.18,1.18,1.75-1.77-4.09-1.76-9-1.45-13.33a.14.14,0,0,1,.28,0c-.33,5.47,0,11,3.11,15.61.22.22.44.43.67.63-2.59-3.45-2.82-9-2.86-13,0,0,.08,0,.08,0,.1,5.07.89,10.34,4.47,14.14a5.49,5.49,0,0,0,1.83.67A7.3,7.3,0,0,1,26.89,117c-2.23-3.45-3.05-6.9-3.76-10.88,0-.09.13-.12.15,0a33.32,33.32,0,0,0,1.59,6.68c.62,1.55,3.19,6.4,5.64,5.68a4.06,4.06,0,0,1-1.05-.51c-2.32-1.53-3.19-5.09-4.05-7.5,0,0,0,0,0,0,.54,1.36,1.1,2.72,1.75,4a15.06,15.06,0,0,0,1.33,2.12c.48.64,1.68,1.85,2.69,1.59l0,0a3.89,3.89,0,0,0,.25-.5c-1.27-.48-3.27-3.42-3.56-3.9-.05-.09.08-.15.14-.07.39.65,2.45,3.61,3.56,3.65.78-2.13.6-5.2,1.28-7a9.64,9.64,0,0,1,4.56-4.74,9.07,9.07,0,0,1,5.93-1l-.36-.16a6.8,6.8,0,0,0-7.3,1.07c-.1.09-.23-.07-.13-.16a7.5,7.5,0,0,1,6.58-1.84,10.26,10.26,0,0,1,3.94,1.44,6.27,6.27,0,0,1,3.62,2.57,10.49,10.49,0,0,1,2.67,3.24,7.54,7.54,0,0,1,.43,6.82c-.05.12-.24,0-.19-.07a6.81,6.81,0,0,0-1.4-7.24l-.27-.29a9,9,0,0,1,1,5.93,9.65,9.65,0,0,1-3,5.88c-1.52,1.25-4.47,2.1-6.22,3.54.4,1,3.88,2,4.62,2.15.1,0,.08.17,0,.15-.56-.11-4-1-4.87-2.07a3.62,3.62,0,0,0-.38.41s0,0,0,0c.09,1,1.63,1.76,2.39,2a14.62,14.62,0,0,0,2.44.56c1.46.18,2.93.26,4.39.31a0,0,0,1,1,0,0c-2.57,0-6.21.34-8.42-1.34a4.08,4.08,0,0,1-.83-.83c.13,2.55,5.56,3.37,7.23,3.45a33.49,33.49,0,0,0,6.83-.71c.09,0,.12.13,0,.15-4,.64-7.52,1-11.51.05a7.38,7.38,0,0,1-2.14-.86,5.67,5.67,0,0,0,1.22,1.5c4.77,2.12,10,1.13,14.83-.46.05,0,.09.06,0,.08-3.76,1.27-9,2.89-13.17,1.58.27.15.54.29.82.42,5.33,1.4,10.7-.1,15.76-2.23a.15.15,0,0,1,.11.27c-4,1.72-8.62,3.36-13.07,3,.68.2,1.37.38,2,.53,4.91.11,9.4-1.95,14-3.78a.1.1,0,0,1,.08.19c-3.66,1.61-7.29,3.54-11.15,4.06l.21,0H55a20.33,20.33,0,0,0,3.62-.56,42,42,0,0,0,8.55-3.51c.15-.07.26.17.11.25a46.66,46.66,0,0,1-7.12,3.31,24.4,24.4,0,0,0,8.63-3.5c.08-.05.18.07.1.12a25.33,25.33,0,0,1-6.39,3.14c.68-.12,1.34-.26,2-.42a23.24,23.24,0,0,0,6.06-2.85l-.48-.3c-.19-.12,0-.43.19-.33l.72.38c.39-.23.78-.45,1.18-.66.19-.1.39.21.21.33l-.92.58a25.26,25.26,0,0,0,6.55,3c.65.15,1.32.28,2,.39a25.48,25.48,0,0,1-6.44-3c-.08-.06,0-.17.09-.12a24.37,24.37,0,0,0,8.67,3.32,47.48,47.48,0,0,1-7.15-3.16c-.16-.08-.06-.32.1-.25a42.06,42.06,0,0,0,8.62,3.34,20,20,0,0,0,3.6.49l.76,0,.2,0c-3.87-.45-7.53-2.31-11.22-3.85a.1.1,0,0,1,.08-.18c4.61,1.74,9.14,3.71,14,3.5.68-.16,1.36-.35,2-.56-4.43.4-9.08-1.14-13.12-2.79-.17-.07,0-.34.12-.27,5.09,2,10.49,3.42,15.79,1.93.28-.14.55-.29.81-.44-4.09,1.39-9.41-.13-13.19-1.33-.05,0,0-.09,0-.07,4.85,1.49,10.1,2.38,14.83.17a5.59,5.59,0,0,0,1.21-1.53,7,7,0,0,1-2.13.9c-4,1-7.51.74-11.5.17a.07.07,0,1,1,0-.14,33.44,33.44,0,0,0,6.84.57c1.67-.11,7.08-1,7.16-3.58a4,4,0,0,1-.81.84c-2.18,1.72-5.83,1.44-8.4,1.5,0,0,0,0,0,0,1.47-.08,2.93-.19,4.39-.4a13.67,13.67,0,0,0,2.43-.59c.76-.26,2.28-1,2.35-2.06,0,0,0,0,0,0a3.68,3.68,0,0,0-.39-.4c-.85,1.06-4.27,2-4.83,2.16-.09,0-.11-.13,0-.15.73-.17,4.19-1.21,4.57-2.24-1.77-1.41-4.74-2.2-6.28-3.42a9.71,9.71,0,0,1-3.08-5.82,9.06,9.06,0,0,1,.87-6l-.27.29a6.82,6.82,0,0,0-1.26,7.27c0,.12-.14.19-.2.07a7.57,7.57,0,0,1,.31-6.82,10.28,10.28,0,0,1,2.61-3.3,6.37,6.37,0,0,1,3.57-2.64,10.51,10.51,0,0,1,3.91-1.51,7.52,7.52,0,0,1,6.62,1.72c.09.09,0,.25-.13.16a6.8,6.8,0,0,0-7.32-.93l-.35.17a9,9,0,0,1,5.93.92,9.66,9.66,0,0,1,4.66,4.65c.71,1.83.59,4.9,1.41,7,1.11-.06,3.12-3,3.5-3.71,0-.08.19,0,.14.06-.28.5-2.23,3.47-3.49,4a4.59,4.59,0,0,0,.26.49l0,0c1,.24,2.19-1,2.66-1.65a13.61,13.61,0,0,0,1.28-2.14c.63-1.33,1.17-2.7,1.68-4.07,0,0,0,0,0,0-.82,2.43-1.62,6-3.9,7.58a4.65,4.65,0,0,1-1,.53c2.46.67,4.93-4.23,5.52-5.79a33.5,33.5,0,0,0,1.47-6.71.08.08,0,0,1,.15,0c-.64,4-1.39,7.46-3.55,11a7.39,7.39,0,0,1-1.49,1.76,5.67,5.67,0,0,0,1.81-.69c3.51-3.87,4.2-9.16,4.2-14.23,0,0,.08-.06.08,0,0,4-.08,9.5-2.61,13,.23-.2.45-.42.66-.64,3-4.63,3.24-10.2,2.81-15.66a.15.15,0,0,1,.29,0c.38,4.35.49,9.24-1.2,13.36.41-.58.79-1.18,1.14-1.78,1.64-4.62,1.09-9.53.79-14.45,0-.12.18-.15.19,0,.39,4,1.09,8,.37,11.86l.09-.19.24-.71a20.49,20.49,0,0,0,.59-3.6,41.68,41.68,0,0,0-.66-9.21.14.14,0,0,1,.27,0,46.35,46.35,0,0,1,.92,7.78,24.52,24.52,0,0,0-.62-9.28.07.07,0,0,1,.14,0,25.23,25.23,0,0,1,1,7c.09-.68.17-1.36.22-2a23,23,0,0,0-.82-6.64l-.43.37c-.17.14-.4-.14-.25-.29s.38-.38.58-.57c-.09-.44-.18-.88-.25-1.33,0-.21.31-.3.37-.09.1.37.18.7.27,1a25.39,25.39,0,0,0,4.88-5.29c.35-.57.67-1.17,1-1.78a25.31,25.31,0,0,1-4.88,5.18c-.08.06-.16-.07-.09-.13a24.28,24.28,0,0,0,5.87-7.2,45.39,45.39,0,0,1-5.24,5.81c-.13.13-.33,0-.21-.17a42,42,0,0,0,5.87-7.14,20.71,20.71,0,0,0,1.6-3.28l.21-.71a1.55,1.55,0,0,0,0-.21c-1.63,3.54-4.54,6.44-7.16,9.46-.08.1-.23,0-.15-.13,3.1-3.83,6.38-7.52,7.72-12.24.06-.69.09-1.4.1-2.12-1,4.34-3.92,8.27-6.75,11.6a.15.15,0,0,1-.22-.19c3.52-4.21,6.53-8.9,6.77-14.4-.05-.31-.1-.61-.16-.91,0,4.32-3.08,8.9-5.39,12.11,0,0-.09,0-.06,0,2.93-4.14,5.42-8.85,4.8-14a5.81,5.81,0,0,0-1.08-1.62,7.25,7.25,0,0,1,.2,2.3c-.26,4.1-1.65,7.37-3.44,11,0,.08-.17,0-.13-.07a34.07,34.07,0,0,0,2.68-6.32c.42-1.62,1.24-7.05-1.16-7.92a4.26,4.26,0,0,1,.55,1c.95,2.6-.46,6-1.2,8.44,0,0,0,0,0,0,.38-1.42.73-2.84,1-4.29A13.86,13.86,0,0,0,130,65.3c0-.81-.25-2.49-1.22-2.88h0l-.5.25c.74,1.14.61,4.69.55,5.26,0,.1-.15.07-.15,0,.07-.75.17-4.36-.7-5.05-1.89,1.25-3.57,3.82-5.21,4.9a9.64,9.64,0,0,1-6.49,1.1,9,9,0,0,1-5.38-2.68c.07.11.12.23.2.34a6.79,6.79,0,0,0,6.5,3.48c.14,0,.14.19,0,.21a7.52,7.52,0,0,1-6.38-2.43,10.33,10.33,0,0,1-2.32-3.51A6.31,6.31,0,0,1,107.51,60a10.56,10.56,0,0,1-.22-4.17,7.56,7.56,0,0,1,3.7-5.74c.12-.06.23.1.12.17a6.83,6.83,0,0,0-3.18,6.66c0,.14,0,.27,0,.39A9,9,0,0,1,110.72,52a9.69,9.69,0,0,1,5.87-3c2-.1,4.85,1,7.11.85.28-1.07-1.93-3.91-2.44-4.48-.06-.07,0-.18.1-.11.39.42,2.6,3.2,2.69,4.56l.55-.1,0,0c.54-.89-.26-2.39-.73-3a14.16,14.16,0,0,0-1.64-1.9c-1.06-1-2.19-2-3.34-2.86,0,0,0,0,0,0,2.06,1.54,5.2,3.42,6,6.07a4.11,4.11,0,0,1,.18,1.17c1.41-2.13-2.47-6-3.77-7.07a33.75,33.75,0,0,0-5.91-3.49.07.07,0,0,1,.06-.13c3.59,1.85,6.65,3.65,9.29,6.79a7.1,7.1,0,0,1,1.21,2,5.57,5.57,0,0,0-.09-1.94c-2.58-4.54-7.38-6.86-12.2-8.44,0,0,0-.1,0-.08,3.77,1.21,9,3,11.52,6.54-.12-.27-.26-.55-.4-.82-3.47-4.29-8.68-6.27-14-7.57a.14.14,0,0,1,.06-.28c4.25,1,8.93,2.42,12.32,5.32-.43-.57-.88-1.12-1.33-1.64-3.88-3-8.72-4-13.49-5.27a.1.1,0,0,1,0-.19c3.9.87,8,1.48,11.37,3.35l-.15-.14-.59-.44a20.34,20.34,0,0,0-3.24-1.69,41.17,41.17,0,0,0-9-2.26c-.17,0-.11-.29.06-.27A46.05,46.05,0,0,1,114.61,33a24.28,24.28,0,0,0-9-2.31c-.1,0-.1-.16,0-.15a25.23,25.23,0,0,1,7,1.26c-.62-.3-1.24-.59-1.86-.84a10.62,10.62,0,0,0-1.47-.5l6.18,1.52c3.46,1.62,7.24,4,9.17,7.43,1,1.85,2.36,4.93,2.32,7.53,1-4.79-2.7-10.77-4.94-14.35-3.44-5.5-8.5-8.74-13.94-12.06-.19-.13,0-.45.17-.33l.64.37c-4.23-3.5-8.48-6.57-14-7.93-4.09-1-10.92-2.61-15.17-.2a16.74,16.74,0,0,1,7.88-.15c3.87.75,7.3,3.61,9.92,6.38A29.94,29.94,0,0,1,104,29.1l4.3,1.06c-1.35-.28-2.71-.4-4.09-.55l.21.52c.08.2-.26.34-.35.15s-.24-.49-.36-.73l-1.34-.18c-.21,0-.19-.39,0-.38l1.08.07a25.22,25.22,0,0,0-3.5-6.28c-.43-.51-.9-1-1.38-1.51A25.41,25.41,0,0,1,102,27.54c0,.09-.11.13-.14,0a24.57,24.57,0,0,0-5-7.83,46.1,46.1,0,0,1,3.88,6.8c.08.15-.15.29-.23.14a41.5,41.5,0,0,0-4.95-7.81,20.2,20.2,0,0,0-2.61-2.54c-.2-.15-.41-.29-.62-.43l-.17-.1c2.84,2.66,4.69,6.33,6.74,9.76.07.11-.1.21-.17.1-2.67-4.14-5.15-8.41-9.22-11.16-.63-.27-1.3-.53-2-.75,3.81,2.31,6.63,6.31,8.9,10,.1.15-.15.3-.25.14C93.25,19.29,89.73,15,84.58,13c-.31,0-.61-.1-.91-.13,4.11,1.32,7.49,5.7,9.82,8.9a0,0,0,0,1-.07,0c-3-4.08-6.71-7.92-11.83-8.95a5.67,5.67,0,0,0-1.88.51,7.29,7.29,0,0,1,2.25.54c3.81,1.52,6.48,3.87,9.36,6.7.06.06,0,.17-.11.1a33.7,33.7,0,0,0-5.16-4.53c-1.41-.9-6.31-3.37-7.89-1.37a4.2,4.2,0,0,1,1.16-.19c2.77-.09,5.53,2.3,7.64,3.78,0,0,0,0,0,0-1.22-.81-2.47-1.59-3.76-2.28a14.08,14.08,0,0,0-2.31-1c-.76-.25-2.44-.54-3.11.25,0,0,0,0,0,.05a5.21,5.21,0,0,0,.08.55c1.32-.34,4.65.9,5.17,1.13.09,0,0,.17-.08.13-.69-.3-4.09-1.52-5-.91.59,2.18,2.51,4.58,3,6.48a9.64,9.64,0,0,1-1,6.51,9,9,0,0,1-4.23,4.27c.13,0,.26,0,.39-.08a6.82,6.82,0,0,0,5.34-5.09c0-.13.22-.08.19.05a7.54,7.54,0,0,1-4.3,5.31,10.37,10.37,0,0,1-4,1.1,6.34,6.34,0,0,1-4.48,0,10.32,10.32,0,0,1-4-1.1,7.54,7.54,0,0,1-4.3-5.31c0-.13.17-.18.2-.05A6.79,6.79,0,0,0,66,33.58c.13,0,.26.05.39.08a9,9,0,0,1-4.23-4.27,9.64,9.64,0,0,1-1-6.51c.51-1.9,2.43-4.3,3-6.48-.92-.61-4.32.61-5,.91-.09,0-.17-.09-.08-.13.52-.23,3.86-1.47,5.17-1.13a3.47,3.47,0,0,0,.08-.55l0-.05C63.69,14.66,62,15,61.25,15.2ZM71.71,38c4.11-.36,7.73-.19,11.63,1.77,1.35.67,4,2.26,4.59,4.09l.25,0a1.92,1.92,0,0,0,.54-.11,3.48,3.48,0,0,0,.48-.21,1,1,0,0,1,.4-.18h0a1.2,1.2,0,0,1,.67-.77,3.21,3.21,0,0,1,2-.13,1.4,1.4,0,0,1,.31-.28c.42-.3.94-.45,1.39-.72a7.77,7.77,0,0,0,1.26-1h0a8.25,8.25,0,0,1,.69-.85c.09-.09.3,0,.23.13s-.22.47-.34.71a1.43,1.43,0,0,1-.08.37v0a7.65,7.65,0,0,0-.58,1.53c-.12.51-.09,1-.24,1.54a2.06,2.06,0,0,1-.16.37,3.15,3.15,0,0,1,.48,1.9,1.18,1.18,0,0,1-.52.88h0a1.11,1.11,0,0,1,0,.44,3,3,0,0,0,0,.52,2.06,2.06,0,0,0,.06.55c0,.07,0,.16.06.24,1.91,0,4.27,2,5.34,3.06,3.46,3.45,4.68,7.28,5.69,11.94,1.62,3.78,2.59,7.28,1.95,11.59-.22,1.49-.89,4.53-2.45,5.65,0,.08.07.16.09.23a2.43,2.43,0,0,0,.28.47,3.34,3.34,0,0,0,.35.4,1.26,1.26,0,0,1,.3.31s0,0,0,0a1.22,1.22,0,0,1,.94.39,3.15,3.15,0,0,1,.73,1.81,1.53,1.53,0,0,1,.37.21c.42.31.72.76,1.11,1.09a7.68,7.68,0,0,0,1.38.88,0,0,0,0,1,0,0,8.31,8.31,0,0,1,1,.4c.12.05.12.28,0,.25l-.78-.1a1.31,1.31,0,0,1-.39,0h0a7.42,7.42,0,0,0-1.63-.07c-.52,0-1,.24-1.55.25a1.61,1.61,0,0,1-.39,0,3.22,3.22,0,0,1-1.66,1.06,1.25,1.25,0,0,1-1-.22h0a1,1,0,0,1-.43.09,2.8,2.8,0,0,0-.5.12,2,2,0,0,0-.51.23l-.21.13c.64,1.81-.56,4.68-1.24,6-2.19,4.37-5.45,6.73-9.56,9.14-3.09,2.72-6.1,4.74-10.4,5.48-1.49.26-4.58.57-6.13-.57l-.18.17a2.05,2.05,0,0,0-.37.41,4.12,4.12,0,0,0-.27.45,1.15,1.15,0,0,1-.2.38h0a1.23,1.23,0,0,1-.08,1,3.19,3.19,0,0,1-1.49,1.28,1.93,1.93,0,0,1-.08.39c-.16.5-.49.92-.69,1.4a8,8,0,0,0-.4,1.58s0,0,0,0a7.79,7.79,0,0,1-.06,1.09c0,.13-.23.2-.25,0s-.11-.51-.16-.78a1.14,1.14,0,0,1-.15-.34l0,0a8,8,0,0,0-.43-1.57c-.21-.48-.55-.89-.73-1.39a1.84,1.84,0,0,1-.08-.38,3.28,3.28,0,0,1-1.53-1.25,1.2,1.2,0,0,1-.1-1h0a1,1,0,0,1-.22-.38,4.21,4.21,0,0,0-.28-.45,2,2,0,0,0-.37-.4l-.19-.16c-1.52,1.17-4.62.93-6.12.71-4.83-.72-8.09-3.08-11.67-6.22-3.55-2.09-6.4-4.32-8.45-8.17-.71-1.33-2-4.18-1.38-6l-.21-.13a2.53,2.53,0,0,0-.51-.22,4.36,4.36,0,0,0-.52-.11.88.88,0,0,1-.42-.08s0,0,0,0a1.2,1.2,0,0,1-1,.24,3.14,3.14,0,0,1-1.69-1,2.44,2.44,0,0,1-.39,0c-.53,0-1-.19-1.55-.22a8.08,8.08,0,0,0-1.63.11h0a8.55,8.55,0,0,1-1,.29c-.13,0-.26-.15-.12-.23s.46-.25.69-.38a1.14,1.14,0,0,1,.28-.26s0,0,0,0a8.22,8.22,0,0,0,1.36-.9c.39-.35.68-.81,1.09-1.13a2.24,2.24,0,0,1,.36-.21,3.06,3.06,0,0,1,.69-1.82,1.18,1.18,0,0,1,.93-.42v0a1.26,1.26,0,0,1,.29-.32,3.26,3.26,0,0,0,.34-.4,2.12,2.12,0,0,0,.27-.49c0-.06.06-.14.09-.23-1.59-1.07-2.33-4.1-2.58-5.58-.84-4.86.41-8.72,2.3-13.15,0,0,0-.05.07-.05,1-4.22,2.22-7.76,5.43-11,1.06-1.07,3.41-3.11,5.33-3.08,0-.08,0-.17,0-.24a2.06,2.06,0,0,0,.06-.55,3,3,0,0,0,0-.52,1,1,0,0,1,0-.44h0a1.21,1.21,0,0,1-.52-.87,3.24,3.24,0,0,1,.47-1.91,3.17,3.17,0,0,1-.16-.37c-.15-.5-.12-1-.24-1.54a8,8,0,0,0-.59-1.52v0a8.51,8.51,0,0,1-.59-.93c-.06-.11.08-.29.19-.17l.57.54a1.19,1.19,0,0,1,.33.19h0a7.77,7.77,0,0,0,1.26,1c.45.27,1,.41,1.4.71a1.4,1.4,0,0,1,.31.28,3.15,3.15,0,0,1,2,.12,1.26,1.26,0,0,1,.67.77h0a1,1,0,0,1,.4.18,4,4,0,0,0,.48.2,2.1,2.1,0,0,0,.54.12l.25,0c.56-1.84,3.23-3.44,4.58-4.12C63,37.45,67,37.49,71.71,38Z"/><path class="cls-1" d="M94.52,114.86l-.1,0,.08.15C94.51,115,94.51,114.91,94.52,114.86Z"/><path class="cls-1" d="M113.85,55.09l-.1,0,0,.07Z"/><path class="cls-1" d="M81.74,73.92a5.48,5.48,0,0,0-.12-.64s-.05-.07,0-.1-.07-.29-.11-.44a10.42,10.42,0,0,0-1.36-2.95,10.16,10.16,0,0,0-3-2.93,10.63,10.63,0,0,0-4.63-1.58,10.38,10.38,0,0,0-5.32.93,10.25,10.25,0,0,0-5.51,6.41,11,11,0,0,0-.41,2.93,10,10,0,0,0,1.63,5.59,10.71,10.71,0,0,0,4.29,3.74,9.84,9.84,0,0,0,2.64.82,10.1,10.1,0,0,0,1.36.15c.36,0,.74,0,1.11,0h.2a10.71,10.71,0,0,0,4.64-1.58,10.31,10.31,0,0,0,3-2.94,9.84,9.84,0,0,0,1.22-2.53h-.09c-.07,0-.07-.13,0-.12l.12,0c0-.11.08-.22.11-.33s.06-.25.1-.37l-.09,0c-.08,0-.07-.15,0-.14h.12a6,6,0,0,0,.12-.65,5.77,5.77,0,0,0,.11-.89c0-.49,0-.74,0-.74s0-.26,0-.75A5.53,5.53,0,0,0,81.74,73.92ZM77.81,76a3.25,3.25,0,0,1-.06.56,5.11,5.11,0,0,1-.15.74,6.62,6.62,0,0,1-.82,1.86,7,7,0,0,1-1.84,1.91A6.88,6.88,0,0,1,72,82.23a7.93,7.93,0,0,1-.87.06,6.53,6.53,0,0,1-.87-.05,6.71,6.71,0,0,1-3.42-1.45,7.08,7.08,0,0,1-1.33-1.45,7.28,7.28,0,0,1-.86-1.8,7.46,7.46,0,0,1-.32-2,7.59,7.59,0,0,1,.32-2,7.28,7.28,0,0,1,.86-1.8,7.38,7.38,0,0,1,1.33-1.45,7.05,7.05,0,0,1,1.64-1,6.75,6.75,0,0,1,6.46.69,7,7,0,0,1,1.84,1.91,6.35,6.35,0,0,1,.82,1.86,5.22,5.22,0,0,1,.15.75,3.05,3.05,0,0,1,.06.55c0,.3,0,.47,0,.47S77.82,75.71,77.81,76Z"/><path class="cls-1" d="M77.73,74.53a4,4,0,0,0-.16-.74A6.31,6.31,0,0,0,76.72,72a6.49,6.49,0,0,0-1.86-1.83,6.62,6.62,0,0,0-2.89-1,6.42,6.42,0,0,0-3.31.58A6.57,6.57,0,0,0,66,72.06a6.57,6.57,0,0,0-.77,5.31A6.84,6.84,0,0,0,66,79a6.62,6.62,0,0,0,2.68,2.33,5.87,5.87,0,0,0,1.64.51,6,6,0,0,0,.85.1L72,82a6.76,6.76,0,0,0,2.89-1,6.46,6.46,0,0,0,2.71-3.67,4,4,0,0,0,.16-.74A3.17,3.17,0,0,0,77.8,76l0-.46s0-.17,0-.47A3.29,3.29,0,0,0,77.73,74.53Z"/><path class="cls-1" d="M66,43.61c.09,0,0,.18-.07.14-2.82-1.14-5.81-1.92-8.76-1.09l-.35.19c2.26-.72,5.17.13,7.23.81,0,0,0,0,0,0-2.66-.85-5.55-1.36-8.17-.17a3.14,3.14,0,0,0-.67.85,3.85,3.85,0,0,1,1.17-.49,15.27,15.27,0,0,1,6.35,0s0,.09,0,.08a18.43,18.43,0,0,0-3.77-.34c-.93.05-3.92.54-4,1.94a2.44,2.44,0,0,1,.45-.46c1.21-.94,3.22-.77,4.64-.79,0,0,0,0,0,0-.81,0-1.62.1-2.42.21a7.69,7.69,0,0,0-1.34.32c-.41.13-1.22.53-1.29,1.08,0,0,0,0,0,.08l.2.2A7.22,7.22,0,0,1,57.86,45a0,0,0,1,1,0,.08c-.4.09-2.31.65-2.53,1.22,1,.79,2.61,1.24,3.45,1.92a5.24,5.24,0,0,1,1.67,3.22A4.93,4.93,0,0,1,60,54.7l.15-.14a3.77,3.77,0,0,0,.73-4c0-.07.07-.1.1,0a4.16,4.16,0,0,1-.19,3.76,5.67,5.67,0,0,1-1.45,1.8,3.5,3.5,0,0,1-2,1.46,5.72,5.72,0,0,1-2.15.81,4.17,4.17,0,0,1-3.64-1s0-.14.07-.09a3.76,3.76,0,0,0,4,.54l.18-.09a5,5,0,0,1-3.26-.54A5.29,5.29,0,0,1,50,54.61c-.38-1-.31-2.71-.75-3.87-.61,0-1.73,1.67-1.94,2,0,0-.1,0-.08,0a7.12,7.12,0,0,1,1.93-2.18c0-.08-.07-.17-.12-.25l-.07,0c-.55-.09-1.18.55-1.43.9a7.82,7.82,0,0,0-.72,1.17c-.35.73-.66,1.48-.94,2.24a0,0,0,0,1,0,0c.47-1.34.92-3.31,2.19-4.17a2.86,2.86,0,0,1,.58-.29c-1.36-.38-2.74,2.32-3.08,3.17a18.69,18.69,0,0,0-.83,3.7,0,0,0,1,1-.08,0,15.21,15.21,0,0,1,2-6,4,4,0,0,1,.83-1,3.12,3.12,0,0,0-1,.38c-1.94,2.12-2.35,5-2.37,7.82a0,0,0,0,1,0,0c0-2.18.09-5.22,1.5-7.14-.11.1-.22.19-.32.3C43.51,53.9,43.33,57,43.55,60a.08.08,0,0,1-.16,0,16.09,16.09,0,0,1,.72-7.36c-.23.32-.44.65-.64,1-.92,2.54-.64,5.25-.49,8,0,.07-.11.08-.11,0a23.58,23.58,0,0,1-.16-6.54l0,.08c0,.13-.08.26-.13.38a11.4,11.4,0,0,0-.36,2,23.3,23.3,0,0,0,.32,5.08.08.08,0,0,1-.15,0,27.05,27.05,0,0,1-.47-4.15,13.48,13.48,0,0,0,.3,5c0,.05-.06.08-.07,0a13.5,13.5,0,0,1-.51-4c-.06.4-.11.79-.14,1.18a14.2,14.2,0,0,0,.49,4,.1.1,0,0,1,.12.16L42,65c0,.14.05.28.07.42s-.18.17-.21,0l-.06-.27a15.55,15.55,0,0,0-2.91,3.2q-.3.51-.57,1.05a14,14,0,0,1,2.69-3s.09,0,0,.07A13.22,13.22,0,0,0,38,70.44a27,27,0,0,1,2.77-3.12c.07-.07.18,0,.12.1a22.67,22.67,0,0,0-3.19,4,10.41,10.41,0,0,0-.86,1.86c0,.13-.09.25-.12.37l0,.17a23.15,23.15,0,0,1,3.9-5.33c0-.06.13,0,.08.07-1.68,2.13-3.47,4.19-4.17,6.8,0,.38,0,.76,0,1.15a16.06,16.06,0,0,1,3.64-6.42.08.08,0,0,1,.13.1c-1.93,2.36-3.56,5-3.63,8,0,.14,0,.26.08.39,0-2.37,1.64-4.89,2.89-6.67,0,0,.06,0,0,0C38,74.26,36.64,76.87,37,79.72a2.87,2.87,0,0,0,.61.89,3.78,3.78,0,0,1-.13-1.26,15.17,15.17,0,0,1,1.83-6.08s.09,0,.07,0A18.78,18.78,0,0,0,38,76.81c-.22.89-.64,3.89.69,4.36a2.39,2.39,0,0,1-.31-.57c-.54-1.43.22-3.3.61-4.66h0c-.21.79-.39,1.57-.52,2.37a7.12,7.12,0,0,0-.09,1.38c0,.43.15,1.31.65,1.55h.09l.24-.13A7.07,7.07,0,0,1,39,78.23c0-.06.09,0,.09,0,0,.41-.07,2.4.41,2.77,1-.69,2-2.12,2.85-2.73a5.34,5.34,0,0,1,3.57-.65,5,5,0,0,1,3,1.44c0-.06-.06-.12-.1-.18A3.74,3.74,0,0,0,45.18,77c-.07,0-.08-.1,0-.11a4.13,4.13,0,0,1,3.54,1.3A5.74,5.74,0,0,1,50,80.12a3.5,3.5,0,0,1,.8,2.34A5.71,5.71,0,0,1,51,84.75a4.15,4.15,0,0,1-2,3.19c-.07,0-.13,0-.07-.09a3.74,3.74,0,0,0,1.71-3.69c0-.07,0-.14,0-.2a5,5,0,0,1-1.46,3,5.32,5.32,0,0,1-3.22,1.67c-1.08.07-2.68-.5-3.93-.42-.15.59,1.09,2.15,1.37,2.45,0,0,0,.11-.05.07a7.17,7.17,0,0,1-1.51-2.49l-.27,0-.07.06c-.25.49.18,1.28.44,1.62a7.53,7.53,0,0,0,.91,1c.6.55,1.22,1.06,1.87,1.56h0c-1.15-.84-2.89-1.85-3.34-3.32a2.39,2.39,0,0,1-.11-.63c-.76,1.18,1.41,3.3,2.13,3.87a18.69,18.69,0,0,0,3.28,1.88c.05,0,0,.1,0,.08a15.31,15.31,0,0,1-5.17-3.69,3.92,3.92,0,0,1-.68-1.08,3.32,3.32,0,0,0,.07,1.08c1.45,2.48,4.11,3.73,6.78,4.57,0,0,0,0,0,0-2.08-.63-4.95-1.61-6.38-3.5l.17.36c1.94,2.38,4.84,3.46,7.8,4.14a.08.08,0,0,1,0,.16,15.94,15.94,0,0,1-6.82-2.86c.24.31.48.61.74.9,2.16,1.63,4.83,2.16,7.47,2.82a.06.06,0,0,1,0,.11,23.4,23.4,0,0,1-6.35-1.83l.13.11.31.22a11.24,11.24,0,0,0,1.82,1,23.74,23.74,0,0,0,5,1.19c.09,0,.06.16,0,.14a24.88,24.88,0,0,1-4.11-.77A13.29,13.29,0,0,0,52,98.65c.06,0,.07.08,0,.08a14,14,0,0,1-3.93-.68c.36.17.72.34,1.09.48a12.72,12.72,0,0,0,3.63.68l-.12-.29c0-.11.13-.19.19-.09l.2.4.74.09c.12,0,.11.22,0,.21l-.6,0a14.3,14.3,0,0,0,2,3.45c.26.29.53.58.82.86a13.76,13.76,0,0,1-2-3.48s.06-.07.08,0a13.33,13.33,0,0,0,2.73,4.17,26.19,26.19,0,0,1-2.1-3.61c-.05-.08.08-.16.12-.08a23,23,0,0,0,2.78,4.27,10.46,10.46,0,0,0,1.5,1.4l.32.23.14.08a23.56,23.56,0,0,1-3.84-5.37c0-.06.06-.12.09-.06,1.5,2.27,2.9,4.61,5.16,6.1q.53.21,1.08.39a16,16,0,0,1-5-5.47.08.08,0,1,1,.13-.08c1.64,2.56,3.63,4.93,6.51,6l.4.05c-2.25-.72-4.13-3.1-5.43-4.84,0,0,0,0,0,0,1.68,2.23,3.75,4.32,6.57,4.86a3.4,3.4,0,0,0,1-.3,4,4,0,0,1-1.24-.28,15.22,15.22,0,0,1-5.2-3.63s0-.1,0-.06a18.73,18.73,0,0,0,2.88,2.46c.78.49,3.5,1.82,4.36.71a2.52,2.52,0,0,1-.64.11c-1.53.07-3.07-1.23-4.24-2,0,0,0,0,0,0,.68.44,1.37.86,2.09,1.24a7.42,7.42,0,0,0,1.28.51c.41.13,1.3.27,1.68-.13l0-.08c0-.09,0-.18,0-.28a7,7,0,0,1-2.84-.59s0-.09,0-.07c.38.16,2.26.82,2.77.47-.34-1.2-1.41-2.51-1.71-3.55a5.36,5.36,0,0,1,.5-3.6,5,5,0,0,1,2.3-2.37l-.21,0a3.79,3.79,0,0,0-2.91,2.85c0,.07-.12,0-.1,0a4.19,4.19,0,0,1,2.33-3,5.92,5.92,0,0,1,2.22-.63,3.47,3.47,0,0,1,2.48,0,5.66,5.66,0,0,1,2.22.58,4.13,4.13,0,0,1,2.4,2.9c0,.07-.09.1-.1,0a3.76,3.76,0,0,0-3-2.78l-.2,0A5,5,0,0,1,76,99.06a5.38,5.38,0,0,1,.58,3.58c-.27,1-1.31,2.39-1.63,3.6.52.32,2.38-.37,2.76-.54.05,0,.09,0,0,.07a7.1,7.1,0,0,1-2.83.66c0,.09,0,.18,0,.28a.25.25,0,0,0,0,.07c.39.4,1.27.24,1.68.1a7.07,7.07,0,0,0,1.26-.55c.71-.39,1.4-.83,2.07-1.28,0,0,0,0,0,0-1.16.83-2.67,2.17-4.19,2.14a2.52,2.52,0,0,1-.64-.1c.88,1.09,3.57-.3,4.34-.81a19.32,19.32,0,0,0,2.82-2.53s.09,0,0,.06a15.25,15.25,0,0,1-5.11,3.75,4,4,0,0,1-1.24.31,3.18,3.18,0,0,0,1,.27c2.81-.6,4.82-2.74,6.45-5,0,0,.06,0,0,0-1.25,1.77-3.07,4.19-5.32,5a2.57,2.57,0,0,0,.4-.05c2.86-1.09,4.8-3.51,6.37-6.11a.08.08,0,0,1,.14.08,16,16,0,0,1-4.83,5.58,10.78,10.78,0,0,0,1.07-.42c2.22-1.53,3.56-3.91,5-6.21,0-.06.13,0,.1.06a23.5,23.5,0,0,1-3.72,5.46l.14-.09c.11-.07.21-.16.32-.24a11,11,0,0,0,1.46-1.43,23.3,23.3,0,0,0,2.68-4.33c0-.09.17,0,.13.07a25.8,25.8,0,0,1-2,3.66,13.57,13.57,0,0,0,2.63-4.23s.1,0,.08,0a14,14,0,0,1-1.87,3.52c.27-.29.54-.58.79-.88a12.53,12.53,0,0,0,1.78-3.24l-.31,0c-.12,0-.14-.2,0-.21l.44-.07c.1-.22.21-.45.32-.67s.24,0,.19.08l-.21.55a13.81,13.81,0,0,0,3.88-.79q.54-.24,1.08-.51a14,14,0,0,1-3.91.77c-.06,0,0-.08,0-.08a13.61,13.61,0,0,0,4.81-1.28A27.09,27.09,0,0,1,91,98c-.1,0-.13-.13,0-.15a22.83,22.83,0,0,0,4.93-1.3,11.46,11.46,0,0,0,1.79-1l.32-.23.13-.12a23.33,23.33,0,0,1-6.31,2c-.07,0-.09-.08,0-.1,2.61-.72,5.28-1.31,7.4-3,.24-.29.49-.59.72-.91a16,16,0,0,1-6.76,3c-.1,0-.13-.13,0-.15,2.94-.75,5.81-1.9,7.69-4.32a2.48,2.48,0,0,0,.17-.37c-1.38,1.93-4.23,3-6.29,3.65,0,0,0,0,0,0,2.64-.9,5.27-2.21,6.67-4.72a3.36,3.36,0,0,0,0-1.09,4,4,0,0,1-.65,1.1,15.31,15.31,0,0,1-5.08,3.8s-.08,0,0-.07a17.8,17.8,0,0,0,3.24-2c.71-.59,2.82-2.75,2-3.92a2.47,2.47,0,0,1-.09.64c-.42,1.47-2.14,2.53-3.26,3.39,0,0,0,0,0,0,.63-.51,1.24-1,1.82-1.6a6.41,6.41,0,0,0,.89-1.06c.25-.35.66-1.14.4-1.63l-.07-.06-.27,0a7,7,0,0,1-1.45,2.52s-.09,0-.06-.06c.28-.32,1.48-1.9,1.32-2.48-1.25-.06-2.83.55-3.92.51A5.33,5.33,0,0,1,93,86.64a5,5,0,0,1-1.54-2.93,1.52,1.52,0,0,0,0,.21,3.74,3.74,0,0,0,1.79,3.65c.07,0,0,.13-.06.1a4.16,4.16,0,0,1-2.08-3.15,5.7,5.7,0,0,1,.1-2.3,3.45,3.45,0,0,1,.75-2.36,5.74,5.74,0,0,1,1.24-1.93,4.17,4.17,0,0,1,3.51-1.38c.07,0,.07.12,0,.11a3.74,3.74,0,0,0-3.56,2,1.51,1.51,0,0,0-.09.18A4.94,4.94,0,0,1,96,77.3a5.39,5.39,0,0,1,3.59.56c.91.59,1.85,2,2.9,2.67.47-.38.4-2.37.35-2.78,0-.06.08-.08.09,0a7.23,7.23,0,0,1-.26,2.89l.24.13H103c.5-.25.62-1.14.62-1.57a8.94,8.94,0,0,0-.12-1.37c-.16-.8-.36-1.58-.58-2.36,0,0,0,0,0,0,.42,1.36,1.22,3.21.71,4.65a2.25,2.25,0,0,1-.29.58c1.31-.5.83-3.49.59-4.38a19.43,19.43,0,0,0-1.52-3.47s0-.08.07,0a15.41,15.41,0,0,1,2,6,4.4,4.4,0,0,1-.1,1.27,3.25,3.25,0,0,0,.59-.91c.3-2.86-1.1-5.44-2.74-7.7a0,0,0,1,1,0,0c1.29,1.75,3,4.24,3,6.6,0-.13,0-.26.07-.39-.14-3.06-1.83-5.65-3.81-8-.07-.08,0-.19.12-.11a16,16,0,0,1,3.79,6.34c0-.39,0-.77-.06-1.15-.77-2.6-2.6-4.61-4.34-6.71,0,0,0-.12.09-.07a23.83,23.83,0,0,1,4,5.24,1.24,1.24,0,0,0,0-.16c0-.12-.08-.24-.12-.37a10.85,10.85,0,0,0-.91-1.84,23.08,23.08,0,0,0-3.27-3.9c-.07-.07,0-.17.11-.1a26.52,26.52,0,0,1,2.85,3.07,13.23,13.23,0,0,0-3.21-3.83s0-.11,0-.07a14.24,14.24,0,0,1,2.76,2.88c-.19-.35-.39-.7-.59-1a12.25,12.25,0,0,0-2.52-2.7c0,.1,0,.2-.08.3s-.22.07-.2,0,.05-.3.08-.44c-.19-.17-.37-.33-.55-.51s0-.24.14-.16l.46.38a14,14,0,0,0,.46-3.94c0-.39-.08-.79-.14-1.18a14.19,14.19,0,0,1-.49,4c0,.05-.1,0-.08,0a13.51,13.51,0,0,0,.28-5,27,27,0,0,1-.45,4.16c0,.09-.17.08-.15,0a23.29,23.29,0,0,0,.3-5.08,11.14,11.14,0,0,0-.37-2c0-.13-.08-.25-.12-.38a.3.3,0,0,1,0-.08,23.88,23.88,0,0,1-.13,6.53c0,.07-.12.06-.11,0,.14-2.71.41-5.42-.53-8-.2-.33-.41-.66-.64-1a16.1,16.1,0,0,1,.75,7.36c0,.1-.17.08-.16,0,.21-3,0-6.12-1.7-8.66a4.11,4.11,0,0,0-.31-.29C97.86,53,98,56.05,98,58.23a0,0,0,0,1,0,0c0-2.8-.45-5.7-2.4-7.81a3.12,3.12,0,0,0-1-.38,4,4,0,0,1,.83,1,15.32,15.32,0,0,1,2,6,0,0,0,1,1-.08,0,18.9,18.9,0,0,0-.85-3.7c-.34-.85-1.74-3.54-3.09-3.15a2.25,2.25,0,0,1,.58.29c1.27.85,1.73,2.81,2.2,4.15,0,0,0,0,0,0-.29-.76-.6-1.51-.95-2.24a7.35,7.35,0,0,0-.72-1.17c-.26-.35-.89-1-1.44-.89l-.07,0c0,.08-.08.17-.12.25.7.28,1.78,1.9,1.94,2.17,0,0,0,.08-.08,0-.21-.36-1.34-2-2-2-.44,1.16-.36,2.86-.74,3.87a5.37,5.37,0,0,1-2.53,2.6,5,5,0,0,1-3.26.54l.18.1a3.77,3.77,0,0,0,4-.56.06.06,0,0,1,.08.08,4.15,4.15,0,0,1-3.64,1,5.82,5.82,0,0,1-2.16-.81,3.49,3.49,0,0,1-2-1.45,5.68,5.68,0,0,1-1.44-1.78A4.17,4.17,0,0,1,81,50.62c0-.07.14,0,.11,0a3.77,3.77,0,0,0,.75,4l.14.14a5,5,0,0,1-.51-3.26,5.33,5.33,0,0,1,1.66-3.23c.84-.68,2.47-1.14,3.44-1.92-.22-.57-2.13-1.12-2.54-1.21,0,0,0-.1,0-.09a7.14,7.14,0,0,1,2.67,1.16l.2-.19S87,46,87,46c-.08-.55-.88-.95-1.29-1.08a7.88,7.88,0,0,0-1.34-.31c-.81-.11-1.61-.16-2.42-.19,0,0,0,0,0,0,1.41,0,3.42-.16,4.63.77a2.27,2.27,0,0,1,.46.47C87,44.2,84,43.72,83,43.67a19.11,19.11,0,0,0-3.77.36s-.07-.07,0-.08a15.44,15.44,0,0,1,6.35,0,4.3,4.3,0,0,1,1.18.49,3.54,3.54,0,0,0-.68-.84c-2.62-1.19-5.51-.66-8.17.19,0,0-.05,0,0,0,2.06-.68,5-1.54,7.22-.83-.11-.06-.22-.13-.35-.19-3-.82-5.94,0-8.75,1.13-.1,0-.16-.1-.07-.14a16,16,0,0,1,7.21-1.63c-.37-.11-.74-.21-1.11-.29-2.71-.09-5.19,1-7.72,2a.06.06,0,0,1,0-.1,24.14,24.14,0,0,1,6.16-2.19H80a10.78,10.78,0,0,0-2,.28,23.16,23.16,0,0,0-4.73,1.9c-.09,0-.14-.1-.06-.14A25.9,25.9,0,0,1,77,41.83a13.32,13.32,0,0,0-4.63,1.85s-.1,0-.06-.07a14.11,14.11,0,0,1,3.61-1.72q-.6.11-1.17.24a12.34,12.34,0,0,0-3.35,1.55l.26.16c.1.07,0,.24-.11.18l-.39-.21c-.22.12-.43.25-.66.36s-.21-.11-.11-.18l.51-.32A13.76,13.76,0,0,0,67.25,42c-.38-.09-.77-.17-1.17-.23a14.21,14.21,0,0,1,3.61,1.7s0,.1,0,.07A13.4,13.4,0,0,0,65,41.71a26.84,26.84,0,0,1,3.8,1.73.08.08,0,0,1-.06.14A23.32,23.32,0,0,0,64,41.7a11.65,11.65,0,0,0-2-.27h-.49a23.88,23.88,0,0,1,6.17,2.16c.07,0,0,.13,0,.1-2.54-1-5-2.08-7.74-2-.36.08-.74.18-1.11.3A16.15,16.15,0,0,1,66,43.61ZM57.12,82.17a0,0,0,0,1-.06-.06,6.14,6.14,0,0,1,1.17-.85c.06,0,.11.06.05.09A6.24,6.24,0,0,0,57.12,82.17ZM60.46,78a.08.08,0,1,1,.08.13c-.65.44-1.48.52-2.17.91a.07.07,0,1,1-.07-.12C59,78.51,59.76,78.34,60.46,78Zm-1-.24a1,1,0,0,0,.71-.32c0-.05.13,0,.09.07a.88.88,0,0,1-.8.35C59.36,77.85,59.36,77.76,59.42,77.75Zm1,1.54c-.52.25-1.07.41-1.59.65-.07,0-.13-.07-.06-.1.51-.26,1-.44,1.57-.68C60.47,79.12,60.55,79.24,60.46,79.29ZM76.14,89.65c-.32-1.33-1.18-2.43-1.62-3.72-.06-.19.23-.27.3-.08a28.49,28.49,0,0,1,1.38,3.78S76.15,89.68,76.14,89.65Zm.21-2.72a3.65,3.65,0,0,1-.52-1.35c0-.11.15-.16.18,0a4.75,4.75,0,0,0,.48,1.32A.08.08,0,0,1,76.35,86.93Zm2.58,1.17c-.75-1-1.48-2-2.28-2.94a.15.15,0,0,1,.21-.21A16.84,16.84,0,0,1,79.08,88C79.15,88.11,79,88.19,78.93,88.1Zm11.16-13c.11,0,.11.18,0,.17-2.65-.24-5.27.26-7.92.19a.2.2,0,0,1,0-.39A67.51,67.51,0,0,1,90.09,75.14ZM82.25,77a4.31,4.31,0,0,1,2,.42s0,.11,0,.09c-.65-.21-1.34-.22-2-.42C82.2,77.08,82.21,77,82.25,77Zm-.22-.7c-.1,0-.17-.13-.07-.17a2.15,2.15,0,0,1,1.82.11c.06,0,0,.13,0,.11A2.57,2.57,0,0,0,82,76.31Zm3.85-11.63c.05,0,.13,0,.08.08-1.17,1.2-2.37,2.35-3.65,3.43-.08.07-.19,0-.11-.11C83.45,67,84.68,65.85,85.88,64.68Zm-3.44,5.39a4.34,4.34,0,0,1-.43.23.18.18,0,0,1-.18-.32,3.51,3.51,0,0,1,.4-.27C82.46,69.58,82.67,69.94,82.44,70.07Zm1-9.07c.06-.07.17,0,.11.11a37.13,37.13,0,0,1-4.84,5.41c-.07.06-.15,0-.1-.1C80.24,64.62,81.9,62.87,83.45,61ZM81,66.3a6.82,6.82,0,0,0-1.3,1.33c-.09.1-.24,0-.18-.13a4.51,4.51,0,0,1,1.39-1.36C81,66.08,81.06,66.23,81,66.3ZM78.35,65a15.33,15.33,0,0,1,1-1.33s.12,0,.08.07a14.82,14.82,0,0,0-.89,1.34A.08.08,0,0,1,78.35,65Zm-12.16.2a1.21,1.21,0,0,1,.29.56l.39-.18a2,2,0,0,0-.18-.5.07.07,0,0,1,.13-.07,2,2,0,0,1,.21.51l.57-.19c-.06-.63-.24-1.22-.31-1.87,0,0,.09-.07.1,0,.1.6.4,1.19.47,1.79a8.6,8.6,0,0,1,1-.25c-.06-1.21-.87-2.34-.59-3.55,0-.08.15,0,.13,0-.25,1.23.74,2.25.74,3.45.29,0,.57-.1.85-.13a.13.13,0,0,1,0-.09c-.19-1.49-.76-2.77-.57-4.29a35.22,35.22,0,0,0,.56-3.54.07.07,0,0,1,.13,0c0,1.36-.57,2.72-.42,4.06s.7,2.48.58,3.77a.12.12,0,0,1,0,.08c.21,0,.42,0,.63,0,.21-1.68-.51-3.29-.25-5,.33-2.14.86-4.14.52-6.33,0-.1.14-.15.16,0a22,22,0,0,1-.1,5.73c-.13,1.9.51,3.75.17,5.61.26,0,.52,0,.77,0a65.27,65.27,0,0,0,.39-7.91,0,0,0,0,1,0,0c.23,2.43.78,5.57-.08,7.94h.09c.2,0,.38.08.58.12a13.86,13.86,0,0,0,.33-5.13c0-.07.09-.11.11,0a11.06,11.06,0,0,1,.22,3.09A6.42,6.42,0,0,1,73.44,65l.55.13a7.63,7.63,0,0,0,.57-3.33,0,0,0,1,1,.06,0,6.78,6.78,0,0,1-.32,3.45l.68.22a5.75,5.75,0,0,1,.19-1.1.09.09,0,1,1,.17,0c-.06.38-.09.77-.13,1.15q.32.14.63.3a.63.63,0,0,0,0-.45c0-.11.13-.14.16,0A.89.89,0,0,1,76,66a11.18,11.18,0,0,1,1.22.72,11.45,11.45,0,0,1,2.95,3.06,10.34,10.34,0,0,1,1.32,3c0,.15.07.29.1.42a9.93,9.93,0,0,1,4-1c.08,0,.08.14,0,.14a11.08,11.08,0,0,0-3.87,1s0,0,0,0c0,.22.08.42.1.61a6.84,6.84,0,0,1,.09.89l0,.75,0,.74a6.84,6.84,0,0,1-.09.89,6.47,6.47,0,0,1-.11.66,25.14,25.14,0,0,1,5,1.3c.1,0,.06.19,0,.16-1.67-.49-3.34-.9-5-1.31l-.09.38-.1.31h.07s0,.06,0,.06h-.09a12.38,12.38,0,0,1-.49,1.29.1.1,0,0,1,.07,0,6.32,6.32,0,0,0,1.78,1s0,.1,0,.08a4.61,4.61,0,0,1-1.89-1h0a9,9,0,0,1-.64,1.16,11.42,11.42,0,0,1-1.4,1.73c.44.54.8,1.14,1.2,1.71,0,0,0,0,0,0a8.56,8.56,0,0,1-1.3-1.62c-.18.18-.36.36-.56.54,1.67,2.59,3.92,4.71,5.79,7.15,0,0,0,0,0,0-2-2.33-4.72-4.14-6-7-.2.17-.41.34-.63.5a11,11,0,0,1-3.76,1.64c0,.85.37,1.65.43,2.5h0a16.56,16.56,0,0,1-.55-2.47c-.27.06-.53.13-.81.17h-.09c.07.63.26,1.24.28,1.88a.07.07,0,0,1-.13,0c0-.64-.22-1.24-.31-1.87-.34,0-.69.07-1,.08a35.79,35.79,0,0,1-.36,8.14c0,.06-.12.05-.11,0,.25-2.62-.71-5.59.14-8.12l-.8,0a17.45,17.45,0,0,1-.4,1.77c0,.06-.11,0-.1,0,.14-.58.24-1.17.35-1.75l-.21,0-.27,0v0c-.42.91-.7,1.86-1,2.8,0,0,0,0,0,0a11.58,11.58,0,0,1,.95-2.84,9.37,9.37,0,0,1-.92-.19,17.78,17.78,0,0,0-1.83,4.54s0,0,0,0A10.66,10.66,0,0,1,68.22,86,11.91,11.91,0,0,1,67,85.54c-.24.65-.38,1.34-.68,2,0,.08-.14,0-.11-.06a12.57,12.57,0,0,0,.54-2c-.21-.09-.42-.19-.62-.3a8.5,8.5,0,0,1-.91,1.68s-.1,0-.07,0A17.09,17.09,0,0,0,66,85.05c-.16-.09-.32-.17-.47-.27a7.09,7.09,0,0,1-1.09,1.41c-.07.07-.17,0-.11-.11a14.17,14.17,0,0,0,1.06-1.39c-.24-.15-.49-.32-.73-.49-.91,1.7-2.65,2.88-3.73,4.48a20.3,20.3,0,0,1-3.26,4.16s-.11,0-.06-.07a23.49,23.49,0,0,0,3.38-4.66c1-1.47,2.29-2.71,3.4-4.11l-.06,0c-.16-.13-.29-.29-.44-.43,0,0,0,0,0,0-.89.85-1.47,2-2.37,2.8S59.6,88,58.73,88.86a.08.08,0,0,1-.11-.11c.92-1,2-1.85,2.88-2.87.75-.83,1.2-1.88,2-2.65h0c-.14-.13-.28-.25-.41-.39a8.67,8.67,0,0,0-1.57,1.46,9.85,9.85,0,0,1-1.4,1.49c-.07.06-.19,0-.11-.11a12.48,12.48,0,0,0,1.62-1.79A4.87,4.87,0,0,1,63,82.63c-.28-.32-.55-.65-.8-1-.09-.14-.16-.3-.25-.45,0,0,0,0,0,0a8,8,0,0,0-1.67,1.47c-.05,0-.13,0-.08-.08a6.93,6.93,0,0,1,1.66-1.54h.05a9.89,9.89,0,0,1-.72-1.46c-.49.38-1.12.49-1.59.89a0,0,0,0,1-.05,0,6.33,6.33,0,0,1,1.58-1h0c-.1-.26-.22-.5-.31-.76a11.21,11.21,0,0,1-.4-2c-2.43,1-4.91,1.88-7.35,2.84-.06,0-.1-.08,0-.1,2.43-1.06,4.85-2.14,7.3-3.16,0,0,0,0,0,0s0-.2,0-.3c-.79.18-1.59.33-2.37.54,0,0-.06,0,0-.07a16.25,16.25,0,0,1,2.38-.7,2.45,2.45,0,0,1,0-.27c0-.15,0-.29,0-.43a24.27,24.27,0,0,0-4.87,1.35h0a23.92,23.92,0,0,1,4.88-1.63h0c0-.32.06-.63.11-.95-1.92.51-4,.28-5.91.69,0,0,0,0,0-.07,1.92-.54,3.94-.5,5.88-1a.16.16,0,0,1,.1,0c0-.14.05-.29.08-.43a28,28,0,0,0-4.06-.81,0,0,0,0,1,0,0,9.49,9.49,0,0,1,4.12.64c.05-.19.09-.39.15-.57L60.9,72a4.36,4.36,0,0,1-2.1-.37,13.74,13.74,0,0,0-3.21-.87.06.06,0,1,1,0-.12,17.31,17.31,0,0,1,2.93.6c.85.18,1.69.25,2.54.37a10.58,10.58,0,0,1,.85-1.72.12.12,0,0,1-.16,0,10.26,10.26,0,0,1-.8-1.22,5.35,5.35,0,0,0-1.07-1.16c-.05,0,0-.12.07-.09a5.06,5.06,0,0,1,2,2.35v0c.07-.11.13-.24.2-.35a.94.94,0,0,0,.09-.12h0c-.41-1.23-.51-2.39-1.59-3.26,0,0,0,0,0,0a4.75,4.75,0,0,1,1.72,3.12c.22-.3.45-.6.7-.88-.53-1-.75-2.09-1.25-3.08a24.09,24.09,0,0,1-1.28-2.47,0,0,0,0,1,0,0c.44.95,1.12,1.76,1.57,2.71s.66,1.8,1.11,2.66c.22-.23.45-.44.68-.65-.79-3.42-3.09-5.7-4.59-8.76,0-.07,0-.12.09-.06,1.41,2.6,4.79,5.33,4.88,8.47.29-.22.59-.42.89-.62a7.92,7.92,0,0,0-1.77-4.29s0-.11.07-.06a9,9,0,0,1,2,4.15c.25-.15.5-.28.76-.41a1.25,1.25,0,0,0-.16-.62S66.17,65.19,66.19,65.21ZM82.8,79.87a2.8,2.8,0,0,0-1.3-.34c-.07,0-.07-.12,0-.12a2.76,2.76,0,0,1,1.38.33C83,79.79,82.88,79.91,82.8,79.87Zm-2.55,1.57a.1.1,0,0,1,.16-.12c.65.72,1.54,1.09,2.22,1.77.06.06,0,.14-.09.09C81.86,82.57,80.73,82.27,80.25,81.44Zm.35,2.1a0,0,0,1,1,0,0c-.37-.33-.85-.53-1.19-.89,0-.05,0-.12.07-.09A5,5,0,0,1,80.6,83.54Zm.14-2.63a3.48,3.48,0,0,0,.88.59c.08,0,0,.16-.07.11a4.29,4.29,0,0,1-.94-.57C80.52,81,80.65,80.83,80.74,80.91Zm-20.67.36c.42-.27.81-.58,1.24-.85.07,0,.13.07.06.11-.43.25-.83.55-1.26.81A0,0,0,0,1,60.07,81.27Zm.8,2.06a4,4,0,0,1,1.53-1.2c.1,0,.17.13.07.18A4.86,4.86,0,0,0,61,83.44C60.91,83.52,60.8,83.41,60.87,83.33Zm-.6-13.75a3.77,3.77,0,0,1,1.2.76.06.06,0,0,1-.09.09,4.26,4.26,0,0,0-1.15-.74C60.17,69.66,60.21,69.56,60.27,69.58Zm.28-4.52s.06-.06.07,0a1.21,1.21,0,0,0,.57.63c.05,0,0,.11,0,.08A1.33,1.33,0,0,1,60.55,65.06Zm1.37,1.45a0,0,0,0,1,0,.09A0,0,0,0,1,61.92,66.51Z"/></g></g></svg>